G04*
G04 #@! TF.GenerationSoftware,Altium Limited,Altium Designer,23.8.1 (32)*
G04*
G04 Layer_Physical_Order=4*
G04 Layer_Color=16711680*
%FSLAX43Y43*%
%MOMM*%
G71*
G04*
G04 #@! TF.SameCoordinates,8A790615-D0E5-43D8-8956-367088579B57*
G04*
G04*
G04 #@! TF.FilePolarity,Positive*
G04*
G01*
G75*
%ADD11C,0.200*%
G04:AMPARAMS|DCode=24|XSize=0.5mm|YSize=0.6mm|CornerRadius=0.125mm|HoleSize=0mm|Usage=FLASHONLY|Rotation=0.000|XOffset=0mm|YOffset=0mm|HoleType=Round|Shape=RoundedRectangle|*
%AMROUNDEDRECTD24*
21,1,0.500,0.350,0,0,0.0*
21,1,0.250,0.600,0,0,0.0*
1,1,0.250,0.125,-0.175*
1,1,0.250,-0.125,-0.175*
1,1,0.250,-0.125,0.175*
1,1,0.250,0.125,0.175*
%
%ADD24ROUNDEDRECTD24*%
G04:AMPARAMS|DCode=25|XSize=0.7mm|YSize=1mm|CornerRadius=0.175mm|HoleSize=0mm|Usage=FLASHONLY|Rotation=270.000|XOffset=0mm|YOffset=0mm|HoleType=Round|Shape=RoundedRectangle|*
%AMROUNDEDRECTD25*
21,1,0.700,0.650,0,0,270.0*
21,1,0.350,1.000,0,0,270.0*
1,1,0.350,-0.325,-0.175*
1,1,0.350,-0.325,0.175*
1,1,0.350,0.325,0.175*
1,1,0.350,0.325,-0.175*
%
%ADD25ROUNDEDRECTD25*%
G04:AMPARAMS|DCode=26|XSize=0.5mm|YSize=0.6mm|CornerRadius=0.125mm|HoleSize=0mm|Usage=FLASHONLY|Rotation=270.000|XOffset=0mm|YOffset=0mm|HoleType=Round|Shape=RoundedRectangle|*
%AMROUNDEDRECTD26*
21,1,0.500,0.350,0,0,270.0*
21,1,0.250,0.600,0,0,270.0*
1,1,0.250,-0.175,-0.125*
1,1,0.250,-0.175,0.125*
1,1,0.250,0.175,0.125*
1,1,0.250,0.175,-0.125*
%
%ADD26ROUNDEDRECTD26*%
G04:AMPARAMS|DCode=27|XSize=0.7mm|YSize=1mm|CornerRadius=0.175mm|HoleSize=0mm|Usage=FLASHONLY|Rotation=0.000|XOffset=0mm|YOffset=0mm|HoleType=Round|Shape=RoundedRectangle|*
%AMROUNDEDRECTD27*
21,1,0.700,0.650,0,0,0.0*
21,1,0.350,1.000,0,0,0.0*
1,1,0.350,0.175,-0.325*
1,1,0.350,-0.175,-0.325*
1,1,0.350,-0.175,0.325*
1,1,0.350,0.175,0.325*
%
%ADD27ROUNDEDRECTD27*%
%ADD34R,0.600X0.800*%
%ADD39R,0.500X0.600*%
G04:AMPARAMS|DCode=40|XSize=0.25mm|YSize=0.4mm|CornerRadius=0.063mm|HoleSize=0mm|Usage=FLASHONLY|Rotation=0.000|XOffset=0mm|YOffset=0mm|HoleType=Round|Shape=RoundedRectangle|*
%AMROUNDEDRECTD40*
21,1,0.250,0.275,0,0,0.0*
21,1,0.125,0.400,0,0,0.0*
1,1,0.125,0.063,-0.138*
1,1,0.125,-0.063,-0.138*
1,1,0.125,-0.063,0.138*
1,1,0.125,0.063,0.138*
%
%ADD40ROUNDEDRECTD40*%
%ADD41R,0.600X0.500*%
%ADD43R,0.800X0.300*%
%ADD44R,0.300X0.800*%
%ADD45R,1.500X1.500*%
%ADD77C,0.600*%
%ADD78C,0.200*%
%ADD79C,0.600*%
%ADD80C,0.400*%
%ADD81C,1.200*%
%ADD82R,1.200X1.200*%
%ADD83R,1.200X1.200*%
%ADD84C,1.000*%
%ADD85O,1.800X1.000*%
%ADD88C,0.300*%
%ADD89R,0.350X1.600*%
%ADD90R,2.150X1.000*%
%ADD91R,2.150X3.300*%
%ADD92O,1.400X0.600*%
%ADD93R,0.600X1.000*%
G36*
X12877Y29819D02*
X12854Y29903D01*
X12803Y30050D01*
X12776Y30114D01*
X12747Y30171D01*
X12717Y30221D01*
X12686Y30265D01*
X12653Y30302D01*
X12619Y30333D01*
X12583Y30357D01*
X12683Y30531D01*
X12721Y30512D01*
X12765Y30498D01*
X12814Y30488D01*
X12868Y30483D01*
X12927Y30483D01*
X12990Y30487D01*
X13059Y30495D01*
X13212Y30526D01*
X13296Y30548D01*
X12877Y29819D01*
D02*
G37*
G36*
X23549Y29374D02*
X23446Y29385D01*
X23002Y29408D01*
X22956Y29404D01*
X22919Y29398D01*
X22890Y29390D01*
X22756Y29554D01*
X22799Y29573D01*
X22839Y29599D01*
X22875Y29631D01*
X22907Y29669D01*
X22936Y29714D01*
X22960Y29764D01*
X22981Y29821D01*
X22998Y29883D01*
X23011Y29952D01*
X23021Y30027D01*
X23549Y29374D01*
D02*
G37*
G36*
X26273Y29381D02*
X25765Y29260D01*
X25553Y29409D01*
X25584Y29417D01*
X25609Y29430D01*
X25628Y29450D01*
X25641Y29476D01*
X25648Y29508D01*
X25649Y29545D01*
X25645Y29589D01*
X25635Y29639D01*
X25619Y29694D01*
X25597Y29756D01*
X26273Y29381D01*
D02*
G37*
G36*
X15992Y29370D02*
X15905Y29369D01*
X15750Y29359D01*
X15681Y29349D01*
X15619Y29336D01*
X15562Y29320D01*
X15511Y29302D01*
X15467Y29280D01*
X15428Y29254D01*
X15396Y29226D01*
X15254Y29368D01*
X15282Y29400D01*
X15307Y29439D01*
X15329Y29484D01*
X15348Y29534D01*
X15364Y29591D01*
X15377Y29654D01*
X15387Y29722D01*
X15397Y29877D01*
X15398Y29964D01*
X15992Y29370D01*
D02*
G37*
G36*
X5763Y29371D02*
X5746Y29365D01*
X5731Y29355D01*
X5718Y29341D01*
X5707Y29323D01*
X5698Y29301D01*
X5691Y29275D01*
X5686Y29245D01*
X5683Y29211D01*
X5682Y29173D01*
X5482D01*
X5481Y29211D01*
X5478Y29245D01*
X5473Y29275D01*
X5466Y29301D01*
X5457Y29323D01*
X5446Y29341D01*
X5433Y29355D01*
X5418Y29365D01*
X5401Y29371D01*
X5382Y29373D01*
X5782D01*
X5763Y29371D01*
D02*
G37*
G36*
X8929Y29714D02*
X8897Y29565D01*
X8888Y29497D01*
X8884Y29434D01*
X8885Y29376D01*
X8890Y29322D01*
X8900Y29273D01*
X8915Y29229D01*
X8935Y29190D01*
X8759Y29094D01*
X8735Y29129D01*
X8704Y29162D01*
X8666Y29194D01*
X8622Y29226D01*
X8571Y29256D01*
X8513Y29286D01*
X8449Y29314D01*
X8300Y29367D01*
X8216Y29392D01*
X8952Y29796D01*
X8929Y29714D01*
D02*
G37*
G36*
X9641Y30462D02*
X9728Y30485D01*
X10041Y30468D01*
X10101Y30356D01*
X10079Y30317D01*
X10074Y30300D01*
X10918D01*
Y29970D01*
X11248D01*
Y29127D01*
X11265Y29131D01*
X11470Y29250D01*
X11638Y29417D01*
X11715Y29551D01*
X11869Y29577D01*
X12283Y29162D01*
X12337Y29109D01*
X12336Y29092D01*
X12352Y29053D01*
X12353Y29053D01*
X12456Y28976D01*
X12459Y28972D01*
X12752Y28747D01*
X13092Y28606D01*
X13458Y28558D01*
X13823Y28606D01*
X14091Y28717D01*
X14188Y28620D01*
X14084Y28370D01*
X13924Y28315D01*
X13844Y28362D01*
X13589Y28430D01*
X13326D01*
X13072Y28362D01*
X12844Y28230D01*
X12658Y28044D01*
X12526Y27816D01*
X12458Y27562D01*
Y27298D01*
X12526Y27044D01*
X12658Y26816D01*
X12837Y26637D01*
X12833Y26590D01*
X12812Y26510D01*
X12152D01*
X12129Y26505D01*
X11755Y26542D01*
X11654Y26573D01*
X11618Y26716D01*
X11718Y26816D01*
X11850Y27044D01*
X11918Y27298D01*
Y27562D01*
X11850Y27816D01*
X11718Y28044D01*
X11532Y28230D01*
X11304Y28362D01*
X11049Y28430D01*
X10786D01*
X10532Y28362D01*
X10304Y28230D01*
X10198Y28124D01*
X10038Y28144D01*
X9293Y29389D01*
X9292Y29398D01*
X9292Y29423D01*
X9294Y29457D01*
X9299Y29495D01*
X9325Y29616D01*
X9345Y29686D01*
X9348Y29727D01*
X9378Y29838D01*
Y30102D01*
X9311Y30351D01*
X9306Y30376D01*
X9364Y30480D01*
X9525Y30486D01*
X9641Y30462D01*
D02*
G37*
G36*
X31548Y28889D02*
Y3123D01*
X31429Y3089D01*
X31278Y3453D01*
X31059Y3781D01*
X30781Y4060D01*
X30453Y4278D01*
X30089Y4429D01*
X29703Y4506D01*
X29309D01*
X28923Y4429D01*
X28559Y4278D01*
X28231Y4060D01*
X27952Y3781D01*
X27734Y3453D01*
X27583Y3089D01*
X27506Y2703D01*
Y2309D01*
X27583Y1923D01*
X27734Y1559D01*
X27952Y1231D01*
X28231Y952D01*
X28559Y734D01*
X28923Y583D01*
X28888Y465D01*
X3124D01*
X3089Y583D01*
X3453Y734D01*
X3781Y952D01*
X4060Y1231D01*
X4278Y1559D01*
X4429Y1923D01*
X4506Y2309D01*
Y2703D01*
X4429Y3089D01*
X4278Y3453D01*
X4060Y3781D01*
X3781Y4060D01*
X3689Y4121D01*
X3726Y4242D01*
X7157D01*
X7228Y4256D01*
X7300Y4268D01*
X7410Y4309D01*
X7416Y4313D01*
X7423Y4314D01*
X7483Y4355D01*
X7545Y4393D01*
X7549Y4399D01*
X7555Y4403D01*
X7596Y4463D01*
X7638Y4522D01*
X7640Y4529D01*
X7644Y4535D01*
X7658Y4606D01*
X7675Y4677D01*
X7799Y4691D01*
X8467D01*
Y5610D01*
X8572Y5681D01*
X8900Y5550D01*
Y5000D01*
X11200D01*
Y5629D01*
X11875Y6304D01*
X11992Y6255D01*
Y5850D01*
X12023Y5694D01*
X12112Y5562D01*
X12244Y5473D01*
X12400Y5442D01*
X13568D01*
X13605Y5437D01*
X13685Y5353D01*
X13691Y5329D01*
Y5075D01*
X13728Y4890D01*
X13833Y4733D01*
X13990Y4628D01*
X14077Y4610D01*
X14175Y4591D01*
X14235D01*
Y5250D01*
X14500D01*
Y5515D01*
X15291D01*
X15276Y5594D01*
X15348Y5709D01*
X15413Y5695D01*
X15455Y5695D01*
X15495Y5687D01*
X15600D01*
Y5600D01*
Y5200D01*
X16975D01*
X18350D01*
Y5294D01*
Y5687D01*
X18762D01*
X18919Y5718D01*
X19051Y5807D01*
X19139Y5939D01*
X19170Y6095D01*
Y8300D01*
X19139Y8456D01*
X19123Y8480D01*
X19190Y8608D01*
X21260Y8638D01*
X21350Y8549D01*
Y6294D01*
X21292Y6250D01*
X21108D01*
X20930Y6202D01*
X20770Y6110D01*
X20640Y5980D01*
X20548Y5820D01*
X20500Y5642D01*
Y5458D01*
X20548Y5280D01*
X20585Y5215D01*
X20640Y5120D01*
X20770Y4990D01*
X20930Y4898D01*
X21108Y4850D01*
X21292D01*
X21470Y4898D01*
X21630Y4990D01*
X21760Y5120D01*
X21777Y5150D01*
X24300D01*
Y7995D01*
X24427Y8067D01*
X24550Y8042D01*
X25000D01*
Y7800D01*
X25764D01*
X25781Y7673D01*
X25653Y7639D01*
X25447Y7520D01*
X25280Y7353D01*
X25161Y7147D01*
X25157Y7130D01*
X26000D01*
X26843D01*
X26839Y7147D01*
X26720Y7353D01*
X26553Y7520D01*
X26347Y7639D01*
X26219Y7673D01*
X26236Y7800D01*
X27000D01*
Y8042D01*
X27350D01*
X27506Y8073D01*
X27638Y8162D01*
X27727Y8294D01*
X27758Y8450D01*
Y10200D01*
X27758Y10200D01*
X27727Y10356D01*
X27638Y10488D01*
X27038Y11088D01*
X26906Y11177D01*
X26750Y11208D01*
X26750Y11208D01*
X26250D01*
X26250Y11208D01*
Y11392D01*
X26202Y11570D01*
X26110Y11730D01*
X25980Y11860D01*
X25820Y11952D01*
X25642Y12000D01*
X25458D01*
X25280Y11952D01*
X25120Y11860D01*
X25098Y11838D01*
X25031Y11843D01*
X24525Y11965D01*
X24044Y12164D01*
X23600Y12436D01*
X23310Y12684D01*
X23235Y12788D01*
X23231Y12798D01*
X23218Y12804D01*
X23218Y12804D01*
X23186Y12803D01*
X23130Y12863D01*
X21817Y14245D01*
X21800Y14263D01*
X21800Y14263D01*
X21749Y14343D01*
X21742Y14346D01*
X21714Y14345D01*
X21640Y14412D01*
X21366Y14663D01*
X21373Y14730D01*
X21397Y14807D01*
X21510Y14920D01*
X21585Y15050D01*
X21782D01*
X21786Y15032D01*
X21965Y14602D01*
X22208Y14204D01*
X22347Y14042D01*
X22365Y14007D01*
X22365Y14007D01*
X22387Y13987D01*
X22404Y13963D01*
X22425Y13949D01*
X22508Y13885D01*
X22517Y13878D01*
X22518Y13877D01*
X22561Y13844D01*
X22732Y13774D01*
X22856Y13757D01*
X22913Y13746D01*
X25386D01*
X25442Y13757D01*
X25569Y13774D01*
X25739Y13844D01*
X25885Y13956D01*
X25995Y14100D01*
X26200D01*
Y14203D01*
X26125D01*
X26125Y14260D01*
X26111Y14491D01*
X26107Y14500D01*
X26103Y14503D01*
X26447D01*
X26443Y14500D01*
X26439Y14491D01*
X26436Y14476D01*
X26433Y14455D01*
X26429Y14395D01*
X26427Y14300D01*
X26772D01*
X26761Y14491D01*
X26757Y14500D01*
X26753Y14503D01*
X27097D01*
X27093Y14500D01*
X27089Y14491D01*
X27086Y14476D01*
X27083Y14455D01*
X27079Y14395D01*
X27075Y14203D01*
X27000D01*
Y14100D01*
X28150D01*
Y16500D01*
X27000D01*
Y16300D01*
X26200D01*
Y16500D01*
X25487D01*
X25438Y16617D01*
X27192Y18371D01*
X27193Y18373D01*
X27502Y18735D01*
X27752Y19143D01*
X27935Y19585D01*
X27963Y19700D01*
X28150D01*
Y20102D01*
X28151Y20110D01*
X28150Y20117D01*
Y22100D01*
X28150Y22100D01*
X28150D01*
X28190Y22213D01*
X28862Y22885D01*
X28863Y22887D01*
X28865Y22889D01*
X28947Y22973D01*
X28968Y23004D01*
X28994Y23031D01*
X29112Y23207D01*
X29128Y23244D01*
X29150Y23278D01*
X29234Y23481D01*
X29242Y23520D01*
X29257Y23557D01*
X29300Y23773D01*
Y23813D01*
X29308Y23852D01*
X29308Y23962D01*
X29308Y24370D01*
X29298Y24421D01*
X29277Y24526D01*
X29277Y24526D01*
X29223Y24654D01*
X29135Y24787D01*
X29153Y24826D01*
X29188Y24862D01*
X29332Y25006D01*
X29351Y25033D01*
X29375Y25056D01*
X29445Y25154D01*
X29465Y25197D01*
X29491Y25236D01*
X29513Y25288D01*
X29521Y25328D01*
X29536Y25365D01*
X29550Y25435D01*
X29550Y25475D01*
X29558Y25514D01*
X29558Y25550D01*
X29558Y26031D01*
X29558Y26031D01*
X29558Y26249D01*
X29550Y26289D01*
X29550Y26329D01*
X29465Y26758D01*
X29449Y26795D01*
X29442Y26834D01*
X29274Y27238D01*
X29252Y27271D01*
X29237Y27309D01*
X29165Y27415D01*
X29236Y27521D01*
X29309Y27506D01*
X29703D01*
X30089Y27583D01*
X30453Y27734D01*
X30781Y27952D01*
X31059Y28231D01*
X31278Y28559D01*
X31429Y28923D01*
X31548Y28889D01*
D02*
G37*
G36*
X6434Y27611D02*
X6440Y27594D01*
X6450Y27579D01*
X6464Y27566D01*
X6482Y27555D01*
X6505Y27546D01*
X6531Y27539D01*
X6562Y27534D01*
X6596Y27531D01*
X6635Y27530D01*
Y27330D01*
X6596Y27329D01*
X6562Y27326D01*
X6531Y27321D01*
X6505Y27314D01*
X6482Y27305D01*
X6464Y27294D01*
X6450Y27281D01*
X6440Y27266D01*
X6434Y27249D01*
X6432Y27230D01*
Y27630D01*
X6434Y27611D01*
D02*
G37*
G36*
X8737Y26940D02*
X8635Y26823D01*
X8593Y26767D01*
X8558Y26714D01*
X8529Y26663D01*
X8507Y26613D01*
X8491Y26566D01*
X8481Y26521D01*
X8478Y26478D01*
X8278D01*
X8275Y26521D01*
X8265Y26566D01*
X8249Y26613D01*
X8227Y26663D01*
X8198Y26714D01*
X8163Y26767D01*
X8121Y26823D01*
X8019Y26940D01*
X7958Y27002D01*
X8798D01*
X8737Y26940D01*
D02*
G37*
G36*
X15720Y26042D02*
X15679Y26030D01*
X15643Y26017D01*
X15612Y26003D01*
X15585Y25989D01*
X15563Y25973D01*
X15546Y25957D01*
X15533Y25940D01*
X15526Y25923D01*
X15522Y25904D01*
X15524Y25885D01*
X15462Y26202D01*
X15471Y26200D01*
X15482Y26199D01*
X15497Y26200D01*
X15515Y26201D01*
X15560Y26209D01*
X15618Y26222D01*
X15689Y26241D01*
X15720Y26042D01*
D02*
G37*
G36*
X15008Y26183D02*
X14792D01*
X14794Y26186D01*
X14795Y26192D01*
X14796Y26203D01*
X14798Y26235D01*
X14800Y26386D01*
X15000D01*
X15008Y26183D01*
D02*
G37*
G36*
X14508D02*
X14292D01*
X14294Y26186D01*
X14295Y26192D01*
X14296Y26203D01*
X14298Y26235D01*
X14300Y26386D01*
X14500D01*
X14508Y26183D01*
D02*
G37*
G36*
X5317Y26241D02*
X5336Y26211D01*
X5355Y26183D01*
X5375Y26160D01*
X5395Y26140D01*
X5415Y26123D01*
X5436Y26111D01*
X5457Y26101D01*
X5478Y26096D01*
X5500Y26094D01*
X5103Y26097D01*
X5114Y26099D01*
X5122Y26104D01*
X5127Y26113D01*
X5128Y26126D01*
X5127Y26142D01*
X5123Y26161D01*
X5116Y26185D01*
X5105Y26211D01*
X5076Y26276D01*
X5299D01*
X5317Y26241D01*
D02*
G37*
G36*
X8479Y26208D02*
X8482Y26174D01*
X8487Y26143D01*
X8494Y26117D01*
X8503Y26095D01*
X8514Y26076D01*
X8527Y26062D01*
X8542Y26052D01*
X8559Y26046D01*
X8578Y26044D01*
X8178D01*
X8197Y26046D01*
X8214Y26052D01*
X8229Y26062D01*
X8242Y26076D01*
X8253Y26095D01*
X8262Y26117D01*
X8269Y26143D01*
X8274Y26174D01*
X8277Y26208D01*
X8278Y26247D01*
X8478D01*
X8479Y26208D01*
D02*
G37*
G36*
X2989Y26268D02*
X2995Y26252D01*
X3005Y26238D01*
X3019Y26227D01*
X3037Y26218D01*
X3059Y26212D01*
X3085Y26209D01*
X3115Y26208D01*
X3149Y26210D01*
X3188Y26215D01*
Y26013D01*
X3149Y26006D01*
X3115Y25998D01*
X3085Y25989D01*
X3059Y25978D01*
X3037Y25966D01*
X3019Y25952D01*
X3005Y25937D01*
X2995Y25921D01*
X2989Y25903D01*
X2987Y25883D01*
Y26287D01*
X2989Y26268D01*
D02*
G37*
G36*
X1499Y25850D02*
X1497Y25869D01*
X1491Y25886D01*
X1480Y25901D01*
X1466Y25914D01*
X1448Y25925D01*
X1426Y25934D01*
X1399Y25941D01*
X1369Y25946D01*
X1334Y25949D01*
X1296Y25950D01*
Y26150D01*
X1334Y26151D01*
X1369Y26154D01*
X1399Y26159D01*
X1426Y26166D01*
X1448Y26175D01*
X1466Y26186D01*
X1480Y26199D01*
X1491Y26214D01*
X1497Y26231D01*
X1499Y26250D01*
Y25850D01*
D02*
G37*
G36*
X875Y26239D02*
X898Y26220D01*
X921Y26204D01*
X945Y26190D01*
X969Y26177D01*
X995Y26168D01*
X1020Y26160D01*
X1047Y26154D01*
X1074Y26151D01*
X1102Y26150D01*
Y25950D01*
X1074Y25949D01*
X1047Y25946D01*
X1020Y25940D01*
X995Y25932D01*
X969Y25923D01*
X945Y25910D01*
X921Y25896D01*
X898Y25880D01*
X875Y25861D01*
X853Y25840D01*
Y26260D01*
X875Y26239D01*
D02*
G37*
G36*
X13792Y25817D02*
X13784Y25833D01*
X13772Y25847D01*
X13758Y25859D01*
X13740Y25870D01*
X13720Y25879D01*
X13697Y25887D01*
X13670Y25893D01*
X13641Y25897D01*
X13609Y25899D01*
X13573Y25900D01*
Y26100D01*
X13609Y26101D01*
X13641Y26103D01*
X13670Y26107D01*
X13697Y26113D01*
X13720Y26121D01*
X13740Y26130D01*
X13758Y26141D01*
X13772Y26153D01*
X13784Y26167D01*
X13792Y26183D01*
Y25817D01*
D02*
G37*
G36*
X17582Y26066D02*
X17595Y26055D01*
X17609Y26045D01*
X17624Y26036D01*
X17639Y26028D01*
X17655Y26021D01*
X17672Y26015D01*
X17689Y26010D01*
X17708Y26006D01*
X17726Y26003D01*
X17502Y25779D01*
X17499Y25797D01*
X17495Y25816D01*
X17490Y25833D01*
X17484Y25850D01*
X17477Y25866D01*
X17469Y25881D01*
X17460Y25896D01*
X17450Y25910D01*
X17439Y25923D01*
X17428Y25936D01*
X17569Y26077D01*
X17582Y26066D01*
D02*
G37*
G36*
X18276Y26047D02*
X18308Y26031D01*
X18344Y26017D01*
X18386Y26005D01*
X18433Y25995D01*
X18485Y25986D01*
X18605Y25973D01*
X18745Y25968D01*
X18717Y25774D01*
X18751Y25758D01*
X18696Y25627D01*
X18687Y25569D01*
X18671Y25569D01*
X18594Y25389D01*
X18532Y25415D01*
X18362Y25475D01*
X18311Y25488D01*
X18218Y25505D01*
X18176Y25508D01*
X18136Y25508D01*
X18100Y25505D01*
X18212Y25775D01*
X18250Y26064D01*
X18276Y26047D01*
D02*
G37*
G36*
X19783Y25543D02*
X19779Y25545D01*
X19772Y25547D01*
X19762Y25548D01*
X19731Y25551D01*
X19628Y25555D01*
X19594Y25556D01*
X19599Y25956D01*
X19789Y25963D01*
X19783Y25543D01*
D02*
G37*
G36*
X27507Y28208D02*
X27942Y28028D01*
X28334Y27766D01*
X28500Y27600D01*
X28655Y27445D01*
X28897Y27082D01*
X29065Y26678D01*
X29150Y26249D01*
X29150Y26031D01*
X29150D01*
X29150Y26031D01*
X29150Y25550D01*
X29150Y25514D01*
X29136Y25444D01*
X29114Y25392D01*
X29044Y25294D01*
X29044D01*
X29044Y25294D01*
X28900Y25150D01*
X28864Y25114D01*
X28780Y25058D01*
X28687Y25020D01*
X28588Y25000D01*
X28538Y25000D01*
X28191D01*
X28151Y25127D01*
X28245Y25291D01*
X28248Y25300D01*
X27500D01*
X26752D01*
X26755Y25291D01*
X26849Y25127D01*
X26809Y25000D01*
X26000D01*
X24052Y25286D01*
X24023Y25419D01*
X24060Y25445D01*
X24171Y25610D01*
X24177Y25640D01*
X23300D01*
Y25805D01*
X23135D01*
Y26315D01*
X23000D01*
Y26715D01*
X23035Y26744D01*
Y27600D01*
X23300D01*
Y27865D01*
X23959D01*
Y27925D01*
X23922Y28110D01*
X23892Y28157D01*
X23956Y28289D01*
X24110Y28300D01*
X26810Y28300D01*
X27045Y28300D01*
X27507Y28208D01*
D02*
G37*
G36*
X19836Y27956D02*
X19850Y27957D01*
X19974Y27945D01*
X19991Y27938D01*
X20013Y27947D01*
X20139Y27952D01*
X20613Y27911D01*
X20665Y27917D01*
X20722Y27912D01*
X20767Y27901D01*
X21141Y27886D01*
Y27865D01*
X21800D01*
Y27600D01*
X22065D01*
Y26809D01*
X22160Y26828D01*
X22317Y26933D01*
X22422Y27090D01*
X22424Y27100D01*
X22574D01*
X22583Y27051D01*
X22627Y26985D01*
Y26877D01*
X22623Y26872D01*
X22612Y26813D01*
X22594Y26755D01*
X22596Y26735D01*
X22592Y26715D01*
Y26435D01*
X22547Y26416D01*
X22401Y26304D01*
X22289Y26158D01*
X22218Y25988D01*
X22194Y25805D01*
X22218Y25622D01*
X22289Y25452D01*
X22401Y25306D01*
X22334Y25197D01*
X22192Y25235D01*
X22008D01*
X21830Y25187D01*
X21670Y25095D01*
X21540Y24965D01*
X21448Y24805D01*
X21400Y24627D01*
Y24443D01*
X21448Y24265D01*
X21540Y24105D01*
X21670Y23975D01*
X21830Y23883D01*
X22008Y23835D01*
X22192D01*
X22334Y23873D01*
X22401Y23764D01*
X22289Y23618D01*
X22218Y23448D01*
X22194Y23265D01*
X22196Y23249D01*
X22076Y23189D01*
X20284Y24981D01*
X20319Y25126D01*
X20430Y25190D01*
X20560Y25320D01*
X20652Y25480D01*
X20700Y25658D01*
Y25842D01*
X20652Y26020D01*
X20560Y26180D01*
X20430Y26310D01*
X20270Y26402D01*
X20092Y26450D01*
X19908D01*
X19730Y26402D01*
X19668Y26367D01*
X18998Y26376D01*
X18989Y26393D01*
X19034Y26562D01*
X19152Y26630D01*
X19338Y26816D01*
X19470Y27044D01*
X19538Y27298D01*
Y27562D01*
X19472Y27807D01*
X19471Y27839D01*
X19524Y27938D01*
X19826Y27956D01*
X19830Y27967D01*
X19836Y27956D01*
D02*
G37*
G36*
X16229Y24584D02*
X16214Y24610D01*
X16198Y24635D01*
X16180Y24657D01*
X16161Y24678D01*
X16141Y24696D01*
X16120Y24713D01*
X16097Y24728D01*
X16074Y24741D01*
X16048Y24752D01*
X16022Y24761D01*
X16079Y24952D01*
X16106Y24945D01*
X16133Y24941D01*
X16160Y24938D01*
X16187Y24938D01*
X16214Y24941D01*
X16241Y24945D01*
X16268Y24952D01*
X16295Y24961D01*
X16322Y24973D01*
X16349Y24987D01*
X16229Y24584D01*
D02*
G37*
G36*
X13792Y24815D02*
X13785Y24827D01*
X13775Y24837D01*
X13762Y24845D01*
X13745Y24850D01*
X13726Y24853D01*
X13703Y24854D01*
X13677Y24853D01*
X13648Y24849D01*
X13616Y24844D01*
X13581Y24836D01*
X13578Y25047D01*
X13612Y25057D01*
X13671Y25078D01*
X13697Y25090D01*
X13720Y25102D01*
X13740Y25116D01*
X13757Y25131D01*
X13771Y25147D01*
X13783Y25163D01*
X13792Y25181D01*
Y24815D01*
D02*
G37*
G36*
X28558Y24650D02*
X28620D01*
X28748Y24597D01*
X28847Y24498D01*
X28900Y24370D01*
X28900Y23962D01*
X28900Y23852D01*
X28857Y23637D01*
X28773Y23434D01*
X28655Y23257D01*
X28573Y23173D01*
X28573Y23173D01*
X28573Y23173D01*
X27300Y21900D01*
X27055D01*
Y20900D01*
X26795D01*
Y21900D01*
X26405D01*
Y20900D01*
X26145D01*
Y21900D01*
X26100D01*
Y24410D01*
X26146Y24520D01*
X26230Y24604D01*
X26340Y24650D01*
X26400Y24650D01*
Y24650D01*
X26648D01*
D01*
X27500D01*
X28558D01*
D01*
D02*
G37*
G36*
X14508Y24815D02*
X14485Y24805D01*
X14463Y24793D01*
X14441Y24780D01*
X14396Y24749D01*
X14375Y24731D01*
X14331Y24691D01*
X14310Y24669D01*
X14288Y24645D01*
X14142Y24782D01*
X14178Y24824D01*
X14234Y24899D01*
X14255Y24932D01*
X14271Y24962D01*
X14282Y24988D01*
X14288Y25011D01*
X14289Y25031D01*
X14285Y25048D01*
X14276Y25061D01*
X14508Y24815D01*
D02*
G37*
G36*
X15005Y24812D02*
X15002Y24805D01*
X15000Y24794D01*
X14998Y24779D01*
X14994Y24737D01*
X14992Y24608D01*
X14792Y24615D01*
Y24815D01*
X15008D01*
X15005Y24812D01*
D02*
G37*
G36*
X15528Y24861D02*
X15530Y24857D01*
X15533Y24849D01*
X15540Y24821D01*
X15572Y24684D01*
X15385Y24601D01*
X15376Y24638D01*
X15350Y24728D01*
X15340Y24751D01*
X15331Y24771D01*
X15322Y24787D01*
X15312Y24800D01*
X15302Y24809D01*
X15292Y24815D01*
X15527Y24861D01*
X15528Y24861D01*
D02*
G37*
G36*
X7308Y24605D02*
X7307Y24602D01*
X7305Y24596D01*
X7304Y24588D01*
X7303Y24578D01*
X7300Y24534D01*
X7300Y24493D01*
X7100D01*
X7100Y24514D01*
X7095Y24596D01*
X7093Y24602D01*
X7092Y24605D01*
X7090Y24606D01*
X7310D01*
X7308Y24605D01*
D02*
G37*
G36*
X5581Y24604D02*
X5564Y24598D01*
X5549Y24588D01*
X5536Y24574D01*
X5525Y24555D01*
X5516Y24533D01*
X5509Y24507D01*
X5504Y24476D01*
X5501Y24442D01*
X5500Y24403D01*
X5300D01*
X5299Y24442D01*
X5296Y24476D01*
X5291Y24507D01*
X5284Y24533D01*
X5275Y24555D01*
X5264Y24574D01*
X5251Y24588D01*
X5236Y24598D01*
X5219Y24604D01*
X5200Y24606D01*
X5600D01*
X5581Y24604D01*
D02*
G37*
G36*
X8559Y24554D02*
X8542Y24548D01*
X8527Y24538D01*
X8514Y24524D01*
X8503Y24505D01*
X8494Y24483D01*
X8487Y24457D01*
X8482Y24426D01*
X8479Y24392D01*
X8478Y24353D01*
X8278D01*
X8277Y24392D01*
X8274Y24426D01*
X8269Y24457D01*
X8262Y24483D01*
X8253Y24505D01*
X8242Y24524D01*
X8229Y24538D01*
X8214Y24548D01*
X8197Y24554D01*
X8178Y24556D01*
X8578D01*
X8559Y24554D01*
D02*
G37*
G36*
X22336Y24724D02*
X22359Y24705D01*
X22382Y24689D01*
X22406Y24675D01*
X22430Y24663D01*
X22455Y24653D01*
X22481Y24645D01*
X22507Y24640D01*
X22553Y24644D01*
X22587Y24651D01*
X22616Y24660D01*
X22640Y24670D01*
X22658Y24683D01*
X22671Y24698D01*
X22679Y24715D01*
X22682Y24733D01*
Y24337D01*
X22679Y24355D01*
X22671Y24372D01*
X22658Y24387D01*
X22640Y24400D01*
X22616Y24410D01*
X22587Y24419D01*
X22553Y24426D01*
X22514Y24431D01*
X22513Y24431D01*
X22508Y24431D01*
X22481Y24425D01*
X22455Y24417D01*
X22430Y24407D01*
X22406Y24395D01*
X22382Y24381D01*
X22359Y24365D01*
X22336Y24346D01*
X22314Y24325D01*
Y24745D01*
X22336Y24724D01*
D02*
G37*
G36*
X14993Y24340D02*
X14996Y24312D01*
X15002Y24286D01*
X15009Y24260D01*
X15019Y24235D01*
X15031Y24210D01*
X15046Y24187D01*
X15062Y24163D01*
X15081Y24141D01*
X15102Y24119D01*
X14682D01*
X14703Y24141D01*
X14721Y24163D01*
X14738Y24187D01*
X14752Y24210D01*
X14764Y24235D01*
X14774Y24260D01*
X14782Y24286D01*
X14787Y24312D01*
X14791Y24340D01*
X14792Y24367D01*
X14992D01*
X14993Y24340D01*
D02*
G37*
G36*
X1093Y25357D02*
Y25350D01*
X2963D01*
X2992Y25279D01*
X3005Y25223D01*
X3002Y25219D01*
X2741Y24913D01*
X2523Y24559D01*
X2364Y24174D01*
X2336Y24055D01*
X1093D01*
Y24043D01*
X966Y23970D01*
X909Y24002D01*
X731Y24050D01*
X547D01*
X465Y24113D01*
Y25287D01*
X547Y25350D01*
X731D01*
X909Y25398D01*
X966Y25430D01*
X1093Y25357D01*
D02*
G37*
G36*
X2903Y23848D02*
X2897Y23810D01*
X2894Y23776D01*
X2893Y23747D01*
X2895Y23721D01*
X2900Y23699D01*
X2908Y23681D01*
X2918Y23667D01*
X2932Y23657D01*
X2948Y23651D01*
X2967Y23649D01*
X2560D01*
X2579Y23651D01*
X2597Y23657D01*
X2614Y23667D01*
X2630Y23681D01*
X2644Y23699D01*
X2658Y23721D01*
X2669Y23747D01*
X2680Y23777D01*
X2689Y23811D01*
X2698Y23849D01*
X2903Y23848D01*
D02*
G37*
G36*
X15027Y23637D02*
X15000Y23622D01*
X14975Y23606D01*
X14953Y23589D01*
X14932Y23571D01*
X14913Y23551D01*
X14896Y23530D01*
X14881Y23508D01*
X14867Y23484D01*
X14856Y23459D01*
X14846Y23433D01*
X14656Y23494D01*
X14663Y23521D01*
X14668Y23548D01*
X14671Y23575D01*
X14672Y23602D01*
X14670Y23629D01*
X14666Y23656D01*
X14659Y23683D01*
X14651Y23710D01*
X14640Y23737D01*
X14627Y23764D01*
X15027Y23637D01*
D02*
G37*
G36*
X14294Y23665D02*
X14277Y23641D01*
X14262Y23617D01*
X14249Y23592D01*
X14238Y23567D01*
X14230Y23541D01*
X14224Y23515D01*
X14220Y23488D01*
X14218Y23461D01*
X14218Y23433D01*
X14019Y23422D01*
X14016Y23449D01*
X14011Y23476D01*
X14004Y23503D01*
X13995Y23528D01*
X13984Y23552D01*
X13970Y23576D01*
X13955Y23599D01*
X13937Y23622D01*
X13917Y23643D01*
X13895Y23664D01*
X14314Y23688D01*
X14294Y23665D01*
D02*
G37*
G36*
X24276Y23051D02*
X24255Y23073D01*
X24233Y23092D01*
X24211Y23109D01*
X24188Y23124D01*
X24164Y23136D01*
X24139Y23147D01*
X24114Y23155D01*
X24089Y23160D01*
X24047Y23156D01*
X24013Y23149D01*
X23984Y23140D01*
X23960Y23130D01*
X23942Y23117D01*
X23929Y23102D01*
X23921Y23086D01*
X23918Y23067D01*
Y23463D01*
X23921Y23444D01*
X23929Y23428D01*
X23942Y23413D01*
X23960Y23400D01*
X23984Y23390D01*
X24013Y23381D01*
X24047Y23374D01*
X24086Y23369D01*
X24092Y23369D01*
X24098Y23369D01*
X24124Y23374D01*
X24150Y23382D01*
X24176Y23391D01*
X24201Y23403D01*
X24226Y23417D01*
X24250Y23432D01*
X24273Y23450D01*
X24297Y23470D01*
X24276Y23051D01*
D02*
G37*
G36*
X15381Y23290D02*
X15380Y23287D01*
X15381Y23282D01*
X15384Y23275D01*
X15389Y23266D01*
X15403Y23240D01*
X15451Y23164D01*
X15041Y23255D01*
X15173Y23334D01*
X15381Y23290D01*
D02*
G37*
G36*
X1499Y23150D02*
X1497Y23169D01*
X1491Y23186D01*
X1480Y23201D01*
X1466Y23214D01*
X1448Y23225D01*
X1426Y23234D01*
X1399Y23241D01*
X1369Y23246D01*
X1334Y23249D01*
X1296Y23250D01*
Y23450D01*
X1334Y23451D01*
X1369Y23454D01*
X1399Y23459D01*
X1426Y23466D01*
X1448Y23475D01*
X1466Y23486D01*
X1480Y23499D01*
X1491Y23514D01*
X1497Y23531D01*
X1499Y23550D01*
Y23150D01*
D02*
G37*
G36*
X875Y23539D02*
X898Y23520D01*
X921Y23504D01*
X945Y23490D01*
X969Y23478D01*
X995Y23468D01*
X1020Y23460D01*
X1047Y23454D01*
X1074Y23451D01*
X1102Y23450D01*
Y23250D01*
X1074Y23249D01*
X1047Y23246D01*
X1020Y23240D01*
X995Y23232D01*
X969Y23222D01*
X945Y23210D01*
X921Y23196D01*
X898Y23180D01*
X875Y23161D01*
X853Y23140D01*
Y23560D01*
X875Y23539D01*
D02*
G37*
G36*
X17082Y23067D02*
X17079Y23086D01*
X17071Y23102D01*
X17058Y23117D01*
X17040Y23130D01*
X17016Y23140D01*
X16987Y23149D01*
X16953Y23156D01*
X16914Y23161D01*
X16870Y23164D01*
X16820Y23165D01*
Y23365D01*
X16870Y23366D01*
X16953Y23374D01*
X16987Y23381D01*
X17016Y23390D01*
X17040Y23400D01*
X17058Y23413D01*
X17071Y23428D01*
X17079Y23444D01*
X17082Y23463D01*
Y23067D01*
D02*
G37*
G36*
X16449Y23446D02*
X16455Y23429D01*
X16465Y23414D01*
X16479Y23401D01*
X16497Y23390D01*
X16519Y23381D01*
X16545Y23374D01*
X16575Y23369D01*
X16609Y23366D01*
X16647Y23365D01*
Y23165D01*
X16609Y23164D01*
X16575Y23161D01*
X16545Y23156D01*
X16519Y23149D01*
X16497Y23140D01*
X16479Y23129D01*
X16465Y23116D01*
X16455Y23101D01*
X16449Y23084D01*
X16447Y23065D01*
Y23465D01*
X16449Y23446D01*
D02*
G37*
G36*
X2924Y23056D02*
X2907Y23050D01*
X2892Y23040D01*
X2879Y23026D01*
X2868Y23008D01*
X2859Y22986D01*
X2852Y22960D01*
X2847Y22930D01*
X2844Y22896D01*
X2843Y22858D01*
X2643D01*
X2642Y22896D01*
X2639Y22930D01*
X2634Y22960D01*
X2627Y22986D01*
X2618Y23008D01*
X2607Y23026D01*
X2594Y23040D01*
X2579Y23050D01*
X2562Y23056D01*
X2543Y23058D01*
X2943D01*
X2924Y23056D01*
D02*
G37*
G36*
X13886Y23063D02*
X13881Y23034D01*
X13878Y23006D01*
X13877Y22978D01*
X13878Y22951D01*
X13881Y22924D01*
X13887Y22898D01*
X13895Y22872D01*
X13905Y22847D01*
X13917Y22822D01*
X13742Y22725D01*
X13728Y22749D01*
X13712Y22771D01*
X13694Y22792D01*
X13675Y22811D01*
X13654Y22828D01*
X13632Y22844D01*
X13608Y22858D01*
X13582Y22870D01*
X13555Y22881D01*
X13526Y22890D01*
X13894Y23092D01*
X13886Y23063D01*
D02*
G37*
G36*
X18783Y24758D02*
X18795Y24740D01*
X19297Y24237D01*
X19190Y24130D01*
X19098Y23970D01*
X19050Y23792D01*
Y23608D01*
X19098Y23430D01*
X19190Y23270D01*
X19320Y23140D01*
X19431Y23076D01*
X19462Y23146D01*
X19639Y23079D01*
X19610Y23013D01*
X19658Y23000D01*
X19842D01*
X20020Y23048D01*
X20180Y23140D01*
X20287Y23247D01*
X20811Y22724D01*
X20762Y22607D01*
X20469D01*
X20436Y22600D01*
X20127Y22570D01*
X19798Y22470D01*
X19495Y22308D01*
X19255Y22111D01*
X19227Y22092D01*
X19220Y22082D01*
X18957Y21761D01*
X18895Y21644D01*
X18873Y21619D01*
X18871Y21614D01*
X18867Y21609D01*
X18813Y21507D01*
X18796Y21479D01*
X18749Y21412D01*
X18733Y21392D01*
X18716Y21374D01*
X18700Y21358D01*
X18686Y21347D01*
X18662Y21329D01*
X18649Y21315D01*
X18610Y21290D01*
X18578Y21241D01*
X18560Y21223D01*
X18558Y21217D01*
X18554Y21213D01*
X18547Y21194D01*
X18483Y21099D01*
X18474Y21050D01*
X18324D01*
X18322Y21060D01*
X18217Y21217D01*
X18060Y21322D01*
X17905Y21353D01*
X17912Y21275D01*
X17922Y21222D01*
X17934Y21170D01*
X17949Y21121D01*
X17967Y21073D01*
X17988Y21028D01*
X18011Y20984D01*
X18037Y20942D01*
X17363D01*
X17389Y20984D01*
X17412Y21028D01*
X17433Y21073D01*
X17451Y21121D01*
X17466Y21170D01*
X17478Y21222D01*
X17488Y21275D01*
X17495Y21330D01*
X17496Y21353D01*
X17340Y21322D01*
X17183Y21217D01*
X17078Y21060D01*
X17041Y20875D01*
Y20815D01*
X17700D01*
Y20550D01*
X17965D01*
Y19759D01*
X18060Y19778D01*
X18217Y19883D01*
X18322Y20040D01*
X18324Y20050D01*
X18474D01*
X18483Y20001D01*
X18610Y19810D01*
X18801Y19683D01*
X19025Y19639D01*
X19361D01*
Y19539D01*
X19409Y19361D01*
X19501Y19202D01*
X19631Y19071D01*
X19791Y18979D01*
X19969Y18931D01*
X20153D01*
X20331Y18979D01*
X20491Y19071D01*
X20621Y19202D01*
X20713Y19361D01*
X20761Y19539D01*
Y19724D01*
X20713Y19902D01*
X20621Y20061D01*
X20556Y20127D01*
X20551Y20142D01*
X20579Y20282D01*
X20680Y20340D01*
X20810Y20470D01*
X20902Y20630D01*
X20950Y20808D01*
Y20992D01*
X20902Y21170D01*
X20853Y21256D01*
X20926Y21383D01*
X22440D01*
X22461Y21382D01*
X22546Y21375D01*
X22567Y21372D01*
X22576Y21370D01*
X22579Y21369D01*
X22579Y21369D01*
X22594Y21359D01*
X22618Y21354D01*
X22717Y21313D01*
X22900Y21289D01*
X23700D01*
X23883Y21313D01*
X24053Y21384D01*
X24083Y21406D01*
X24178Y21320D01*
X24058Y21124D01*
X24054Y21118D01*
X24041Y21108D01*
X24035Y21100D01*
X22450D01*
Y19700D01*
X22590D01*
Y19550D01*
X21450D01*
Y18056D01*
X21400Y17950D01*
X21200D01*
Y18135D01*
X20700D01*
Y18300D01*
X20535D01*
Y18544D01*
X20500D01*
X20519Y18546D01*
X20535Y18552D01*
Y18750D01*
X20200D01*
Y18661D01*
X20073Y18593D01*
X19970Y18652D01*
X19792Y18700D01*
X19608D01*
X19430Y18652D01*
X19270Y18560D01*
X19238Y18528D01*
X18817Y18544D01*
X18298Y18932D01*
X18267Y18955D01*
X18267Y18955D01*
X18217Y18990D01*
X18217Y18990D01*
X18217Y18991D01*
X18193Y19007D01*
X18179Y19017D01*
X18075Y19084D01*
X18075Y19084D01*
X18075Y19084D01*
X18073Y19085D01*
X18071Y19086D01*
X18069Y19088D01*
X17982Y19143D01*
X17954Y19154D01*
X17776Y19273D01*
X16838Y19798D01*
X15861Y20249D01*
X15676Y20317D01*
X15710Y20444D01*
Y20629D01*
X15663Y20807D01*
X15570Y20966D01*
X15440Y21097D01*
X15373Y21135D01*
X15373Y21478D01*
X15363Y21530D01*
X15362Y21537D01*
X15360Y21658D01*
X15360Y21658D01*
X15360Y21658D01*
X15331Y21773D01*
X15323Y21834D01*
X15271Y22276D01*
X15292Y22300D01*
X15470Y22348D01*
X15523Y22378D01*
X15650Y22305D01*
Y21800D01*
X15985D01*
Y21998D01*
X15955Y22000D01*
X15853Y22003D01*
X15985Y22056D01*
Y22250D01*
X16150D01*
Y22415D01*
X16650D01*
Y22600D01*
X16850D01*
Y22600D01*
X16977Y22641D01*
X17093Y22593D01*
X17102Y22496D01*
X17096Y22460D01*
X16940Y22355D01*
X16829Y22190D01*
X16823Y22160D01*
X17000D01*
X17006Y22163D01*
X17044Y22184D01*
X17081Y22207D01*
X17118Y22233D01*
Y22160D01*
X17700D01*
X17881D01*
X17878Y22236D01*
X17891Y22230D01*
X17911Y22225D01*
X17939Y22221D01*
X17975Y22218D01*
X18070Y22214D01*
X18243Y22217D01*
X18236Y22257D01*
X18242Y22239D01*
X18252Y22226D01*
X18266Y22218D01*
X18266Y22218D01*
X18328Y22219D01*
X18336Y22221D01*
X18369Y22231D01*
X18406Y22246D01*
X18447Y22265D01*
X18493Y22289D01*
X18521Y22265D01*
X18460Y22355D01*
X18304Y22460D01*
X18298Y22496D01*
X18307Y22593D01*
X18453Y22654D01*
X18599Y22766D01*
X18711Y22912D01*
X18782Y23082D01*
X18806Y23265D01*
X18782Y23448D01*
X18711Y23618D01*
X18599Y23764D01*
X18453Y23876D01*
X18307Y23937D01*
X18298Y24034D01*
X18304Y24070D01*
X18460Y24175D01*
X18571Y24340D01*
X18577Y24370D01*
X17700D01*
Y24700D01*
X18577D01*
X18571Y24730D01*
X18515Y24814D01*
X18610Y24900D01*
X18783Y24758D01*
D02*
G37*
G36*
X2844Y22013D02*
X2847Y21979D01*
X2852Y21948D01*
X2859Y21922D01*
X2868Y21900D01*
X2879Y21881D01*
X2892Y21867D01*
X2907Y21857D01*
X2924Y21851D01*
X2943Y21849D01*
X2543D01*
X2562Y21851D01*
X2579Y21857D01*
X2594Y21867D01*
X2607Y21881D01*
X2618Y21900D01*
X2627Y21922D01*
X2634Y21948D01*
X2639Y21979D01*
X2642Y22013D01*
X2643Y22052D01*
X2843D01*
X2844Y22013D01*
D02*
G37*
G36*
X13367Y21988D02*
X13350Y21964D01*
X13336Y21939D01*
X13323Y21914D01*
X13313Y21888D01*
X13306Y21863D01*
X13300Y21836D01*
X13297Y21809D01*
X13296Y21782D01*
X13298Y21754D01*
X13098Y21737D01*
X13095Y21764D01*
X13089Y21791D01*
X13081Y21817D01*
X13071Y21842D01*
X13059Y21866D01*
X13045Y21890D01*
X13029Y21912D01*
X13010Y21934D01*
X12990Y21955D01*
X12967Y21975D01*
X13385Y22011D01*
X13367Y21988D01*
D02*
G37*
G36*
X22468Y22385D02*
X22638Y22325D01*
X22689Y22312D01*
X22782Y22295D01*
X22824Y22292D01*
X22864Y22292D01*
X22900Y22295D01*
X22750Y21933D01*
Y21736D01*
X22732Y21747D01*
X22707Y21757D01*
X22675Y21766D01*
X22638Y21774D01*
X22594Y21780D01*
X22487Y21790D01*
X22355Y21794D01*
X22279Y21795D01*
Y22028D01*
X22249Y22042D01*
X22279Y22114D01*
Y22195D01*
X22314Y22195D01*
X22406Y22411D01*
X22468Y22385D01*
D02*
G37*
G36*
X1499Y21350D02*
X1497Y21369D01*
X1491Y21386D01*
X1480Y21401D01*
X1466Y21414D01*
X1448Y21425D01*
X1426Y21434D01*
X1399Y21441D01*
X1369Y21446D01*
X1334Y21449D01*
X1296Y21450D01*
Y21650D01*
X1334Y21651D01*
X1369Y21654D01*
X1399Y21659D01*
X1426Y21666D01*
X1448Y21675D01*
X1466Y21686D01*
X1480Y21699D01*
X1491Y21714D01*
X1497Y21731D01*
X1499Y21750D01*
Y21350D01*
D02*
G37*
G36*
X875Y21739D02*
X898Y21720D01*
X921Y21704D01*
X945Y21690D01*
X969Y21677D01*
X995Y21668D01*
X1020Y21660D01*
X1047Y21654D01*
X1074Y21651D01*
X1102Y21650D01*
Y21450D01*
X1074Y21449D01*
X1047Y21446D01*
X1020Y21440D01*
X995Y21432D01*
X969Y21423D01*
X945Y21410D01*
X921Y21396D01*
X898Y21380D01*
X875Y21361D01*
X853Y21340D01*
Y21760D01*
X875Y21739D01*
D02*
G37*
G36*
X9618Y26860D02*
X9673Y26768D01*
X9671Y26762D01*
X9677Y26747D01*
X9695Y26724D01*
X9695Y26724D01*
X9742Y26662D01*
X9919Y26432D01*
X10002Y26368D01*
X10028Y26336D01*
X10227Y26174D01*
X10263Y26155D01*
X10360Y26073D01*
X10768Y25823D01*
X10782Y25780D01*
X10748Y25720D01*
X10700Y25542D01*
Y25358D01*
X10748Y25180D01*
X10840Y25020D01*
X10970Y24890D01*
X11130Y24798D01*
X11308Y24750D01*
X11492D01*
X11670Y24798D01*
X11830Y24890D01*
X11960Y25020D01*
X12052Y25180D01*
X12100Y25358D01*
Y25382D01*
X12152Y25490D01*
X13261D01*
X13286Y25363D01*
X13169Y25315D01*
X12964Y25157D01*
X12867Y25083D01*
X12867Y25083D01*
X12869Y25081D01*
X12761Y24973D01*
X12729Y24925D01*
X12652Y24825D01*
X12636Y24786D01*
X12611Y24749D01*
X12608Y24745D01*
X12508Y24503D01*
X12508Y24503D01*
X12507Y24503D01*
X12181Y23718D01*
X12137Y23612D01*
X12133Y23610D01*
X12103Y23540D01*
X12089Y23493D01*
X11954Y23049D01*
X11904Y22539D01*
X11908Y22495D01*
X11891Y22368D01*
X11885Y22355D01*
X11895Y22332D01*
X11906Y22206D01*
X11890Y21868D01*
X11893Y21845D01*
X11890Y21817D01*
X11904Y21706D01*
X11902Y21649D01*
X11954Y21338D01*
X11842Y21237D01*
X11792Y21250D01*
X11608D01*
X11430Y21202D01*
X11270Y21110D01*
X11140Y20980D01*
X11096Y20904D01*
X10938Y20883D01*
X9482Y22339D01*
X9463Y22352D01*
X9224Y22643D01*
X9036Y22995D01*
X8920Y23377D01*
X8883Y23751D01*
X8888Y23775D01*
Y24150D01*
X9078D01*
Y25150D01*
Y26450D01*
X9024D01*
X9012Y26461D01*
X8968Y26537D01*
X8962Y26577D01*
X9036Y26662D01*
X9088Y26715D01*
X9109Y26747D01*
X9178Y26816D01*
X9310Y27044D01*
X9329Y27115D01*
X9454Y27133D01*
X9618Y26860D01*
D02*
G37*
G36*
X19668Y21363D02*
X19639Y21302D01*
X19593Y21188D01*
X19576Y21135D01*
X19552Y21037D01*
X19546Y20992D01*
X19544Y20950D01*
X19545Y20911D01*
X19550Y20875D01*
X18901Y20999D01*
X18937Y21025D01*
X18972Y21055D01*
X19007Y21088D01*
X19041Y21124D01*
X19074Y21165D01*
X19138Y21255D01*
X19168Y21306D01*
X19228Y21418D01*
X19668Y21363D01*
D02*
G37*
G36*
X4700Y25325D02*
Y24200D01*
X4890D01*
Y21802D01*
X4891Y21799D01*
X4928Y21325D01*
X5040Y20860D01*
X5223Y20418D01*
X5473Y20010D01*
X5782Y19648D01*
X5783Y19646D01*
X9194Y16235D01*
X9200Y16209D01*
Y16158D01*
X9248Y15980D01*
X9340Y15820D01*
X9470Y15690D01*
X9630Y15598D01*
X9808Y15550D01*
X9992D01*
X10170Y15598D01*
X10330Y15690D01*
X10356Y15716D01*
X10435Y15708D01*
X10817Y15592D01*
X11169Y15404D01*
X11446Y15177D01*
X11442Y15127D01*
X11405Y15050D01*
X10400D01*
Y14511D01*
X10273Y14443D01*
X10170Y14502D01*
X9992Y14550D01*
X9808D01*
X9630Y14502D01*
X9470Y14410D01*
X9423Y14363D01*
X9397Y14346D01*
X9143Y14339D01*
X9101Y14337D01*
X9080Y14334D01*
X9075Y14335D01*
X9022Y14324D01*
Y14324D01*
X8998Y14319D01*
X8796Y14293D01*
X8573Y14200D01*
X8467Y14271D01*
Y15141D01*
X7739Y15366D01*
X7734Y15411D01*
X7719Y15438D01*
X7711Y15468D01*
X7681Y15507D01*
X7657Y15550D01*
X7633Y15570D01*
X7613Y15594D01*
X7605Y15599D01*
X7610Y15625D01*
Y15875D01*
X7570Y16080D01*
X7453Y16253D01*
X7388Y16297D01*
X7309Y16391D01*
X7381Y16498D01*
X7398Y16585D01*
X6900D01*
X6631D01*
Y16552D01*
X6629Y16570D01*
X6623Y16585D01*
X6402D01*
X6414Y16523D01*
X6364Y16437D01*
X6332Y16400D01*
X6205D01*
Y16585D01*
X6007D01*
X6001Y16569D01*
X5999Y16550D01*
Y16585D01*
X5705D01*
X5205D01*
Y16400D01*
X5005D01*
Y16371D01*
X4984Y16370D01*
X4952Y16355D01*
X4918Y16348D01*
X4881Y16323D01*
X4839Y16304D01*
X4084Y15758D01*
X465D01*
Y16282D01*
X547Y16345D01*
X731D01*
X909Y16393D01*
X966Y16425D01*
X1093Y16355D01*
Y16355D01*
X2393D01*
Y16555D01*
X2578D01*
Y17055D01*
Y17349D01*
X2550D01*
X2569Y17351D01*
X2578Y17354D01*
Y17555D01*
X2393D01*
Y17755D01*
X1093D01*
Y17738D01*
X966Y17665D01*
X909Y17697D01*
X731Y17745D01*
X547D01*
X465Y17808D01*
Y18082D01*
X547Y18145D01*
X731D01*
X909Y18193D01*
X966Y18225D01*
X1093Y18155D01*
Y18155D01*
X2393D01*
Y18355D01*
X2578D01*
Y18553D01*
X2569Y18556D01*
X2550Y18558D01*
X2578D01*
Y18855D01*
Y19149D01*
X2550D01*
X2569Y19151D01*
X2578Y19154D01*
Y19355D01*
X2393D01*
Y19555D01*
X1093D01*
Y19538D01*
X966Y19465D01*
X909Y19497D01*
X731Y19545D01*
X547D01*
X465Y19608D01*
Y20787D01*
X547Y20850D01*
X731D01*
X909Y20898D01*
X966Y20930D01*
X1093Y20857D01*
Y20855D01*
X3393D01*
Y22255D01*
X3252D01*
Y22655D01*
X3393D01*
Y24020D01*
X3523Y24265D01*
X3717Y24500D01*
X3731Y24510D01*
X4554Y25333D01*
X4565Y25350D01*
X4580Y25368D01*
X4700Y25325D01*
D02*
G37*
G36*
X12629Y20996D02*
X12637Y20969D01*
X12647Y20944D01*
X12658Y20920D01*
X12672Y20897D01*
X12688Y20874D01*
X12706Y20853D01*
X12726Y20833D01*
X12748Y20814D01*
X12772Y20795D01*
X12358Y20727D01*
X12375Y20752D01*
X12390Y20778D01*
X12402Y20803D01*
X12413Y20829D01*
X12421Y20855D01*
X12426Y20882D01*
X12430Y20908D01*
X12431Y20935D01*
X12430Y20963D01*
X12426Y20990D01*
X12624Y21023D01*
X12629Y20996D01*
D02*
G37*
G36*
X24474Y20673D02*
X24439Y20626D01*
X24384Y20541D01*
X24364Y20504D01*
X24348Y20470D01*
X24338Y20438D01*
X24332Y20410D01*
X24331Y20386D01*
X24335Y20364D01*
X24344Y20345D01*
X24113Y20694D01*
X24126Y20680D01*
X24141Y20672D01*
X24159Y20672D01*
X24180Y20678D01*
X24204Y20690D01*
X24230Y20710D01*
X24258Y20736D01*
X24290Y20768D01*
X24324Y20808D01*
X24360Y20854D01*
X24474Y20673D01*
D02*
G37*
G36*
X14965Y20983D02*
X14968Y20956D01*
X14975Y20932D01*
X14983Y20909D01*
X14995Y20890D01*
X15008Y20872D01*
X15025Y20857D01*
X15043Y20844D01*
X15065Y20834D01*
X15088Y20826D01*
X14726Y20632D01*
X14733Y20655D01*
X14739Y20681D01*
X14750Y20741D01*
X14757Y20810D01*
X14763Y20932D01*
X14763Y20978D01*
X14963Y21013D01*
X14965Y20983D01*
D02*
G37*
G36*
X26430Y20101D02*
X26414Y20095D01*
X26399Y20085D01*
X26385Y20072D01*
X26371Y20054D01*
X26359Y20032D01*
X26347Y20007D01*
X26337Y19978D01*
X26327Y19944D01*
X26318Y19907D01*
X26110Y19908D01*
X26118Y19945D01*
X26129Y20033D01*
X26130Y20054D01*
X26128Y20072D01*
X26124Y20085D01*
X26119Y20095D01*
X26112Y20101D01*
X26103Y20103D01*
X26447D01*
X26430Y20101D01*
D02*
G37*
G36*
X27724Y20104D02*
X27706Y20098D01*
X27688Y20088D01*
X27672Y20074D01*
X27658Y20056D01*
X27644Y20034D01*
X27631Y20008D01*
X27620Y19978D01*
X27610Y19945D01*
X27601Y19907D01*
X27395Y19908D01*
X27397Y19916D01*
X27399Y19941D01*
X27402Y19996D01*
X27403Y20103D01*
X27744Y20106D01*
X27724Y20104D01*
D02*
G37*
G36*
X23281Y20101D02*
X23264Y20095D01*
X23249Y20085D01*
X23236Y20071D01*
X23225Y20053D01*
X23216Y20031D01*
X23209Y20005D01*
X23204Y19975D01*
X23201Y19941D01*
X23200Y19903D01*
X23000D01*
X22999Y19941D01*
X22996Y19975D01*
X22991Y20005D01*
X22984Y20031D01*
X22975Y20053D01*
X22964Y20071D01*
X22951Y20085D01*
X22936Y20095D01*
X22919Y20101D01*
X22900Y20103D01*
X23300D01*
X23281Y20101D01*
D02*
G37*
G36*
X23201Y19308D02*
X23204Y19274D01*
X23209Y19243D01*
X23216Y19217D01*
X23225Y19195D01*
X23236Y19176D01*
X23249Y19162D01*
X23264Y19152D01*
X23281Y19146D01*
X23300Y19144D01*
X22900D01*
X22919Y19146D01*
X22936Y19152D01*
X22951Y19162D01*
X22964Y19176D01*
X22975Y19195D01*
X22984Y19217D01*
X22991Y19243D01*
X22996Y19274D01*
X22999Y19308D01*
X23000Y19347D01*
X23200D01*
X23201Y19308D01*
D02*
G37*
G36*
X1499Y18655D02*
X1497Y18674D01*
X1491Y18691D01*
X1480Y18706D01*
X1466Y18719D01*
X1448Y18730D01*
X1426Y18739D01*
X1399Y18746D01*
X1369Y18751D01*
X1334Y18754D01*
X1296Y18755D01*
Y18955D01*
X1334Y18956D01*
X1369Y18959D01*
X1399Y18964D01*
X1426Y18971D01*
X1448Y18980D01*
X1466Y18991D01*
X1480Y19004D01*
X1491Y19019D01*
X1497Y19036D01*
X1499Y19055D01*
Y18655D01*
D02*
G37*
G36*
X869Y19042D02*
X892Y19024D01*
X916Y19007D01*
X940Y18994D01*
X965Y18982D01*
X991Y18972D01*
X1017Y18965D01*
X1043Y18959D01*
X1070Y18956D01*
X1098Y18955D01*
X1105Y18755D01*
X1077Y18754D01*
X1050Y18750D01*
X1024Y18745D01*
X998Y18737D01*
X973Y18727D01*
X949Y18714D01*
X926Y18700D01*
X903Y18683D01*
X881Y18664D01*
X860Y18642D01*
X846Y19062D01*
X869Y19042D01*
D02*
G37*
G36*
X24345Y18770D02*
X24349Y18766D01*
X24355Y18762D01*
X24364Y18759D01*
X24376Y18756D01*
X24390Y18754D01*
X24407Y18752D01*
X24448Y18750D01*
X24472Y18750D01*
Y18550D01*
X24448Y18550D01*
X24390Y18546D01*
X24376Y18544D01*
X24364Y18541D01*
X24355Y18538D01*
X24349Y18534D01*
X24345Y18530D01*
X24344Y18525D01*
Y18775D01*
X24345Y18770D01*
D02*
G37*
G36*
X12198Y17571D02*
X12173Y17554D01*
X12150Y17536D01*
X12129Y17517D01*
X12109Y17497D01*
X12092Y17476D01*
X12077Y17454D01*
X12063Y17430D01*
X12052Y17406D01*
X12043Y17380D01*
X12035Y17353D01*
X11841Y17398D01*
X11846Y17425D01*
X11849Y17452D01*
X11849Y17479D01*
X11848Y17506D01*
X11844Y17533D01*
X11837Y17560D01*
X11829Y17586D01*
X11818Y17613D01*
X11805Y17639D01*
X11789Y17665D01*
X12198Y17571D01*
D02*
G37*
G36*
X20999Y17481D02*
X21005Y17464D01*
X21015Y17449D01*
X21029Y17436D01*
X21047Y17425D01*
X21069Y17416D01*
X21095Y17409D01*
X21125Y17404D01*
X21159Y17401D01*
X21197Y17400D01*
Y17200D01*
X21159Y17199D01*
X21125Y17196D01*
X21095Y17191D01*
X21069Y17184D01*
X21047Y17175D01*
X21029Y17164D01*
X21015Y17151D01*
X21005Y17136D01*
X20999Y17119D01*
X20997Y17100D01*
Y17500D01*
X20999Y17481D01*
D02*
G37*
G36*
X1499Y16855D02*
X1497Y16874D01*
X1491Y16891D01*
X1480Y16906D01*
X1466Y16919D01*
X1448Y16930D01*
X1426Y16939D01*
X1399Y16946D01*
X1369Y16951D01*
X1334Y16954D01*
X1296Y16955D01*
Y17155D01*
X1334Y17156D01*
X1369Y17159D01*
X1399Y17164D01*
X1426Y17171D01*
X1448Y17180D01*
X1466Y17191D01*
X1480Y17204D01*
X1491Y17219D01*
X1497Y17236D01*
X1499Y17255D01*
Y16855D01*
D02*
G37*
G36*
X869Y17242D02*
X892Y17223D01*
X916Y17207D01*
X940Y17194D01*
X965Y17182D01*
X991Y17172D01*
X1017Y17165D01*
X1043Y17159D01*
X1070Y17156D01*
X1098Y17155D01*
X1105Y16955D01*
X1077Y16954D01*
X1050Y16950D01*
X1024Y16945D01*
X998Y16937D01*
X973Y16927D01*
X949Y16914D01*
X926Y16900D01*
X903Y16883D01*
X881Y16864D01*
X860Y16842D01*
X846Y17262D01*
X869Y17242D01*
D02*
G37*
G36*
X20675Y16480D02*
X20662Y16507D01*
X20648Y16533D01*
X20632Y16556D01*
X20615Y16578D01*
X20596Y16598D01*
X20576Y16617D01*
X20555Y16633D01*
X20532Y16647D01*
X20507Y16660D01*
X20482Y16671D01*
X20553Y16858D01*
X20579Y16849D01*
X20606Y16843D01*
X20633Y16838D01*
X20660Y16836D01*
X20687Y16837D01*
X20714Y16839D01*
X20741Y16844D01*
X20769Y16851D01*
X20797Y16861D01*
X20824Y16872D01*
X20675Y16480D01*
D02*
G37*
G36*
X12715Y17002D02*
X12708Y16974D01*
X12703Y16946D01*
X12700Y16918D01*
X12700Y16891D01*
X12702Y16864D01*
X12706Y16837D01*
X12712Y16811D01*
X12721Y16785D01*
X12732Y16759D01*
X12551Y16673D01*
X12538Y16698D01*
X12524Y16721D01*
X12507Y16743D01*
X12489Y16763D01*
X12469Y16781D01*
X12448Y16798D01*
X12425Y16813D01*
X12400Y16827D01*
X12373Y16840D01*
X12345Y16850D01*
X12724Y17031D01*
X12715Y17002D01*
D02*
G37*
G36*
X10805Y17025D02*
X10818Y16999D01*
X10832Y16974D01*
X10848Y16951D01*
X10866Y16930D01*
X10884Y16911D01*
X10905Y16893D01*
X10927Y16878D01*
X10950Y16864D01*
X10975Y16851D01*
X10894Y16669D01*
X10868Y16679D01*
X10842Y16687D01*
X10815Y16693D01*
X10789Y16696D01*
X10762Y16698D01*
X10734Y16696D01*
X10707Y16693D01*
X10679Y16688D01*
X10650Y16680D01*
X10622Y16669D01*
X10793Y17053D01*
X10805Y17025D01*
D02*
G37*
G36*
X23201Y16608D02*
X23204Y16574D01*
X23209Y16543D01*
X23216Y16517D01*
X23225Y16495D01*
X23236Y16476D01*
X23249Y16462D01*
X23264Y16452D01*
X23281Y16446D01*
X23300Y16444D01*
X22900D01*
X22919Y16446D01*
X22936Y16452D01*
X22951Y16462D01*
X22964Y16476D01*
X22975Y16495D01*
X22984Y16517D01*
X22991Y16543D01*
X22996Y16574D01*
X22999Y16608D01*
X23000Y16647D01*
X23200D01*
X23201Y16608D01*
D02*
G37*
G36*
X24488Y16247D02*
X24461Y16218D01*
X24437Y16190D01*
X24415Y16161D01*
X24396Y16133D01*
X24380Y16104D01*
X24367Y16076D01*
X24357Y16048D01*
X24350Y16020D01*
X24346Y15992D01*
X24344Y15964D01*
X24347Y16447D01*
X24348Y16437D01*
X24353Y16432D01*
X24360Y16430D01*
X24370Y16432D01*
X24382Y16438D01*
X24398Y16449D01*
X24416Y16463D01*
X24462Y16504D01*
X24488Y16530D01*
Y16247D01*
D02*
G37*
G36*
X9664Y16629D02*
X9685Y16612D01*
X9708Y16597D01*
X9732Y16585D01*
X9757Y16574D01*
X9783Y16565D01*
X9809Y16558D01*
X9838Y16553D01*
X9867Y16551D01*
X9897Y16550D01*
X9600Y16253D01*
X9599Y16283D01*
X9597Y16312D01*
X9592Y16341D01*
X9585Y16368D01*
X9576Y16393D01*
X9565Y16418D01*
X9553Y16442D01*
X9538Y16465D01*
X9521Y16486D01*
X9502Y16507D01*
X9643Y16648D01*
X9664Y16629D01*
D02*
G37*
G36*
X10139Y16435D02*
X10161Y16416D01*
X10183Y16399D01*
X10207Y16384D01*
X10231Y16370D01*
X10256Y16359D01*
X10281Y16349D01*
X10308Y16341D01*
X10335Y16334D01*
X10363Y16330D01*
X10360Y16129D01*
X10333Y16131D01*
X10306Y16131D01*
X10280Y16128D01*
X10254Y16123D01*
X10229Y16115D01*
X10204Y16104D01*
X10180Y16091D01*
X10156Y16075D01*
X10133Y16057D01*
X10111Y16036D01*
X10118Y16456D01*
X10139Y16435D01*
D02*
G37*
G36*
X6360Y15915D02*
X6900D01*
Y15750D01*
X7065D01*
Y15294D01*
X7075D01*
X7202Y15319D01*
X7237Y15343D01*
X7346Y15287D01*
X7349Y15239D01*
X7241Y15127D01*
X7212D01*
Y14320D01*
X6912D01*
Y14041D01*
X5817D01*
X5796Y14020D01*
X5770D01*
X5778Y14001D01*
X4048Y12224D01*
X4005Y12195D01*
X3971Y12146D01*
X3967Y12141D01*
Y12139D01*
X3922Y12071D01*
X3893Y11925D01*
Y11575D01*
X3922Y11429D01*
X3967Y11361D01*
Y10639D01*
X3922Y10571D01*
X3893Y10425D01*
Y10075D01*
X3922Y9929D01*
X3967Y9861D01*
Y9091D01*
X4100Y8872D01*
Y8851D01*
X4176Y8667D01*
X4299Y8544D01*
X5804Y6062D01*
X5770Y5980D01*
X6912D01*
Y5680D01*
X7212D01*
Y4873D01*
X7267D01*
Y4691D01*
X7157Y4650D01*
X312D01*
Y15350D01*
X4215D01*
X5078Y15973D01*
X5205Y15922D01*
Y15915D01*
X5705D01*
X6205D01*
Y15969D01*
X6293Y15979D01*
X6360Y15915D01*
D02*
G37*
G36*
X20683Y15213D02*
X20669Y15239D01*
X20653Y15263D01*
X20635Y15286D01*
X20617Y15307D01*
X20597Y15326D01*
X20576Y15342D01*
X20553Y15357D01*
X20529Y15370D01*
X20505Y15382D01*
X20478Y15391D01*
X20537Y15582D01*
X20564Y15575D01*
X20591Y15570D01*
X20618Y15567D01*
X20645Y15567D01*
X20672Y15569D01*
X20699Y15574D01*
X20726Y15580D01*
X20753Y15589D01*
X20780Y15600D01*
X20807Y15614D01*
X20683Y15213D01*
D02*
G37*
G36*
X22388Y15451D02*
X22372Y15445D01*
X22359Y15436D01*
X22349Y15422D01*
X22343Y15405D01*
X22339Y15383D01*
X22338Y15358D01*
X22340Y15329D01*
X22345Y15296D01*
X22353Y15260D01*
X22145Y15259D01*
X22135Y15296D01*
X22124Y15329D01*
X22111Y15358D01*
X22098Y15383D01*
X22083Y15404D01*
X22068Y15422D01*
X22051Y15436D01*
X22033Y15445D01*
X22015Y15451D01*
X21995Y15453D01*
X22407D01*
X22388Y15451D01*
D02*
G37*
G36*
X25760Y14505D02*
X25752Y14500D01*
X25743Y14491D01*
X25733Y14480D01*
X25723Y14465D01*
X25712Y14447D01*
X25689Y14400D01*
X25663Y14341D01*
X25478Y14417D01*
X25485Y14434D01*
X25493Y14463D01*
X25496Y14474D01*
X25496Y14484D01*
X25495Y14492D01*
X25493Y14498D01*
X25489Y14503D01*
X25484Y14505D01*
X25477Y14506D01*
X25767D01*
X25760Y14505D01*
D02*
G37*
G36*
X11399Y14581D02*
X11405Y14564D01*
X11415Y14549D01*
X11429Y14536D01*
X11447Y14525D01*
X11469Y14516D01*
X11495Y14509D01*
X11525Y14504D01*
X11559Y14501D01*
X11597Y14500D01*
Y14300D01*
X11559Y14299D01*
X11525Y14296D01*
X11495Y14291D01*
X11469Y14284D01*
X11447Y14275D01*
X11429Y14264D01*
X11415Y14251D01*
X11405Y14236D01*
X11399Y14219D01*
X11397Y14200D01*
Y14600D01*
X11399Y14581D01*
D02*
G37*
G36*
X11931Y14190D02*
X11909Y14211D01*
X11886Y14230D01*
X11863Y14246D01*
X11839Y14260D01*
X11815Y14273D01*
X11790Y14282D01*
X11764Y14290D01*
X11737Y14296D01*
X11710Y14299D01*
X11682Y14300D01*
Y14500D01*
X11710Y14501D01*
X11737Y14504D01*
X11764Y14510D01*
X11790Y14518D01*
X11815Y14528D01*
X11839Y14540D01*
X11863Y14554D01*
X11886Y14570D01*
X11909Y14589D01*
X11931Y14610D01*
Y14190D01*
D02*
G37*
G36*
X9692Y13634D02*
X9669Y13654D01*
X9646Y13672D01*
X9623Y13688D01*
X9598Y13702D01*
X9573Y13713D01*
X9548Y13722D01*
X9522Y13729D01*
X9495Y13734D01*
X9468Y13737D01*
X9440Y13737D01*
X9435Y13937D01*
X9462Y13939D01*
X9489Y13943D01*
X9516Y13949D01*
X9541Y13957D01*
X9566Y13968D01*
X9590Y13981D01*
X9614Y13996D01*
X9637Y14013D01*
X9659Y14032D01*
X9680Y14054D01*
X9692Y13634D01*
D02*
G37*
G36*
X20771Y13898D02*
X20794Y13884D01*
X20818Y13872D01*
X20843Y13862D01*
X20869Y13854D01*
X20896Y13849D01*
X20924Y13845D01*
X20952Y13844D01*
X20981Y13845D01*
X21011Y13848D01*
X20752Y13517D01*
X20747Y13547D01*
X20741Y13576D01*
X20733Y13603D01*
X20723Y13629D01*
X20712Y13654D01*
X20698Y13677D01*
X20682Y13699D01*
X20665Y13720D01*
X20646Y13739D01*
X20624Y13758D01*
X20748Y13915D01*
X20771Y13898D01*
D02*
G37*
G36*
X10806Y13288D02*
X10805Y13291D01*
X10802Y13293D01*
X10796Y13294D01*
X10788Y13296D01*
X10777Y13297D01*
X10750Y13299D01*
X10691Y13300D01*
Y13500D01*
X10713Y13500D01*
X10796Y13506D01*
X10802Y13507D01*
X10805Y13509D01*
X10806Y13512D01*
Y13288D01*
D02*
G37*
G36*
X17925Y16038D02*
X17934Y16035D01*
X19462Y14239D01*
X19490Y14216D01*
X19501Y14203D01*
X19515Y14183D01*
X19833Y13882D01*
X19799Y13739D01*
X19783Y13723D01*
X19752Y13703D01*
X19741Y13692D01*
X19741Y13692D01*
X19741Y13692D01*
X19725Y13690D01*
X19700Y13680D01*
X19574Y13668D01*
X19158Y13542D01*
X18775Y13337D01*
X18620Y13210D01*
X15285D01*
Y15528D01*
X15272Y15591D01*
X15253Y15936D01*
X15182Y16353D01*
X15178Y16380D01*
X15178Y16382D01*
X15161Y16477D01*
X15154Y16527D01*
X15154Y16527D01*
X15146Y16547D01*
X15139Y16577D01*
X15123Y16602D01*
X15083Y16697D01*
X15005Y16800D01*
X14974Y16846D01*
X14712Y17108D01*
X14781Y17215D01*
X17925Y16038D01*
D02*
G37*
G36*
X20036Y12989D02*
X20014Y13011D01*
X19990Y13030D01*
X19967Y13046D01*
X19943Y13060D01*
X19918Y13070D01*
X19893Y13079D01*
X19867Y13084D01*
X19841Y13087D01*
X19815Y13087D01*
X19788Y13085D01*
X19788Y13287D01*
X19816Y13291D01*
X19844Y13297D01*
X19871Y13305D01*
X19897Y13315D01*
X19922Y13326D01*
X19946Y13339D01*
X19970Y13354D01*
X19992Y13371D01*
X20014Y13389D01*
X20035Y13409D01*
X20036Y12989D01*
D02*
G37*
G36*
X21605Y12988D02*
X22429Y12120D01*
X22479Y12055D01*
X22486Y12023D01*
X22541Y11994D01*
X22599Y11962D01*
X22618Y11946D01*
X22915Y11685D01*
X23386Y11371D01*
X23465Y11332D01*
X23436Y11208D01*
X19103D01*
X19051Y11198D01*
X18999Y11194D01*
X18974Y11182D01*
X18947Y11177D01*
X18903Y11148D01*
X18856Y11125D01*
X18103Y10553D01*
X18085Y10532D01*
X18062Y10516D01*
X18032Y10473D01*
X18025Y10464D01*
X17911Y10526D01*
X17910Y10527D01*
X17939Y10633D01*
Y10817D01*
X17891Y10995D01*
X17799Y11155D01*
X17668Y11285D01*
X17509Y11377D01*
X17331Y11425D01*
X17146D01*
X16968Y11377D01*
X16812Y11287D01*
X16798Y11291D01*
X16696Y11352D01*
X16710Y11425D01*
Y11775D01*
X16764Y11840D01*
X18762D01*
X18784Y11826D01*
X18820Y11790D01*
X18980Y11698D01*
X19158Y11650D01*
X19342D01*
X19520Y11698D01*
X19680Y11790D01*
X19810Y11920D01*
X19902Y12080D01*
X19950Y12258D01*
Y12424D01*
X19993Y12475D01*
X20059Y12527D01*
X20158Y12500D01*
X20342D01*
X20520Y12548D01*
X20680Y12640D01*
X20810Y12770D01*
X20870Y12874D01*
X20958Y12850D01*
X21142D01*
X21320Y12898D01*
X21480Y12990D01*
X21605Y12988D01*
D02*
G37*
G36*
X12794Y13095D02*
X12777Y13073D01*
X12763Y13050D01*
X12750Y13026D01*
X12740Y13001D01*
X12732Y12975D01*
X12725Y12948D01*
X12721Y12921D01*
X12719Y12892D01*
X12720Y12863D01*
X12722Y12833D01*
X12397Y13099D01*
X12427Y13103D01*
X12456Y13108D01*
X12483Y13116D01*
X12509Y13125D01*
X12534Y13137D01*
X12558Y13150D01*
X12580Y13165D01*
X12601Y13182D01*
X12621Y13201D01*
X12640Y13222D01*
X12794Y13095D01*
D02*
G37*
G36*
X13334Y12908D02*
X13330Y12880D01*
X13328Y12853D01*
X13329Y12826D01*
X13332Y12799D01*
X13337Y12772D01*
X13345Y12746D01*
X13354Y12720D01*
X13366Y12694D01*
X13381Y12668D01*
X13397Y12643D01*
X12984Y12719D01*
X13009Y12737D01*
X13031Y12755D01*
X13052Y12775D01*
X13070Y12796D01*
X13086Y12818D01*
X13101Y12841D01*
X13113Y12865D01*
X13123Y12890D01*
X13131Y12916D01*
X13137Y12943D01*
X13334Y12908D01*
D02*
G37*
G36*
X9272Y12688D02*
X9249Y12671D01*
X9228Y12652D01*
X9210Y12633D01*
X9194Y12612D01*
X9181Y12590D01*
X9170Y12566D01*
X9161Y12542D01*
X9155Y12516D01*
X9154Y12511D01*
X9158Y12469D01*
X9162Y12447D01*
X9167Y12429D01*
X9173Y12415D01*
X9180Y12405D01*
X9188Y12399D01*
X9197Y12397D01*
X8903D01*
X8912Y12399D01*
X8920Y12405D01*
X8927Y12415D01*
X8933Y12429D01*
X8938Y12447D01*
X8942Y12469D01*
X8946Y12495D01*
X8948Y12535D01*
X8946Y12553D01*
X8942Y12580D01*
X8935Y12606D01*
X8927Y12633D01*
X8917Y12659D01*
X8905Y12686D01*
X8892Y12712D01*
X8876Y12738D01*
X8859Y12764D01*
X9272Y12688D01*
D02*
G37*
G36*
X8216Y12587D02*
X8212Y12572D01*
X8206Y12540D01*
X8202Y12504D01*
X8198Y12443D01*
X8197Y12397D01*
X7903D01*
X7912Y12399D01*
X7921Y12405D01*
X7930Y12414D01*
X7940Y12428D01*
X7949Y12446D01*
X7959Y12467D01*
X7969Y12492D01*
X7989Y12554D01*
X8000Y12591D01*
X8216Y12587D01*
D02*
G37*
G36*
X7703Y12592D02*
X7702Y12584D01*
X7701Y12574D01*
X7698Y12507D01*
X7697Y12397D01*
X7403D01*
X7413Y12399D01*
X7423Y12405D01*
X7433Y12415D01*
X7443Y12428D01*
X7452Y12446D01*
X7461Y12468D01*
X7470Y12493D01*
X7487Y12556D01*
X7495Y12593D01*
X7703Y12592D01*
D02*
G37*
G36*
X19036Y12140D02*
X19014Y12161D01*
X18991Y12180D01*
X18968Y12196D01*
X18944Y12210D01*
X18920Y12222D01*
X18895Y12232D01*
X18869Y12240D01*
X18842Y12246D01*
X18815Y12249D01*
X18787Y12250D01*
Y12450D01*
X18815Y12451D01*
X18842Y12454D01*
X18869Y12460D01*
X18895Y12468D01*
X18920Y12477D01*
X18944Y12490D01*
X18968Y12504D01*
X18991Y12520D01*
X19014Y12539D01*
X19036Y12560D01*
Y12140D01*
D02*
G37*
G36*
X5885Y11900D02*
X5880Y11900D01*
X5874Y11899D01*
X5867Y11896D01*
X5859Y11892D01*
X5851Y11887D01*
X5831Y11873D01*
X5820Y11865D01*
X5796Y11844D01*
X5626Y11974D01*
X5635Y11977D01*
X5644Y11981D01*
X5650Y11986D01*
X5655Y11991D01*
X5658Y11997D01*
X5659Y12004D01*
X5659Y12011D01*
X5657Y12019D01*
X5654Y12028D01*
X5648Y12037D01*
X5885Y11900D01*
D02*
G37*
G36*
X13537Y11958D02*
X13520Y11936D01*
X13505Y11913D01*
X13492Y11889D01*
X13481Y11865D01*
X13472Y11839D01*
X13465Y11813D01*
X13461Y11785D01*
X13458Y11757D01*
X13458Y11727D01*
X13460Y11697D01*
X13140Y11970D01*
X13170Y11973D01*
X13199Y11978D01*
X13226Y11985D01*
X13253Y11994D01*
X13278Y12004D01*
X13302Y12017D01*
X13324Y12032D01*
X13346Y12049D01*
X13366Y12067D01*
X13385Y12088D01*
X13537Y11958D01*
D02*
G37*
G36*
X11724Y12708D02*
X11771Y12530D01*
X11863Y12371D01*
X11994Y12240D01*
X12153Y12148D01*
X12331Y12100D01*
X12454D01*
X12531Y11980D01*
X12509Y11940D01*
X12461Y11762D01*
Y11578D01*
X12509Y11400D01*
X12601Y11240D01*
X12731Y11110D01*
X12891Y11018D01*
X13009Y10986D01*
X13076Y10926D01*
X13090Y10843D01*
X13058Y10721D01*
Y10537D01*
X13106Y10359D01*
X13193Y10208D01*
X13132Y10168D01*
X13094Y10109D01*
X13009D01*
X12902Y10181D01*
X12775Y10206D01*
X12765D01*
Y9750D01*
X12435D01*
Y10206D01*
X12425D01*
X12365Y10194D01*
X12321Y10357D01*
X12229Y10517D01*
X12178Y10568D01*
X12201Y10607D01*
X12248Y10785D01*
Y10970D01*
X12201Y11148D01*
X12108Y11307D01*
X11978Y11438D01*
X11818Y11530D01*
X11640Y11578D01*
X11456D01*
X11294Y11534D01*
X11421Y11458D01*
X11391Y11450D01*
X11364Y11441D01*
X11338Y11429D01*
X11313Y11416D01*
X11290Y11401D01*
X11269Y11384D01*
X11249Y11366D01*
X11231Y11346D01*
X11214Y11325D01*
X11199Y11301D01*
X11027Y11404D01*
X11040Y11428D01*
X11051Y11453D01*
X11060Y11479D01*
X11067Y11505D01*
X11071Y11532D01*
X11073Y11559D01*
X11073Y11587D01*
X11071Y11615D01*
X11067Y11644D01*
X11060Y11674D01*
X11100Y11650D01*
Y11800D01*
X10100D01*
Y12740D01*
X10329D01*
X10400Y12750D01*
X10400Y12750D01*
X11724D01*
Y12708D01*
D02*
G37*
G36*
X5098Y11909D02*
X5103Y11893D01*
X5113Y11880D01*
X5126Y11871D01*
X5144Y11864D01*
X5166Y11861D01*
X5191Y11861D01*
X5221Y11864D01*
X5255Y11870D01*
X5293Y11880D01*
Y11672D01*
X5254Y11660D01*
X5219Y11647D01*
X5188Y11633D01*
X5161Y11619D01*
X5138Y11603D01*
X5119Y11586D01*
X5104Y11569D01*
X5094Y11551D01*
X5087Y11531D01*
X5084Y11511D01*
X5096Y11929D01*
X5098Y11909D01*
D02*
G37*
G36*
X25328Y11099D02*
X25307Y11120D01*
X25285Y11140D01*
X25263Y11157D01*
X25240Y11173D01*
X25216Y11187D01*
X25191Y11199D01*
X25166Y11209D01*
X25140Y11217D01*
X25112Y11223D01*
X25085Y11228D01*
X25092Y11428D01*
X25119Y11426D01*
X25146Y11426D01*
X25173Y11429D01*
X25199Y11434D01*
X25224Y11442D01*
X25249Y11452D01*
X25274Y11465D01*
X25298Y11480D01*
X25321Y11498D01*
X25344Y11518D01*
X25328Y11099D01*
D02*
G37*
G36*
X14536Y11395D02*
X14542Y11399D01*
X14550Y11401D01*
X14558Y11401D01*
X14567Y11398D01*
X14577Y11392D01*
X14588Y11384D01*
X14599Y11374D01*
X14612Y11361D01*
X14641Y11328D01*
X14224Y11378D01*
X14246Y11395D01*
X14358Y11492D01*
X14363Y11499D01*
X14536Y11395D01*
D02*
G37*
G36*
X16230Y11329D02*
X16213Y11322D01*
X16198Y11310D01*
X16185Y11294D01*
X16175Y11273D01*
X16166Y11248D01*
X16159Y11218D01*
X16154Y11184D01*
X16151Y11144D01*
X16150Y11101D01*
X15950D01*
X15949Y11144D01*
X15946Y11184D01*
X15941Y11218D01*
X15934Y11248D01*
X15925Y11273D01*
X15915Y11294D01*
X15902Y11310D01*
X15887Y11322D01*
X15870Y11329D01*
X15852Y11331D01*
X16248D01*
X16230Y11329D01*
D02*
G37*
G36*
X10844Y10808D02*
X10814Y10793D01*
X10697Y10727D01*
X10694Y10723D01*
X10694Y10720D01*
X10538Y10894D01*
X10542Y10893D01*
X10549Y10895D01*
X10561Y10898D01*
X10576Y10904D01*
X10676Y10950D01*
X10750Y10985D01*
X10844Y10808D01*
D02*
G37*
G36*
X16151Y11056D02*
X16154Y11016D01*
X16159Y10982D01*
X16166Y10952D01*
X16175Y10927D01*
X16185Y10906D01*
X16198Y10890D01*
X16213Y10878D01*
X16230Y10871D01*
X16248Y10869D01*
X15852D01*
X15870Y10871D01*
X15887Y10878D01*
X15902Y10890D01*
X15915Y10906D01*
X15925Y10927D01*
X15934Y10952D01*
X15941Y10982D01*
X15946Y11016D01*
X15949Y11056D01*
X15950Y11099D01*
X16150D01*
X16151Y11056D01*
D02*
G37*
G36*
X13955Y11060D02*
X13950Y11033D01*
X13947Y11005D01*
X13947Y10978D01*
X13949Y10951D01*
X13953Y10925D01*
X13960Y10898D01*
X13968Y10872D01*
X13980Y10845D01*
X13993Y10819D01*
X14009Y10794D01*
X13599Y10883D01*
X13624Y10900D01*
X13647Y10918D01*
X13668Y10938D01*
X13687Y10958D01*
X13704Y10979D01*
X13719Y11002D01*
X13732Y11025D01*
X13743Y11050D01*
X13752Y11076D01*
X13759Y11103D01*
X13955Y11060D01*
D02*
G37*
G36*
X14601Y10840D02*
X14397Y10775D01*
X14352Y10845D01*
X14577Y10893D01*
X14601Y10840D01*
D02*
G37*
G36*
X14810Y10377D02*
X14804Y10399D01*
X14796Y10420D01*
X14784Y10440D01*
X14769Y10460D01*
X14751Y10480D01*
X14730Y10499D01*
X14707Y10518D01*
X14680Y10536D01*
X14650Y10554D01*
X14617Y10572D01*
X14632Y10809D01*
X14666Y10793D01*
X14697Y10781D01*
X14724Y10772D01*
X14747Y10767D01*
X14767Y10766D01*
X14783Y10768D01*
X14796Y10775D01*
X14805Y10785D01*
X14810Y10798D01*
X14812Y10816D01*
X14810Y10377D01*
D02*
G37*
G36*
X11517Y10579D02*
X11487Y10581D01*
X11457Y10581D01*
X11429Y10579D01*
X11401Y10575D01*
X11375Y10569D01*
X11349Y10561D01*
X11324Y10550D01*
X11300Y10537D01*
X11277Y10523D01*
X11255Y10506D01*
X11128Y10660D01*
X11148Y10679D01*
X11167Y10698D01*
X11184Y10720D01*
X11199Y10742D01*
X11212Y10766D01*
X11224Y10791D01*
X11233Y10817D01*
X11240Y10844D01*
X11246Y10873D01*
X11249Y10903D01*
X11517Y10579D01*
D02*
G37*
G36*
X17083Y10468D02*
X17057Y10483D01*
X17030Y10496D01*
X17004Y10506D01*
X16977Y10514D01*
X16950Y10519D01*
X16924Y10523D01*
X16897Y10524D01*
X16870Y10522D01*
X16842Y10519D01*
X16815Y10513D01*
X16765Y10707D01*
X16792Y10715D01*
X16818Y10725D01*
X16842Y10737D01*
X16865Y10750D01*
X16887Y10766D01*
X16908Y10784D01*
X16927Y10804D01*
X16946Y10826D01*
X16963Y10849D01*
X16979Y10875D01*
X17083Y10468D01*
D02*
G37*
G36*
X16297Y10733D02*
X16302Y10716D01*
X16312Y10701D01*
X16326Y10688D01*
X16344Y10677D01*
X16366Y10668D01*
X16393Y10661D01*
X16424Y10656D01*
X16460Y10653D01*
X16499Y10652D01*
Y10452D01*
X16457Y10451D01*
X16419Y10448D01*
X16385Y10443D01*
X16356Y10436D01*
X16331Y10427D01*
X16310Y10417D01*
X16294Y10404D01*
X16282Y10389D01*
X16274Y10372D01*
X16270Y10354D01*
X16296Y10752D01*
X16297Y10733D01*
D02*
G37*
G36*
X10886Y10265D02*
X10850Y10251D01*
X10790Y10222D01*
X10765Y10207D01*
X10744Y10191D01*
X10727Y10174D01*
X10714Y10157D01*
X10705Y10140D01*
X10699Y10122D01*
X10697Y10103D01*
Y10397D01*
X10698Y10400D01*
X10703Y10404D01*
X10710Y10409D01*
X10720Y10414D01*
X10749Y10428D01*
X10814Y10453D01*
X10841Y10463D01*
X10886Y10265D01*
D02*
G37*
G36*
X5903Y10103D02*
X5901Y10112D01*
X5895Y10120D01*
X5885Y10127D01*
X5871Y10133D01*
X5853Y10138D01*
X5831Y10142D01*
X5805Y10146D01*
X5741Y10150D01*
X5703Y10150D01*
Y10350D01*
X5741Y10350D01*
X5831Y10358D01*
X5853Y10362D01*
X5871Y10367D01*
X5885Y10373D01*
X5895Y10380D01*
X5901Y10388D01*
X5903Y10397D01*
Y10103D01*
D02*
G37*
G36*
X5094Y10431D02*
X5101Y10414D01*
X5111Y10399D01*
X5126Y10386D01*
X5144Y10375D01*
X5167Y10366D01*
X5194Y10359D01*
X5225Y10354D01*
X5261Y10351D01*
X5300Y10350D01*
Y10150D01*
X5261Y10149D01*
X5225Y10146D01*
X5194Y10141D01*
X5167Y10134D01*
X5144Y10125D01*
X5126Y10114D01*
X5111Y10101D01*
X5101Y10086D01*
X5094Y10069D01*
X5092Y10051D01*
Y10449D01*
X5094Y10431D01*
D02*
G37*
G36*
X15903Y9807D02*
X15994Y9802D01*
X16100Y9800D01*
Y9200D01*
X15994Y9199D01*
X15903Y9191D01*
Y9003D01*
X15897Y9040D01*
X15879Y9074D01*
X15849Y9104D01*
X15807Y9129D01*
X15753Y9151D01*
X15689Y9168D01*
X15661Y9163D01*
X15601Y9146D01*
X15549Y9127D01*
X15507Y9105D01*
X15473Y9079D01*
X15449Y9051D01*
Y9195D01*
X15303Y9200D01*
Y9800D01*
X15417Y9802D01*
X15449Y9805D01*
Y9949D01*
X15473Y9921D01*
X15507Y9895D01*
X15549Y9873D01*
X15601Y9854D01*
X15661Y9837D01*
X15689Y9832D01*
X15753Y9849D01*
X15807Y9871D01*
X15849Y9897D01*
X15879Y9926D01*
X15897Y9960D01*
X15903Y9997D01*
Y9807D01*
D02*
G37*
G36*
X11517Y9828D02*
X11490Y9843D01*
X11463Y9855D01*
X11437Y9865D01*
X11410Y9873D01*
X11383Y9878D01*
X11356Y9881D01*
X11329Y9882D01*
X11302Y9880D01*
X11275Y9876D01*
X11248Y9870D01*
X11196Y10063D01*
X11223Y10072D01*
X11248Y10082D01*
X11272Y10094D01*
X11295Y10108D01*
X11317Y10124D01*
X11338Y10142D01*
X11357Y10162D01*
X11375Y10184D01*
X11392Y10208D01*
X11408Y10234D01*
X11517Y9828D01*
D02*
G37*
G36*
X10890Y9774D02*
X10853Y9763D01*
X10820Y9751D01*
X10791Y9738D01*
X10765Y9724D01*
X10744Y9709D01*
X10726Y9693D01*
X10712Y9676D01*
X10702Y9658D01*
X10696Y9639D01*
X10694Y9619D01*
X10697Y9897D01*
X10698Y9903D01*
X10700Y9909D01*
X10703Y9915D01*
X10708Y9921D01*
X10715Y9926D01*
X10723Y9931D01*
X10732Y9936D01*
X10743Y9941D01*
X10755Y9945D01*
X10769Y9949D01*
X10890Y9774D01*
D02*
G37*
G36*
X5903Y9103D02*
X5901Y9099D01*
X5896Y9094D01*
X5887Y9089D01*
X5874Y9084D01*
X5858Y9079D01*
X5815Y9067D01*
X5724Y9049D01*
X5706Y9249D01*
X5744Y9257D01*
X5778Y9266D01*
X5808Y9276D01*
X5834Y9288D01*
X5856Y9301D01*
X5874Y9315D01*
X5888Y9331D01*
X5898Y9348D01*
X5904Y9366D01*
X5906Y9386D01*
X5903Y9103D01*
D02*
G37*
G36*
X13757Y9003D02*
X13738Y9003D01*
X13720Y8998D01*
X13703Y8990D01*
X13687Y8976D01*
X13673Y8959D01*
X13659Y8937D01*
X13647Y8910D01*
X13636Y8879D01*
X13626Y8843D01*
X13617Y8803D01*
X13415Y8808D01*
X13422Y8852D01*
X13427Y8891D01*
X13428Y8926D01*
X13427Y8956D01*
X13423Y8983D01*
X13416Y9005D01*
X13407Y9022D01*
X13394Y9035D01*
X13379Y9044D01*
X13360Y9049D01*
X13757Y9003D01*
D02*
G37*
G36*
X10700Y9390D02*
X10708Y9381D01*
X10723Y9370D01*
X10742Y9359D01*
X10768Y9346D01*
X10836Y9315D01*
X10981Y9259D01*
X10913Y8961D01*
X10790Y9004D01*
X10475Y9096D01*
X10387Y9114D01*
X10309Y9125D01*
X10241Y9130D01*
X10181Y9129D01*
X10130Y9121D01*
X10088Y9106D01*
X10697Y9397D01*
X10700Y9390D01*
D02*
G37*
G36*
X4799Y9178D02*
X4825Y9163D01*
X4850Y9151D01*
X4876Y9141D01*
X4903Y9134D01*
X4929Y9128D01*
X4956Y9125D01*
X4983Y9124D01*
X5010Y9126D01*
X5038Y9130D01*
X5073Y8933D01*
X5046Y8927D01*
X5020Y8919D01*
X4995Y8909D01*
X4971Y8897D01*
X4948Y8883D01*
X4926Y8866D01*
X4905Y8848D01*
X4885Y8828D01*
X4866Y8805D01*
X4848Y8781D01*
X4774Y9194D01*
X4799Y9178D01*
D02*
G37*
G36*
X11215Y9138D02*
X11325Y9083D01*
X11379Y9061D01*
X11482Y9027D01*
X11532Y9015D01*
X11581Y9006D01*
X11629Y9001D01*
X11675Y8999D01*
X11344Y8727D01*
Y8644D01*
X11340Y8645D01*
X11330Y8646D01*
X11292Y8648D01*
X11248Y8648D01*
X11231Y8634D01*
Y8552D01*
X11229Y8570D01*
X11222Y8587D01*
X11210Y8602D01*
X11194Y8615D01*
X11173Y8625D01*
X11148Y8634D01*
X11118Y8641D01*
X11084Y8646D01*
X11044Y8649D01*
X11001Y8650D01*
Y8850D01*
X11044Y8851D01*
X11084Y8854D01*
X11086Y8854D01*
X11082Y8857D01*
X11022Y8898D01*
X10950Y8942D01*
X11158Y9171D01*
X11215Y9138D01*
D02*
G37*
G36*
X6323Y8606D02*
X6300Y8617D01*
X6271Y8625D01*
X6237Y8628D01*
X6196Y8627D01*
X6151Y8622D01*
X6099Y8613D01*
X5980Y8582D01*
X5911Y8561D01*
X5838Y8536D01*
X5715Y8704D01*
X5770Y8725D01*
X5856Y8764D01*
X5887Y8783D01*
X5910Y8800D01*
X5925Y8817D01*
X5933Y8834D01*
X5932Y8849D01*
X5923Y8864D01*
X5906Y8878D01*
X6323Y8606D01*
D02*
G37*
G36*
X10699Y8888D02*
X10705Y8880D01*
X10715Y8873D01*
X10729Y8867D01*
X10747Y8862D01*
X10769Y8858D01*
X10795Y8854D01*
X10859Y8850D01*
X10897Y8850D01*
Y8650D01*
X10859Y8650D01*
X10769Y8642D01*
X10747Y8638D01*
X10729Y8633D01*
X10715Y8627D01*
X10705Y8620D01*
X10699Y8612D01*
X10697Y8603D01*
Y8897D01*
X10699Y8888D01*
D02*
G37*
G36*
X12331Y8552D02*
X12329Y8570D01*
X12322Y8587D01*
X12310Y8602D01*
X12294Y8615D01*
X12273Y8625D01*
X12248Y8634D01*
X12218Y8641D01*
X12184Y8646D01*
X12144Y8649D01*
X12101Y8650D01*
Y8850D01*
X12144Y8851D01*
X12184Y8854D01*
X12218Y8859D01*
X12248Y8866D01*
X12273Y8875D01*
X12294Y8885D01*
X12310Y8898D01*
X12322Y8913D01*
X12329Y8930D01*
X12331Y8948D01*
Y8552D01*
D02*
G37*
G36*
X11771Y8930D02*
X11778Y8913D01*
X11790Y8898D01*
X11806Y8885D01*
X11827Y8875D01*
X11852Y8866D01*
X11882Y8859D01*
X11916Y8854D01*
X11956Y8851D01*
X11999Y8850D01*
Y8650D01*
X11956Y8649D01*
X11916Y8646D01*
X11882Y8641D01*
X11852Y8634D01*
X11827Y8625D01*
X11806Y8615D01*
X11790Y8602D01*
X11778Y8587D01*
X11771Y8570D01*
X11769Y8552D01*
Y8948D01*
X11771Y8930D01*
D02*
G37*
G36*
X27350Y10200D02*
Y8450D01*
X26900D01*
Y8470D01*
X26000D01*
X25100D01*
Y8450D01*
X24550D01*
Y8750D01*
X24300Y9050D01*
X21550D01*
X18440Y9006D01*
X18350Y9095D01*
Y9200D01*
X16975D01*
Y9800D01*
X18350D01*
Y10228D01*
X19103Y10800D01*
X26750D01*
X27350Y10200D01*
D02*
G37*
G36*
X5459Y8708D02*
X5486Y8697D01*
X5514Y8690D01*
X5541Y8684D01*
X5568Y8681D01*
X5595Y8680D01*
X5622Y8682D01*
X5649Y8685D01*
X5676Y8692D01*
X5702Y8700D01*
X5770Y8512D01*
X5744Y8501D01*
X5719Y8489D01*
X5696Y8475D01*
X5674Y8459D01*
X5654Y8441D01*
X5635Y8421D01*
X5617Y8400D01*
X5601Y8377D01*
X5586Y8351D01*
X5572Y8324D01*
X5431Y8720D01*
X5459Y8708D01*
D02*
G37*
G36*
X12789Y8507D02*
X12770Y8505D01*
X12752Y8499D01*
X12736Y8489D01*
X12721Y8474D01*
X12707Y8456D01*
X12695Y8434D01*
X12684Y8407D01*
X12675Y8376D01*
X12667Y8342D01*
X12660Y8303D01*
X12456Y8303D01*
X12461Y8342D01*
X12463Y8378D01*
X12463Y8409D01*
X12460Y8436D01*
X12454Y8459D01*
X12446Y8477D01*
X12435Y8492D01*
X12422Y8503D01*
X12405Y8509D01*
X12387Y8511D01*
X12789Y8507D01*
D02*
G37*
G36*
X13481Y8097D02*
X13477Y8071D01*
X13472Y8019D01*
X13471Y7992D01*
X13473Y7936D01*
X13476Y7907D01*
X13486Y7848D01*
X13492Y7818D01*
X13138Y8043D01*
X13164Y8050D01*
X13188Y8060D01*
X13209Y8071D01*
X13229Y8085D01*
X13246Y8102D01*
X13261Y8120D01*
X13274Y8142D01*
X13285Y8165D01*
X13294Y8191D01*
X13301Y8219D01*
X13481Y8097D01*
D02*
G37*
G36*
X11206Y7612D02*
X11205Y7619D01*
X11201Y7626D01*
X11193Y7631D01*
X11183Y7636D01*
X11170Y7641D01*
X11154Y7644D01*
X11136Y7647D01*
X11114Y7648D01*
X11062Y7650D01*
Y7850D01*
X11090Y7850D01*
X11154Y7856D01*
X11170Y7859D01*
X11183Y7864D01*
X11193Y7869D01*
X11201Y7874D01*
X11205Y7881D01*
X11206Y7888D01*
Y7612D01*
D02*
G37*
G36*
X10848Y7887D02*
X10932Y7850D01*
X10938Y7845D01*
X10940Y7841D01*
X10939Y7838D01*
X10934Y7836D01*
X11027Y7648D01*
X11030Y7648D01*
X11032Y7644D01*
X11033Y7638D01*
X11033Y7628D01*
X11031Y7617D01*
X11028Y7602D01*
X11018Y7566D01*
X11002Y7518D01*
X10821Y7897D01*
X10848Y7887D01*
D02*
G37*
G36*
X9697Y7603D02*
X9677Y7601D01*
X9657Y7596D01*
X9637Y7586D01*
X9618Y7574D01*
X9599Y7557D01*
X9581Y7537D01*
X9562Y7513D01*
X9545Y7485D01*
X9527Y7454D01*
X9510Y7418D01*
X9327Y7500D01*
X9356Y7564D01*
X9413Y7727D01*
X9423Y7771D01*
X9429Y7809D01*
X9430Y7843D01*
X9427Y7871D01*
X9419Y7895D01*
X9406Y7913D01*
X9697Y7603D01*
D02*
G37*
G36*
X8400Y7635D02*
X8402Y7623D01*
X8403Y7603D01*
X8683Y7606D01*
X8663Y7604D01*
X8644Y7598D01*
X8627Y7588D01*
X8610Y7574D01*
X8595Y7556D01*
X8580Y7534D01*
X8567Y7509D01*
X8555Y7479D01*
X8545Y7446D01*
X8535Y7408D01*
X8335Y7431D01*
X8348Y7485D01*
X8392Y7634D01*
X8397Y7639D01*
X8400Y7635D01*
D02*
G37*
G36*
X8901Y7635D02*
X8902Y7623D01*
X8903Y7603D01*
X9185Y7606D01*
X9166Y7604D01*
X9147Y7598D01*
X9130Y7588D01*
X9114Y7574D01*
X9100Y7556D01*
X9087Y7534D01*
X9075Y7508D01*
X9064Y7478D01*
X9055Y7444D01*
X9047Y7406D01*
X8847Y7425D01*
X8857Y7481D01*
X8898Y7638D01*
X8901Y7635D01*
D02*
G37*
G36*
X10650Y7210D02*
X10656Y7146D01*
X10659Y7130D01*
X10664Y7117D01*
X10669Y7107D01*
X10674Y7099D01*
X10681Y7095D01*
X10688Y7094D01*
X10653D01*
X10658Y6905D01*
X10442D01*
X10444Y6909D01*
X10445Y6919D01*
X10446Y6935D01*
X10449Y7094D01*
X10412D01*
X10419Y7095D01*
X10426Y7099D01*
X10431Y7107D01*
X10436Y7117D01*
X10441Y7130D01*
X10444Y7146D01*
X10447Y7164D01*
X10448Y7186D01*
X10450Y7238D01*
X10650D01*
X10650Y7210D01*
D02*
G37*
G36*
X9009Y7199D02*
X9008Y7171D01*
X9009Y7153D01*
X9072Y7194D01*
X9110Y7221D01*
X9244Y7071D01*
X9223Y7054D01*
X9205Y7037D01*
X9190Y7019D01*
X9179Y7000D01*
X9170Y6980D01*
X9165Y6960D01*
X9163Y6938D01*
X9164Y6926D01*
X9178Y6916D01*
X9202Y6902D01*
X9227Y6890D01*
X9244Y6883D01*
X9255Y6887D01*
X9274Y6898D01*
X9287Y6911D01*
X9297Y6926D01*
X9303Y6943D01*
X9304Y6962D01*
X9308Y6866D01*
X9331Y6863D01*
X9359Y6862D01*
X9359Y6662D01*
X9332Y6661D01*
X9318Y6660D01*
X9323Y6564D01*
X9320Y6583D01*
X9312Y6599D01*
X9301Y6614D01*
X9285Y6627D01*
X9265Y6638D01*
X9249Y6644D01*
X9227Y6635D01*
X9202Y6623D01*
X9178Y6608D01*
X9155Y6592D01*
X9133Y6573D01*
X9111Y6552D01*
X9111Y6662D01*
X9101Y6662D01*
Y6862D01*
X9111Y6863D01*
X9111Y6902D01*
X8950Y6980D01*
X8675Y6965D01*
X8696Y6988D01*
X8732Y7036D01*
X8748Y7061D01*
X8762Y7085D01*
X8774Y7110D01*
X8785Y7135D01*
X8794Y7161D01*
X8801Y7187D01*
X8807Y7213D01*
X9013Y7227D01*
X9009Y7199D01*
D02*
G37*
G36*
X18762Y6095D02*
X15495D01*
X15248Y6145D01*
X15202Y6284D01*
X15272Y6390D01*
X15291Y6485D01*
X14500D01*
X13709D01*
X13728Y6390D01*
X13833Y6233D01*
X13842Y6182D01*
X13600Y5850D01*
X12400D01*
Y6650D01*
X12650Y6900D01*
X13150D01*
X13457Y7207D01*
X13540Y7241D01*
X13709Y7410D01*
X13743Y7493D01*
X13845Y7595D01*
X14840Y7595D01*
X15232Y8300D01*
X18762D01*
Y6095D01*
D02*
G37*
G36*
X10938Y5947D02*
X10901Y5908D01*
X10841Y5837D01*
X10819Y5805D01*
X10802Y5776D01*
X10790Y5749D01*
X10783Y5724D01*
X10781Y5702D01*
X10785Y5682D01*
X10794Y5664D01*
X10740Y5742D01*
X10700Y5700D01*
X10550Y5850D01*
X10554Y5852D01*
X10562Y5858D01*
X10589Y5884D01*
X10620Y5914D01*
X10564Y5994D01*
X10577Y5981D01*
X10594Y5974D01*
X10613Y5973D01*
X10637Y5978D01*
X10663Y5989D01*
X10693Y6007D01*
X10727Y6030D01*
X10763Y6060D01*
X10847Y6138D01*
X10938Y5947D01*
D02*
G37*
G36*
X9310Y6044D02*
X9487Y5990D01*
X9535Y5980D01*
X9578Y5974D01*
X9616Y5973D01*
X9648Y5976D01*
X9675Y5983D01*
X9697Y5994D01*
X9306Y5723D01*
X9322Y5737D01*
X9330Y5752D01*
X9330Y5768D01*
X9323Y5785D01*
X9308Y5803D01*
X9285Y5821D01*
X9255Y5841D01*
X9216Y5861D01*
X9171Y5883D01*
X9117Y5905D01*
X9241Y6071D01*
X9310Y6044D01*
D02*
G37*
%LPC*%
G36*
X10588Y29640D02*
X10074D01*
X10079Y29623D01*
X10198Y29417D01*
X10365Y29250D01*
X10570Y29131D01*
X10588Y29127D01*
Y29640D01*
D02*
G37*
G36*
X30212Y19150D02*
X29988D01*
X29772Y19092D01*
X29578Y18980D01*
X29420Y18822D01*
X29308Y18628D01*
X29250Y18412D01*
Y18188D01*
X29308Y17972D01*
X29420Y17778D01*
X29578Y17620D01*
X29772Y17508D01*
X29988Y17450D01*
X30212D01*
X30428Y17508D01*
X30622Y17620D01*
X30780Y17778D01*
X30892Y17972D01*
X30950Y18188D01*
Y18412D01*
X30892Y18628D01*
X30780Y18822D01*
X30622Y18980D01*
X30428Y19092D01*
X30212Y19150D01*
D02*
G37*
G36*
Y16150D02*
X29988D01*
X29772Y16092D01*
X29578Y15980D01*
X29420Y15822D01*
X29308Y15628D01*
X29250Y15412D01*
Y15188D01*
X29308Y14972D01*
X29420Y14778D01*
X29578Y14620D01*
X29772Y14508D01*
X29988Y14450D01*
X30212D01*
X30428Y14508D01*
X30622Y14620D01*
X30780Y14778D01*
X30892Y14972D01*
X30950Y15188D01*
Y15412D01*
X30892Y15628D01*
X30780Y15822D01*
X30622Y15980D01*
X30428Y16092D01*
X30212Y16150D01*
D02*
G37*
G36*
X28750Y13000D02*
X28415D01*
Y12565D01*
X28750D01*
Y13000D01*
D02*
G37*
G36*
X28085D02*
X27750D01*
Y12565D01*
X28085D01*
Y13000D01*
D02*
G37*
G36*
X28750Y12235D02*
X28415D01*
Y11800D01*
X28750D01*
Y12235D01*
D02*
G37*
G36*
X28085D02*
X27750D01*
Y11800D01*
X28085D01*
Y12235D01*
D02*
G37*
G36*
X31300Y13200D02*
X29900D01*
Y12027D01*
X29895Y12003D01*
X29900Y11979D01*
Y11600D01*
X29988D01*
Y9402D01*
X29994Y9374D01*
X29959Y9024D01*
X29849Y8661D01*
X29670Y8326D01*
X29447Y8055D01*
X29423Y8039D01*
X28903Y7518D01*
X28900Y7518D01*
X28849Y7519D01*
X28797Y7510D01*
X28774Y7501D01*
X28749Y7499D01*
X28636Y7465D01*
X28618Y7455D01*
X28598Y7451D01*
X28593Y7448D01*
X28587Y7446D01*
X28028Y7196D01*
X27980Y7162D01*
X27929Y7133D01*
X27812Y7033D01*
X27776Y6987D01*
X27735Y6945D01*
X27651Y6815D01*
X27630Y6761D01*
X27603Y6709D01*
X27559Y6561D01*
X27554Y6503D01*
X27542Y6446D01*
X27542Y6368D01*
X27542Y6368D01*
X27542Y5615D01*
X27542Y5519D01*
X27546Y5499D01*
X27544Y5479D01*
X27562Y5422D01*
X27573Y5363D01*
X27584Y5346D01*
X27590Y5327D01*
X27681Y5157D01*
X27694Y5141D01*
X27702Y5122D01*
X27744Y5080D01*
X27782Y5034D01*
X27800Y5024D01*
X27814Y5010D01*
X27974Y4903D01*
X27993Y4895D01*
X28009Y4882D01*
X28066Y4865D01*
X28121Y4842D01*
X28142Y4842D01*
X28161Y4836D01*
X28323Y4820D01*
X28400Y4827D01*
X28476Y4834D01*
X28594Y4868D01*
X28615Y4878D01*
X28638Y4883D01*
X28638Y4883D01*
X28638Y4883D01*
X28638Y4883D01*
X28748Y4928D01*
X28748Y4929D01*
X28748Y4929D01*
X29226Y5126D01*
X29275Y5159D01*
X29328Y5188D01*
X29486Y5317D01*
X29524Y5363D01*
X29566Y5406D01*
X29680Y5575D01*
X29703Y5631D01*
X29731Y5684D01*
X29784Y5857D01*
X29788Y5905D01*
X29801Y5953D01*
X29807Y6077D01*
X29806Y6088D01*
X29808Y6099D01*
Y6693D01*
X30289Y7173D01*
X30298Y7188D01*
X30608Y7551D01*
X30866Y7972D01*
X31056Y8429D01*
X31171Y8909D01*
X31208Y9385D01*
X31212Y9402D01*
Y11600D01*
X31300D01*
Y11979D01*
X31305Y12003D01*
X31300Y12027D01*
Y13200D01*
D02*
G37*
G36*
X26843Y6470D02*
X26330D01*
Y5957D01*
X26347Y5961D01*
X26553Y6080D01*
X26720Y6247D01*
X26839Y6453D01*
X26843Y6470D01*
D02*
G37*
G36*
X25670D02*
X25157D01*
X25161Y6453D01*
X25280Y6247D01*
X25447Y6080D01*
X25653Y5961D01*
X25670Y5957D01*
Y6470D01*
D02*
G37*
G36*
X15291Y4985D02*
X14765D01*
Y4591D01*
X14825D01*
X15010Y4628D01*
X15167Y4733D01*
X15272Y4890D01*
X15291Y4985D01*
D02*
G37*
G36*
X18350Y4600D02*
X17275D01*
Y4100D01*
X18350D01*
Y4600D01*
D02*
G37*
G36*
X16675D02*
X15600D01*
Y4100D01*
X16675D01*
Y4600D01*
D02*
G37*
G36*
X6740Y2930D02*
X6170D01*
Y2360D01*
X6740D01*
Y2930D01*
D02*
G37*
G36*
X5510D02*
X4940D01*
Y2360D01*
X5510D01*
Y2930D01*
D02*
G37*
G36*
X6740Y1700D02*
X6170D01*
Y1130D01*
X6740D01*
Y1700D01*
D02*
G37*
G36*
X5510D02*
X4940D01*
Y1130D01*
X5510D01*
Y1700D01*
D02*
G37*
G36*
X26292Y3030D02*
X26028D01*
X25774Y2962D01*
X25546Y2830D01*
X25360Y2644D01*
X25228Y2416D01*
X25160Y2162D01*
Y1898D01*
X25228Y1644D01*
X25360Y1416D01*
X25546Y1230D01*
X25774Y1098D01*
X26028Y1030D01*
X26292D01*
X26546Y1098D01*
X26774Y1230D01*
X26960Y1416D01*
X27092Y1644D01*
X27160Y1898D01*
Y2162D01*
X27092Y2416D01*
X26960Y2644D01*
X26774Y2830D01*
X26546Y2962D01*
X26292Y3030D01*
D02*
G37*
G36*
X23752D02*
X23488D01*
X23234Y2962D01*
X23006Y2830D01*
X22820Y2644D01*
X22688Y2416D01*
X22620Y2162D01*
Y1898D01*
X22688Y1644D01*
X22820Y1416D01*
X23006Y1230D01*
X23234Y1098D01*
X23488Y1030D01*
X23752D01*
X24006Y1098D01*
X24234Y1230D01*
X24420Y1416D01*
X24552Y1644D01*
X24620Y1898D01*
Y2162D01*
X24552Y2416D01*
X24420Y2644D01*
X24234Y2830D01*
X24006Y2962D01*
X23752Y3030D01*
D02*
G37*
G36*
X21212D02*
X20948D01*
X20694Y2962D01*
X20466Y2830D01*
X20280Y2644D01*
X20148Y2416D01*
X20080Y2162D01*
Y1898D01*
X20148Y1644D01*
X20280Y1416D01*
X20466Y1230D01*
X20694Y1098D01*
X20948Y1030D01*
X21212D01*
X21466Y1098D01*
X21694Y1230D01*
X21880Y1416D01*
X22012Y1644D01*
X22080Y1898D01*
Y2162D01*
X22012Y2416D01*
X21880Y2644D01*
X21694Y2830D01*
X21466Y2962D01*
X21212Y3030D01*
D02*
G37*
G36*
X18672D02*
X18408D01*
X18154Y2962D01*
X17926Y2830D01*
X17740Y2644D01*
X17608Y2416D01*
X17540Y2162D01*
Y1898D01*
X17608Y1644D01*
X17740Y1416D01*
X17926Y1230D01*
X18154Y1098D01*
X18408Y1030D01*
X18672D01*
X18926Y1098D01*
X19154Y1230D01*
X19340Y1416D01*
X19472Y1644D01*
X19540Y1898D01*
Y2162D01*
X19472Y2416D01*
X19340Y2644D01*
X19154Y2830D01*
X18926Y2962D01*
X18672Y3030D01*
D02*
G37*
G36*
X16132D02*
X15868D01*
X15614Y2962D01*
X15386Y2830D01*
X15200Y2644D01*
X15068Y2416D01*
X15000Y2162D01*
Y1898D01*
X15068Y1644D01*
X15200Y1416D01*
X15386Y1230D01*
X15614Y1098D01*
X15868Y1030D01*
X16132D01*
X16386Y1098D01*
X16614Y1230D01*
X16800Y1416D01*
X16932Y1644D01*
X17000Y1898D01*
Y2162D01*
X16932Y2416D01*
X16800Y2644D01*
X16614Y2830D01*
X16386Y2962D01*
X16132Y3030D01*
D02*
G37*
G36*
X13592D02*
X13328D01*
X13074Y2962D01*
X12846Y2830D01*
X12660Y2644D01*
X12528Y2416D01*
X12460Y2162D01*
Y1898D01*
X12528Y1644D01*
X12660Y1416D01*
X12846Y1230D01*
X13074Y1098D01*
X13328Y1030D01*
X13592D01*
X13846Y1098D01*
X14074Y1230D01*
X14260Y1416D01*
X14392Y1644D01*
X14460Y1898D01*
Y2162D01*
X14392Y2416D01*
X14260Y2644D01*
X14074Y2830D01*
X13846Y2962D01*
X13592Y3030D01*
D02*
G37*
G36*
X11052D02*
X10788D01*
X10534Y2962D01*
X10306Y2830D01*
X10120Y2644D01*
X9988Y2416D01*
X9920Y2162D01*
Y1898D01*
X9988Y1644D01*
X10120Y1416D01*
X10306Y1230D01*
X10534Y1098D01*
X10788Y1030D01*
X11052D01*
X11306Y1098D01*
X11534Y1230D01*
X11720Y1416D01*
X11852Y1644D01*
X11920Y1898D01*
Y2162D01*
X11852Y2416D01*
X11720Y2644D01*
X11534Y2830D01*
X11306Y2962D01*
X11052Y3030D01*
D02*
G37*
G36*
X8512D02*
X8248D01*
X7994Y2962D01*
X7766Y2830D01*
X7580Y2644D01*
X7448Y2416D01*
X7380Y2162D01*
Y1898D01*
X7448Y1644D01*
X7580Y1416D01*
X7766Y1230D01*
X7994Y1098D01*
X8248Y1030D01*
X8512D01*
X8766Y1098D01*
X8994Y1230D01*
X9180Y1416D01*
X9312Y1644D01*
X9380Y1898D01*
Y2162D01*
X9312Y2416D01*
X9180Y2644D01*
X8994Y2830D01*
X8766Y2962D01*
X8512Y3030D01*
D02*
G37*
%LPD*%
G36*
X30879Y11999D02*
X30862Y11987D01*
X30847Y11967D01*
X30835Y11939D01*
X30824Y11903D01*
X30816Y11859D01*
X30809Y11807D01*
X30801Y11679D01*
X30800Y11603D01*
X30400D01*
X30399Y11679D01*
X30384Y11859D01*
X30376Y11903D01*
X30365Y11939D01*
X30352Y11967D01*
X30338Y11987D01*
X30321Y11999D01*
X30303Y12003D01*
X30897D01*
X30879Y11999D01*
D02*
G37*
G36*
X29161Y7060D02*
X29239Y7009D01*
X29317Y6925D01*
X29342Y6879D01*
X29377Y6844D01*
X29367Y6833D01*
X29372Y6824D01*
X29400Y6713D01*
Y6099D01*
X29400Y6099D01*
X29400Y6099D01*
X29393Y5975D01*
X29341Y5802D01*
X29227Y5632D01*
X29070Y5503D01*
X28592Y5305D01*
X28482Y5260D01*
Y5260D01*
X28363Y5226D01*
X28201Y5242D01*
X28041Y5349D01*
X27950Y5519D01*
X27950Y5615D01*
X27950Y6368D01*
X27950D01*
X27950Y6446D01*
X27994Y6594D01*
X28078Y6723D01*
X28195Y6824D01*
X28754Y7074D01*
X28754Y7074D01*
X28867Y7108D01*
X28919Y7117D01*
X29034Y7109D01*
X29065Y7098D01*
X29070Y7103D01*
X29094Y7127D01*
X29161Y7060D01*
D02*
G37*
%LPC*%
G36*
X23959Y27335D02*
X23565D01*
Y26809D01*
X23660Y26828D01*
X23817Y26933D01*
X23922Y27090D01*
X23959Y27275D01*
Y27335D01*
D02*
G37*
G36*
X23700Y26315D02*
X23465D01*
Y25970D01*
X24177D01*
X24171Y26000D01*
X24060Y26165D01*
X23895Y26276D01*
X23700Y26315D01*
D02*
G37*
G36*
X27800Y26348D02*
Y25900D01*
X28248D01*
X28245Y25909D01*
X28140Y26091D01*
X27991Y26240D01*
X27809Y26345D01*
X27800Y26348D01*
D02*
G37*
G36*
X27200D02*
X27191Y26345D01*
X27009Y26240D01*
X26860Y26091D01*
X26755Y25909D01*
X26752Y25900D01*
X27200D01*
Y26348D01*
D02*
G37*
G36*
X21535Y27335D02*
X21141D01*
Y27275D01*
X21178Y27090D01*
X21283Y26933D01*
X21440Y26828D01*
X21535Y26809D01*
Y27335D01*
D02*
G37*
G36*
X28248Y24050D02*
X27800D01*
Y23602D01*
X27809Y23605D01*
X27991Y23710D01*
X28140Y23859D01*
X28245Y24041D01*
X28248Y24050D01*
D02*
G37*
G36*
X27200D02*
X26752D01*
X26755Y24041D01*
X26860Y23859D01*
X27009Y23710D01*
X27191Y23605D01*
X27200Y23602D01*
Y24050D01*
D02*
G37*
G36*
X16650Y22085D02*
X16626D01*
X16456Y21930D01*
X16385Y21944D01*
X16315Y21954D01*
Y21800D01*
X16650D01*
Y22085D01*
D02*
G37*
G36*
X18577Y21830D02*
X18404D01*
X18312Y21783D01*
X18306Y21817D01*
X18284Y21816D01*
X17928Y21781D01*
X17910Y21775D01*
X17910Y21775D01*
X17908Y21755D01*
X17905Y21699D01*
X18100Y21699D01*
X18062Y21694D01*
X18028Y21682D01*
X17998Y21662D01*
X17972Y21634D01*
X17950Y21598D01*
X17932Y21553D01*
X17918Y21501D01*
X17915Y21485D01*
X18100D01*
X18295Y21524D01*
X18460Y21635D01*
X18571Y21800D01*
X18577Y21830D01*
D02*
G37*
G36*
X17893D02*
X17700D01*
X17118D01*
Y21757D01*
X17081Y21783D01*
X17044Y21806D01*
X17006Y21827D01*
X17000Y21830D01*
X16823D01*
X16829Y21800D01*
X16940Y21635D01*
X17105Y21524D01*
X17300Y21485D01*
X17485D01*
X17482Y21501D01*
X17468Y21553D01*
X17450Y21598D01*
X17428Y21634D01*
X17402Y21662D01*
X17372Y21682D01*
X17338Y21694D01*
X17300Y21699D01*
X17489Y21699D01*
X17488Y21783D01*
X17895D01*
X17893Y21830D01*
D02*
G37*
G36*
X17435Y20285D02*
X17041D01*
Y20225D01*
X17078Y20040D01*
X17183Y19883D01*
X17340Y19778D01*
X17435Y19759D01*
Y20285D01*
D02*
G37*
G36*
X21200Y18750D02*
X20865D01*
Y18552D01*
X20881Y18546D01*
X20900Y18544D01*
X20865D01*
Y18465D01*
X21200D01*
Y18750D01*
D02*
G37*
G36*
X3193Y19355D02*
X2908D01*
Y19161D01*
X2914Y19157D01*
X2931Y19151D01*
X2950Y19149D01*
X2908D01*
Y19020D01*
X3193D01*
Y19355D01*
D02*
G37*
G36*
Y18690D02*
X2908D01*
Y18558D01*
X2950D01*
X2931Y18556D01*
X2914Y18550D01*
X2908Y18546D01*
Y18355D01*
X3193D01*
Y18690D01*
D02*
G37*
G36*
Y17555D02*
X2908D01*
Y17361D01*
X2914Y17357D01*
X2931Y17351D01*
X2950Y17349D01*
X2908D01*
Y17220D01*
X3193D01*
Y17555D01*
D02*
G37*
G36*
X6205Y17200D02*
X5870D01*
Y17000D01*
X5881Y16996D01*
X5900Y16994D01*
X5870D01*
Y16915D01*
X5999D01*
Y16950D01*
X6001Y16931D01*
X6007Y16915D01*
X6205D01*
Y17200D01*
D02*
G37*
G36*
X7075Y17206D02*
X7065D01*
Y16915D01*
X7398D01*
X7381Y17002D01*
X7309Y17109D01*
X7202Y17181D01*
X7075Y17206D01*
D02*
G37*
G36*
X6735D02*
X6725D01*
X6598Y17181D01*
X6491Y17109D01*
X6419Y17002D01*
X6402Y16915D01*
X6623D01*
X6629Y16930D01*
X6631Y16948D01*
Y16915D01*
X6735D01*
Y17206D01*
D02*
G37*
G36*
X5540Y17200D02*
X5205D01*
Y16915D01*
X5540D01*
Y16994D01*
X5500D01*
X5519Y16996D01*
X5536Y17002D01*
X5540Y17005D01*
Y17200D01*
D02*
G37*
G36*
X3193Y16890D02*
X2908D01*
Y16555D01*
X3193D01*
Y16890D01*
D02*
G37*
G36*
X6205Y15585D02*
X5870D01*
Y15300D01*
X6205D01*
Y15585D01*
D02*
G37*
G36*
X5540D02*
X5205D01*
Y15300D01*
X5540D01*
Y15585D01*
D02*
G37*
G36*
X6735D02*
X6402D01*
X6419Y15498D01*
X6491Y15391D01*
X6598Y15319D01*
X6725Y15294D01*
X6735D01*
Y15585D01*
D02*
G37*
G36*
X6612Y15127D02*
X6512D01*
X6303Y15099D01*
X6108Y15019D01*
X5941Y14891D01*
X5813Y14723D01*
X5770Y14620D01*
X6612D01*
Y15127D01*
D02*
G37*
G36*
X3132D02*
X3032D01*
Y14620D01*
X3873D01*
X3831Y14723D01*
X3702Y14891D01*
X3535Y15019D01*
X3341Y15099D01*
X3132Y15127D01*
D02*
G37*
G36*
X2432D02*
X2332D01*
X2123Y15099D01*
X1928Y15019D01*
X1761Y14891D01*
X1633Y14723D01*
X1590Y14620D01*
X2432D01*
Y15127D01*
D02*
G37*
G36*
X3873Y14020D02*
X3032D01*
Y13513D01*
X3132D01*
X3341Y13541D01*
X3535Y13621D01*
X3702Y13749D01*
X3831Y13917D01*
X3873Y14020D01*
D02*
G37*
G36*
X2432D02*
X1590D01*
X1633Y13917D01*
X1761Y13749D01*
X1928Y13621D01*
X2123Y13541D01*
X2332Y13513D01*
X2432D01*
Y14020D01*
D02*
G37*
G36*
X3132Y6487D02*
X3032D01*
Y5980D01*
X3873D01*
X3831Y6083D01*
X3702Y6251D01*
X3535Y6379D01*
X3341Y6459D01*
X3132Y6487D01*
D02*
G37*
G36*
X2432D02*
X2332D01*
X2123Y6459D01*
X1928Y6379D01*
X1761Y6251D01*
X1633Y6083D01*
X1590Y5980D01*
X2432D01*
Y6487D01*
D02*
G37*
G36*
X6612Y5380D02*
X5770D01*
X5813Y5277D01*
X5941Y5109D01*
X6108Y4981D01*
X6303Y4901D01*
X6512Y4873D01*
X6612D01*
Y5380D01*
D02*
G37*
G36*
X3873D02*
X3032D01*
Y4873D01*
X3132D01*
X3341Y4901D01*
X3535Y4981D01*
X3702Y5109D01*
X3831Y5277D01*
X3873Y5380D01*
D02*
G37*
G36*
X2432D02*
X1590D01*
X1633Y5277D01*
X1761Y5109D01*
X1928Y4981D01*
X2123Y4901D01*
X2332Y4873D01*
X2432D01*
Y5380D01*
D02*
G37*
G36*
X11231Y8648D02*
Y8647D01*
X11231Y8648D01*
X11231Y8648D01*
D02*
G37*
G36*
X26900Y9700D02*
X26330D01*
Y9130D01*
X26900D01*
Y9700D01*
D02*
G37*
G36*
X25670D02*
X25100D01*
Y9130D01*
X25670D01*
Y9700D01*
D02*
G37*
G36*
X18350Y8000D02*
X17275D01*
Y7500D01*
X18350D01*
Y8000D01*
D02*
G37*
G36*
X16675D02*
X15600D01*
Y7500D01*
X16675D01*
Y8000D01*
D02*
G37*
G36*
X14825Y7409D02*
X14765D01*
Y7015D01*
X15291D01*
X15272Y7110D01*
X15167Y7267D01*
X15010Y7372D01*
X14825Y7409D01*
D02*
G37*
G36*
X14235D02*
X14175D01*
X13990Y7372D01*
X13833Y7267D01*
X13728Y7110D01*
X13709Y7015D01*
X14235D01*
Y7409D01*
D02*
G37*
G36*
X18350Y6900D02*
X17275D01*
Y6400D01*
X18350D01*
Y6900D01*
D02*
G37*
G36*
X16675D02*
X15600D01*
Y6400D01*
X16675D01*
Y6900D01*
D02*
G37*
%LPD*%
D11*
X21390Y13950D02*
G03*
X21393Y13947I135J148D01*
G01*
X18590Y18078D02*
G03*
X18700Y18039I119J161D01*
G01*
X19931Y15726D02*
G03*
X20145Y15598I369J374D01*
G01*
X15238Y19946D02*
G03*
X15025Y20003I-410J-1101D01*
G01*
X21431Y13912D02*
G03*
X21394Y13946I-381J-362D01*
G01*
X13647Y20350D02*
G03*
X13947Y19809I842J113D01*
G01*
X19931Y15726D02*
G03*
X19931Y15727I-140J-143D01*
G01*
X19709Y15489D02*
G03*
X19725Y15474I591J611D01*
G01*
X13947Y19809D02*
G03*
X14018Y19757I542J655D01*
G01*
X17944Y16944D02*
G03*
X18137Y16850I608J1006D01*
G01*
X19850Y14570D02*
G03*
X19865Y14553I153J129D01*
G01*
X18236Y17531D02*
G03*
X18366Y17459I316J419D01*
G01*
X17347Y17306D02*
G03*
X17352Y17303I109J168D01*
G01*
X18040Y17271D02*
G03*
X18253Y17154I511J679D01*
G01*
X18270Y16427D02*
G03*
X18188Y16484I-152J-130D01*
G01*
X18431Y17790D02*
G03*
X18482Y17762I120J160D01*
G01*
X18484Y16673D02*
G03*
X18303Y16788I-366J-376D01*
G01*
X15013Y20005D02*
G03*
X15010Y20005I-54J-321D01*
G01*
X17708Y18713D02*
G03*
X15238Y19946I-7086J-11114D01*
G01*
X18825Y17620D02*
G03*
X18645Y17701I-707J-1323D01*
G01*
X20190Y16892D02*
G03*
X20213Y16882I94J177D01*
G01*
X18834Y17228D02*
G03*
X18532Y17397I-717J-931D01*
G01*
X18708Y16908D02*
G03*
X18416Y17093I-591J-611D01*
G01*
X13640Y20503D02*
G03*
X13647Y20350I849J-39D01*
G01*
X18431Y17790D02*
G03*
X18409Y17807I-2173J-2868D01*
G01*
X20304Y14138D02*
G03*
X20319Y14125I138J145D01*
G01*
X17347Y17306D02*
G03*
X17321Y17321I-109J-168D01*
G01*
X10700Y7600D02*
G03*
X10550Y7238I362J-362D01*
G01*
X10717Y7616D02*
G03*
X10700Y7600I345J-379D01*
G01*
X11062Y7750D02*
G03*
X10717Y7616I0J-512D01*
G01*
X13260Y7791D02*
G03*
X13345Y7919I-112J166D01*
G01*
X10799Y10898D02*
G03*
X10893Y10985I-99J202D01*
G01*
X14406Y11115D02*
G03*
X14531Y10769I429J-41D01*
G01*
X14406Y11115D02*
G03*
X14407Y11140I-199J18D01*
G01*
X14465Y11465D02*
G03*
X14407Y11324I142J-141D01*
G01*
X14883Y10577D02*
G03*
X14916Y10575I33J197D01*
G01*
X5653Y11878D02*
G03*
X5772Y11972I-55J192D01*
G01*
X14799Y11674D02*
G03*
X14550Y11550I61J-435D01*
G01*
X16100Y22250D02*
G03*
X16716Y21995I616J616D01*
G01*
X20208Y27618D02*
G03*
X20246Y27609I64J190D01*
G01*
X20248Y27609D02*
G03*
X20395Y27600I147J1186D01*
G01*
X24500Y23250D02*
G03*
X24464Y23265I-36J-36D01*
G01*
X22861Y12407D02*
G03*
X25550Y11300I2689J2713D01*
G01*
X10691Y13400D02*
G03*
X10450Y13300I0J-341D01*
G01*
X10329Y13250D02*
G03*
X10450Y13300I0J171D01*
G01*
X13046Y14672D02*
X13046Y14673D01*
X13596Y14275D02*
G03*
X13460Y14640I-843J-107D01*
G01*
X12602Y15304D02*
G03*
X12530Y15387I-430J-301D01*
G01*
X12445Y16163D02*
G03*
X12423Y16190I-167J-111D01*
G01*
X13185Y15051D02*
G03*
X13184Y15052I-978J-651D01*
G01*
X13046Y14673D02*
G03*
X13044Y14676I-166J-112D01*
G01*
X13186Y15049D02*
G03*
X13185Y15051I-980J-649D01*
G01*
X14315Y20762D02*
G03*
X14341Y20649I199J-14D01*
G01*
X14718Y20074D02*
G03*
X14789Y20045I109J168D01*
G01*
X14555Y20275D02*
G03*
X14615Y20190I456J261D01*
G01*
X14377Y22064D02*
G03*
X14268Y22642I-1271J60D01*
G01*
X14909Y20021D02*
G03*
X14928Y20018I101J515D01*
G01*
X14863Y20765D02*
G03*
X14921Y20625I200J1D01*
G01*
X14838Y21599D02*
G03*
X14850Y21551I199J22D01*
G01*
X14863Y21478D02*
G03*
X14850Y21550I-200J0D01*
G01*
X13709Y21970D02*
G03*
X13344Y22699I-603J154D01*
G01*
X13357Y20151D02*
G03*
X13843Y19483I1132J313D01*
G01*
X13319Y20362D02*
G03*
X13357Y20151I1171J102D01*
G01*
X17379Y17764D02*
G03*
X14898Y19032I-6757J-10165D01*
G01*
X14358Y19160D02*
G03*
X14584Y19087I369J766D01*
G01*
X14181Y19260D02*
G03*
X14358Y19160I825J1253D01*
G01*
X13117Y23366D02*
G03*
X13235Y22809I490J-187D01*
G01*
X14676Y22965D02*
G03*
X14679Y22939I524J35D01*
G01*
X14673Y23220D02*
G03*
X14664Y23148I191J-60D01*
G01*
X13875Y24998D02*
G03*
X13229Y24720I25J-948D01*
G01*
X13122Y24613D02*
G03*
X13079Y24549I142J-141D01*
G01*
X12601Y23400D02*
G03*
X12603Y23405I-183J82D01*
G01*
X12424Y22347D02*
G03*
X12423Y22369I-200J8D01*
G01*
X13577Y24374D02*
G03*
X13473Y24266I81J-183D01*
G01*
X12601Y23400D02*
G03*
X12422Y22390I1916J-861D01*
G01*
X14052Y22078D02*
G03*
X13936Y22580I-946J47D01*
G01*
X14129Y22954D02*
G03*
X14133Y22945I186J72D01*
G01*
X13985Y20709D02*
G03*
X13985Y20693I200J-8D01*
G01*
X14120Y23069D02*
G03*
X14129Y22955I195J-43D01*
G01*
X14098Y24606D02*
G03*
X14167Y24658I-82J183D01*
G01*
X14120Y23069D02*
G03*
X14131Y23209I-513J110D01*
G01*
X13986Y20676D02*
G03*
X13985Y20693I-525J-2D01*
G01*
X15337Y23395D02*
G03*
X15578Y23939I-723J646D01*
G01*
X15337Y23395D02*
G03*
X15200Y23000I403J-361D01*
G01*
X15578Y23976D02*
G03*
X15392Y24996I-5668J-505D01*
G01*
X15578Y23940D02*
G03*
X15578Y23976I-199J18D01*
G01*
X15605Y24990D02*
G03*
X15548Y24998I-57J-192D01*
G01*
X12399Y21843D02*
G03*
X12405Y21732I524J-25D01*
G01*
X13984Y20637D02*
G03*
X13986Y20669I-524J37D01*
G01*
D02*
G03*
X13986Y20672I-200J3D01*
G01*
X13975Y20568D02*
G03*
X13984Y20637I-514J106D01*
G01*
X13975Y20568D02*
G03*
X14154Y20060I515J-104D01*
G01*
X14154Y20060D02*
G03*
X14195Y20029I336J404D01*
G01*
X11834Y15506D02*
G03*
X10038Y16250I-1796J-1796D01*
G01*
X5400Y21802D02*
G03*
X6144Y20006I2540J0D01*
G01*
X12806Y13267D02*
G03*
X12955Y13777I-524J429D01*
G01*
X12953Y13802D02*
G03*
X12955Y13779I200J0D01*
G01*
X12953Y14167D02*
G03*
X12918Y14281I-200J-0D01*
G01*
X11188Y16635D02*
G03*
X11134Y16671I-136J-147D01*
G01*
X11894Y17183D02*
G03*
X11889Y17127I195J-45D01*
G01*
X12738Y16514D02*
G03*
X12757Y16481I181J86D01*
G01*
X13281Y13171D02*
G03*
X13280Y13168I196J-40D01*
G01*
X13286Y13198D02*
X13286Y13199D01*
X13349Y13644D02*
G03*
X13350Y13637I198J27D01*
G01*
X13347Y13660D02*
G03*
X13347Y13657I322J41D01*
G01*
X13344Y13501D02*
G03*
X13354Y13601I-516J99D01*
G01*
X13354Y13601D02*
G03*
X13351Y13635I-200J-1D01*
G01*
X11908Y16796D02*
G03*
X11962Y16672I200J13D01*
G01*
X4574Y27111D02*
G03*
X4575Y27150I-524J39D01*
G01*
X5014Y26624D02*
G03*
X4999Y26649I-178J-91D01*
G01*
X4582Y28090D02*
G03*
X4575Y28004I518J-86D01*
G01*
X4400Y29032D02*
G03*
X4401Y29039I-198J31D01*
G01*
X4934Y28116D02*
G03*
X4900Y28004I166J-112D01*
G01*
X4770Y29222D02*
G03*
X4780Y29313I-1788J244D01*
G01*
X4518Y26369D02*
G03*
X4519Y26378I-198J25D01*
G01*
X4900Y26899D02*
G03*
X4921Y26810I200J0D01*
G01*
X4260Y28135D02*
G03*
X4250Y28004I840J-131D01*
G01*
X4949Y26748D02*
G03*
X4938Y26775I-190J-61D01*
G01*
X4952Y26738D02*
G03*
X4993Y26656I286J92D01*
G01*
X4518Y26369D02*
G03*
X4517Y26365I198J-26D01*
G01*
X4762Y29169D02*
G03*
X4770Y29222I-1780J296D01*
G01*
X4210Y27030D02*
G03*
X4250Y27150I-160J120D01*
G01*
X4407Y29069D02*
G03*
X4401Y29039I193J-53D01*
G01*
X5524Y28987D02*
G03*
X5498Y28956I141J-142D01*
G01*
X5524Y28987D02*
G03*
X5582Y29128I-141J141D01*
G01*
X4407Y29070D02*
G03*
X4456Y29341I-1426J396D01*
G01*
X4780Y29314D02*
G03*
X4770Y30611I-7029J594D01*
G01*
X4955Y30950D02*
G03*
X4758Y30730I2J-200D01*
G01*
X4456Y29341D02*
G03*
X4429Y30737I-6705J567D01*
G01*
X4427Y30776D02*
G03*
X4428Y30744I200J-9D01*
G01*
X4945Y31275D02*
G03*
X4427Y30778I6J-525D01*
G01*
X4194Y25694D02*
G03*
X4517Y26364I-798J798D01*
G01*
X7308Y26142D02*
G03*
X6834Y27362I-1918J-43D01*
G01*
X7291Y26059D02*
G03*
X7308Y26142I-183J81D01*
G01*
X6834Y27362D02*
G03*
X6685Y27430I-150J-132D01*
G01*
X7200Y24493D02*
G03*
X7944Y22697I2540J0D01*
G01*
X13274Y14232D02*
G03*
X13189Y14460I-521J-65D01*
G01*
X13669Y13701D02*
G03*
X13671Y13692I198J25D01*
G01*
X13679Y13602D02*
G03*
X13671Y13692I-525J0D01*
G01*
X14005Y11755D02*
G03*
X14009Y11798I-195J43D01*
G01*
X13552Y12130D02*
G03*
X13676Y12435I-400J340D01*
G01*
X13681Y12516D02*
G03*
X13682Y12529I-200J13D01*
G01*
X8378Y23775D02*
G03*
X9122Y21978I2540J0D01*
G01*
X20007Y13200D02*
G03*
X18800Y12700I0J-1707D01*
G01*
X14838Y12826D02*
G03*
X15233Y12700I395J557D01*
G01*
X14775Y12900D02*
G03*
X14838Y12826I179J88D01*
G01*
X14775Y15528D02*
G03*
X14668Y16382I-6496J-378D01*
G01*
X14346Y16246D02*
G03*
X14292Y16347I-196J-40D01*
G01*
X14450Y12786D02*
G03*
X14520Y12635I200J1D01*
G01*
X14520Y12635D02*
G03*
X15295Y12350I775J910D01*
G01*
X14450Y15198D02*
G03*
X14346Y16246I-5350J-0D01*
G01*
X14668Y16382D02*
G03*
X14613Y16486I-196J-38D01*
G01*
X16540Y10552D02*
G03*
X16589Y10558I-1J200D01*
G01*
X14552Y10748D02*
G03*
X14883Y10577I437J442D01*
G01*
X14904Y11661D02*
G03*
X14799Y11674I-77J-184D01*
G01*
X22846Y12422D02*
G03*
X22855Y12412I146J137D01*
G01*
X22861Y12407D02*
G03*
X22856Y12411I-140J-143D01*
G01*
X17574Y18025D02*
G03*
X17571Y18027I-316J-419D01*
G01*
X17767Y18287D02*
G03*
X17733Y18311I-509J-680D01*
G01*
X17387Y17759D02*
G03*
X17380Y17763I-120J-160D01*
G01*
X17962Y18547D02*
G03*
X17911Y18583I-704J-941D01*
G01*
X17571Y18027D02*
G03*
X17550Y18042I-314J-421D01*
G01*
X14642Y19744D02*
G03*
X14693Y19728I85J181D01*
G01*
X14539Y19802D02*
G03*
X14640Y19745I467J710D01*
G01*
X14500Y19452D02*
G03*
X14639Y19408I227J474D01*
G01*
X14813Y19378D02*
G03*
X14828Y19376I198J1158D01*
G01*
X14360Y19531D02*
G03*
X14500Y19452I646J981D01*
G01*
X15123Y19642D02*
G03*
X14972Y19682I-295J-797D01*
G01*
X17364Y18162D02*
G03*
X15010Y19337I-6743J-10563D01*
G01*
X17537Y18437D02*
G03*
X15123Y19642I-6915J-10838D01*
G01*
X14867Y19698D02*
G03*
X14878Y19697I143J838D01*
G01*
X17796Y18657D02*
G03*
X17794Y18658I-177J-273D01*
G01*
X15010Y19337D02*
G03*
X14906Y19364I-183J-492D01*
G01*
X14000Y14733D02*
G03*
X13961Y14851I-200J-1D01*
G01*
X8205Y30950D02*
G03*
X8211Y30950I-1J200D01*
G01*
X9241Y31327D02*
G03*
X9246Y31327I-2J200D01*
G01*
X3481Y26155D02*
G03*
X3613Y26233I-28J198D01*
G01*
X10876Y30933D02*
X10876Y30932D01*
X11706Y30460D02*
G03*
X10879Y30932I-888J-595D01*
G01*
X9653Y31325D02*
G03*
X9246Y31327I-226J-5486D01*
G01*
X9651Y31000D02*
G03*
X9634Y31000I-10J-200D01*
G01*
X9662Y31325D02*
G03*
X9653Y31325I-31J-524D01*
G01*
X11420Y31123D02*
G03*
X10893Y31257I-602J-1258D01*
G01*
X11613Y31030D02*
G03*
X11601Y31036I-98J-174D01*
G01*
X15712Y31000D02*
G03*
X15571Y30941I0J-200D01*
G01*
X12748Y29416D02*
G03*
X14123Y29363I709J554D01*
G01*
X12748Y29416D02*
G03*
X12732Y29434I-157J-124D01*
G01*
X26961Y30827D02*
G03*
X26457Y31000I-503J-647D01*
G01*
X27296Y30038D02*
G03*
X26961Y30827I-872J96D01*
G01*
X26909Y29127D02*
G03*
X27296Y30038I-1337J1105D01*
G01*
X26187Y28759D02*
G03*
X26909Y29127I-63J1016D01*
G01*
X21195Y28394D02*
G03*
X21215Y28395I7J200D01*
G01*
X20657Y28419D02*
G03*
X20788Y28411I243J2790D01*
G01*
X21974Y28831D02*
G03*
X21985Y28832I-54J522D01*
G01*
X20553Y29094D02*
G03*
X20510Y29101I-54J-193D01*
G01*
X20039Y28799D02*
G03*
X20021Y28800I-47J-523D01*
G01*
X20009Y28475D02*
G03*
X20002Y28476I-17J-199D01*
G01*
X20021Y28800D02*
G03*
X19958Y28800I-30J-524D01*
G01*
X20557Y29093D02*
G03*
X20704Y29067I228J871D01*
G01*
D02*
G03*
X21120Y29070I196J2141D01*
G01*
X20671Y28744D02*
G03*
X21154Y28746I229J2465D01*
G01*
X20038Y29125D02*
G03*
X19938Y29124I-47J-849D01*
G01*
X18665Y28723D02*
G03*
X18558Y28705I30J-524D01*
G01*
X18210Y28610D02*
G03*
X18213Y28611I-82J314D01*
G01*
X18685Y28398D02*
G03*
X18643Y28391I10J-200D01*
G01*
X18642Y29047D02*
G03*
X18474Y29019I53J-848D01*
G01*
X20001Y28476D02*
G03*
X19978Y28476I-10J-200D01*
G01*
X18132Y28926D02*
G03*
X18128Y28925I406J-1496D01*
G01*
X23637Y29036D02*
G03*
X23621Y29035I8J-200D01*
G01*
X21941Y29154D02*
G03*
X21990Y29165I-20J199D01*
G01*
X23638Y29036D02*
G03*
X23660Y29038I-6J200D01*
G01*
X23425Y29693D02*
G03*
X23538Y29797I-69J188D01*
G01*
X17337Y28367D02*
G03*
X17339Y28368I-88J313D01*
G01*
X17849Y28175D02*
G03*
X17440Y27640I145J-534D01*
G01*
X17850Y28175D02*
G03*
X17849Y28175I144J-535D01*
G01*
X17765Y28489D02*
G03*
X17751Y28485I229J-848D01*
G01*
X17679Y28803D02*
G03*
X17663Y28798I315J-1162D01*
G01*
X17247Y28680D02*
G03*
X17246Y28679I88J-313D01*
G01*
X17249Y28680D02*
G03*
X17247Y28680I86J-313D01*
G01*
X17337Y28367D02*
G03*
X17199Y28235I52J-193D01*
G01*
X17440Y26148D02*
G03*
X17498Y26007I200J0D01*
G01*
X25568Y29310D02*
G03*
X26158Y29970I-100J683D01*
G01*
X16855Y27155D02*
G03*
X16856Y27158I-857J275D01*
G01*
X16033Y28332D02*
G03*
X16063Y28338I-25J198D01*
G01*
X16791Y26955D02*
G03*
X16794Y26964I-187J71D01*
G01*
X16007Y28330D02*
G03*
X16033Y28332I1J200D01*
G01*
X16612Y26652D02*
G03*
X16791Y26955I-777J662D01*
G01*
X15890Y26193D02*
G03*
X16612Y26652I-388J1406D01*
G01*
X3370Y24870D02*
G03*
X2743Y23355I1515J-1515D01*
G01*
X10600Y10281D02*
G03*
X11003Y10432I-300J1417D01*
G01*
D02*
G03*
X11034Y10453I-96J175D01*
G01*
X9115Y13828D02*
G03*
X9075Y13825I15J-525D01*
G01*
D02*
G03*
X8590Y13631I103J-958D01*
G01*
X9205Y13489D02*
G03*
X9109Y13502I-74J-186D01*
G01*
X9109Y13502D02*
G03*
X8713Y13304I69J-635D01*
G01*
X9104Y12937D02*
G03*
X9050Y12806I130J-130D01*
G01*
X8250Y12800D02*
G03*
X8256Y12806I-141J142D01*
G01*
X8250Y12800D02*
G03*
X8050Y12317I483J-482D01*
G01*
X14197Y20028D02*
G03*
X14200Y20026I182J269D01*
G01*
X17733Y18311D02*
G03*
X17725Y18316I-476J-704D01*
G01*
X17550Y18042D02*
G03*
X17548Y18044I-293J-436D01*
G01*
X17911Y18583D02*
G03*
X17901Y18589I-4907J-7402D01*
G01*
X20302Y16847D02*
G03*
X20318Y16840I87J180D01*
G01*
X20301Y16848D02*
G03*
X20287Y16854I-85J-181D01*
G01*
X16136Y23265D02*
G03*
X16100Y23250I0J-51D01*
G01*
X8296Y6821D02*
G03*
X8613Y6214I511J-120D01*
G01*
X9217Y7178D02*
G03*
X9508Y7687I-848J822D01*
G01*
X9190Y7155D02*
G03*
X9217Y7178I-116J163D01*
G01*
X9186Y7152D02*
G03*
X9190Y7155I-115J164D01*
G01*
X25386Y14256D02*
G03*
X25571Y14379I0J200D01*
G01*
X22764Y14323D02*
G03*
X22913Y14256I150J132D01*
G01*
X22150Y15950D02*
G03*
X22764Y14323I2460J-0D01*
G01*
X24100Y20400D02*
G03*
X25150Y22935I-2535J2535D01*
G01*
X25800Y19200D02*
G03*
X26275Y20347I-1147J1147D01*
G01*
X24472Y18650D02*
G03*
X25800Y19200I0J1878D01*
G01*
X22917Y17224D02*
G03*
X22762Y17300I-157J-124D01*
G01*
X23100Y16696D02*
G03*
X22917Y17224I-854J0D01*
G01*
X26831Y18731D02*
G03*
X27575Y20527I-1796J1796D01*
G01*
X7920Y13118D02*
G03*
X7900Y13100I122J-159D01*
G01*
D02*
G03*
X7550Y12255I845J-845D01*
G01*
X16006Y28330D02*
G03*
X15152Y27738I-8J-900D01*
G01*
X15054Y27470D02*
G03*
X14900Y26598I2386J-872D01*
G01*
X15144Y29116D02*
G03*
X14400Y27320I1796J-1796D01*
G01*
X10124Y27005D02*
G03*
X10350Y26732I793J425D01*
G01*
X8378Y29970D02*
G03*
X8405Y29881I200J13D01*
G01*
X10124Y27005D02*
G03*
X10119Y27014I-176J-94D01*
G01*
X10549Y26570D02*
G03*
X12152Y26000I1603J1970D01*
G01*
X663Y18855D02*
G03*
X639Y18845I0J-34D01*
G01*
X663Y17055D02*
G03*
X639Y17045I0J-34D01*
G01*
X11893Y7043D02*
G03*
X12600Y8750I-1707J1707D01*
G01*
X18016Y17289D02*
X18040Y17271D01*
X17962Y18547D02*
X18590Y18078D01*
X15009Y20005D02*
X15010Y20005D01*
X18834Y17228D02*
X20300Y16100D01*
X14928Y20018D02*
X15009Y20005D01*
X15013Y20005D02*
X15025Y20003D01*
X18366Y17459D02*
X18532Y17397D01*
X17574Y18025D02*
X18213Y17548D01*
X19931Y15726D02*
X19931Y15726D01*
X13947Y19809D02*
X13947Y19809D01*
X18431Y17790D02*
X18431Y17790D01*
X18253Y17154D02*
X18416Y17093D01*
X18137Y16850D02*
X18303Y16788D01*
X21393Y13947D02*
X21394Y13946D01*
X18700Y18039D02*
X19700Y18000D01*
X17347Y17306D02*
X17347Y17306D01*
X18482Y17762D02*
X18645Y17701D01*
X20213Y16882D02*
X20213Y16882D01*
X17352Y17303D02*
X17944Y16944D01*
X19725Y15474D02*
X21390Y13950D01*
X19865Y14553D02*
X20304Y14138D01*
X18270Y16427D02*
X19850Y14570D01*
X13682Y18171D02*
X18188Y16484D01*
X19865Y14553D02*
X19865Y14553D01*
X18825Y17620D02*
X20190Y16892D01*
X18708Y16908D02*
X19931Y15727D01*
X18484Y16673D02*
X19709Y15489D01*
X18188Y16484D02*
X18188Y16484D01*
X18213Y17548D02*
X18236Y17531D01*
X17387Y17759D02*
X18016Y17289D01*
X20319Y14125D02*
X21050Y13550D01*
X20304Y14138D02*
X20304Y14138D01*
X14516Y18563D02*
X17320Y17321D01*
X17321Y17321D01*
X10550Y6800D02*
Y7238D01*
X10717Y7616D02*
X10718Y7615D01*
X11062Y7750D02*
X11500D01*
X13200Y7750D02*
X13260Y7791D01*
X10893Y10985D02*
X11350Y11750D01*
X14407Y11140D02*
Y11324D01*
Y11140D02*
X14410Y11140D01*
X14916Y10575D02*
X14925D01*
X14531Y10769D02*
X14552Y10748D01*
X5772Y11972D02*
X5900Y12200D01*
X2750Y17062D02*
Y20050D01*
X14465Y11465D02*
X14466Y11466D01*
X14550Y11550D01*
X16716Y21995D02*
X17300D01*
X20246Y27609D02*
X20248Y27609D01*
X20395Y27600D02*
X21800D01*
X19560Y27837D02*
X20208Y27618D01*
X23300Y23265D02*
X24464D01*
X22100Y24535D02*
X23300D01*
X20700Y18300D02*
Y19150D01*
X8988Y7012D02*
X9186Y7152D01*
X10691Y13400D02*
X11100D01*
X9800Y13250D02*
X10329D01*
X11100Y14400D02*
X12145D01*
X12917Y14281D02*
X12918Y14281D01*
X13046Y14672D02*
X13189Y14460D01*
X11963Y16671D02*
X12423Y16190D01*
X12595Y14745D02*
X12917Y14281D01*
X12595Y14745D02*
X12595Y14745D01*
X12602Y15304D02*
X13044Y14676D01*
X12445Y16163D02*
X13184Y15052D01*
X13186Y15049D02*
X13460Y14640D01*
X11834Y15506D02*
X12595Y14745D01*
X12443Y17134D02*
X12738Y16514D01*
X14377Y22064D02*
X14395Y21800D01*
Y21800D02*
Y21800D01*
X14315Y20763D02*
X14395Y21800D01*
X14315Y20762D02*
X14315Y20763D01*
X14615Y20190D02*
X14718Y20074D01*
X14718Y20074D01*
X14789Y20045D02*
X14909Y20021D01*
X14341Y20649D02*
X14555Y20275D01*
X14377Y22064D02*
Y22064D01*
X14838Y21599D02*
X14838Y21599D01*
X14892Y23905D02*
X14898Y23906D01*
X14921Y20625D02*
X15010Y20536D01*
X14863Y21478D02*
X14863Y20765D01*
X14850Y21551D02*
X14850Y21550D01*
X14679Y22939D02*
X14838Y21599D01*
X13709Y21970D02*
Y21970D01*
X13655Y20821D02*
X13709Y21970D01*
X13640Y20503D02*
X13655Y20821D01*
X13158Y22206D02*
X13319Y20362D01*
X14898Y19032D02*
X14898Y19032D01*
X14739Y19061D02*
X14898Y19032D01*
X14690Y19069D02*
X14739Y19061D01*
X14584Y19087D02*
X14690Y19069D01*
X13843Y19483D02*
X14181Y19260D01*
X13235Y22809D02*
X13344Y22699D01*
X13231Y23665D02*
X13473Y24266D01*
X13230Y23665D02*
X13231Y23665D01*
X13117Y23366D02*
X13230Y23665D01*
X13587Y9175D02*
X13650Y9500D01*
X13345Y7919D02*
X13587Y9175D01*
X4600Y11750D02*
X4925Y11672D01*
X5653Y11878D01*
X14664Y23148D02*
X14676Y22965D01*
X14673Y23220D02*
X14673Y23221D01*
X13875Y24998D02*
X13900Y24998D01*
X13122Y24613D02*
X13229Y24720D01*
X12978Y24307D02*
X13079Y24549D01*
X13079Y24549D01*
X12423Y22346D02*
X12424Y22347D01*
X13577Y24374D02*
X14098Y24606D01*
X12422Y22390D02*
X12423Y22369D01*
X12399Y21843D02*
X12423Y22346D01*
X12603Y23405D02*
X12978Y24307D01*
X14129Y22955D02*
X14129Y22954D01*
X14133Y22945D02*
X14268Y22642D01*
X13985Y20709D02*
X14052Y22078D01*
X13607Y23179D02*
X13936Y22580D01*
X14180Y24673D02*
X14375Y24898D01*
X14400Y24998D01*
X14167Y24658D02*
X14180Y24673D01*
X14892Y23905D02*
Y24898D01*
X14673Y23221D02*
X14892Y23905D01*
Y24898D02*
X14900Y24998D01*
X13985Y20693D02*
X13985Y20693D01*
X14092Y23890D02*
X14131Y23209D01*
X15548Y24998D02*
X15548D01*
X15578Y23939D02*
X15578Y23940D01*
X15400Y24998D02*
X15548D01*
X12405Y21732D02*
X12600Y20550D01*
X15605Y24990D02*
X16494Y24724D01*
X13986Y20676D02*
X13986Y20672D01*
X11894Y17183D02*
X12042Y17826D01*
X12152Y26000D02*
X13900D01*
X14154Y20060D02*
X14154Y20060D01*
X6144Y20006D02*
X9900Y16250D01*
X10038D01*
X5400Y21802D02*
Y24850D01*
X12955Y13779D02*
X12955Y13777D01*
X12953Y14167D02*
X12953Y13802D01*
X11188Y16635D02*
X12530Y15387D01*
X10512Y16949D02*
X11134Y16671D01*
X11188Y16635D02*
X11188Y16635D01*
X12757Y16481D02*
X13961Y14851D01*
X11889Y17127D02*
X11889Y17126D01*
X11908Y16796D01*
X12757Y16481D02*
X12757Y16481D01*
X13152Y12470D02*
X13280Y13168D01*
X13281Y13171D02*
X13286Y13198D01*
X13286Y13199D02*
X13286Y13199D01*
X13274Y14232D02*
X13347Y13660D01*
X13347Y13657D02*
X13349Y13644D01*
X13350Y13637D02*
X13351Y13635D01*
X13354Y13601D02*
X13354Y13601D01*
X7944Y22697D02*
X12954Y17687D01*
X11962Y16672D02*
X11963Y16671D01*
X5014Y26624D02*
X5014Y26623D01*
X4993Y26656D02*
X4999Y26649D01*
X4949Y26748D02*
X4952Y26738D01*
X4900Y26899D02*
Y28004D01*
X4921Y26809D02*
X4938Y26776D01*
X5014Y26623D02*
X5325Y26000D01*
X3613Y26233D02*
X4210Y27030D01*
X4250Y27150D02*
X4250Y28004D01*
X4938Y26776D02*
X4938Y26775D01*
X4582Y28090D02*
X4762Y29169D01*
X4575Y27150D02*
X4575Y28004D01*
X4934Y28116D02*
X5498Y28956D01*
X4921Y26810D02*
X4921Y26809D01*
X4260Y28135D02*
X4400Y29032D01*
X4519Y26378D02*
X4574Y27111D01*
X4780Y29313D02*
X4780Y29314D01*
X4407Y29069D02*
X4407Y29070D01*
X4955Y30950D02*
X4956Y30950D01*
X5582Y29128D02*
Y29470D01*
X4758Y30730D02*
X4770Y30611D01*
X5582Y29470D02*
X5838Y29970D01*
X4956Y30950D02*
X8205D01*
X4428Y30744D02*
X4429Y30737D01*
X4427Y30776D02*
X4427Y30778D01*
X5325Y26000D02*
X5400Y25850D01*
X4517Y26365D02*
X4517Y26365D01*
X4517Y26364D02*
X4517Y26365D01*
X7308Y26142D02*
X7308Y26142D01*
X7266Y26000D02*
X7291Y26059D01*
X5838Y27430D02*
X6685D01*
X7200Y25850D02*
X7266Y26000D01*
X7200Y24493D02*
Y24850D01*
X12424Y12800D02*
X12806Y13267D01*
X13596Y14275D02*
X13669Y13701D01*
X13676Y12435D02*
X13681Y12516D01*
X13758Y10629D02*
X14005Y11755D01*
X14000Y14733D02*
X14009Y11798D01*
X13682Y12529D02*
Y12530D01*
X13161Y11670D02*
X13552Y12130D01*
X13679Y13601D02*
X13682Y12530D01*
X13679Y13601D02*
Y13602D01*
X10300Y10750D02*
X10600Y10800D01*
X10799Y10898D01*
X9122Y21978D02*
X13229Y17871D01*
X14613Y16486D01*
X8378Y23775D02*
Y24800D01*
X13000Y17641D02*
X14292Y16347D01*
X12954Y17687D02*
X13000Y17641D01*
X20007Y13200D02*
X20250D01*
X14775Y12900D02*
Y15528D01*
X15233Y12700D02*
X18800D01*
X14775Y12900D02*
Y12900D01*
X14775Y15528D02*
X14775Y15528D01*
X14520Y12635D02*
X14520Y12635D01*
X14450Y12786D02*
Y15198D01*
X15295Y12350D02*
X19250D01*
X16250Y10552D02*
X16540Y10552D01*
X16589Y10558D02*
X17239Y10725D01*
X16175Y10552D02*
X16250D01*
X16050Y10600D02*
X16175Y10552D01*
X16050Y10600D02*
Y11600D01*
X14925Y10575D02*
X15050Y10600D01*
X14904Y11661D02*
X14925Y11652D01*
X15050Y11600D01*
X21431Y13912D02*
X22846Y12422D01*
X22855Y12412D02*
X22856Y12411D01*
X17767Y18287D02*
X18409Y17807D01*
X17379Y17764D02*
X17380Y17763D01*
X22861Y12407D02*
X22861Y12407D01*
X17537Y18437D02*
X17620Y18384D01*
X14693Y19728D02*
X14867Y19698D01*
X17798Y18656D02*
X17901Y18589D01*
X17620Y18384D02*
X17725Y18316D01*
X14878Y19697D02*
X14960Y19684D01*
X17364Y18162D02*
X17444Y18111D01*
X14828Y19376D02*
X14906Y19364D01*
X17708Y18713D02*
X17794Y18658D01*
X14960Y19684D02*
X14972Y19682D01*
X14640Y19745D02*
X14642Y19744D01*
X17444Y18111D02*
X17548Y18044D01*
X14639Y19408D02*
X14813Y19378D01*
X17796Y18657D02*
X17798Y18656D01*
X5705Y16750D02*
X6900D01*
X5700Y16755D02*
X5705Y16750D01*
X5700Y16755D02*
Y17700D01*
X2743Y17055D02*
X2750Y17062D01*
X4945Y31275D02*
X9241Y31327D01*
X8211Y30950D02*
X8211Y30950D01*
X2743Y26050D02*
X3481Y26155D01*
X10876Y30932D02*
X10879Y30932D01*
X15712Y31000D02*
X26457D01*
X10875Y30933D02*
X10876Y30933D01*
X8211Y30950D02*
X9634Y31000D01*
X9652Y31000D02*
X10875Y30933D01*
X9651Y31000D02*
X9652Y31000D01*
X9662Y31325D02*
X10893Y31257D01*
X11420Y31123D02*
X11601Y31036D01*
X11613Y31030D02*
X11614Y31029D01*
X13458Y29970D01*
X15571Y30941D02*
X15571Y30941D01*
X14123Y29363D02*
X15571Y30941D01*
X11706Y30460D02*
X12518Y29649D01*
X12732Y29434D01*
X21215Y28395D02*
X26187Y28759D01*
X21194Y28394D02*
X21195Y28394D01*
X20788Y28411D02*
X21194Y28394D01*
X20009Y28475D02*
X20657Y28419D01*
X20509Y29101D02*
X20510Y29101D01*
X20553Y29094D02*
X20557Y29093D01*
X20002Y28476D02*
X20002Y28476D01*
X20038Y29125D02*
X20509Y29101D01*
X21120Y29070D02*
X21941Y29154D01*
X21985Y28832D02*
X21986Y28832D01*
X21154Y28746D02*
X21974Y28831D01*
X20039Y28799D02*
X20671Y28744D01*
X21986Y28832D02*
X23621Y29035D01*
X20001Y28476D02*
X20002Y28476D01*
X18642Y29047D02*
X19938Y29124D01*
X17765Y28489D02*
X18210Y28610D01*
X18132Y28926D02*
X18149Y28931D01*
X18665Y28723D02*
X19958Y28800D01*
X18210Y28610D02*
X18210Y28610D01*
X18149Y28931D02*
X18474Y29019D01*
X17850Y28175D02*
X18643Y28391D01*
X18213Y28611D02*
X18558Y28705D01*
X18685Y28398D02*
X19978Y28476D01*
X17679Y28803D02*
X18128Y28925D01*
X23637Y29036D02*
X23638Y29036D01*
X21990Y29165D02*
X23425Y29693D01*
X23538Y29797D02*
X23618Y29970D01*
X16063Y28338D02*
X17246Y28679D01*
X17249Y28680D02*
X17663Y28798D01*
X17339Y28368D02*
X17751Y28485D01*
X23661Y29038D02*
X25424Y29289D01*
X17440Y26148D02*
Y27640D01*
X17498Y26007D02*
X17700Y25805D01*
X25424Y29289D02*
X25568Y29310D01*
X16856Y27158D02*
X17199Y28235D01*
X16033Y28332D02*
X16033Y28332D01*
X16794Y26964D02*
X16855Y27155D01*
X15400Y26000D02*
X15425Y26065D01*
X15890Y26193D01*
X3370Y24870D02*
X4194Y25694D01*
X2743Y21555D02*
Y23355D01*
X11034Y10453D02*
X11548Y10878D01*
X8512Y13571D02*
X8590Y13631D01*
X9115Y13828D02*
X9900Y13850D01*
X7920Y13118D02*
X8512Y13571D01*
X9205Y13489D02*
X9800Y13250D01*
X9050Y12000D02*
Y12806D01*
X8256Y12806D02*
X8713Y13304D01*
X8050Y12000D02*
Y12317D01*
X13286Y13199D02*
X13344Y13501D01*
X10600Y9800D02*
X11669Y10087D01*
X10300Y9750D02*
X10600Y9800D01*
X14021Y19754D02*
X14360Y19531D01*
X14195Y20029D02*
X14197Y20028D01*
X14200Y20026D02*
X14539Y19802D01*
X17911Y18583D02*
X17911Y18583D01*
X20213Y16882D02*
X20287Y16854D01*
X20301Y16848D02*
X20302Y16847D01*
X20318Y16840D02*
X20950Y16600D01*
X20145Y15598D02*
X20950Y15350D01*
X16136Y23265D02*
X17700D01*
X9425Y6762D02*
X9550Y6800D01*
X8897Y6762D02*
X9425D01*
X8613Y6214D02*
X9400Y5900D01*
X9550Y5700D01*
X8871Y7014D02*
X9000Y7700D01*
X9050Y8000D01*
X8296Y6821D02*
X8500Y7700D01*
X4600Y8950D02*
X6000Y9200D01*
X6300Y9250D01*
X5300Y8450D02*
X6000Y8700D01*
X6300Y8750D01*
X9508Y7687D02*
X9511Y7700D01*
X9190Y7155D02*
X9190Y7155D01*
X9511Y7700D02*
X9550Y8000D01*
X8500Y7700D02*
X8550Y8000D01*
X22764Y14323D02*
X22764Y14323D01*
X25625Y15300D02*
X25662Y14600D01*
X25662Y14599D02*
X25662Y14600D01*
X25571Y14379D02*
X25662Y14599D01*
X22913Y14256D02*
X25386D01*
X639Y26050D02*
X1593D01*
X1743Y26005D01*
X639Y21550D02*
X1593D01*
X1743Y21555D01*
X1593Y23350D02*
X1743Y23355D01*
X639Y23350D02*
X1593D01*
X25150Y25750D02*
X25150Y22935D01*
X23300Y25805D02*
X23645D01*
X23100Y18650D02*
Y20400D01*
X23100Y20400D01*
X24050Y18650D02*
X24472D01*
X26275Y20347D02*
Y20900D01*
X20700Y17300D02*
X22762D01*
X23100Y15950D02*
Y16696D01*
X24050Y15950D02*
X26831Y18731D01*
X27575Y20527D02*
Y20900D01*
X7550Y12000D02*
Y12255D01*
X10300Y10250D02*
X10600Y10281D01*
X16006Y28330D02*
X16007Y28330D01*
X14900Y26000D02*
Y26598D01*
X15054Y27470D02*
X15152Y27738D01*
X15144Y29116D02*
X15998Y29970D01*
X14400Y26000D02*
Y27320D01*
X8378Y29970D02*
X8378Y29970D01*
X8405Y29881D02*
X10119Y27014D01*
X10350Y26732D02*
X10549Y26570D01*
X8378Y25800D02*
Y27430D01*
X663Y18855D02*
X1743D01*
X663Y17055D02*
X1743D01*
X4600Y10250D02*
X6300D01*
X10550Y5700D02*
X11893Y7043D01*
X11500Y8750D02*
X12600D01*
X11450D02*
X11500D01*
X10300D02*
X11450D01*
D24*
X10550Y6800D02*
D03*
X9550D02*
D03*
X16050Y10600D02*
D03*
X15050D02*
D03*
X16050Y11600D02*
D03*
X15050D02*
D03*
D25*
X14500Y5250D02*
D03*
Y6750D02*
D03*
X4600Y11750D02*
D03*
Y10250D02*
D03*
D26*
X12600Y8750D02*
D03*
Y9750D02*
D03*
X11500Y8750D02*
D03*
Y7750D02*
D03*
X6900Y15750D02*
D03*
Y16750D02*
D03*
D27*
X13650Y9500D02*
D03*
X15150D02*
D03*
X21800Y27600D02*
D03*
X23300D02*
D03*
X19200Y20550D02*
D03*
X17700D02*
D03*
D34*
X30600Y12400D02*
D03*
X28250D02*
D03*
D39*
X2743Y26050D02*
D03*
X1743D02*
D03*
X24100Y20400D02*
D03*
X23100D02*
D03*
X2743Y23355D02*
D03*
X1743D02*
D03*
X2743Y21555D02*
D03*
X1743D02*
D03*
X10550Y5700D02*
D03*
X9550D02*
D03*
X2743Y18855D02*
D03*
X1743D02*
D03*
X2743Y17055D02*
D03*
X1743D02*
D03*
D40*
X13900Y24998D02*
D03*
X14400D02*
D03*
X14900D02*
D03*
X15400D02*
D03*
X13900Y26000D02*
D03*
X14400Y26000D02*
D03*
X14900D02*
D03*
X15400D02*
D03*
D41*
X8378Y25800D02*
D03*
Y24800D02*
D03*
X7200Y25850D02*
D03*
Y24850D02*
D03*
X5400Y25850D02*
D03*
Y24850D02*
D03*
X16150Y23250D02*
D03*
Y22250D02*
D03*
X20700Y18300D02*
D03*
Y17300D02*
D03*
X11100Y14400D02*
D03*
Y13400D02*
D03*
X5705Y15750D02*
D03*
Y16750D02*
D03*
D43*
X10300Y11250D02*
D03*
Y10750D02*
D03*
Y10250D02*
D03*
Y9750D02*
D03*
Y9250D02*
D03*
Y8750D02*
D03*
X6300D02*
D03*
Y9250D02*
D03*
Y9750D02*
D03*
Y10250D02*
D03*
Y10750D02*
D03*
Y11250D02*
D03*
D44*
X9550Y8000D02*
D03*
X9050D02*
D03*
X8550D02*
D03*
X8050D02*
D03*
X7550D02*
D03*
X7050D02*
D03*
Y12000D02*
D03*
X7550D02*
D03*
X8050D02*
D03*
X8550D02*
D03*
X9050D02*
D03*
X9550D02*
D03*
D45*
X8300Y10000D02*
D03*
D77*
X17617Y16072D02*
D03*
X15450Y13900D02*
D03*
Y15000D02*
D03*
Y16100D02*
D03*
X16550D02*
D03*
Y15000D02*
D03*
Y13900D02*
D03*
X17650D02*
D03*
Y15000D02*
D03*
X2300Y24700D02*
D03*
X11000Y23500D02*
D03*
X21200Y5550D02*
D03*
X19750Y22800D02*
D03*
X24500Y23250D02*
D03*
X26200Y13450D02*
D03*
X26550Y12850D02*
D03*
X27250D02*
D03*
X26900Y13450D02*
D03*
X25550Y11300D02*
D03*
X24400Y13731D02*
D03*
X22100Y24535D02*
D03*
X20061Y19631D02*
D03*
X20700Y19150D02*
D03*
X6050Y23950D02*
D03*
X11400Y25450D02*
D03*
X11700Y20550D02*
D03*
X12145Y14400D02*
D03*
X12443Y17134D02*
D03*
X15010Y20536D02*
D03*
X13200Y7750D02*
D03*
X16200Y20950D02*
D03*
X5900Y12200D02*
D03*
X13158Y22206D02*
D03*
X12600Y20550D02*
D03*
X13607Y23179D02*
D03*
X14092Y23890D02*
D03*
X15200Y23000D02*
D03*
X14892Y23905D02*
D03*
X16494Y24724D02*
D03*
X20000Y25750D02*
D03*
X20250Y20900D02*
D03*
X12042Y17826D02*
D03*
X9900Y16250D02*
D03*
X10512Y16949D02*
D03*
X12400Y13600D02*
D03*
X12424Y12800D02*
D03*
X11350Y11750D02*
D03*
X13152Y12470D02*
D03*
X8950Y16250D02*
D03*
X13682Y18171D02*
D03*
X16839Y11418D02*
D03*
X17239Y10725D02*
D03*
X14407Y11140D02*
D03*
X19250Y12350D02*
D03*
X21050Y13550D02*
D03*
X20250Y13200D02*
D03*
X14516Y18563D02*
D03*
X5700Y17700D02*
D03*
X2750Y20050D02*
D03*
X19560Y27837D02*
D03*
X11548Y10878D02*
D03*
X9900Y13850D02*
D03*
X9104Y12937D02*
D03*
X13161Y11670D02*
D03*
X11669Y10087D02*
D03*
X13000Y6300D02*
D03*
X13758Y10629D02*
D03*
X20300Y16100D02*
D03*
X20950Y16600D02*
D03*
Y15350D02*
D03*
X8550Y5600D02*
D03*
X8896Y6762D02*
D03*
X8500Y14400D02*
D03*
X4600Y8950D02*
D03*
X5300Y8450D02*
D03*
X10718Y7615D02*
D03*
X19700Y18000D02*
D03*
X30900Y5650D02*
D03*
X28350D02*
D03*
Y6350D02*
D03*
X28950Y6000D02*
D03*
Y6700D02*
D03*
X639Y26050D02*
D03*
X19750Y23700D02*
D03*
X639Y17045D02*
D03*
Y18845D02*
D03*
Y21550D02*
D03*
Y23350D02*
D03*
D78*
X14838Y21599D02*
D03*
X16250Y10552D02*
D03*
X26457Y31000D02*
D03*
D79*
X15200Y9500D02*
X16200D01*
X15150Y9500D02*
X15200Y9500D01*
X16200D02*
X16975Y9500D01*
X17300Y21995D02*
X17700D01*
D80*
X18645Y22159D02*
G03*
X19062Y23105I-1371J1168D01*
G01*
D02*
G03*
X18739Y24374I-1787J222D01*
G01*
X29856Y7606D02*
G03*
X30600Y9402I-1796J1796D01*
G01*
X18739Y24374D02*
G03*
X18410Y24541I-325J-234D01*
G01*
X18358Y22019D02*
G03*
X18645Y22159I-17J400D01*
G01*
X18045Y25779D02*
G03*
X18071Y25777I30J399D01*
G01*
X17848Y25793D02*
G03*
X17849Y25793I31J399D01*
G01*
X19228Y25172D02*
G03*
X17700Y25805I-1528J-1528D01*
G01*
X21772Y22628D02*
G03*
X23300Y21995I1528J1528D01*
G01*
X20469D02*
G03*
X19660Y21660I0J-1145D01*
G01*
D02*
G03*
X19200Y20550I1110J-1110D01*
G01*
X19062Y23105D02*
X19750Y22800D01*
X28950Y6700D02*
X29856Y7606D01*
X30600Y9402D02*
Y12400D01*
X17700Y21995D02*
X18358Y22019D01*
X17700Y24535D02*
X18410Y24541D01*
X18071Y25777D02*
X20000Y25750D01*
X17849Y25793D02*
X18045Y25779D01*
X17700Y25805D02*
X17848Y25793D01*
X19228Y25172D02*
X21772Y22628D01*
X20469Y21995D02*
X23300D01*
X17700Y20550D02*
Y21995D01*
D81*
X26000Y6800D02*
D03*
X18538Y27430D02*
D03*
X15998D02*
D03*
X13458D02*
D03*
X10918D02*
D03*
X8378D02*
D03*
Y29970D02*
D03*
X10918D02*
D03*
X13458D02*
D03*
X15998D02*
D03*
X18538D02*
D03*
X21078D02*
D03*
X23618D02*
D03*
X26158D02*
D03*
X8380Y2030D02*
D03*
X10920D02*
D03*
X13460D02*
D03*
X16000D02*
D03*
X18540D02*
D03*
X21080D02*
D03*
X23620D02*
D03*
X26160D02*
D03*
D82*
X26000Y8800D02*
D03*
D83*
X5838Y27430D02*
D03*
Y29970D02*
D03*
X5840Y2030D02*
D03*
D84*
X27500Y25600D02*
D03*
Y24350D02*
D03*
D85*
X2732Y14320D02*
D03*
X6912D02*
D03*
X2732Y5680D02*
D03*
X6912D02*
D03*
D88*
X26900Y13450D02*
G03*
X26925Y13510I-60J60D01*
G01*
X26200Y13450D02*
G03*
X26275Y13631I-181J181D01*
G01*
X11410Y8790D02*
G03*
X10300Y9250I-1110J-1110D01*
G01*
X8300Y10000D02*
X9050Y10750D01*
X10300D01*
X26275Y13631D02*
Y15150D01*
X26925Y13510D02*
Y15150D01*
X10550Y5700D02*
X10650Y5706D01*
X11410Y8790D02*
X11450Y8750D01*
X10550Y6800D02*
X10650Y6805D01*
D89*
X25625Y20900D02*
D03*
X26275D02*
D03*
X26925D02*
D03*
X25625Y15300D02*
D03*
X26275D02*
D03*
X26925D02*
D03*
X27575Y20900D02*
D03*
Y15300D02*
D03*
D90*
X16975Y4900D02*
D03*
Y7200D02*
D03*
Y9500D02*
D03*
D91*
X22825Y7200D02*
D03*
D92*
X23300Y25805D02*
D03*
Y24535D02*
D03*
Y23265D02*
D03*
Y21995D02*
D03*
X17700Y25805D02*
D03*
Y24535D02*
D03*
Y23265D02*
D03*
Y21995D02*
D03*
D93*
X24050Y18650D02*
D03*
X23100D02*
D03*
X22150D02*
D03*
Y15950D02*
D03*
X23100D02*
D03*
X24050D02*
D03*
M02*
