G04*
G04 #@! TF.GenerationSoftware,Altium Limited,Altium Designer,23.8.1 (32)*
G04*
G04 Layer_Physical_Order=3*
G04 Layer_Color=16440176*
%FSLAX43Y43*%
%MOMM*%
G71*
G04*
G04 #@! TF.SameCoordinates,8A790615-D0E5-43D8-8956-367088579B57*
G04*
G04*
G04 #@! TF.FilePolarity,Positive*
G04*
G01*
G75*
%ADD77C,0.600*%
%ADD80C,0.400*%
%ADD81C,1.200*%
%ADD83R,1.200X1.200*%
%ADD86C,0.800*%
%ADD87C,0.400*%
G36*
X28923Y31429D02*
X28559Y31278D01*
X28231Y31059D01*
X27952Y30781D01*
X27734Y30453D01*
X27583Y30089D01*
X27506Y29703D01*
Y29309D01*
X27583Y28923D01*
X27734Y28559D01*
X27952Y28231D01*
X28231Y27952D01*
X28559Y27734D01*
X28923Y27583D01*
X29309Y27506D01*
X29703D01*
X30089Y27583D01*
X30453Y27734D01*
X30781Y27952D01*
X31059Y28231D01*
X31278Y28559D01*
X31429Y28923D01*
X31548Y28889D01*
Y3123D01*
X31429Y3089D01*
X31278Y3453D01*
X31059Y3781D01*
X30781Y4060D01*
X30453Y4278D01*
X30089Y4429D01*
X29703Y4506D01*
X29309D01*
X28923Y4429D01*
X28559Y4278D01*
X28231Y4060D01*
X27952Y3781D01*
X27734Y3453D01*
X27583Y3089D01*
X27506Y2703D01*
Y2309D01*
X27583Y1923D01*
X27734Y1559D01*
X27952Y1231D01*
X28231Y952D01*
X28559Y734D01*
X28923Y583D01*
X28888Y465D01*
X3124D01*
X3089Y583D01*
X3453Y734D01*
X3781Y952D01*
X4060Y1231D01*
X4278Y1559D01*
X4429Y1923D01*
X4506Y2309D01*
Y2703D01*
X4429Y3089D01*
X4278Y3453D01*
X4060Y3781D01*
X3781Y4060D01*
X3453Y4278D01*
X3089Y4429D01*
X2703Y4506D01*
X2309D01*
X1923Y4429D01*
X1559Y4278D01*
X1231Y4060D01*
X952Y3781D01*
X734Y3453D01*
X583Y3089D01*
X465Y3124D01*
Y16282D01*
X547Y16345D01*
X731D01*
X909Y16393D01*
X1069Y16485D01*
X1199Y16615D01*
X1291Y16775D01*
X1339Y16953D01*
Y17137D01*
X1291Y17315D01*
X1199Y17475D01*
X1069Y17605D01*
X909Y17697D01*
X731Y17745D01*
X547D01*
X465Y17808D01*
Y18082D01*
X547Y18145D01*
X731D01*
X909Y18193D01*
X1069Y18285D01*
X1199Y18415D01*
X1291Y18575D01*
X1339Y18753D01*
Y18937D01*
X1291Y19115D01*
X1199Y19275D01*
X1069Y19405D01*
X909Y19497D01*
X731Y19545D01*
X547D01*
X465Y19608D01*
Y20787D01*
X547Y20850D01*
X731D01*
X909Y20898D01*
X1069Y20990D01*
X1199Y21120D01*
X1291Y21280D01*
X1339Y21458D01*
Y21642D01*
X1291Y21820D01*
X1199Y21980D01*
X1069Y22110D01*
X909Y22202D01*
X731Y22250D01*
X547D01*
X465Y22313D01*
Y22587D01*
X547Y22650D01*
X731D01*
X909Y22698D01*
X1069Y22790D01*
X1199Y22920D01*
X1291Y23080D01*
X1339Y23258D01*
Y23442D01*
X1291Y23620D01*
X1199Y23780D01*
X1069Y23910D01*
X909Y24002D01*
X731Y24050D01*
X547D01*
X465Y24113D01*
Y25287D01*
X547Y25350D01*
X731D01*
X909Y25398D01*
X1069Y25490D01*
X1199Y25620D01*
X1291Y25780D01*
X1339Y25958D01*
Y26142D01*
X1291Y26320D01*
X1199Y26480D01*
X1069Y26610D01*
X909Y26702D01*
X731Y26750D01*
X547D01*
X465Y26813D01*
Y28888D01*
X583Y28923D01*
X734Y28559D01*
X952Y28231D01*
X1231Y27952D01*
X1559Y27734D01*
X1923Y27583D01*
X2309Y27506D01*
X2703D01*
X3089Y27583D01*
X3453Y27734D01*
X3781Y27952D01*
X4060Y28231D01*
X4278Y28559D01*
X4429Y28923D01*
X4506Y29309D01*
Y29703D01*
X4429Y30089D01*
X4278Y30453D01*
X4060Y30781D01*
X3781Y31059D01*
X3453Y31278D01*
X3089Y31429D01*
X3123Y31548D01*
X28889D01*
X28923Y31429D01*
D02*
G37*
%LPC*%
G36*
X18868Y30813D02*
Y30300D01*
X19381D01*
X19376Y30317D01*
X19258Y30523D01*
X19090Y30690D01*
X18885Y30809D01*
X18868Y30813D01*
D02*
G37*
G36*
X18208D02*
X18190Y30809D01*
X17985Y30690D01*
X17818Y30523D01*
X17699Y30317D01*
X17694Y30300D01*
X18208D01*
Y30813D01*
D02*
G37*
G36*
X11248D02*
Y30300D01*
X11761D01*
X11756Y30317D01*
X11638Y30523D01*
X11470Y30690D01*
X11265Y30809D01*
X11248Y30813D01*
D02*
G37*
G36*
X10588D02*
X10570Y30809D01*
X10365Y30690D01*
X10198Y30523D01*
X10079Y30317D01*
X10074Y30300D01*
X10588D01*
Y30813D01*
D02*
G37*
G36*
X21209Y30970D02*
X20946D01*
X20692Y30902D01*
X20464Y30770D01*
X20278Y30584D01*
X20146Y30356D01*
X20078Y30102D01*
Y29934D01*
X20004Y29849D01*
X19965Y29809D01*
X19962Y29806D01*
X19895Y29739D01*
X19884Y29724D01*
X19696Y29598D01*
X19485Y29556D01*
X19457Y29574D01*
X19433Y29603D01*
X19415Y29640D01*
X17655D01*
X17602Y29557D01*
X17054D01*
X16956Y29684D01*
X16998Y29838D01*
Y30102D01*
X16930Y30356D01*
X16798Y30584D01*
X16612Y30770D01*
X16384Y30902D01*
X16129Y30970D01*
X15866D01*
X15612Y30902D01*
X15384Y30770D01*
X15198Y30584D01*
X15066Y30356D01*
X14998Y30102D01*
Y29838D01*
X15027Y29730D01*
X14936Y29642D01*
X14788Y29686D01*
X14515Y29832D01*
X14512Y29835D01*
X14465Y29866D01*
X14458Y29872D01*
Y30102D01*
X14390Y30356D01*
X14258Y30584D01*
X14072Y30770D01*
X13844Y30902D01*
X13589Y30970D01*
X13326D01*
X13072Y30902D01*
X12844Y30770D01*
X12658Y30584D01*
X12526Y30356D01*
X12458Y30102D01*
Y29838D01*
X12526Y29584D01*
X12658Y29356D01*
X12844Y29170D01*
X12950Y29109D01*
X12957Y29090D01*
X13085Y28923D01*
X13083Y28921D01*
X13483Y28580D01*
X13520Y28557D01*
X13484Y28430D01*
X13326D01*
X13072Y28362D01*
X12844Y28230D01*
X12658Y28044D01*
X12526Y27816D01*
X12458Y27562D01*
Y27298D01*
X12526Y27044D01*
X12658Y26816D01*
X12844Y26630D01*
X13072Y26498D01*
X13326Y26430D01*
X13589D01*
X13844Y26498D01*
X14072Y26630D01*
X14258Y26816D01*
X14390Y27044D01*
X14458Y27298D01*
Y27562D01*
X14390Y27816D01*
X14267Y28028D01*
X14289Y28074D01*
X14349Y28132D01*
X14417Y28104D01*
X14928Y27981D01*
X15032Y27973D01*
X15092Y27860D01*
X15066Y27816D01*
X14998Y27562D01*
Y27298D01*
X15066Y27044D01*
X15198Y26816D01*
X15384Y26630D01*
X15612Y26498D01*
X15866Y26430D01*
X16129D01*
X16384Y26498D01*
X16612Y26630D01*
X16798Y26816D01*
X16930Y27044D01*
X16998Y27298D01*
Y27562D01*
X16930Y27816D01*
X16920Y27833D01*
X16983Y27943D01*
X17552D01*
X17616Y27833D01*
X17606Y27816D01*
X17538Y27562D01*
Y27298D01*
X17606Y27044D01*
X17738Y26816D01*
X17924Y26630D01*
X18152Y26498D01*
X18406Y26430D01*
X18669D01*
X18924Y26498D01*
X19152Y26630D01*
X19338Y26816D01*
X19470Y27044D01*
X19538Y27298D01*
Y27562D01*
X19470Y27816D01*
X19540Y27948D01*
X19893Y27982D01*
X20313Y28110D01*
X20433Y28174D01*
X20550Y28125D01*
X20626Y27860D01*
X20900Y27198D01*
X21247Y26572D01*
X21661Y25987D01*
X22139Y25453D01*
X22139Y25453D01*
X22139Y25453D01*
X22233Y25373D01*
X22263Y25347D01*
X22202Y25232D01*
X22192Y25235D01*
X22008D01*
X21830Y25187D01*
X21670Y25095D01*
X21540Y24965D01*
X21448Y24805D01*
X21400Y24627D01*
Y24443D01*
X21448Y24265D01*
X21540Y24105D01*
X21670Y23975D01*
X21830Y23883D01*
X22008Y23835D01*
X22192D01*
X22370Y23883D01*
X22530Y23975D01*
X22660Y24105D01*
X22752Y24265D01*
X22800Y24443D01*
Y24627D01*
X22752Y24805D01*
X22723Y24857D01*
X22816Y24948D01*
X22931Y24878D01*
X23385Y24690D01*
X23863Y24575D01*
X24352Y24537D01*
X24360Y24537D01*
X24484Y24543D01*
X24604Y24524D01*
X24700Y24505D01*
X24870Y24392D01*
X24879Y24379D01*
X24881Y24378D01*
X24996Y24229D01*
X25069Y24053D01*
X25093Y23865D01*
X25093Y23864D01*
Y23826D01*
X24966Y23774D01*
X24930Y23810D01*
X24770Y23902D01*
X24592Y23950D01*
X24408D01*
X24230Y23902D01*
X24070Y23810D01*
X23940Y23680D01*
X23848Y23520D01*
X23800Y23342D01*
Y23158D01*
X23848Y22980D01*
X23940Y22820D01*
X24070Y22690D01*
X24230Y22598D01*
X24408Y22550D01*
X24592D01*
X24770Y22598D01*
X24930Y22690D01*
X24966Y22726D01*
X25093Y22674D01*
Y18102D01*
X25090D01*
X25131Y17578D01*
X25254Y17067D01*
X25455Y16581D01*
X25730Y16133D01*
X26071Y15733D01*
X26073Y15735D01*
X27635Y14173D01*
X27644Y14167D01*
X27853Y13912D01*
X28014Y13612D01*
X28112Y13287D01*
X28145Y12959D01*
X28143Y12948D01*
Y7247D01*
X28028Y7196D01*
X27980Y7162D01*
X27929Y7133D01*
X27812Y7033D01*
X27776Y6987D01*
X27735Y6945D01*
X27651Y6815D01*
X27630Y6761D01*
X27603Y6709D01*
X27559Y6561D01*
X27554Y6503D01*
X27542Y6446D01*
X27542Y6368D01*
X27542Y6368D01*
Y6054D01*
X27376Y5986D01*
X27150Y5956D01*
X27143Y5957D01*
X26594D01*
X26558Y6065D01*
X26557Y6084D01*
X26720Y6247D01*
X26839Y6453D01*
X26843Y6470D01*
X26000D01*
X25157D01*
X25161Y6453D01*
X25280Y6247D01*
X25443Y6084D01*
X25442Y6065D01*
X25406Y5957D01*
X22331D01*
X22314Y5955D01*
X22026Y5993D01*
X21955Y6022D01*
X21849Y6073D01*
X21849Y6073D01*
X21754Y6154D01*
X21426Y6434D01*
X20952Y6725D01*
X20438Y6937D01*
X20030Y7035D01*
X19991Y7175D01*
X22439Y9623D01*
X22448Y9638D01*
X22758Y10001D01*
X23016Y10422D01*
X23206Y10879D01*
X23321Y11359D01*
X23358Y11835D01*
X23362Y11852D01*
Y17348D01*
X23358Y17365D01*
X23321Y17841D01*
X23206Y18321D01*
X23016Y18778D01*
X22758Y19199D01*
X22448Y19562D01*
X22439Y19577D01*
X20923Y21092D01*
X20902Y21170D01*
X20810Y21330D01*
X20680Y21460D01*
X20520Y21552D01*
X20442Y21573D01*
X19530Y22485D01*
X19530Y22485D01*
X19530Y22485D01*
X19522Y22490D01*
X19476Y22559D01*
X19460Y22641D01*
X19462Y22650D01*
Y22832D01*
X19460Y22841D01*
X19476Y22923D01*
X19523Y22992D01*
X19530Y22997D01*
X19656Y23001D01*
X19658Y23000D01*
X19842D01*
X20020Y23048D01*
X20180Y23140D01*
X20310Y23270D01*
X20396Y23419D01*
X20420Y23454D01*
X20471Y23687D01*
X20429Y23922D01*
X20406Y23957D01*
X20402Y23970D01*
X20310Y24130D01*
X20180Y24260D01*
X20020Y24352D01*
X19842Y24400D01*
X19658D01*
X19480Y24352D01*
X19320Y24260D01*
X19295Y24235D01*
X19213Y24210D01*
X19197Y24201D01*
X19165Y24191D01*
X19133Y24174D01*
X19129Y24173D01*
X19126Y24170D01*
X18900Y24050D01*
X18702Y23887D01*
X18665Y23862D01*
X18665Y23863D01*
X18433Y23561D01*
X18287Y23209D01*
X18238Y22832D01*
X18238D01*
Y22650D01*
X18238D01*
X18287Y22273D01*
X18433Y21921D01*
X18590Y21716D01*
X18590Y21716D01*
X18664Y21619D01*
X18665Y21620D01*
X19500Y20785D01*
X19493Y20769D01*
X19485Y20705D01*
X19481Y20692D01*
X19482Y20682D01*
X19452Y20459D01*
X19449Y20444D01*
Y20243D01*
X15788D01*
X15690Y20370D01*
X15710Y20444D01*
Y20629D01*
X15663Y20807D01*
X15570Y20966D01*
X15440Y21097D01*
X15281Y21189D01*
X15102Y21236D01*
X14918D01*
X14740Y21189D01*
X14581Y21097D01*
X14450Y20966D01*
X14358Y20807D01*
X14310Y20629D01*
Y20444D01*
X14330Y20370D01*
X14233Y20243D01*
X13372D01*
X13277Y20370D01*
X13300Y20458D01*
Y20642D01*
X13252Y20820D01*
X13160Y20980D01*
X13030Y21110D01*
X12870Y21202D01*
X12692Y21250D01*
X12508D01*
X12439Y21231D01*
X12312Y21329D01*
Y24726D01*
X12304Y24765D01*
X12276Y25044D01*
X12184Y25350D01*
X12151Y25411D01*
X12140Y25444D01*
X12100Y25517D01*
Y25542D01*
X12052Y25720D01*
X11960Y25880D01*
X11830Y26010D01*
X11670Y26102D01*
X11492Y26150D01*
X11308D01*
X11130Y26102D01*
X10970Y26010D01*
X10840Y25880D01*
X10748Y25720D01*
X10700Y25542D01*
Y25358D01*
X10748Y25180D01*
X10840Y25020D01*
X10970Y24890D01*
X11075Y24830D01*
X11092Y24744D01*
X11088Y24726D01*
Y21162D01*
X9052D01*
X9024Y21156D01*
X8674Y21191D01*
X8311Y21301D01*
X7976Y21480D01*
X7705Y21703D01*
X7689Y21727D01*
X7227Y22189D01*
X7203Y22205D01*
X6980Y22476D01*
X6801Y22811D01*
X6691Y23174D01*
X6656Y23524D01*
X6662Y23552D01*
Y23610D01*
X6702Y23680D01*
X6750Y23858D01*
Y24042D01*
X6702Y24220D01*
X6610Y24380D01*
X6480Y24510D01*
X6320Y24602D01*
X6142Y24650D01*
X5958D01*
X5780Y24602D01*
X5620Y24510D01*
X5490Y24380D01*
X5398Y24220D01*
X5350Y24042D01*
Y23858D01*
X5398Y23680D01*
X5438Y23610D01*
Y23552D01*
X5442Y23535D01*
X5479Y23059D01*
X5594Y22579D01*
X5784Y22122D01*
X6042Y21701D01*
X6352Y21338D01*
X6361Y21323D01*
X6823Y20861D01*
X6838Y20852D01*
X7201Y20542D01*
X7622Y20284D01*
X8079Y20094D01*
X8559Y19979D01*
X9035Y19942D01*
X9052Y19938D01*
X11223D01*
X11226Y19933D01*
X11227Y19929D01*
X11230Y19926D01*
X11350Y19700D01*
X11464Y19562D01*
X11538Y19465D01*
X11538Y19465D01*
X11575Y19440D01*
X11771Y19280D01*
X12033Y19140D01*
X12317Y19053D01*
X12569Y19029D01*
X12613Y19020D01*
X13719D01*
X13786Y18907D01*
X13787Y18893D01*
X13764Y18871D01*
X13590D01*
X13412Y18823D01*
X13252Y18731D01*
X13122Y18600D01*
X13030Y18441D01*
X12982Y18263D01*
Y18078D01*
X13030Y17900D01*
X13122Y17741D01*
X13252Y17611D01*
X13412Y17518D01*
X13590Y17471D01*
X13774D01*
X13952Y17518D01*
X14112Y17611D01*
X14242Y17741D01*
X14327Y17888D01*
X14424Y17863D01*
X14608D01*
X14786Y17910D01*
X14946Y18002D01*
X15076Y18133D01*
X15168Y18292D01*
X15216Y18470D01*
Y18655D01*
X15168Y18833D01*
X15134Y18893D01*
X15207Y19020D01*
X19721D01*
X19791Y18979D01*
X19969Y18931D01*
X20153D01*
X20331Y18979D01*
X20491Y19071D01*
X20621Y19202D01*
X20713Y19361D01*
X20725Y19404D01*
X20848Y19437D01*
X21573Y18711D01*
X21597Y18695D01*
X21820Y18424D01*
X21999Y18089D01*
X22109Y17726D01*
X22144Y17376D01*
X22138Y17348D01*
Y11852D01*
X22144Y11824D01*
X22109Y11474D01*
X21999Y11111D01*
X21820Y10776D01*
X21597Y10505D01*
X21573Y10489D01*
X18561Y7477D01*
X18545Y7453D01*
X18274Y7230D01*
X18044Y7107D01*
X12852D01*
Y7110D01*
X12328Y7069D01*
X11817Y6946D01*
X11733Y6912D01*
X10012D01*
X9990Y6907D01*
X9760Y6938D01*
X9552Y7024D01*
X9551Y7024D01*
X9551Y7024D01*
X9549Y7032D01*
X9457Y7192D01*
X9326Y7322D01*
X9167Y7414D01*
X8989Y7462D01*
X8804D01*
X8626Y7414D01*
X8467Y7322D01*
X8336Y7192D01*
X8244Y7032D01*
X8196Y6854D01*
Y6670D01*
X8244Y6492D01*
X8336Y6332D01*
X8467Y6202D01*
X8626Y6110D01*
X8785Y6067D01*
X8796Y6058D01*
X8830Y6040D01*
X8858Y6022D01*
X8885Y6011D01*
X9175Y5856D01*
X9585Y5732D01*
X9882Y5702D01*
X9929Y5570D01*
X8410Y4052D01*
X8409Y4053D01*
X8118Y3712D01*
X7883Y3329D01*
X7775Y3068D01*
X7770Y3062D01*
X7760Y3033D01*
X7747Y3002D01*
X7733Y2974D01*
X7728Y2954D01*
X7711Y2914D01*
X7683Y2796D01*
X7663Y2728D01*
X7580Y2644D01*
X7448Y2416D01*
X7380Y2162D01*
Y1898D01*
X7448Y1644D01*
X7580Y1416D01*
X7766Y1230D01*
X7994Y1098D01*
X8248Y1030D01*
X8512D01*
X8766Y1098D01*
X8994Y1230D01*
X9180Y1416D01*
X9312Y1644D01*
X9380Y1898D01*
Y2162D01*
X9312Y2416D01*
X9276Y2478D01*
X9349Y2655D01*
X9537Y2899D01*
X9552Y2910D01*
X11627Y4985D01*
X11633Y4994D01*
X11888Y5203D01*
X12188Y5364D01*
X12513Y5462D01*
X12841Y5495D01*
X12852Y5493D01*
X19343D01*
X19358Y5495D01*
X19719Y5460D01*
X20081Y5350D01*
X20415Y5171D01*
X20611Y5010D01*
X20704Y4928D01*
X20966Y4713D01*
X21149Y4615D01*
X21156Y4611D01*
X21168Y4603D01*
X21260Y4556D01*
X21260Y4556D01*
X21264Y4563D01*
X21469Y4478D01*
X21894Y4376D01*
X22208Y4351D01*
X22330Y4341D01*
X22332Y4342D01*
X22458Y4343D01*
X27143D01*
Y4338D01*
X27634Y4386D01*
X28107Y4530D01*
X28543Y4762D01*
X28742Y4926D01*
X28748Y4928D01*
X28748Y4929D01*
X28748Y4929D01*
X29226Y5126D01*
X29275Y5159D01*
X29328Y5188D01*
X29486Y5317D01*
X29524Y5363D01*
X29566Y5406D01*
X29680Y5575D01*
X29703Y5631D01*
X29731Y5684D01*
X29784Y5857D01*
X29788Y5905D01*
X29801Y5953D01*
X29807Y6077D01*
X29806Y6088D01*
X29808Y6099D01*
Y6713D01*
X29798Y6763D01*
X29795Y6814D01*
X29767Y6925D01*
X29757Y6946D01*
Y12948D01*
X29760D01*
X29719Y13472D01*
X29596Y13983D01*
X29395Y14469D01*
X29120Y14917D01*
X28779Y15317D01*
X28777Y15315D01*
X27215Y16877D01*
X27206Y16883D01*
X26997Y17138D01*
X26836Y17438D01*
X26738Y17764D01*
X26705Y18091D01*
X26707Y18102D01*
Y23691D01*
X26834Y23743D01*
X26947Y23630D01*
X27153Y23511D01*
X27382Y23450D01*
X27618D01*
X27847Y23511D01*
X28053Y23630D01*
X28220Y23797D01*
X28339Y24003D01*
X28400Y24232D01*
Y24468D01*
X28339Y24697D01*
X28220Y24903D01*
X28148Y24975D01*
X28220Y25047D01*
X28339Y25253D01*
X28400Y25482D01*
Y25718D01*
X28339Y25947D01*
X28220Y26153D01*
X28053Y26320D01*
X27847Y26439D01*
X27618Y26500D01*
X27382D01*
X27153Y26439D01*
X26947Y26320D01*
X26780Y26153D01*
X26661Y25947D01*
X26600Y25718D01*
Y25482D01*
X26661Y25253D01*
X26780Y25047D01*
X26852Y24975D01*
X26780Y24903D01*
X26677Y24724D01*
X26546Y24719D01*
X26533Y24762D01*
X26316Y25168D01*
X26024Y25524D01*
X26023Y25523D01*
X25693Y25794D01*
X25317Y25995D01*
X24909Y26119D01*
X24484Y26160D01*
Y26160D01*
X24438Y26160D01*
Y26160D01*
X24352Y26152D01*
X24057Y26181D01*
X23773Y26267D01*
X23511Y26407D01*
X23286Y26591D01*
X23283Y26596D01*
X23281Y26597D01*
X23264Y26611D01*
X22867Y27063D01*
X22520Y27582D01*
X22244Y28143D01*
X22043Y28734D01*
X21941Y29248D01*
X21920Y29404D01*
X21918Y29426D01*
X22010Y29584D01*
X22078Y29838D01*
Y30102D01*
X22010Y30356D01*
X21878Y30584D01*
X21692Y30770D01*
X21464Y30902D01*
X21209Y30970D01*
D02*
G37*
G36*
X11761Y29640D02*
X11248D01*
Y29127D01*
X11265Y29131D01*
X11470Y29250D01*
X11638Y29417D01*
X11756Y29623D01*
X11761Y29640D01*
D02*
G37*
G36*
X10588D02*
X10074D01*
X10079Y29623D01*
X10198Y29417D01*
X10365Y29250D01*
X10570Y29131D01*
X10588Y29127D01*
Y29640D01*
D02*
G37*
G36*
X26289Y30970D02*
X26026D01*
X25772Y30902D01*
X25544Y30770D01*
X25358Y30584D01*
X25226Y30356D01*
X25158Y30102D01*
Y29838D01*
X25226Y29584D01*
X25358Y29356D01*
X25544Y29170D01*
X25772Y29038D01*
X26026Y28970D01*
X26289D01*
X26544Y29038D01*
X26772Y29170D01*
X26958Y29356D01*
X27090Y29584D01*
X27158Y29838D01*
Y30102D01*
X27090Y30356D01*
X26958Y30584D01*
X26772Y30770D01*
X26544Y30902D01*
X26289Y30970D01*
D02*
G37*
G36*
X23749D02*
X23486D01*
X23232Y30902D01*
X23004Y30770D01*
X22818Y30584D01*
X22686Y30356D01*
X22618Y30102D01*
Y29838D01*
X22686Y29584D01*
X22818Y29356D01*
X23004Y29170D01*
X23232Y29038D01*
X23486Y28970D01*
X23749D01*
X24004Y29038D01*
X24232Y29170D01*
X24418Y29356D01*
X24550Y29584D01*
X24618Y29838D01*
Y30102D01*
X24550Y30356D01*
X24418Y30584D01*
X24232Y30770D01*
X24004Y30902D01*
X23749Y30970D01*
D02*
G37*
G36*
X8509D02*
X8246D01*
X7992Y30902D01*
X7764Y30770D01*
X7578Y30584D01*
X7446Y30356D01*
X7378Y30102D01*
Y29838D01*
X7446Y29584D01*
X7578Y29356D01*
X7764Y29170D01*
X7992Y29038D01*
X8246Y28970D01*
X8509D01*
X8764Y29038D01*
X8992Y29170D01*
X9178Y29356D01*
X9310Y29584D01*
X9378Y29838D01*
Y30102D01*
X9310Y30356D01*
X9178Y30584D01*
X8992Y30770D01*
X8764Y30902D01*
X8509Y30970D01*
D02*
G37*
G36*
X6838D02*
X4838D01*
Y28970D01*
X6838D01*
Y30970D01*
D02*
G37*
G36*
X11049Y28430D02*
X10786D01*
X10532Y28362D01*
X10304Y28230D01*
X10118Y28044D01*
X9986Y27816D01*
X9918Y27562D01*
Y27298D01*
X9986Y27044D01*
X10118Y26816D01*
X10304Y26630D01*
X10532Y26498D01*
X10786Y26430D01*
X11049D01*
X11304Y26498D01*
X11532Y26630D01*
X11718Y26816D01*
X11850Y27044D01*
X11918Y27298D01*
Y27562D01*
X11850Y27816D01*
X11718Y28044D01*
X11532Y28230D01*
X11304Y28362D01*
X11049Y28430D01*
D02*
G37*
G36*
X8509D02*
X8246D01*
X7992Y28362D01*
X7764Y28230D01*
X7578Y28044D01*
X7446Y27816D01*
X7378Y27562D01*
Y27298D01*
X7446Y27044D01*
X7578Y26816D01*
X7764Y26630D01*
X7992Y26498D01*
X8246Y26430D01*
X8509D01*
X8764Y26498D01*
X8992Y26630D01*
X9178Y26816D01*
X9310Y27044D01*
X9378Y27298D01*
Y27562D01*
X9310Y27816D01*
X9178Y28044D01*
X8992Y28230D01*
X8764Y28362D01*
X8509Y28430D01*
D02*
G37*
G36*
X6838D02*
X4838D01*
Y26430D01*
X6838D01*
Y28430D01*
D02*
G37*
G36*
X20092Y26450D02*
X19908D01*
X19730Y26402D01*
X19570Y26310D01*
X19440Y26180D01*
X19348Y26020D01*
X19300Y25842D01*
Y25658D01*
X19348Y25480D01*
X19440Y25320D01*
X19570Y25190D01*
X19730Y25098D01*
X19908Y25050D01*
X20092D01*
X20270Y25098D01*
X20430Y25190D01*
X20560Y25320D01*
X20652Y25480D01*
X20700Y25658D01*
Y25842D01*
X20652Y26020D01*
X20560Y26180D01*
X20430Y26310D01*
X20270Y26402D01*
X20092Y26450D01*
D02*
G37*
G36*
X14984Y24605D02*
X14800D01*
X14622Y24557D01*
X14479Y24474D01*
X14362Y24542D01*
X14184Y24590D01*
X14000D01*
X13822Y24542D01*
X13662Y24450D01*
X13532Y24319D01*
X13440Y24160D01*
X13392Y23982D01*
Y23846D01*
X13337Y23831D01*
X13177Y23739D01*
X13047Y23609D01*
X12955Y23449D01*
X12907Y23271D01*
Y23087D01*
X12930Y23002D01*
X12887Y22859D01*
X12728Y22767D01*
X12597Y22636D01*
X12505Y22477D01*
X12458Y22299D01*
Y22114D01*
X12505Y21936D01*
X12597Y21777D01*
X12728Y21646D01*
X12887Y21554D01*
X13065Y21506D01*
X13250D01*
X13428Y21554D01*
X13587Y21646D01*
X13718Y21777D01*
X13810Y21936D01*
X13858Y22114D01*
Y22299D01*
X13835Y22384D01*
X13877Y22527D01*
X14037Y22619D01*
X14167Y22749D01*
X14259Y22909D01*
X14307Y23087D01*
Y23222D01*
X14362Y23237D01*
X14416Y23268D01*
X14525Y23184D01*
X14500Y23092D01*
Y22908D01*
X14548Y22730D01*
X14640Y22570D01*
X14770Y22440D01*
X14930Y22348D01*
X15108Y22300D01*
X15292D01*
X15470Y22348D01*
X15630Y22440D01*
X15760Y22570D01*
X15852Y22730D01*
X15900Y22908D01*
Y23092D01*
X15852Y23270D01*
X15760Y23430D01*
X15630Y23560D01*
X15533Y23616D01*
X15544Y23634D01*
X15592Y23812D01*
Y23997D01*
X15544Y24175D01*
X15452Y24334D01*
X15322Y24465D01*
X15162Y24557D01*
X14984Y24605D01*
D02*
G37*
G36*
X16586Y25424D02*
X16402D01*
X16224Y25376D01*
X16064Y25284D01*
X15934Y25154D01*
X15842Y24994D01*
X15794Y24816D01*
Y24632D01*
X15842Y24454D01*
X15934Y24294D01*
X16064Y24164D01*
X16224Y24072D01*
X16402Y24024D01*
X16586D01*
X16764Y24072D01*
X16924Y24164D01*
X17054Y24294D01*
X17147Y24454D01*
X17194Y24632D01*
Y24816D01*
X17147Y24994D01*
X17054Y25154D01*
X16924Y25284D01*
X16764Y25376D01*
X16586Y25424D01*
D02*
G37*
G36*
X30212Y19150D02*
X29988D01*
X29772Y19092D01*
X29578Y18980D01*
X29420Y18822D01*
X29308Y18628D01*
X29250Y18412D01*
Y18188D01*
X29308Y17972D01*
X29420Y17778D01*
X29578Y17620D01*
X29772Y17508D01*
X29988Y17450D01*
X30212D01*
X30428Y17508D01*
X30622Y17620D01*
X30780Y17778D01*
X30892Y17972D01*
X30950Y18188D01*
Y18412D01*
X30892Y18628D01*
X30780Y18822D01*
X30622Y18980D01*
X30428Y19092D01*
X30212Y19150D01*
D02*
G37*
G36*
X19792Y18700D02*
X19608D01*
X19430Y18652D01*
X19270Y18560D01*
X19140Y18430D01*
X19048Y18270D01*
X19000Y18092D01*
Y17908D01*
X19048Y17730D01*
X19140Y17570D01*
X19270Y17440D01*
X19430Y17348D01*
X19608Y17300D01*
X19792D01*
X19970Y17348D01*
X20130Y17440D01*
X20260Y17570D01*
X20352Y17730D01*
X20400Y17908D01*
Y18092D01*
X20352Y18270D01*
X20260Y18430D01*
X20130Y18560D01*
X19970Y18652D01*
X19792Y18700D01*
D02*
G37*
G36*
X12134Y18526D02*
X11950D01*
X11772Y18479D01*
X11612Y18387D01*
X11482Y18256D01*
X11390Y18097D01*
X11342Y17919D01*
Y17734D01*
X11390Y17556D01*
X11482Y17397D01*
X11612Y17266D01*
X11743Y17191D01*
Y17042D01*
X11790Y16864D01*
X11883Y16704D01*
X12013Y16574D01*
X12173Y16482D01*
X12351Y16434D01*
X12535D01*
X12713Y16482D01*
X12873Y16574D01*
X13003Y16704D01*
X13095Y16864D01*
X13143Y17042D01*
Y17226D01*
X13095Y17404D01*
X13003Y17564D01*
X12873Y17694D01*
X12742Y17770D01*
Y17919D01*
X12694Y18097D01*
X12602Y18256D01*
X12472Y18387D01*
X12312Y18479D01*
X12134Y18526D01*
D02*
G37*
G36*
X10604Y17649D02*
X10420D01*
X10242Y17601D01*
X10082Y17509D01*
X9952Y17378D01*
X9860Y17219D01*
X9812Y17041D01*
Y16950D01*
X9808D01*
X9630Y16902D01*
X9470Y16810D01*
X9340Y16680D01*
X9248Y16520D01*
X9200Y16342D01*
Y16158D01*
X9248Y15980D01*
X9340Y15820D01*
X9470Y15690D01*
X9630Y15598D01*
X9808Y15550D01*
X9992D01*
X10170Y15598D01*
X10330Y15690D01*
X10460Y15820D01*
X10552Y15980D01*
X10600Y16158D01*
Y16249D01*
X10604D01*
X10782Y16296D01*
X10942Y16388D01*
X11072Y16519D01*
X11164Y16678D01*
X11212Y16856D01*
Y17041D01*
X11164Y17219D01*
X11072Y17378D01*
X10942Y17509D01*
X10782Y17601D01*
X10604Y17649D01*
D02*
G37*
G36*
X21042Y17300D02*
X20858D01*
X20680Y17252D01*
X20520Y17160D01*
X20390Y17030D01*
X20298Y16870D01*
X20279Y16800D01*
X20208D01*
X20030Y16752D01*
X19870Y16660D01*
X19740Y16530D01*
X19648Y16370D01*
X19600Y16192D01*
Y16008D01*
X19648Y15830D01*
X19740Y15670D01*
X19870Y15540D01*
X20030Y15448D01*
X20208Y15400D01*
X20250D01*
Y15258D01*
X20298Y15080D01*
X20390Y14920D01*
X20520Y14790D01*
X20680Y14698D01*
X20858Y14650D01*
X21042D01*
X21220Y14698D01*
X21380Y14790D01*
X21510Y14920D01*
X21602Y15080D01*
X21650Y15258D01*
Y15442D01*
X21602Y15620D01*
X21510Y15780D01*
X21391Y15899D01*
X21377Y15962D01*
Y15988D01*
X21391Y16051D01*
X21510Y16170D01*
X21602Y16330D01*
X21650Y16508D01*
Y16692D01*
X21602Y16870D01*
X21510Y17030D01*
X21380Y17160D01*
X21220Y17252D01*
X21042Y17300D01*
D02*
G37*
G36*
X30212Y16150D02*
X29988D01*
X29772Y16092D01*
X29578Y15980D01*
X29420Y15822D01*
X29308Y15628D01*
X29250Y15412D01*
Y15188D01*
X29308Y14972D01*
X29420Y14778D01*
X29578Y14620D01*
X29772Y14508D01*
X29988Y14450D01*
X30212D01*
X30428Y14508D01*
X30622Y14620D01*
X30780Y14778D01*
X30892Y14972D01*
X30950Y15188D01*
Y15412D01*
X30892Y15628D01*
X30780Y15822D01*
X30622Y15980D01*
X30428Y16092D01*
X30212Y16150D01*
D02*
G37*
G36*
X21142Y14250D02*
X20958D01*
X20780Y14202D01*
X20620Y14110D01*
X20490Y13980D01*
X20430Y13876D01*
X20342Y13900D01*
X20158D01*
X19980Y13852D01*
X19820Y13760D01*
X19690Y13630D01*
X19598Y13470D01*
X19550Y13292D01*
Y13126D01*
X19507Y13075D01*
X19441Y13023D01*
X19342Y13050D01*
X19158D01*
X18980Y13002D01*
X18820Y12910D01*
X18690Y12780D01*
X18598Y12620D01*
X18550Y12442D01*
Y12258D01*
X18598Y12080D01*
X18690Y11920D01*
X18820Y11790D01*
X18980Y11698D01*
X19158Y11650D01*
X19342D01*
X19520Y11698D01*
X19680Y11790D01*
X19810Y11920D01*
X19902Y12080D01*
X19950Y12258D01*
Y12424D01*
X19993Y12475D01*
X20059Y12527D01*
X20158Y12500D01*
X20342D01*
X20520Y12548D01*
X20680Y12640D01*
X20810Y12770D01*
X20870Y12874D01*
X20958Y12850D01*
X21142D01*
X21320Y12898D01*
X21480Y12990D01*
X21610Y13120D01*
X21702Y13280D01*
X21750Y13458D01*
Y13642D01*
X21702Y13820D01*
X21610Y13980D01*
X21480Y14110D01*
X21320Y14202D01*
X21142Y14250D01*
D02*
G37*
G36*
X3132Y15228D02*
X2332D01*
X2097Y15197D01*
X1878Y15106D01*
X1690Y14962D01*
X1546Y14774D01*
X1455Y14555D01*
X1424Y14320D01*
X1455Y14085D01*
X1546Y13866D01*
X1690Y13678D01*
X1878Y13534D01*
X2097Y13443D01*
X2332Y13412D01*
X3132D01*
X3367Y13443D01*
X3586Y13534D01*
X3774Y13678D01*
X3918Y13866D01*
X4009Y14085D01*
X4040Y14320D01*
X4009Y14555D01*
X3918Y14774D01*
X3774Y14962D01*
X3586Y15106D01*
X3367Y15197D01*
X3132Y15228D01*
D02*
G37*
G36*
X9992Y14550D02*
X9808D01*
X9630Y14502D01*
X9470Y14410D01*
X9340Y14280D01*
X9248Y14120D01*
X9200Y13942D01*
Y13758D01*
X9101Y13637D01*
X9012D01*
X8834Y13589D01*
X8674Y13497D01*
X8544Y13366D01*
X8452Y13207D01*
X8404Y13029D01*
Y12844D01*
X8452Y12666D01*
X8544Y12507D01*
X8674Y12376D01*
X8834Y12284D01*
X9012Y12237D01*
X9196D01*
X9374Y12284D01*
X9534Y12376D01*
X9664Y12507D01*
X9756Y12666D01*
X9804Y12844D01*
Y13029D01*
X9903Y13150D01*
X9992D01*
X10170Y13198D01*
X10330Y13290D01*
X10460Y13420D01*
X10552Y13580D01*
X10600Y13758D01*
Y13942D01*
X10552Y14120D01*
X10460Y14280D01*
X10330Y14410D01*
X10170Y14502D01*
X9992Y14550D01*
D02*
G37*
G36*
X7312Y15228D02*
X6512D01*
X6277Y15197D01*
X6058Y15106D01*
X5870Y14962D01*
X5726Y14774D01*
X5635Y14555D01*
X5604Y14320D01*
X5635Y14085D01*
X5726Y13866D01*
X5870Y13678D01*
X5957Y13611D01*
X5964Y13505D01*
X5952Y13455D01*
X5832Y13335D01*
X5736Y13170D01*
X5687Y12985D01*
Y12795D01*
X5736Y12610D01*
X5832Y12445D01*
X5967Y12310D01*
X6132Y12214D01*
X6316Y12165D01*
X6507D01*
X6692Y12214D01*
X6857Y12310D01*
X6992Y12445D01*
X7087Y12610D01*
X7137Y12795D01*
Y12985D01*
X7087Y13170D01*
X7021Y13285D01*
X7084Y13412D01*
X7312D01*
X7547Y13443D01*
X7766Y13534D01*
X7954Y13678D01*
X8098Y13866D01*
X8189Y14085D01*
X8220Y14320D01*
X8189Y14555D01*
X8098Y14774D01*
X7954Y14962D01*
X7766Y15106D01*
X7547Y15197D01*
X7312Y15228D01*
D02*
G37*
G36*
X25642Y12000D02*
X25458D01*
X25280Y11952D01*
X25120Y11860D01*
X24990Y11730D01*
X24898Y11570D01*
X24850Y11392D01*
Y11208D01*
X24898Y11030D01*
X24990Y10870D01*
X25120Y10740D01*
X25280Y10648D01*
X25458Y10600D01*
X25642D01*
X25820Y10648D01*
X25980Y10740D01*
X26110Y10870D01*
X26202Y11030D01*
X26250Y11208D01*
Y11392D01*
X26202Y11570D01*
X26110Y11730D01*
X25980Y11860D01*
X25820Y11952D01*
X25642Y12000D01*
D02*
G37*
G36*
X17331Y11425D02*
X17146D01*
X16968Y11377D01*
X16809Y11285D01*
X16678Y11155D01*
X16586Y10995D01*
X16539Y10817D01*
Y10633D01*
X16586Y10455D01*
X16678Y10295D01*
X16809Y10165D01*
X16968Y10073D01*
X17146Y10025D01*
X17331D01*
X17509Y10073D01*
X17668Y10165D01*
X17799Y10295D01*
X17891Y10455D01*
X17939Y10633D01*
Y10817D01*
X17891Y10995D01*
X17799Y11155D01*
X17668Y11285D01*
X17509Y11377D01*
X17331Y11425D01*
D02*
G37*
G36*
X12237Y15100D02*
X12053D01*
X11875Y15052D01*
X11715Y14960D01*
X11585Y14830D01*
X11493Y14670D01*
X11445Y14492D01*
Y14308D01*
X11493Y14130D01*
X11585Y13970D01*
X11715Y13840D01*
X11736Y13828D01*
X11700Y13692D01*
Y13508D01*
X11748Y13330D01*
X11834Y13180D01*
X11771Y13071D01*
X11724Y12893D01*
Y12708D01*
X11771Y12530D01*
X11863Y12371D01*
X11994Y12240D01*
X12153Y12148D01*
X12331Y12100D01*
X12454D01*
X12531Y11980D01*
X12509Y11940D01*
X12461Y11762D01*
Y11578D01*
X12509Y11400D01*
X12601Y11240D01*
X12731Y11110D01*
X12891Y11018D01*
X13009Y10986D01*
X13076Y10926D01*
X13090Y10843D01*
X13058Y10721D01*
Y10537D01*
X13106Y10359D01*
X13198Y10199D01*
X13328Y10069D01*
X13488Y9977D01*
X13666Y9929D01*
X13850D01*
X14028Y9977D01*
X14188Y10069D01*
X14318Y10199D01*
X14410Y10359D01*
X14458Y10537D01*
Y10721D01*
X14410Y10899D01*
X14318Y11059D01*
X14188Y11189D01*
X14028Y11282D01*
X13910Y11313D01*
X13842Y11374D01*
X13828Y11456D01*
X13861Y11578D01*
Y11762D01*
X13813Y11940D01*
X13734Y12078D01*
X13805Y12200D01*
X13852Y12378D01*
Y12562D01*
X13805Y12740D01*
X13712Y12900D01*
X13582Y13030D01*
X13422Y13123D01*
X13244Y13170D01*
X13107D01*
X13037Y13266D01*
X13031Y13292D01*
X13052Y13330D01*
X13100Y13508D01*
Y13692D01*
X13052Y13870D01*
X12960Y14030D01*
X12830Y14160D01*
X12809Y14172D01*
X12845Y14308D01*
Y14492D01*
X12797Y14670D01*
X12705Y14830D01*
X12575Y14960D01*
X12415Y15052D01*
X12237Y15100D01*
D02*
G37*
G36*
X11640Y11578D02*
X11456D01*
X11278Y11530D01*
X11118Y11438D01*
X10988Y11307D01*
X10896Y11148D01*
X10848Y10970D01*
Y10785D01*
X10896Y10607D01*
X10988Y10448D01*
X11040Y10396D01*
X11017Y10357D01*
X10969Y10179D01*
Y9995D01*
X11017Y9817D01*
X11109Y9657D01*
X11239Y9527D01*
X11399Y9434D01*
X11577Y9387D01*
X11761D01*
X11939Y9434D01*
X12099Y9527D01*
X12229Y9657D01*
X12321Y9817D01*
X12369Y9995D01*
Y10179D01*
X12321Y10357D01*
X12229Y10517D01*
X12178Y10568D01*
X12201Y10607D01*
X12248Y10785D01*
Y10970D01*
X12201Y11148D01*
X12108Y11307D01*
X11978Y11438D01*
X11818Y11530D01*
X11640Y11578D01*
D02*
G37*
G36*
X4692Y9650D02*
X4508D01*
X4330Y9602D01*
X4170Y9510D01*
X4040Y9380D01*
X3948Y9220D01*
X3900Y9042D01*
Y8858D01*
X3948Y8680D01*
X4040Y8520D01*
X4170Y8390D01*
X4330Y8298D01*
X4508Y8250D01*
X4629D01*
X4648Y8180D01*
X4740Y8020D01*
X4870Y7890D01*
X5030Y7798D01*
X5208Y7750D01*
X5392D01*
X5570Y7798D01*
X5730Y7890D01*
X5860Y8020D01*
X5952Y8180D01*
X6000Y8358D01*
Y8542D01*
X5952Y8720D01*
X5860Y8880D01*
X5730Y9010D01*
X5570Y9102D01*
X5392Y9150D01*
X5271D01*
X5252Y9220D01*
X5160Y9380D01*
X5030Y9510D01*
X4870Y9602D01*
X4692Y9650D01*
D02*
G37*
G36*
X27000Y9800D02*
X25000D01*
Y7800D01*
X25764D01*
X25781Y7673D01*
X25653Y7639D01*
X25447Y7520D01*
X25280Y7353D01*
X25161Y7147D01*
X25157Y7130D01*
X26000D01*
X26843D01*
X26839Y7147D01*
X26720Y7353D01*
X26553Y7520D01*
X26347Y7639D01*
X26219Y7673D01*
X26236Y7800D01*
X27000D01*
Y9800D01*
D02*
G37*
G36*
X6507Y7835D02*
X6316D01*
X6132Y7786D01*
X5967Y7690D01*
X5832Y7555D01*
X5736Y7390D01*
X5687Y7205D01*
Y7015D01*
X5736Y6830D01*
X5832Y6665D01*
X5952Y6545D01*
X5964Y6495D01*
X5957Y6389D01*
X5870Y6322D01*
X5726Y6134D01*
X5635Y5915D01*
X5604Y5680D01*
X5635Y5445D01*
X5726Y5226D01*
X5870Y5038D01*
X6058Y4894D01*
X6277Y4803D01*
X6512Y4772D01*
X7312D01*
X7547Y4803D01*
X7766Y4894D01*
X7954Y5038D01*
X8098Y5226D01*
X8189Y5445D01*
X8220Y5680D01*
X8189Y5915D01*
X8098Y6134D01*
X7954Y6322D01*
X7766Y6466D01*
X7547Y6557D01*
X7312Y6588D01*
X7084D01*
X7021Y6715D01*
X7087Y6830D01*
X7137Y7015D01*
Y7205D01*
X7087Y7390D01*
X6992Y7555D01*
X6857Y7690D01*
X6692Y7786D01*
X6507Y7835D01*
D02*
G37*
G36*
X3132Y6588D02*
X2332D01*
X2097Y6557D01*
X1878Y6466D01*
X1690Y6322D01*
X1546Y6134D01*
X1455Y5915D01*
X1424Y5680D01*
X1455Y5445D01*
X1546Y5226D01*
X1690Y5038D01*
X1878Y4894D01*
X2097Y4803D01*
X2332Y4772D01*
X3132D01*
X3367Y4803D01*
X3586Y4894D01*
X3774Y5038D01*
X3918Y5226D01*
X4009Y5445D01*
X4040Y5680D01*
X4009Y5915D01*
X3918Y6134D01*
X3774Y6322D01*
X3586Y6466D01*
X3367Y6557D01*
X3132Y6588D01*
D02*
G37*
G36*
X6740Y2930D02*
X6170D01*
Y2360D01*
X6740D01*
Y2930D01*
D02*
G37*
G36*
X5510D02*
X4940D01*
Y2360D01*
X5510D01*
Y2930D01*
D02*
G37*
G36*
X6740Y1700D02*
X6170D01*
Y1130D01*
X6740D01*
Y1700D01*
D02*
G37*
G36*
X5510D02*
X4940D01*
Y1130D01*
X5510D01*
Y1700D01*
D02*
G37*
G36*
X26292Y3030D02*
X26028D01*
X25774Y2962D01*
X25546Y2830D01*
X25360Y2644D01*
X25228Y2416D01*
X25160Y2162D01*
Y1898D01*
X25228Y1644D01*
X25360Y1416D01*
X25546Y1230D01*
X25774Y1098D01*
X26028Y1030D01*
X26292D01*
X26546Y1098D01*
X26774Y1230D01*
X26960Y1416D01*
X27092Y1644D01*
X27160Y1898D01*
Y2162D01*
X27092Y2416D01*
X26960Y2644D01*
X26774Y2830D01*
X26546Y2962D01*
X26292Y3030D01*
D02*
G37*
G36*
X23752D02*
X23488D01*
X23234Y2962D01*
X23006Y2830D01*
X22820Y2644D01*
X22688Y2416D01*
X22620Y2162D01*
Y1898D01*
X22688Y1644D01*
X22820Y1416D01*
X23006Y1230D01*
X23234Y1098D01*
X23488Y1030D01*
X23752D01*
X24006Y1098D01*
X24234Y1230D01*
X24420Y1416D01*
X24552Y1644D01*
X24620Y1898D01*
Y2162D01*
X24552Y2416D01*
X24420Y2644D01*
X24234Y2830D01*
X24006Y2962D01*
X23752Y3030D01*
D02*
G37*
G36*
X21212D02*
X20948D01*
X20694Y2962D01*
X20466Y2830D01*
X20280Y2644D01*
X20148Y2416D01*
X20080Y2162D01*
Y1898D01*
X20148Y1644D01*
X20280Y1416D01*
X20466Y1230D01*
X20694Y1098D01*
X20948Y1030D01*
X21212D01*
X21466Y1098D01*
X21694Y1230D01*
X21880Y1416D01*
X22012Y1644D01*
X22080Y1898D01*
Y2162D01*
X22012Y2416D01*
X21880Y2644D01*
X21694Y2830D01*
X21466Y2962D01*
X21212Y3030D01*
D02*
G37*
G36*
X18672D02*
X18408D01*
X18154Y2962D01*
X17926Y2830D01*
X17740Y2644D01*
X17608Y2416D01*
X17540Y2162D01*
Y1898D01*
X17608Y1644D01*
X17740Y1416D01*
X17926Y1230D01*
X18154Y1098D01*
X18408Y1030D01*
X18672D01*
X18926Y1098D01*
X19154Y1230D01*
X19340Y1416D01*
X19472Y1644D01*
X19540Y1898D01*
Y2162D01*
X19472Y2416D01*
X19340Y2644D01*
X19154Y2830D01*
X18926Y2962D01*
X18672Y3030D01*
D02*
G37*
G36*
X16132D02*
X15868D01*
X15614Y2962D01*
X15386Y2830D01*
X15200Y2644D01*
X15068Y2416D01*
X15000Y2162D01*
Y1898D01*
X15068Y1644D01*
X15200Y1416D01*
X15386Y1230D01*
X15614Y1098D01*
X15868Y1030D01*
X16132D01*
X16386Y1098D01*
X16614Y1230D01*
X16800Y1416D01*
X16932Y1644D01*
X17000Y1898D01*
Y2162D01*
X16932Y2416D01*
X16800Y2644D01*
X16614Y2830D01*
X16386Y2962D01*
X16132Y3030D01*
D02*
G37*
G36*
X13592D02*
X13328D01*
X13074Y2962D01*
X12846Y2830D01*
X12660Y2644D01*
X12528Y2416D01*
X12460Y2162D01*
Y1898D01*
X12528Y1644D01*
X12660Y1416D01*
X12846Y1230D01*
X13074Y1098D01*
X13328Y1030D01*
X13592D01*
X13846Y1098D01*
X14074Y1230D01*
X14260Y1416D01*
X14392Y1644D01*
X14460Y1898D01*
Y2162D01*
X14392Y2416D01*
X14260Y2644D01*
X14074Y2830D01*
X13846Y2962D01*
X13592Y3030D01*
D02*
G37*
G36*
X11052D02*
X10788D01*
X10534Y2962D01*
X10306Y2830D01*
X10120Y2644D01*
X9988Y2416D01*
X9920Y2162D01*
Y1898D01*
X9988Y1644D01*
X10120Y1416D01*
X10306Y1230D01*
X10534Y1098D01*
X10788Y1030D01*
X11052D01*
X11306Y1098D01*
X11534Y1230D01*
X11720Y1416D01*
X11852Y1644D01*
X11920Y1898D01*
Y2162D01*
X11852Y2416D01*
X11720Y2644D01*
X11534Y2830D01*
X11306Y2962D01*
X11052Y3030D01*
D02*
G37*
%LPD*%
G36*
X20965Y29535D02*
X21520Y29565D01*
X21514Y29554D01*
X21510Y29537D01*
X21507Y29514D01*
X21506Y29485D01*
X21507Y29450D01*
X21514Y29361D01*
X21538Y29182D01*
X21003Y29160D01*
X20787Y28924D01*
X20255Y29523D01*
X20303Y29572D01*
X20462Y29755D01*
X20478Y29780D01*
X20489Y29800D01*
X20494Y29817D01*
X20494Y29830D01*
X20965Y29535D01*
D02*
G37*
G36*
X14021Y29752D02*
X14024Y29732D01*
X14034Y29710D01*
X14051Y29686D01*
X14074Y29659D01*
X14103Y29631D01*
X14139Y29600D01*
X14230Y29533D01*
X14286Y29496D01*
X13773Y28877D01*
X13276Y29398D01*
X14023Y29770D01*
X14021Y29752D01*
D02*
G37*
G36*
X11784Y25245D02*
X11457Y24987D01*
X11447Y25018D01*
X11416Y25090D01*
X11406Y25108D01*
X11396Y25123D01*
X11387Y25135D01*
X11377Y25144D01*
X11368Y25150D01*
X11359Y25153D01*
X11696Y25403D01*
X11784Y25245D01*
D02*
G37*
G36*
X19573Y23458D02*
X19564Y23463D01*
X19553Y23465D01*
X19540Y23465D01*
X19524Y23463D01*
X19507Y23459D01*
X19488Y23452D01*
X19466Y23443D01*
X19416Y23419D01*
X19389Y23403D01*
X19333Y23820D01*
X19504Y23872D01*
X19573Y23458D01*
D02*
G37*
G36*
X20247Y21200D02*
X19950Y20903D01*
X19949Y20907D01*
X19945Y20913D01*
X19939Y20922D01*
X19918Y20945D01*
X19847Y21020D01*
X19823Y21044D01*
X20106Y21327D01*
X20247Y21200D01*
D02*
G37*
G36*
X11910Y20764D02*
X11490D01*
X11492Y20768D01*
X11494Y20775D01*
X11495Y20785D01*
X11498Y20816D01*
X11500Y20919D01*
X11500Y20954D01*
X11900D01*
X11910Y20764D01*
D02*
G37*
G36*
X20551Y20893D02*
X20555Y20887D01*
X20561Y20878D01*
X20582Y20855D01*
X20653Y20780D01*
X20677Y20756D01*
X20394Y20473D01*
X20281Y20575D01*
X20275Y20560D01*
X20270Y20543D01*
X20266Y20522D01*
X20263Y20499D01*
X20262Y20473D01*
X20261Y20444D01*
X19886Y20649D01*
X19959Y20827D01*
X20282Y20629D01*
X20550Y20897D01*
X20551Y20893D01*
D02*
G37*
G36*
X11486Y20340D02*
X11482Y20342D01*
X11475Y20344D01*
X11465Y20345D01*
X11434Y20347D01*
X11331Y20350D01*
X11296Y20350D01*
Y20750D01*
X11486Y20760D01*
Y20340D01*
D02*
G37*
G36*
X11937Y20364D02*
X11935Y20353D01*
X11935Y20340D01*
X11937Y20324D01*
X11941Y20307D01*
X11948Y20288D01*
X11957Y20266D01*
X11981Y20216D01*
X11997Y20189D01*
X11580Y20133D01*
X11528Y20304D01*
X11942Y20373D01*
X11937Y20364D01*
D02*
G37*
G36*
X20271Y19846D02*
X19851D01*
X19853Y19849D01*
X19855Y19856D01*
X19856Y19867D01*
X19859Y19898D01*
X19861Y20001D01*
X19861Y20035D01*
X20261D01*
X20271Y19846D01*
D02*
G37*
G36*
X19847Y19421D02*
X19843Y19423D01*
X19836Y19425D01*
X19826Y19427D01*
X19795Y19429D01*
X19692Y19431D01*
X19657Y19431D01*
Y19831D01*
X19847Y19841D01*
Y19421D01*
D02*
G37*
G36*
X29034Y7109D02*
X29143Y7072D01*
X29239Y7009D01*
X29317Y6925D01*
X29372Y6824D01*
X29400Y6713D01*
Y6099D01*
X29400Y6099D01*
X29400Y6099D01*
X29393Y5975D01*
X29341Y5802D01*
X29227Y5632D01*
X29070Y5503D01*
X28592Y5305D01*
X28482Y5260D01*
Y5260D01*
X28363Y5226D01*
X28201Y5242D01*
X28041Y5349D01*
X27950Y5519D01*
X27950Y5615D01*
X27950Y6368D01*
X27950D01*
X27950Y6446D01*
X27994Y6594D01*
X28078Y6723D01*
X28195Y6824D01*
X28754Y7074D01*
X28754Y7074D01*
X28867Y7108D01*
X28919Y7117D01*
X29034Y7109D01*
D02*
G37*
G36*
X18324Y6342D02*
X17538Y6089D01*
X17405Y6642D01*
X17467Y6611D01*
X17536Y6590D01*
X17610Y6578D01*
X17689Y6576D01*
X17775Y6584D01*
X17866Y6601D01*
X17962Y6629D01*
X18065Y6666D01*
X18173Y6712D01*
X18287Y6769D01*
X18324Y6342D01*
D02*
G37*
G36*
X9197Y6780D02*
X9202Y6772D01*
X9210Y6763D01*
X9221Y6752D01*
X9235Y6741D01*
X9252Y6729D01*
X9294Y6702D01*
X9348Y6671D01*
X9082Y6363D01*
X8928Y6464D01*
X9195Y6788D01*
X9197Y6780D01*
D02*
G37*
G36*
X12786Y6090D02*
X12782Y6092D01*
X12775Y6094D01*
X12765Y6095D01*
X12734Y6097D01*
X12631Y6100D01*
X12596Y6100D01*
Y6500D01*
X12786Y6510D01*
Y6090D01*
D02*
G37*
G36*
X12569Y6017D02*
X12546Y6033D01*
X12508Y6047D01*
X12457Y6059D01*
X12391Y6070D01*
X12219Y6087D01*
X11855Y6099D01*
X11706Y6100D01*
Y6500D01*
X11855Y6501D01*
X12457Y6541D01*
X12508Y6553D01*
X12546Y6567D01*
X12569Y6583D01*
Y6017D01*
D02*
G37*
G36*
X8953Y2766D02*
X8925Y2708D01*
X8866Y2562D01*
X8854Y2522D01*
X8847Y2487D01*
X8844Y2456D01*
X8844Y2431D01*
X8849Y2409D01*
X8858Y2392D01*
X8027Y2515D01*
X8126Y2863D01*
X8953Y2766D01*
D02*
G37*
D77*
X17617Y16072D02*
D03*
X15450Y13900D02*
D03*
Y15000D02*
D03*
Y16100D02*
D03*
X16550D02*
D03*
Y15000D02*
D03*
Y13900D02*
D03*
X17650D02*
D03*
Y15000D02*
D03*
X2300Y24700D02*
D03*
X11000Y23500D02*
D03*
X21200Y5550D02*
D03*
X19750Y22800D02*
D03*
X26200Y13450D02*
D03*
X26550Y12850D02*
D03*
X27250D02*
D03*
X26900Y13450D02*
D03*
X24400Y13731D02*
D03*
X20061Y19631D02*
D03*
X20700Y19150D02*
D03*
X6050Y23950D02*
D03*
X11400Y25450D02*
D03*
X11700Y20550D02*
D03*
X13200Y7750D02*
D03*
X16200Y20950D02*
D03*
X5900Y12200D02*
D03*
X20250Y20900D02*
D03*
X11350Y11750D02*
D03*
X8950Y16250D02*
D03*
X16839Y11418D02*
D03*
X14407Y11140D02*
D03*
X5700Y17700D02*
D03*
X2750Y20050D02*
D03*
X19560Y27837D02*
D03*
X13000Y6300D02*
D03*
X8550Y5600D02*
D03*
X8896Y6762D02*
D03*
X8500Y14400D02*
D03*
X10718Y7615D02*
D03*
X30900Y5650D02*
D03*
X28350D02*
D03*
Y6350D02*
D03*
X28950Y6000D02*
D03*
Y6700D02*
D03*
X19750Y23700D02*
D03*
D80*
D02*
G03*
X19098Y23430I0J-922D01*
G01*
X19098D02*
G03*
X18850Y22832I598J-598D01*
G01*
Y22650D02*
G03*
X19097Y22053I845J0D01*
G01*
X20250Y20900D02*
G03*
X20061Y20444I456J-456D01*
G01*
X17198Y6300D02*
G03*
X18994Y7044I0J2540D01*
G01*
X20944Y29646D02*
G03*
X21078Y29970I-324J324D01*
G01*
X11700Y20550D02*
G03*
X11970Y19898I922J0D01*
G01*
X11700Y24726D02*
G03*
X11400Y25450I-1024J0D01*
G01*
X6050Y23552D02*
G03*
X6794Y21756I2540J0D01*
G01*
X7256Y21294D02*
G03*
X9052Y20550I1796J1796D01*
G01*
X13458Y29970D02*
G03*
X13654Y29496I671J0D01*
G01*
X11970Y19898D02*
G03*
X12613Y19631I643J643D01*
G01*
X22750Y17348D02*
G03*
X22006Y19144I-2540J0D01*
G01*
Y10056D02*
G03*
X22750Y11852I-1796J1796D01*
G01*
X8896Y6762D02*
G03*
X10012Y6300I1116J1116D01*
G01*
X12852D01*
X19750Y23700D02*
X19859Y23698D01*
X18850Y22650D02*
Y22832D01*
X20250Y20900D02*
X22006Y19144D01*
X19097Y22053D02*
X20250Y20900D01*
X19097Y22053D02*
X19097Y22053D01*
X12613Y19631D02*
X20061D01*
X18994Y7044D02*
X22006Y10056D01*
X9052Y20550D02*
X11700D01*
Y24726D01*
X6050Y23552D02*
Y23950D01*
X6794Y21756D02*
X7256Y21294D01*
X13654Y29496D02*
X13656Y29494D01*
X20061Y19631D02*
Y20444D01*
X22750Y11852D02*
Y17348D01*
D81*
X26000Y6800D02*
D03*
X10918Y29970D02*
D03*
X13458D02*
D03*
X18538D02*
D03*
X21078D02*
D03*
X8380Y2030D02*
D03*
D83*
X5840D02*
D03*
D86*
X12852Y6300D02*
G03*
X11056Y5556I0J-2540D01*
G01*
X8981Y3481D02*
G03*
X8380Y2030I1451J-1451D01*
G01*
X21276Y5499D02*
G03*
X19343Y6300I-1933J-1933D01*
G01*
X21276Y5499D02*
G03*
X21571Y5301I649J649D01*
G01*
X21571Y5301D02*
G03*
X22331Y5150I759J1825D01*
G01*
X21078Y29970D02*
G03*
X22711Y26026I5578J0D01*
G01*
X22713Y26025D02*
G03*
X24484Y25350I1640J1642D01*
G01*
X25450Y24950D02*
G03*
X24484Y25350I-966J-966D01*
G01*
X25900Y23864D02*
G03*
X25450Y24950I-1536J0D01*
G01*
X28950Y12948D02*
G03*
X28206Y14744I-2540J0D01*
G01*
X25900Y18102D02*
G03*
X26644Y16306I2540J0D01*
G01*
X19456Y28750D02*
G03*
X20466Y29169I0J1429D01*
G01*
X27143Y5150D02*
G03*
X28350Y5650I0J1707D01*
G01*
X13656Y29494D02*
G03*
X15452Y28750I1796J1796D01*
G01*
X28950Y6700D02*
Y12948D01*
X12852Y6300D02*
X13000D01*
X17198D01*
X8981Y3481D02*
X11056Y5556D01*
X22711Y26026D02*
X22713Y26025D01*
X21078Y29970D02*
X21078Y29970D01*
X25900Y18102D02*
Y23864D01*
X17198Y6300D02*
X19343D01*
X22331Y5150D02*
X27143D01*
X26644Y16306D02*
X28206Y14744D01*
X20466Y29169D02*
X20944Y29646D01*
X15452Y28750D02*
X19456D01*
D87*
X19097Y22053D02*
D03*
M02*
