G04*
G04 #@! TF.GenerationSoftware,Altium Limited,Altium Designer,23.8.1 (32)*
G04*
G04 Layer_Color=8421504*
%FSLAX43Y43*%
%MOMM*%
G71*
G04*
G04 #@! TF.SameCoordinates,8A790615-D0E5-43D8-8956-367088579B57*
G04*
G04*
G04 #@! TF.FilePolarity,Positive*
G04*
G01*
G75*
%ADD21R,0.280X0.900*%
%ADD22R,0.900X0.280*%
%ADD23R,3.250X3.250*%
G04:AMPARAMS|DCode=24|XSize=0.5mm|YSize=0.6mm|CornerRadius=0.125mm|HoleSize=0mm|Usage=FLASHONLY|Rotation=0.000|XOffset=0mm|YOffset=0mm|HoleType=Round|Shape=RoundedRectangle|*
%AMROUNDEDRECTD24*
21,1,0.500,0.350,0,0,0.0*
21,1,0.250,0.600,0,0,0.0*
1,1,0.250,0.125,-0.175*
1,1,0.250,-0.125,-0.175*
1,1,0.250,-0.125,0.175*
1,1,0.250,0.125,0.175*
%
%ADD24ROUNDEDRECTD24*%
G04:AMPARAMS|DCode=25|XSize=0.7mm|YSize=1mm|CornerRadius=0.175mm|HoleSize=0mm|Usage=FLASHONLY|Rotation=270.000|XOffset=0mm|YOffset=0mm|HoleType=Round|Shape=RoundedRectangle|*
%AMROUNDEDRECTD25*
21,1,0.700,0.650,0,0,270.0*
21,1,0.350,1.000,0,0,270.0*
1,1,0.350,-0.325,-0.175*
1,1,0.350,-0.325,0.175*
1,1,0.350,0.325,0.175*
1,1,0.350,0.325,-0.175*
%
%ADD25ROUNDEDRECTD25*%
G04:AMPARAMS|DCode=26|XSize=0.5mm|YSize=0.6mm|CornerRadius=0.125mm|HoleSize=0mm|Usage=FLASHONLY|Rotation=270.000|XOffset=0mm|YOffset=0mm|HoleType=Round|Shape=RoundedRectangle|*
%AMROUNDEDRECTD26*
21,1,0.500,0.350,0,0,270.0*
21,1,0.250,0.600,0,0,270.0*
1,1,0.250,-0.175,-0.125*
1,1,0.250,-0.175,0.125*
1,1,0.250,0.175,0.125*
1,1,0.250,0.175,-0.125*
%
%ADD26ROUNDEDRECTD26*%
G04:AMPARAMS|DCode=27|XSize=0.7mm|YSize=1mm|CornerRadius=0.175mm|HoleSize=0mm|Usage=FLASHONLY|Rotation=0.000|XOffset=0mm|YOffset=0mm|HoleType=Round|Shape=RoundedRectangle|*
%AMROUNDEDRECTD27*
21,1,0.700,0.650,0,0,0.0*
21,1,0.350,1.000,0,0,0.0*
1,1,0.350,0.175,-0.325*
1,1,0.350,-0.175,-0.325*
1,1,0.350,-0.175,0.325*
1,1,0.350,0.175,0.325*
%
%ADD27ROUNDEDRECTD27*%
%ADD28R,1.300X1.100*%
%ADD29R,1.150X0.300*%
%ADD30R,1.150X0.600*%
%ADD31R,0.650X0.950*%
%ADD32R,1.000X0.800*%
%ADD33R,0.700X1.000*%
%ADD34R,0.600X0.800*%
%ADD35R,0.930X0.800*%
%ADD36R,1.250X0.900*%
%ADD37R,1.000X0.500*%
%ADD38R,1.400X1.400*%
%ADD39R,0.500X0.600*%
G04:AMPARAMS|DCode=40|XSize=0.25mm|YSize=0.4mm|CornerRadius=0.063mm|HoleSize=0mm|Usage=FLASHONLY|Rotation=0.000|XOffset=0mm|YOffset=0mm|HoleType=Round|Shape=RoundedRectangle|*
%AMROUNDEDRECTD40*
21,1,0.250,0.275,0,0,0.0*
21,1,0.125,0.400,0,0,0.0*
1,1,0.125,0.063,-0.138*
1,1,0.125,-0.063,-0.138*
1,1,0.125,-0.063,0.138*
1,1,0.125,0.063,0.138*
%
%ADD40ROUNDEDRECTD40*%
%ADD41R,0.600X0.500*%
%ADD42R,1.000X0.700*%
%ADD43R,0.800X0.300*%
%ADD44R,0.300X0.800*%
%ADD45R,1.500X1.500*%
D21*
X14800Y12500D02*
D03*
X15300D02*
D03*
X15800D02*
D03*
X16300D02*
D03*
X16800D02*
D03*
X17300D02*
D03*
X17800D02*
D03*
X18300D02*
D03*
Y17500D02*
D03*
X17800D02*
D03*
X17300D02*
D03*
X16800D02*
D03*
X16300D02*
D03*
X15800D02*
D03*
X15300D02*
D03*
X14800D02*
D03*
D22*
X19050Y13250D02*
D03*
Y13750D02*
D03*
Y14250D02*
D03*
Y14750D02*
D03*
Y15250D02*
D03*
Y15750D02*
D03*
Y16250D02*
D03*
Y16750D02*
D03*
X14050D02*
D03*
Y16250D02*
D03*
Y15750D02*
D03*
Y15250D02*
D03*
Y14750D02*
D03*
Y14250D02*
D03*
Y13750D02*
D03*
Y13250D02*
D03*
D23*
X16550Y15000D02*
D03*
D24*
X19700Y4800D02*
D03*
X18700D02*
D03*
X9600Y24500D02*
D03*
X10600D02*
D03*
X11300Y15220D02*
D03*
X12300D02*
D03*
X19300Y10200D02*
D03*
X18300D02*
D03*
D25*
X29100Y25750D02*
D03*
Y24250D02*
D03*
D26*
X11780Y21550D02*
D03*
Y22550D02*
D03*
X8950Y18100D02*
D03*
Y17100D02*
D03*
X7975Y18100D02*
D03*
Y17100D02*
D03*
X24400Y12000D02*
D03*
Y13000D02*
D03*
X17800Y18900D02*
D03*
Y19900D02*
D03*
X16800Y18900D02*
D03*
Y19900D02*
D03*
D27*
X23300Y20200D02*
D03*
X24800D02*
D03*
D28*
X20600Y12000D02*
D03*
Y10200D02*
D03*
X22900D02*
D03*
Y12000D02*
D03*
D29*
X7487Y8750D02*
D03*
Y9750D02*
D03*
Y10250D02*
D03*
Y11250D02*
D03*
Y8250D02*
D03*
Y11750D02*
D03*
Y9250D02*
D03*
Y10750D02*
D03*
D30*
Y13200D02*
D03*
Y6800D02*
D03*
Y7600D02*
D03*
Y12400D02*
D03*
D31*
X29050Y8180D02*
D03*
X28100Y10650D02*
D03*
X30000D02*
D03*
D32*
X21200Y6600D02*
D03*
X18400D02*
D03*
X21200Y8400D02*
D03*
X18400D02*
D03*
D33*
X1650Y26055D02*
D03*
X3150D02*
D03*
Y23350D02*
D03*
X1650D02*
D03*
X3150Y21550D02*
D03*
X1650D02*
D03*
Y18850D02*
D03*
X3150D02*
D03*
X1650Y17050D02*
D03*
X3150D02*
D03*
D34*
X12200Y6300D02*
D03*
X9850D02*
D03*
D35*
X28965Y20600D02*
D03*
X31235D02*
D03*
X28965Y13000D02*
D03*
X31235D02*
D03*
D36*
X28025Y14550D02*
D03*
Y19050D02*
D03*
Y17550D02*
D03*
D37*
X17800Y23700D02*
D03*
Y24400D02*
D03*
D38*
X21550Y28000D02*
D03*
Y22200D02*
D03*
X25450Y28000D02*
D03*
Y22200D02*
D03*
D39*
X16700Y8100D02*
D03*
X15700D02*
D03*
X10600Y25550D02*
D03*
X9600D02*
D03*
X11650Y13600D02*
D03*
X10650D02*
D03*
X10100Y8250D02*
D03*
X9100D02*
D03*
X10100Y11250D02*
D03*
X9100D02*
D03*
X21850Y20200D02*
D03*
X20850D02*
D03*
D40*
X13900Y26000D02*
D03*
X14400D02*
D03*
X14900D02*
D03*
X15400D02*
D03*
X13900Y24998D02*
D03*
X14400Y24998D02*
D03*
X14900D02*
D03*
X15400D02*
D03*
X14000Y4602D02*
D03*
X14500D02*
D03*
X15000D02*
D03*
X15500D02*
D03*
X14000Y3600D02*
D03*
X14500Y3600D02*
D03*
X15000D02*
D03*
X15500D02*
D03*
D41*
X26160D02*
D03*
Y4600D02*
D03*
X23620Y3600D02*
D03*
Y4600D02*
D03*
X21080Y3600D02*
D03*
Y4600D02*
D03*
X30000Y5650D02*
D03*
Y6650D02*
D03*
X6900Y24850D02*
D03*
Y25850D02*
D03*
X8400Y24850D02*
D03*
Y25850D02*
D03*
X5400Y24850D02*
D03*
Y25850D02*
D03*
X24400Y9900D02*
D03*
Y10900D02*
D03*
D42*
X19050Y20450D02*
D03*
Y18950D02*
D03*
D43*
X6700Y22550D02*
D03*
Y22050D02*
D03*
Y21550D02*
D03*
Y21050D02*
D03*
Y20550D02*
D03*
Y20050D02*
D03*
X10700D02*
D03*
Y20550D02*
D03*
Y21050D02*
D03*
Y21550D02*
D03*
Y22050D02*
D03*
Y22550D02*
D03*
D44*
X7450Y19300D02*
D03*
X7950D02*
D03*
X8450D02*
D03*
X8950D02*
D03*
X9450D02*
D03*
X9950D02*
D03*
Y23300D02*
D03*
X9450D02*
D03*
X8950D02*
D03*
X8450D02*
D03*
X7950D02*
D03*
X7450D02*
D03*
D45*
X8700Y21300D02*
D03*
M02*
