G04*
G04 #@! TF.GenerationSoftware,Altium Limited,Altium Designer,23.8.1 (32)*
G04*
G04 Layer_Physical_Order=1*
G04 Layer_Color=255*
%FSLAX43Y43*%
%MOMM*%
G71*
G04*
G04 #@! TF.SameCoordinates,8A790615-D0E5-43D8-8956-367088579B57*
G04*
G04*
G04 #@! TF.FilePolarity,Positive*
G04*
G01*
G75*
%ADD11C,0.200*%
%ADD21R,0.280X0.900*%
%ADD22R,0.900X0.280*%
%ADD23R,3.250X3.250*%
G04:AMPARAMS|DCode=24|XSize=0.5mm|YSize=0.6mm|CornerRadius=0.125mm|HoleSize=0mm|Usage=FLASHONLY|Rotation=0.000|XOffset=0mm|YOffset=0mm|HoleType=Round|Shape=RoundedRectangle|*
%AMROUNDEDRECTD24*
21,1,0.500,0.350,0,0,0.0*
21,1,0.250,0.600,0,0,0.0*
1,1,0.250,0.125,-0.175*
1,1,0.250,-0.125,-0.175*
1,1,0.250,-0.125,0.175*
1,1,0.250,0.125,0.175*
%
%ADD24ROUNDEDRECTD24*%
G04:AMPARAMS|DCode=25|XSize=0.7mm|YSize=1mm|CornerRadius=0.175mm|HoleSize=0mm|Usage=FLASHONLY|Rotation=270.000|XOffset=0mm|YOffset=0mm|HoleType=Round|Shape=RoundedRectangle|*
%AMROUNDEDRECTD25*
21,1,0.700,0.650,0,0,270.0*
21,1,0.350,1.000,0,0,270.0*
1,1,0.350,-0.325,-0.175*
1,1,0.350,-0.325,0.175*
1,1,0.350,0.325,0.175*
1,1,0.350,0.325,-0.175*
%
%ADD25ROUNDEDRECTD25*%
G04:AMPARAMS|DCode=26|XSize=0.5mm|YSize=0.6mm|CornerRadius=0.125mm|HoleSize=0mm|Usage=FLASHONLY|Rotation=270.000|XOffset=0mm|YOffset=0mm|HoleType=Round|Shape=RoundedRectangle|*
%AMROUNDEDRECTD26*
21,1,0.500,0.350,0,0,270.0*
21,1,0.250,0.600,0,0,270.0*
1,1,0.250,-0.175,-0.125*
1,1,0.250,-0.175,0.125*
1,1,0.250,0.175,0.125*
1,1,0.250,0.175,-0.125*
%
%ADD26ROUNDEDRECTD26*%
G04:AMPARAMS|DCode=27|XSize=0.7mm|YSize=1mm|CornerRadius=0.175mm|HoleSize=0mm|Usage=FLASHONLY|Rotation=0.000|XOffset=0mm|YOffset=0mm|HoleType=Round|Shape=RoundedRectangle|*
%AMROUNDEDRECTD27*
21,1,0.700,0.650,0,0,0.0*
21,1,0.350,1.000,0,0,0.0*
1,1,0.350,0.175,-0.325*
1,1,0.350,-0.175,-0.325*
1,1,0.350,-0.175,0.325*
1,1,0.350,0.175,0.325*
%
%ADD27ROUNDEDRECTD27*%
%ADD28R,1.300X1.100*%
%ADD29R,1.150X0.300*%
%ADD30R,1.150X0.600*%
%ADD31R,0.650X0.950*%
%ADD32R,1.000X0.800*%
%ADD33R,0.700X1.000*%
%ADD34R,0.600X0.800*%
%ADD35R,0.930X0.800*%
%ADD36R,1.250X0.900*%
%ADD37R,1.000X0.500*%
%ADD38R,1.400X1.400*%
%ADD39R,0.500X0.600*%
G04:AMPARAMS|DCode=40|XSize=0.25mm|YSize=0.4mm|CornerRadius=0.063mm|HoleSize=0mm|Usage=FLASHONLY|Rotation=0.000|XOffset=0mm|YOffset=0mm|HoleType=Round|Shape=RoundedRectangle|*
%AMROUNDEDRECTD40*
21,1,0.250,0.275,0,0,0.0*
21,1,0.125,0.400,0,0,0.0*
1,1,0.125,0.063,-0.138*
1,1,0.125,-0.063,-0.138*
1,1,0.125,-0.063,0.138*
1,1,0.125,0.063,0.138*
%
%ADD40ROUNDEDRECTD40*%
%ADD41R,0.600X0.500*%
%ADD42R,1.000X0.700*%
%ADD43R,0.800X0.300*%
%ADD44R,0.300X0.800*%
%ADD45R,1.500X1.500*%
%ADD77C,0.600*%
%ADD78C,0.200*%
%ADD79C,0.600*%
%ADD80C,0.400*%
%ADD81C,1.200*%
%ADD82R,1.200X1.200*%
%ADD83R,1.200X1.200*%
%ADD84C,1.000*%
%ADD85O,1.800X1.000*%
G36*
X20160Y30380D02*
X20146Y30356D01*
X20078Y30102D01*
Y29838D01*
X20146Y29584D01*
X20278Y29356D01*
X20419Y29214D01*
X20450Y29100D01*
X20450Y29100D01*
X20450D01*
X20450Y29100D01*
Y27874D01*
X19720Y27821D01*
X19660Y27804D01*
X19589Y27795D01*
X19547Y27778D01*
X19470Y27816D01*
X19348Y28026D01*
X19325Y28023D01*
X19339Y28042D01*
X19338Y28044D01*
X19152Y28230D01*
X18924Y28362D01*
X18669Y28430D01*
X18406D01*
X18152Y28362D01*
X17924Y28230D01*
X17738Y28044D01*
X17606Y27816D01*
X17603Y27805D01*
X17601Y27802D01*
X17573Y27734D01*
X17518Y27618D01*
X17497Y27582D01*
X17476Y27551D01*
X17460Y27530D01*
X17451Y27520D01*
X17104Y27372D01*
X16998Y27442D01*
Y27562D01*
X16930Y27816D01*
X16798Y28044D01*
X16612Y28230D01*
X16384Y28362D01*
X16129Y28430D01*
X15866D01*
X15612Y28362D01*
X15384Y28230D01*
X15198Y28044D01*
X15066Y27816D01*
X14998Y27562D01*
Y27465D01*
X14990Y27427D01*
X14989Y27353D01*
X14981Y27225D01*
X14975Y27183D01*
X14968Y27147D01*
X14960Y27121D01*
X14956Y27109D01*
X14774Y26928D01*
X14773Y26929D01*
X14759Y26910D01*
X14638Y26920D01*
X14622Y26939D01*
X14431Y27172D01*
X14429Y27174D01*
X14430Y27196D01*
X14458Y27298D01*
Y27562D01*
X14390Y27816D01*
X14258Y28044D01*
X14072Y28230D01*
X13844Y28362D01*
X13589Y28430D01*
X13326D01*
X13072Y28362D01*
X12844Y28230D01*
X12658Y28044D01*
X12526Y27816D01*
X12458Y27562D01*
Y27298D01*
X12473Y27242D01*
X12372Y27165D01*
X12007Y27380D01*
X12000Y27391D01*
X11986Y27414D01*
X11970Y27447D01*
X11954Y27486D01*
X11913Y27607D01*
X11894Y27679D01*
X11877Y27715D01*
X11850Y27816D01*
X11718Y28044D01*
X11532Y28230D01*
X11304Y28362D01*
X11049Y28430D01*
X10786D01*
X10532Y28362D01*
X10304Y28230D01*
X10222Y28149D01*
X10097Y28167D01*
X10077Y28203D01*
X9815Y28523D01*
X9813Y28525D01*
X9813Y28525D01*
X9755Y28595D01*
X9730Y28617D01*
X9730Y28617D01*
X9456Y28827D01*
X9216Y28926D01*
X9171Y28945D01*
X9170Y28946D01*
X9167Y28947D01*
X9122Y28965D01*
X9098Y28969D01*
X9098Y28969D01*
X9096Y28964D01*
X9037Y28972D01*
X8975Y28985D01*
X8970Y28984D01*
X8939Y28990D01*
X8935Y28990D01*
X8902Y29118D01*
X8992Y29170D01*
X9178Y29356D01*
X9310Y29584D01*
X9378Y29838D01*
Y30102D01*
X9310Y30356D01*
X9296Y30380D01*
X9359Y30490D01*
X10052D01*
X10115Y30380D01*
X10079Y30317D01*
X10074Y30300D01*
X11761D01*
X11756Y30317D01*
X11720Y30380D01*
X11784Y30490D01*
X12476D01*
X12540Y30380D01*
X12526Y30356D01*
X12458Y30102D01*
Y29838D01*
X12526Y29584D01*
X12658Y29356D01*
X12844Y29170D01*
X13072Y29038D01*
X13326Y28970D01*
X13589D01*
X13844Y29038D01*
X14072Y29170D01*
X14258Y29356D01*
X14390Y29584D01*
X14458Y29838D01*
Y30102D01*
X14390Y30356D01*
X14376Y30380D01*
X14439Y30490D01*
X15016D01*
X15080Y30380D01*
X15066Y30356D01*
X14998Y30102D01*
Y29838D01*
X15066Y29584D01*
X15198Y29356D01*
X15384Y29170D01*
X15612Y29038D01*
X15866Y28970D01*
X16129D01*
X16384Y29038D01*
X16612Y29170D01*
X16798Y29356D01*
X16930Y29584D01*
X16998Y29838D01*
Y30102D01*
X16930Y30356D01*
X16916Y30380D01*
X16979Y30490D01*
X17672D01*
X17735Y30380D01*
X17699Y30317D01*
X17694Y30300D01*
X19381D01*
X19376Y30317D01*
X19340Y30380D01*
X19404Y30490D01*
X20096D01*
X20160Y30380D01*
D02*
G37*
G36*
X28923Y31429D02*
X28559Y31278D01*
X28231Y31059D01*
X27952Y30781D01*
X27734Y30453D01*
X27583Y30089D01*
X27506Y29703D01*
Y29309D01*
X27583Y28923D01*
X27734Y28559D01*
X27952Y28231D01*
X28231Y27952D01*
X28559Y27734D01*
X28923Y27583D01*
X29309Y27506D01*
X29703D01*
X30089Y27583D01*
X30453Y27734D01*
X30781Y27952D01*
X31059Y28231D01*
X31278Y28559D01*
X31429Y28923D01*
X31548Y28889D01*
Y21400D01*
X30370D01*
Y19800D01*
X31548D01*
Y13800D01*
X30370D01*
Y12200D01*
X31548D01*
Y3123D01*
X31429Y3089D01*
X31278Y3453D01*
X31059Y3781D01*
X30781Y4060D01*
X30453Y4278D01*
X30089Y4429D01*
X29703Y4506D01*
X29309D01*
X28923Y4429D01*
X28559Y4278D01*
X28231Y4060D01*
X27952Y3781D01*
X27734Y3453D01*
X27583Y3089D01*
X27506Y2703D01*
Y2309D01*
X27583Y1923D01*
X27734Y1559D01*
X27952Y1231D01*
X28231Y952D01*
X28559Y734D01*
X28923Y583D01*
X28888Y465D01*
X3124D01*
X3089Y583D01*
X3453Y734D01*
X3781Y952D01*
X4060Y1231D01*
X4278Y1559D01*
X4429Y1923D01*
X4506Y2309D01*
Y2703D01*
X4429Y3089D01*
X4278Y3453D01*
X4060Y3781D01*
X3781Y4060D01*
X3689Y4121D01*
X3726Y4242D01*
X7250D01*
X7406Y4273D01*
X7538Y4362D01*
X7627Y4494D01*
X7658Y4650D01*
X8450D01*
Y6065D01*
X8577Y6138D01*
X8626Y6110D01*
X8804Y6062D01*
X8989D01*
X9049Y6078D01*
X9150Y6001D01*
Y5500D01*
X10550D01*
Y6254D01*
X10556Y6300D01*
Y6400D01*
X10550Y6446D01*
Y7100D01*
X10312D01*
X10205Y7342D01*
X10186Y7373D01*
X10141Y7481D01*
X10022Y7636D01*
X10078Y7750D01*
X10388D01*
X10378Y7771D01*
X10364Y7794D01*
X10348Y7816D01*
X10331Y7837D01*
X10323Y7844D01*
X10311Y7856D01*
X10234Y7917D01*
X10200Y7939D01*
X10169Y7956D01*
X10141Y7967D01*
X10116Y7972D01*
X10095Y7972D01*
X10076Y7967D01*
X10060Y7956D01*
X10192Y8085D01*
X10100D01*
Y8415D01*
X10550D01*
Y8740D01*
X10922D01*
X10941Y8744D01*
X11238Y8773D01*
X11542Y8865D01*
X11617Y8905D01*
X11659Y8917D01*
X12170Y9178D01*
X12191Y9195D01*
X12200Y9199D01*
X12215Y9210D01*
X12246Y9223D01*
X12269Y9239D01*
X12271Y9240D01*
X12272Y9241D01*
X12273Y9242D01*
X12304Y9274D01*
X12320Y9284D01*
X12326Y9294D01*
X12339Y9304D01*
X12378Y9330D01*
X12395Y9348D01*
X12490Y9358D01*
X12504Y9356D01*
X12528Y9352D01*
X12554Y9337D01*
X12639Y9204D01*
X12639Y9204D01*
X13468Y7911D01*
X13474Y7896D01*
X13492Y7806D01*
X13490Y7797D01*
Y6972D01*
X13441Y6928D01*
X13363Y6904D01*
X13353Y6911D01*
X13310Y6929D01*
X13270Y6952D01*
X13225Y6964D01*
X13183Y6982D01*
X13137Y6988D01*
X13092Y7000D01*
X13046D01*
X13034Y7002D01*
X13004Y7008D01*
X12916Y7009D01*
X12900Y7009D01*
Y7100D01*
X12553D01*
X12548Y7102D01*
X12526Y7100D01*
X12521D01*
X12497Y7105D01*
X12473Y7100D01*
X11500D01*
Y6346D01*
X11494Y6300D01*
X11500Y6254D01*
Y5500D01*
X12473D01*
X12497Y5495D01*
X12521Y5500D01*
X12526D01*
X12548Y5498D01*
X12553Y5500D01*
X12900D01*
Y5590D01*
X12920Y5591D01*
X13004Y5592D01*
X13034Y5598D01*
X13046Y5600D01*
X13092D01*
X13137Y5612D01*
X13183Y5618D01*
X13225Y5636D01*
X13270Y5648D01*
X13310Y5671D01*
X13353Y5689D01*
X13363Y5696D01*
X13441Y5672D01*
X13490Y5628D01*
Y4861D01*
X13466Y4739D01*
Y4464D01*
X13502Y4284D01*
X13604Y4131D01*
X13604Y4131D01*
Y4071D01*
X13502Y3918D01*
X13466Y3737D01*
Y3729D01*
X13245Y3715D01*
X12647Y3596D01*
X12070Y3400D01*
X11524Y3131D01*
X11418Y3060D01*
X11405Y3056D01*
X11388Y3047D01*
X11385Y3046D01*
X11371Y3042D01*
X11346Y3037D01*
X11311Y3032D01*
X11274Y3029D01*
X11073Y3030D01*
X10997Y3035D01*
X10960Y3030D01*
X10788D01*
X10534Y2962D01*
X10306Y2830D01*
X10120Y2644D01*
X9988Y2416D01*
X9920Y2162D01*
Y1898D01*
X9988Y1644D01*
X10120Y1416D01*
X10306Y1230D01*
X10534Y1098D01*
X10788Y1030D01*
X11052D01*
X11306Y1098D01*
X11534Y1230D01*
X11720Y1416D01*
X11852Y1644D01*
X11920Y1898D01*
Y1940D01*
X11925Y1959D01*
X11932Y2033D01*
X11939Y2091D01*
X11948Y2138D01*
X11957Y2176D01*
X11966Y2202D01*
X11967Y2205D01*
X12198Y2346D01*
X12400Y2430D01*
X12507Y2337D01*
X12460Y2162D01*
Y1898D01*
X12528Y1644D01*
X12660Y1416D01*
X12846Y1230D01*
X13074Y1098D01*
X13328Y1030D01*
X13592D01*
X13846Y1098D01*
X14074Y1230D01*
X14260Y1416D01*
X14392Y1644D01*
X14460Y1898D01*
Y2033D01*
X14467Y2067D01*
X14465Y2075D01*
X14466Y2082D01*
X14464Y2150D01*
X14464Y2200D01*
X14467Y2244D01*
X14472Y2279D01*
X14477Y2306D01*
X14483Y2326D01*
X14487Y2337D01*
X14488Y2338D01*
X14490Y2342D01*
X14502Y2355D01*
X14505Y2361D01*
X14664Y2554D01*
X14801Y2553D01*
X14816Y2544D01*
X15029Y2285D01*
X15028Y2265D01*
X15000Y2162D01*
Y1898D01*
X15068Y1644D01*
X15200Y1416D01*
X15386Y1230D01*
X15614Y1098D01*
X15868Y1030D01*
X16132D01*
X16386Y1098D01*
X16614Y1230D01*
X16800Y1416D01*
X16932Y1644D01*
X17000Y1898D01*
Y2162D01*
X16955Y2330D01*
X17061Y2424D01*
X17280Y2333D01*
X17492Y2203D01*
X17494Y2200D01*
X17503Y2174D01*
X17511Y2142D01*
X17529Y2027D01*
X17535Y1957D01*
X17540Y1940D01*
Y1898D01*
X17608Y1644D01*
X17740Y1416D01*
X17926Y1230D01*
X18154Y1098D01*
X18408Y1030D01*
X18672D01*
X18926Y1098D01*
X19154Y1230D01*
X19340Y1416D01*
X19472Y1644D01*
X19540Y1898D01*
Y2162D01*
X19472Y2416D01*
X19340Y2644D01*
X19154Y2830D01*
X18926Y2962D01*
X18672Y3030D01*
X18499D01*
X18461Y3035D01*
X18379Y3029D01*
X18313Y3026D01*
X18188Y3028D01*
X18148Y3031D01*
X18112Y3036D01*
X18087Y3041D01*
X18072Y3045D01*
X18069Y3047D01*
X18053Y3055D01*
X18041Y3059D01*
X17950Y3120D01*
X17412Y3385D01*
X16843Y3578D01*
X16254Y3695D01*
X16034Y3710D01*
Y3737D01*
X15998Y3918D01*
X15939Y4007D01*
X15906Y4101D01*
X15939Y4195D01*
X15998Y4284D01*
X16034Y4464D01*
Y4739D01*
X15998Y4918D01*
X15997Y4944D01*
Y5169D01*
X15996Y5171D01*
X15997Y5173D01*
X15996Y5175D01*
X15997Y5178D01*
X15997Y5179D01*
X15996Y5181D01*
X15997Y5182D01*
X15997Y5182D01*
X15996Y5183D01*
X15997Y5183D01*
X15997Y5184D01*
X15996Y5186D01*
X15996Y5188D01*
X15996Y5189D01*
X15995Y5194D01*
X15996Y5197D01*
X15996Y5197D01*
X15986Y5238D01*
X15987Y5284D01*
X15649Y7303D01*
X15731Y7400D01*
X17350D01*
Y7590D01*
X17800D01*
X17849Y7600D01*
X19300D01*
Y9200D01*
X17500D01*
Y8610D01*
X17350D01*
Y8800D01*
X16210D01*
Y8984D01*
X16208Y8992D01*
X16173Y9350D01*
X16069Y9692D01*
X16068Y9700D01*
X16068Y9701D01*
X16067Y9702D01*
X16067Y9703D01*
X15835Y10262D01*
X15790Y10379D01*
X15789Y10381D01*
X15785Y10383D01*
X15536Y10994D01*
X15536Y10994D01*
X15539Y10995D01*
X15538Y11003D01*
X15562Y11126D01*
X15612Y11360D01*
X15616Y11367D01*
X15755Y11424D01*
X15769Y11416D01*
X15769Y11416D01*
X15781Y11318D01*
X15781Y11315D01*
X15786Y11300D01*
X15807Y11221D01*
X15811Y11215D01*
X15817Y11198D01*
X15869Y11024D01*
X16013Y10756D01*
X16206Y10521D01*
X16441Y10328D01*
X16500Y10296D01*
X16514Y10282D01*
X16547Y10269D01*
X16577Y10248D01*
X16649Y10217D01*
X16709Y10185D01*
X16753Y10171D01*
X16782Y10159D01*
X16802Y10147D01*
X16831Y10137D01*
X16903Y10106D01*
X16916Y10103D01*
X16968Y10073D01*
X17146Y10025D01*
X17331D01*
X17509Y10073D01*
X17668Y10165D01*
X17717Y10213D01*
X17844Y10160D01*
Y10025D01*
X17869Y9898D01*
X17941Y9791D01*
X18048Y9719D01*
X18135Y9702D01*
Y10200D01*
X18465D01*
Y9702D01*
X18552Y9719D01*
X18659Y9791D01*
X18753Y9712D01*
X18796Y9646D01*
X18970Y9530D01*
X19175Y9490D01*
X19425D01*
X19452Y9495D01*
X19550Y9414D01*
Y9250D01*
X20194D01*
X20300Y9200D01*
Y7600D01*
X22100D01*
Y8842D01*
X22123Y8862D01*
X22227Y8920D01*
X22250Y8915D01*
X23550D01*
X23603Y8926D01*
X23739Y8944D01*
X23844Y8987D01*
X23903Y9006D01*
X24301Y9224D01*
X24340Y9244D01*
X24354Y9250D01*
X24379D01*
X24381Y9249D01*
X24392Y9250D01*
X24454D01*
X24482Y9247D01*
X24499Y9237D01*
X24509Y9220D01*
X24562Y9115D01*
X24553Y8992D01*
X24410Y8495D01*
X24361Y8379D01*
X24361D01*
X24361Y8379D01*
X24241Y8090D01*
X24022Y7732D01*
X23762Y7427D01*
X23746Y7417D01*
X22227Y5898D01*
X22100Y5951D01*
Y7400D01*
X20300D01*
Y6864D01*
X20299Y6863D01*
X20180Y6799D01*
X19909Y6578D01*
X19901Y6572D01*
X19901Y6572D01*
X19901Y6572D01*
X19901Y6572D01*
X19690Y6360D01*
X19681Y6347D01*
X19479Y6101D01*
X19321Y5807D01*
X19225Y5487D01*
X19212Y5364D01*
X19197Y5353D01*
X19153Y5288D01*
X19059Y5209D01*
X18952Y5281D01*
X18865Y5298D01*
Y5082D01*
X18879Y5082D01*
X18865Y5081D01*
Y4800D01*
Y4302D01*
X18952Y4319D01*
X19059Y4391D01*
X19153Y4312D01*
X19197Y4247D01*
X19370Y4130D01*
X19575Y4090D01*
X19825D01*
X20030Y4130D01*
X20204Y4247D01*
X20253Y4321D01*
X20380Y4282D01*
Y2950D01*
X20386D01*
X20444Y2823D01*
X20422Y2798D01*
X20370Y2745D01*
X20348Y2713D01*
X20280Y2644D01*
X20148Y2416D01*
X20080Y2162D01*
Y1898D01*
X20148Y1644D01*
X20280Y1416D01*
X20466Y1230D01*
X20694Y1098D01*
X20948Y1030D01*
X21212D01*
X21466Y1098D01*
X21694Y1230D01*
X21880Y1416D01*
X22012Y1644D01*
X22080Y1898D01*
Y2162D01*
X22012Y2416D01*
X21880Y2644D01*
X21812Y2713D01*
X21790Y2745D01*
X21738Y2798D01*
X21716Y2823D01*
X21774Y2950D01*
X21780D01*
Y4228D01*
X21801Y4234D01*
X22127Y4409D01*
X22407Y4639D01*
X22414Y4643D01*
X22803Y5032D01*
X22920Y4983D01*
Y3950D01*
Y2950D01*
X22926D01*
X22984Y2823D01*
X22962Y2798D01*
X22910Y2745D01*
X22888Y2713D01*
X22820Y2644D01*
X22688Y2416D01*
X22620Y2162D01*
Y1898D01*
X22688Y1644D01*
X22820Y1416D01*
X23006Y1230D01*
X23234Y1098D01*
X23488Y1030D01*
X23752D01*
X24006Y1098D01*
X24234Y1230D01*
X24420Y1416D01*
X24552Y1644D01*
X24620Y1898D01*
Y2162D01*
X24552Y2416D01*
X24420Y2644D01*
X24352Y2713D01*
X24330Y2745D01*
X24278Y2798D01*
X24256Y2823D01*
X24314Y2950D01*
X24320D01*
Y3950D01*
Y4546D01*
X24390Y4604D01*
X24743Y4792D01*
X25125Y4908D01*
X25366Y4932D01*
X25460Y4846D01*
Y3950D01*
Y2950D01*
X25466D01*
X25524Y2823D01*
X25502Y2798D01*
X25450Y2745D01*
X25428Y2713D01*
X25360Y2644D01*
X25228Y2416D01*
X25160Y2162D01*
Y1898D01*
X25228Y1644D01*
X25360Y1416D01*
X25546Y1230D01*
X25774Y1098D01*
X26028Y1030D01*
X26292D01*
X26546Y1098D01*
X26774Y1230D01*
X26960Y1416D01*
X27092Y1644D01*
X27160Y1898D01*
Y2162D01*
X27092Y2416D01*
X26960Y2644D01*
X26892Y2713D01*
X26870Y2745D01*
X26818Y2798D01*
X26796Y2823D01*
X26854Y2950D01*
X26860D01*
Y4271D01*
X26887Y4282D01*
X27188Y4513D01*
X27187Y4514D01*
X27473Y4863D01*
X27585Y5073D01*
X27611Y5084D01*
X27737Y5087D01*
X27744Y5080D01*
X27782Y5034D01*
X27800Y5024D01*
X27814Y5010D01*
X27974Y4903D01*
X27993Y4895D01*
X28009Y4882D01*
X28066Y4865D01*
X28121Y4842D01*
X28142Y4842D01*
X28161Y4836D01*
X28323Y4820D01*
X28399Y4827D01*
X28476Y4834D01*
X28594Y4868D01*
X28615Y4878D01*
X28638Y4883D01*
X28638Y4883D01*
X28638Y4883D01*
X28638Y4883D01*
X28748Y4928D01*
X28748Y4929D01*
X28748Y4929D01*
X29226Y5126D01*
X29275Y5159D01*
X29328Y5188D01*
X29373Y5224D01*
X29500Y5200D01*
Y5200D01*
X29500Y5200D01*
X29835D01*
Y5650D01*
X30000D01*
Y5815D01*
X30294D01*
Y5850D01*
X30296Y5831D01*
X30302Y5815D01*
X30500D01*
Y6000D01*
X30700D01*
Y7300D01*
X30510D01*
Y9775D01*
X30725D01*
Y11525D01*
X29275D01*
Y9775D01*
X29490D01*
Y9055D01*
X28325D01*
Y7732D01*
X28320Y7708D01*
X28325Y7684D01*
Y7329D01*
X28028Y7196D01*
X27987Y7166D01*
X27966Y7170D01*
X27860Y7235D01*
Y9697D01*
X27969Y9775D01*
X28825D01*
Y11071D01*
X28827Y11079D01*
X28826Y11100D01*
X28830Y11122D01*
X28825Y11146D01*
Y11525D01*
X28637D01*
Y12200D01*
X29830D01*
Y13800D01*
X29050D01*
Y15400D01*
X27000D01*
Y13700D01*
X27413D01*
Y11753D01*
X27286Y11717D01*
X27268Y11747D01*
X27163Y11870D01*
X27144Y11907D01*
X27134Y11915D01*
X27129Y11925D01*
X26983Y12094D01*
X26956Y12115D01*
X26938Y12138D01*
X26919Y12153D01*
X26900Y12178D01*
X26554Y12481D01*
X26480Y12582D01*
X26480Y12582D01*
X26478Y12585D01*
X26476Y12585D01*
X26381Y12663D01*
X26267Y12811D01*
X26120Y13167D01*
X26085Y13434D01*
X26079Y13558D01*
X26079Y13561D01*
X26079Y13563D01*
X26083Y13674D01*
X26082Y13684D01*
X26053Y13983D01*
X25963Y14280D01*
X25816Y14554D01*
X25619Y14794D01*
X25379Y14991D01*
X25105Y15137D01*
X24808Y15227D01*
X24521Y15255D01*
X24499Y15260D01*
X21650D01*
Y15442D01*
X21602Y15620D01*
X21510Y15780D01*
X21391Y15899D01*
X21377Y15962D01*
Y15988D01*
X21391Y16051D01*
X21510Y16170D01*
X21602Y16330D01*
X21650Y16508D01*
Y16692D01*
X21602Y16870D01*
X21510Y17030D01*
X21380Y17160D01*
X21220Y17252D01*
X21042Y17300D01*
X20858D01*
X20680Y17252D01*
X20614Y17215D01*
X20583Y17203D01*
X20404Y17243D01*
X20339Y17244D01*
X20307Y17249D01*
X20251Y17260D01*
X20072D01*
X20038Y17387D01*
X20130Y17440D01*
X20260Y17570D01*
X20352Y17730D01*
X20400Y17908D01*
Y18092D01*
X20352Y18270D01*
X20260Y18430D01*
X20130Y18560D01*
X19970Y18652D01*
X19950Y18658D01*
Y18917D01*
X19969Y18931D01*
X20153D01*
X20331Y18979D01*
X20491Y19071D01*
X20621Y19202D01*
X20713Y19361D01*
X20751Y19500D01*
X22500D01*
Y19547D01*
X22627Y19585D01*
X22710Y19460D01*
X22901Y19333D01*
X23125Y19289D01*
X23475D01*
X23699Y19333D01*
X23890Y19460D01*
X24017Y19651D01*
X24026Y19700D01*
X24176D01*
X24178Y19690D01*
X24283Y19533D01*
X24440Y19428D01*
X24535Y19409D01*
Y20200D01*
Y20991D01*
X24440Y20972D01*
X24283Y20867D01*
X24178Y20710D01*
X24176Y20700D01*
X24026D01*
X24017Y20749D01*
X23890Y20940D01*
X23699Y21067D01*
X23475Y21111D01*
X23125D01*
X22901Y21067D01*
X22710Y20940D01*
X22627Y20815D01*
X22500Y20853D01*
Y20900D01*
X22279D01*
X22238Y20990D01*
X22310Y21100D01*
X22650D01*
Y23300D01*
X22060D01*
Y23835D01*
X22192D01*
X22370Y23883D01*
X22530Y23975D01*
X22564Y24009D01*
X22722Y23988D01*
X22923Y23660D01*
X23232Y23298D01*
X23233Y23296D01*
X23286Y23243D01*
X23286Y23243D01*
X23286Y23243D01*
X23299Y23234D01*
X23547Y23031D01*
X23844Y22872D01*
X23872Y22864D01*
X23881Y22858D01*
X23898Y22851D01*
X23904Y22848D01*
X23910Y22845D01*
X23915Y22842D01*
X23919Y22839D01*
X23922Y22836D01*
X23926Y22833D01*
X23929Y22830D01*
X23933Y22826D01*
X23944Y22812D01*
X23968Y22792D01*
X24070Y22690D01*
X24230Y22598D01*
X24408Y22550D01*
X24450D01*
Y21200D01*
X25050D01*
Y22200D01*
X25850D01*
Y21200D01*
X26450D01*
Y22158D01*
X26569Y22202D01*
X26752Y21988D01*
X26761Y21973D01*
X26848Y21886D01*
X26872Y21870D01*
X27095Y21599D01*
X27274Y21264D01*
X27384Y20901D01*
X27419Y20551D01*
X27413Y20523D01*
Y19900D01*
X27000D01*
Y18200D01*
Y16700D01*
X29050D01*
Y18200D01*
Y19800D01*
X29830D01*
Y21400D01*
X28504D01*
X28481Y21496D01*
X28291Y21953D01*
X28033Y22374D01*
X27723Y22737D01*
X27714Y22752D01*
X27627Y22839D01*
X27603Y22855D01*
X27380Y23126D01*
X27259Y23351D01*
X27346Y23460D01*
X27382Y23450D01*
X27618D01*
X27847Y23511D01*
X27959Y23576D01*
X27996Y23590D01*
X28019Y23604D01*
X28031Y23611D01*
X28045Y23617D01*
X28060Y23623D01*
X28077Y23628D01*
X28096Y23632D01*
X28113Y23635D01*
X28142Y23638D01*
X28278D01*
X28285Y23638D01*
X28314Y23634D01*
X28344Y23629D01*
X28372Y23622D01*
X28398Y23614D01*
X28421Y23606D01*
X28443Y23596D01*
X28462Y23585D01*
X28493Y23567D01*
X28512Y23559D01*
X28551Y23533D01*
X28615Y23520D01*
X28642Y23511D01*
X28662Y23511D01*
X28775Y23489D01*
X29425D01*
X29649Y23533D01*
X29840Y23660D01*
X29967Y23851D01*
X30011Y24075D01*
Y24425D01*
X29967Y24649D01*
X29840Y24840D01*
X29710Y24926D01*
Y25074D01*
X29840Y25160D01*
X29967Y25351D01*
X30011Y25575D01*
Y25925D01*
X29967Y26149D01*
X29840Y26340D01*
X29649Y26467D01*
X29425Y26511D01*
X28775D01*
X28662Y26489D01*
X28642Y26489D01*
X28615Y26480D01*
X28551Y26467D01*
X28512Y26441D01*
X28493Y26433D01*
X28462Y26415D01*
X28443Y26404D01*
X28421Y26394D01*
X28398Y26386D01*
X28372Y26378D01*
X28344Y26371D01*
X28319Y26367D01*
X28269Y26362D01*
X28085D01*
X28058Y26364D01*
X28041Y26366D01*
X27986Y26378D01*
X27972Y26382D01*
X27955Y26388D01*
X27941Y26394D01*
X27917Y26406D01*
X27891Y26413D01*
X27847Y26439D01*
X27618Y26500D01*
X27382D01*
X27153Y26439D01*
X26947Y26320D01*
X26875Y26247D01*
X26840Y26223D01*
X26794Y26175D01*
X26775Y26158D01*
X26486Y26038D01*
X26226Y25838D01*
X26217Y25833D01*
X26212Y25824D01*
X26012Y25564D01*
X25883Y25252D01*
X25840Y24927D01*
X25838Y24917D01*
Y24202D01*
X25842Y24185D01*
X25879Y23709D01*
X25971Y23327D01*
X25871Y23200D01*
X25200D01*
Y23342D01*
X25152Y23520D01*
X25060Y23680D01*
X24930Y23810D01*
X24770Y23902D01*
X24592Y23950D01*
X24408D01*
X24230Y23902D01*
X24146Y23854D01*
X24012Y23956D01*
X24007Y23964D01*
X24007Y23964D01*
X24007Y23964D01*
X23954Y24017D01*
X23935Y24030D01*
X23696Y24320D01*
X23508Y24673D01*
X23392Y25055D01*
X23355Y25429D01*
X23360Y25452D01*
Y28723D01*
X23361Y28850D01*
X23361Y28851D01*
X23358Y28897D01*
X23455Y28978D01*
X23486Y28970D01*
X23749D01*
X24004Y29038D01*
X24232Y29170D01*
X24418Y29356D01*
X24550Y29584D01*
X24618Y29838D01*
Y30102D01*
X24550Y30356D01*
X24418Y30584D01*
X24232Y30770D01*
X24004Y30902D01*
X23749Y30970D01*
X23486D01*
X23232Y30902D01*
X23004Y30770D01*
X22951Y30717D01*
X22825Y30732D01*
X22666Y30992D01*
X22375Y31333D01*
X22300Y31421D01*
X22304Y31454D01*
X22337Y31542D01*
X22347Y31548D01*
X28889D01*
X28923Y31429D01*
D02*
G37*
G36*
X20853Y27303D02*
X20851Y27301D01*
X20845Y27299D01*
X20836Y27296D01*
X20822Y27294D01*
X20759Y27287D01*
X20661Y27278D01*
X20654Y27478D01*
X20691Y27482D01*
X20725Y27488D01*
X20755Y27495D01*
X20781Y27504D01*
X20803Y27515D01*
X20821Y27527D01*
X20835Y27541D01*
X20845Y27557D01*
X20851Y27574D01*
X20853Y27593D01*
Y27303D01*
D02*
G37*
G36*
X21731Y27304D02*
X21714Y27298D01*
X21699Y27288D01*
X21686Y27274D01*
X21675Y27255D01*
X21666Y27233D01*
X21659Y27207D01*
X21654Y27176D01*
X21651Y27142D01*
X21650Y27103D01*
X21450D01*
X21449Y27142D01*
X21446Y27176D01*
X21441Y27207D01*
X21434Y27233D01*
X21425Y27255D01*
X21414Y27274D01*
X21401Y27288D01*
X21386Y27298D01*
X21369Y27304D01*
X21350Y27306D01*
X21750D01*
X21731Y27304D01*
D02*
G37*
G36*
X18309Y26875D02*
X18228Y26907D01*
X18080Y26955D01*
X18013Y26972D01*
X17950Y26983D01*
X17892Y26989D01*
X17838Y26991D01*
X17788Y26987D01*
X17743Y26978D01*
X17702Y26964D01*
X17623Y27148D01*
X17662Y27168D01*
X17699Y27194D01*
X17736Y27228D01*
X17773Y27268D01*
X17809Y27314D01*
X17844Y27368D01*
X17878Y27428D01*
X17946Y27568D01*
X17979Y27648D01*
X18309Y26875D01*
D02*
G37*
G36*
X11522Y27491D02*
X11571Y27343D01*
X11598Y27279D01*
X11626Y27222D01*
X11656Y27171D01*
X11687Y27127D01*
X11719Y27089D01*
X11753Y27058D01*
X11788Y27033D01*
X11687Y26861D01*
X11648Y26880D01*
X11605Y26894D01*
X11556Y26905D01*
X11502Y26910D01*
X11443Y26911D01*
X11380Y26908D01*
X11311Y26900D01*
X11158Y26872D01*
X11074Y26851D01*
X11500Y27574D01*
X11522Y27491D01*
D02*
G37*
G36*
X14023Y27219D02*
X14017Y27180D01*
X14016Y27142D01*
X14019Y27105D01*
X14026Y27069D01*
X14037Y27034D01*
X14053Y27000D01*
X14073Y26967D01*
X14097Y26935D01*
X14126Y26903D01*
X13984Y26762D01*
X13953Y26791D01*
X13921Y26815D01*
X13888Y26835D01*
X13854Y26850D01*
X13819Y26862D01*
X13783Y26869D01*
X13746Y26872D01*
X13708Y26871D01*
X13669Y26865D01*
X13629Y26855D01*
X14033Y27259D01*
X14023Y27219D01*
D02*
G37*
G36*
X15992Y26830D02*
X15905Y26829D01*
X15750Y26819D01*
X15681Y26809D01*
X15619Y26796D01*
X15562Y26780D01*
X15511Y26762D01*
X15467Y26740D01*
X15428Y26715D01*
X15396Y26686D01*
X15254Y26828D01*
X15282Y26860D01*
X15307Y26899D01*
X15329Y26944D01*
X15348Y26994D01*
X15364Y27051D01*
X15377Y27114D01*
X15387Y27182D01*
X15397Y27337D01*
X15398Y27424D01*
X15992Y26830D01*
D02*
G37*
G36*
X15090Y26344D02*
X15076Y26309D01*
X15026Y26153D01*
X15026Y26144D01*
X15027Y26138D01*
X14792Y26183D01*
X14796Y26186D01*
X14801Y26193D01*
X14807Y26204D01*
X14815Y26218D01*
X14845Y26284D01*
X14886Y26384D01*
X15090Y26344D01*
D02*
G37*
G36*
X14450Y26349D02*
X14504Y26186D01*
X14508Y26183D01*
X14273Y26138D01*
X14275Y26146D01*
X14276Y26157D01*
X14276Y26172D01*
X14274Y26190D01*
X14267Y26235D01*
X14255Y26293D01*
X14237Y26363D01*
X14440Y26387D01*
X14450Y26349D01*
D02*
G37*
G36*
X7023Y26258D02*
X7025Y26224D01*
X7028Y26193D01*
X7034Y26167D01*
X7041Y26145D01*
X7051Y26126D01*
X7064Y26112D01*
X7078Y26102D01*
X7095Y26096D01*
X7114Y26094D01*
X6713D01*
X6732Y26096D01*
X6750Y26102D01*
X6765Y26112D01*
X6779Y26126D01*
X6791Y26145D01*
X6801Y26167D01*
X6810Y26193D01*
X6816Y26224D01*
X6821Y26258D01*
X6824Y26297D01*
X7025D01*
X7023Y26258D01*
D02*
G37*
G36*
X15711Y26113D02*
X15665Y26093D01*
X15592Y26053D01*
X15564Y26033D01*
X15542Y26015D01*
X15527Y25996D01*
X15517Y25978D01*
X15513Y25960D01*
X15516Y25943D01*
X15524Y25926D01*
X15337Y26202D01*
X15353Y26203D01*
X15371Y26205D01*
X15390Y26209D01*
X15437Y26221D01*
X15493Y26240D01*
X15593Y26280D01*
X15711Y26113D01*
D02*
G37*
G36*
X1306Y25850D02*
X1304Y25869D01*
X1298Y25886D01*
X1288Y25901D01*
X1274Y25914D01*
X1255Y25925D01*
X1233Y25934D01*
X1207Y25941D01*
X1176Y25946D01*
X1142Y25949D01*
X1103Y25950D01*
Y26150D01*
X1142Y26151D01*
X1176Y26154D01*
X1207Y26159D01*
X1233Y26166D01*
X1255Y26175D01*
X1274Y26186D01*
X1288Y26199D01*
X1298Y26214D01*
X1304Y26231D01*
X1306Y26250D01*
Y25850D01*
D02*
G37*
G36*
X875Y26239D02*
X898Y26220D01*
X921Y26204D01*
X945Y26190D01*
X969Y26177D01*
X995Y26168D01*
X1020Y26160D01*
X1047Y26154D01*
X1074Y26151D01*
X1102Y26150D01*
Y25950D01*
X1074Y25949D01*
X1047Y25946D01*
X1020Y25940D01*
X995Y25932D01*
X969Y25923D01*
X945Y25910D01*
X921Y25896D01*
X898Y25880D01*
X875Y25861D01*
X853Y25840D01*
Y26260D01*
X875Y26239D01*
D02*
G37*
G36*
X9918Y25911D02*
X9892Y25839D01*
X9839Y25658D01*
X9829Y25608D01*
X9824Y25564D01*
X9823Y25525D01*
X9826Y25492D01*
X9833Y25464D01*
X9844Y25441D01*
X9573Y25844D01*
X9587Y25828D01*
X9602Y25819D01*
X9617Y25819D01*
X9634Y25826D01*
X9651Y25841D01*
X9669Y25864D01*
X9688Y25895D01*
X9708Y25933D01*
X9729Y25980D01*
X9751Y26034D01*
X9918Y25911D01*
D02*
G37*
G36*
X13792Y25817D02*
X13784Y25833D01*
X13772Y25847D01*
X13758Y25859D01*
X13740Y25870D01*
X13720Y25879D01*
X13697Y25887D01*
X13670Y25893D01*
X13641Y25897D01*
X13609Y25899D01*
X13573Y25900D01*
Y26100D01*
X13609Y26101D01*
X13641Y26103D01*
X13670Y26107D01*
X13697Y26113D01*
X13720Y26121D01*
X13740Y26130D01*
X13758Y26141D01*
X13772Y26153D01*
X13784Y26167D01*
X13792Y26183D01*
Y25817D01*
D02*
G37*
G36*
X28708Y25413D02*
X28666Y25439D01*
X28622Y25462D01*
X28577Y25483D01*
X28529Y25501D01*
X28480Y25516D01*
X28428Y25528D01*
X28375Y25538D01*
X28320Y25545D01*
X28245Y25548D01*
X28200Y25543D01*
X28156Y25534D01*
X28115Y25522D01*
X28079Y25506D01*
X28045Y25486D01*
X28015Y25463D01*
X27988Y25437D01*
X27965Y25407D01*
X27946Y25373D01*
X27736Y26041D01*
X27771Y26024D01*
X27807Y26008D01*
X27845Y25995D01*
X27885Y25983D01*
X27969Y25965D01*
X28014Y25958D01*
X28108Y25951D01*
X28157Y25950D01*
X28205Y25814D01*
Y25950D01*
X28263Y25951D01*
X28375Y25962D01*
X28428Y25972D01*
X28480Y25984D01*
X28529Y25999D01*
X28577Y26017D01*
X28622Y26038D01*
X28666Y26061D01*
X28708Y26087D01*
Y25413D01*
D02*
G37*
G36*
X9356Y25345D02*
X9354Y25364D01*
X9348Y25382D01*
X9338Y25398D01*
X9324Y25413D01*
X9306Y25427D01*
X9284Y25440D01*
X9258Y25451D01*
X9228Y25461D01*
X9194Y25469D01*
X9155Y25476D01*
X9157Y25683D01*
X9195Y25678D01*
X9228Y25675D01*
X9258Y25675D01*
X9284Y25678D01*
X9306Y25683D01*
X9324Y25691D01*
X9338Y25702D01*
X9348Y25715D01*
X9354Y25731D01*
X9356Y25749D01*
Y25345D01*
D02*
G37*
G36*
X6603Y25650D02*
X6601Y25669D01*
X6595Y25686D01*
X6585Y25701D01*
X6571Y25714D01*
X6553Y25725D01*
X6531Y25734D01*
X6505Y25741D01*
X6475Y25746D01*
X6441Y25749D01*
X6403Y25750D01*
Y25950D01*
X6441Y25951D01*
X6475Y25954D01*
X6505Y25959D01*
X6531Y25966D01*
X6553Y25975D01*
X6571Y25986D01*
X6585Y25999D01*
X6595Y26014D01*
X6601Y26031D01*
X6603Y26050D01*
Y25650D01*
D02*
G37*
G36*
X5696Y26031D02*
X5702Y26014D01*
X5712Y25999D01*
X5726Y25986D01*
X5745Y25975D01*
X5767Y25966D01*
X5793Y25959D01*
X5824Y25954D01*
X5858Y25951D01*
X5897Y25950D01*
Y25750D01*
X5858Y25749D01*
X5824Y25746D01*
X5793Y25741D01*
X5767Y25734D01*
X5745Y25725D01*
X5726Y25714D01*
X5712Y25701D01*
X5702Y25686D01*
X5696Y25669D01*
X5694Y25650D01*
Y26050D01*
X5696Y26031D01*
D02*
G37*
G36*
X10846Y25731D02*
X10852Y25714D01*
X10862Y25699D01*
X10876Y25686D01*
X10895Y25675D01*
X10917Y25666D01*
X10943Y25659D01*
X10974Y25654D01*
X10994Y25652D01*
X11046Y25656D01*
X11081Y25661D01*
X11147Y25675D01*
X11179Y25684D01*
X11239Y25706D01*
X11268Y25719D01*
X11128Y25323D01*
X11115Y25347D01*
X11101Y25369D01*
X11085Y25388D01*
X11066Y25404D01*
X11047Y25418D01*
X11025Y25430D01*
X11001Y25439D01*
X10976Y25445D01*
X10971Y25446D01*
X10943Y25441D01*
X10917Y25434D01*
X10895Y25425D01*
X10876Y25414D01*
X10862Y25401D01*
X10852Y25386D01*
X10846Y25369D01*
X10844Y25350D01*
Y25750D01*
X10846Y25731D01*
D02*
G37*
G36*
X20152Y25492D02*
X20076Y25306D01*
X19656Y25403D01*
X19679Y25429D01*
X19716Y25476D01*
X19729Y25497D01*
X19740Y25517D01*
X19747Y25535D01*
X19751Y25552D01*
X19752Y25567D01*
X19750Y25580D01*
X19745Y25592D01*
X20152Y25492D01*
D02*
G37*
G36*
X27152Y25241D02*
X27123Y25268D01*
X27048Y25330D01*
X27027Y25344D01*
X27007Y25355D01*
X26990Y25362D01*
X26975Y25366D01*
X26961Y25367D01*
X26950Y25364D01*
X26941Y25779D01*
X26953Y25783D01*
X26966Y25789D01*
X26981Y25798D01*
X26998Y25810D01*
X27036Y25843D01*
X27082Y25886D01*
X27134Y25941D01*
X27152Y25241D01*
D02*
G37*
G36*
X734Y28559D02*
X952Y28231D01*
X1231Y27952D01*
X1559Y27734D01*
X1923Y27583D01*
X2309Y27506D01*
X2703D01*
X3089Y27583D01*
X3453Y27734D01*
X3781Y27952D01*
X3848Y28019D01*
X3965Y27971D01*
Y27920D01*
X3938Y27804D01*
X3937Y27801D01*
X3964Y27684D01*
X3963Y27550D01*
X3942Y25177D01*
X3946Y25157D01*
X3909Y24778D01*
X3787Y24378D01*
X3719Y24250D01*
X2527D01*
X2400Y24250D01*
Y24250D01*
X2400D01*
Y24250D01*
X900D01*
Y24109D01*
X799Y24032D01*
X731Y24050D01*
X547D01*
X465Y24113D01*
Y25287D01*
X547Y25350D01*
X731D01*
X799Y25368D01*
X900Y25291D01*
Y25155D01*
X2400D01*
Y25190D01*
X2500Y25255D01*
X2885D01*
Y26055D01*
Y26855D01*
X2500D01*
X2400Y26920D01*
Y26955D01*
X900D01*
Y26809D01*
X799Y26732D01*
X731Y26750D01*
X547D01*
X465Y26813D01*
Y28888D01*
X583Y28923D01*
X734Y28559D01*
D02*
G37*
G36*
X14418Y24799D02*
X14414Y24806D01*
X14407Y24808D01*
X14399Y24806D01*
X14390Y24799D01*
X14379Y24788D01*
X14366Y24773D01*
X14352Y24753D01*
X14318Y24701D01*
X14299Y24669D01*
X14125Y24768D01*
X14158Y24825D01*
X14271Y25060D01*
X14276Y25081D01*
X14278Y25097D01*
X14276Y25108D01*
X14418Y24799D01*
D02*
G37*
G36*
X11768Y24493D02*
X11762Y24484D01*
X11762D01*
X11790Y24415D01*
Y23006D01*
X11605D01*
X11478Y22981D01*
X11416Y22940D01*
X11300Y22900D01*
X11300Y22900D01*
X11300Y22900D01*
X10500D01*
Y23994D01*
X10725D01*
X10852Y24019D01*
X10959Y24091D01*
X11031Y24198D01*
X11056Y24325D01*
Y24335D01*
X10600D01*
Y24665D01*
X11056D01*
Y24675D01*
X11052Y24696D01*
X11080Y24733D01*
X11163Y24789D01*
X11308Y24750D01*
X11492D01*
X11660Y24795D01*
X11768Y24493D01*
D02*
G37*
G36*
X13963Y24796D02*
X13950Y24795D01*
X13935Y24792D01*
X13917Y24786D01*
X13898Y24778D01*
X13877Y24768D01*
X13828Y24741D01*
X13770Y24705D01*
X13738Y24684D01*
X13608Y24837D01*
X13650Y24867D01*
X13717Y24922D01*
X13742Y24948D01*
X13762Y24972D01*
X13776Y24994D01*
X13784Y25016D01*
X13787Y25035D01*
X13785Y25054D01*
X13776Y25071D01*
X13963Y24796D01*
D02*
G37*
G36*
X15516Y25167D02*
X15527Y25155D01*
X15541Y25145D01*
X15558Y25137D01*
X15578Y25131D01*
X15601Y25127D01*
X15627Y25125D01*
X15657Y25125D01*
X15689Y25126D01*
X15725Y25130D01*
X15725Y24927D01*
X15691Y24921D01*
X15659Y24915D01*
X15630Y24907D01*
X15604Y24898D01*
X15581Y24887D01*
X15560Y24875D01*
X15543Y24862D01*
X15528Y24848D01*
X15517Y24832D01*
X15508Y24815D01*
X15507Y24813D01*
X15505Y24808D01*
X15504Y24800D01*
X15503Y24790D01*
X15501Y24741D01*
X15500Y24667D01*
X15300D01*
X15292Y24815D01*
X15508D01*
Y25181D01*
X15516Y25167D01*
D02*
G37*
G36*
X15008Y24815D02*
X14986Y24805D01*
X14963Y24793D01*
X14941Y24780D01*
X14897Y24749D01*
X14875Y24731D01*
X14831Y24691D01*
X14810Y24669D01*
X14788Y24645D01*
X14642Y24782D01*
X14678Y24824D01*
X14734Y24899D01*
X14755Y24932D01*
X14771Y24962D01*
X14782Y24988D01*
X14788Y25011D01*
X14789Y25031D01*
X14785Y25048D01*
X14776Y25061D01*
X15008Y24815D01*
D02*
G37*
G36*
X22446Y24847D02*
X22434Y24820D01*
X22423Y24794D01*
X22414Y24767D01*
X22407Y24740D01*
X22401Y24712D01*
X22397Y24684D01*
X22395Y24656D01*
X22394Y24628D01*
X22395Y24600D01*
X22398Y24571D01*
X22070Y24833D01*
X22101Y24838D01*
X22129Y24844D01*
X22156Y24853D01*
X22181Y24864D01*
X22203Y24877D01*
X22224Y24892D01*
X22242Y24910D01*
X22259Y24930D01*
X22274Y24952D01*
X22286Y24976D01*
X22446Y24847D01*
D02*
G37*
G36*
X7151Y24604D02*
X7136Y24599D01*
X7125Y24591D01*
X7118Y24579D01*
X7115Y24563D01*
X7116Y24545D01*
X7121Y24522D01*
X7129Y24497D01*
X7142Y24468D01*
X7158Y24435D01*
X6920Y24421D01*
X6901Y24456D01*
X6861Y24516D01*
X6841Y24540D01*
X6821Y24560D01*
X6801Y24577D01*
X6780Y24589D01*
X6760Y24599D01*
X6739Y24604D01*
X6718Y24606D01*
X7169D01*
X7151Y24604D01*
D02*
G37*
G36*
X5581Y24604D02*
X5564Y24598D01*
X5549Y24588D01*
X5536Y24574D01*
X5525Y24555D01*
X5516Y24533D01*
X5509Y24507D01*
X5504Y24476D01*
X5501Y24442D01*
X5500Y24403D01*
X5300D01*
X5299Y24442D01*
X5296Y24476D01*
X5291Y24507D01*
X5284Y24533D01*
X5275Y24555D01*
X5264Y24574D01*
X5251Y24588D01*
X5236Y24598D01*
X5219Y24604D01*
X5200Y24606D01*
X5600D01*
X5581Y24604D01*
D02*
G37*
G36*
X16685Y24492D02*
X16662Y24472D01*
X16641Y24451D01*
X16623Y24430D01*
X16607Y24407D01*
X16592Y24384D01*
X16580Y24360D01*
X16570Y24335D01*
X16563Y24309D01*
X16557Y24282D01*
X16553Y24254D01*
X16354Y24272D01*
X16355Y24300D01*
X16355Y24327D01*
X16351Y24354D01*
X16346Y24380D01*
X16338Y24406D01*
X16328Y24432D01*
X16316Y24457D01*
X16302Y24481D01*
X16285Y24505D01*
X16266Y24529D01*
X16685Y24492D01*
D02*
G37*
G36*
X18691Y24346D02*
X18617Y24332D01*
X18490Y24301D01*
X18439Y24284D01*
X18396Y24265D01*
X18360Y24245D01*
X18332Y24224D01*
X18313Y24201D01*
X18301Y24178D01*
X18297Y24153D01*
Y24647D01*
X18301Y24655D01*
X18311Y24663D01*
X18330Y24672D01*
X18355Y24681D01*
X18387Y24691D01*
X18474Y24712D01*
X18659Y24746D01*
X18691Y24346D01*
D02*
G37*
G36*
X5802Y23781D02*
X5786Y23804D01*
X5751Y23846D01*
X5731Y23866D01*
X5689Y23903D01*
X5666Y23921D01*
X5616Y23954D01*
X5590Y23969D01*
X5629Y24180D01*
X5653Y24166D01*
X5676Y24155D01*
X5700Y24148D01*
X5724Y24145D01*
X5749Y24144D01*
X5774Y24147D01*
X5799Y24154D01*
X5824Y24164D01*
X5850Y24178D01*
X5876Y24195D01*
X5802Y23781D01*
D02*
G37*
G36*
X14431Y24220D02*
X14417Y24196D01*
X14405Y24171D01*
X14395Y24146D01*
X14387Y24121D01*
X14381Y24094D01*
X14377Y24067D01*
X14376Y24039D01*
X14377Y24011D01*
X14380Y23982D01*
X14385Y23952D01*
X14036Y24184D01*
X14065Y24191D01*
X14093Y24199D01*
X14120Y24210D01*
X14145Y24222D01*
X14169Y24235D01*
X14191Y24251D01*
X14212Y24268D01*
X14231Y24287D01*
X14249Y24308D01*
X14265Y24330D01*
X14431Y24220D01*
D02*
G37*
G36*
X27944Y24589D02*
X27970Y24560D01*
X28000Y24534D01*
X28032Y24512D01*
X28068Y24493D01*
X28106Y24477D01*
X28148Y24465D01*
X28192Y24457D01*
X28240Y24452D01*
X28255Y24451D01*
X28263Y24451D01*
X28375Y24462D01*
X28428Y24472D01*
X28480Y24484D01*
X28529Y24499D01*
X28577Y24517D01*
X28622Y24538D01*
X28666Y24561D01*
X28708Y24587D01*
Y23913D01*
X28666Y23939D01*
X28622Y23962D01*
X28577Y23983D01*
X28529Y24001D01*
X28480Y24016D01*
X28428Y24028D01*
X28375Y24038D01*
X28320Y24045D01*
X28205Y24050D01*
Y24071D01*
X28200Y24050D01*
X28151Y24049D01*
X28057Y24040D01*
X28012Y24032D01*
X27970Y24021D01*
X27928Y24009D01*
X27889Y23994D01*
X27851Y23977D01*
X27815Y23957D01*
X27780Y23936D01*
X27920Y24622D01*
X27944Y24589D01*
D02*
G37*
G36*
X9550Y23804D02*
X9555Y23743D01*
X9558Y23728D01*
X9562Y23716D01*
X9566Y23706D01*
X9571Y23699D01*
X9576Y23695D01*
X9582Y23694D01*
X9318D01*
X9324Y23695D01*
X9329Y23699D01*
X9334Y23706D01*
X9338Y23716D01*
X9342Y23728D01*
X9345Y23743D01*
X9347Y23760D01*
X9350Y23804D01*
X9350Y23829D01*
X9550D01*
X9550Y23804D01*
D02*
G37*
G36*
X19536Y23490D02*
X19532Y23492D01*
X19525Y23494D01*
X19515Y23495D01*
X19484Y23497D01*
X19381Y23500D01*
X19346Y23500D01*
Y23900D01*
X19536Y23910D01*
Y23490D01*
D02*
G37*
G36*
X14962Y23613D02*
X14933Y23605D01*
X14905Y23595D01*
X14879Y23584D01*
X14855Y23571D01*
X14832Y23556D01*
X14810Y23539D01*
X14790Y23521D01*
X14772Y23501D01*
X14755Y23479D01*
X14740Y23456D01*
X14568Y23559D01*
X14582Y23583D01*
X14593Y23608D01*
X14602Y23634D01*
X14608Y23660D01*
X14613Y23687D01*
X14615Y23714D01*
X14615Y23742D01*
X14613Y23770D01*
X14608Y23799D01*
X14602Y23829D01*
X14962Y23613D01*
D02*
G37*
G36*
X18301Y23938D02*
X18313Y23930D01*
X18333Y23923D01*
X18361Y23917D01*
X18397Y23912D01*
X18493Y23904D01*
X18697Y23900D01*
Y23500D01*
X18621Y23500D01*
X18361Y23483D01*
X18333Y23477D01*
X18313Y23470D01*
X18301Y23462D01*
X18297Y23453D01*
Y23947D01*
X18301Y23938D01*
D02*
G37*
G36*
X24261Y23068D02*
X24243Y23090D01*
X24224Y23112D01*
X24204Y23131D01*
X24183Y23150D01*
X24161Y23167D01*
X24138Y23183D01*
X24114Y23198D01*
X24089Y23212D01*
X24063Y23224D01*
X24035Y23235D01*
X24061Y23441D01*
X24086Y23431D01*
X24112Y23425D01*
X24137Y23422D01*
X24163Y23421D01*
X24188Y23424D01*
X24213Y23430D01*
X24238Y23439D01*
X24263Y23451D01*
X24288Y23467D01*
X24314Y23485D01*
X24261Y23068D01*
D02*
G37*
G36*
X13635Y23625D02*
X13643Y23599D01*
X13653Y23573D01*
X13664Y23549D01*
X13678Y23526D01*
X13694Y23504D01*
X13712Y23483D01*
X13733Y23462D01*
X13755Y23443D01*
X13779Y23425D01*
X13365Y23356D01*
X13382Y23381D01*
X13396Y23406D01*
X13409Y23432D01*
X13419Y23458D01*
X13427Y23484D01*
X13432Y23510D01*
X13436Y23537D01*
X13437Y23564D01*
X13436Y23592D01*
X13432Y23619D01*
X13629Y23652D01*
X13635Y23625D01*
D02*
G37*
G36*
X6900Y23740D02*
Y23100D01*
X5900D01*
Y22000D01*
Y21000D01*
Y20000D01*
Y19500D01*
X6900D01*
Y18500D01*
X7211D01*
X7294Y18373D01*
X7265Y18225D01*
Y17975D01*
X7305Y17770D01*
X7422Y17597D01*
X7487Y17553D01*
X7566Y17459D01*
X7494Y17352D01*
X7477Y17265D01*
X7975D01*
Y17100D01*
X8140D01*
Y16644D01*
X8150D01*
X8277Y16669D01*
X8384Y16741D01*
X8386Y16743D01*
X8539D01*
X8541Y16741D01*
X8648Y16669D01*
X8775Y16644D01*
X8785D01*
Y16851D01*
X8769Y16857D01*
X8751Y16859D01*
X8785D01*
Y17100D01*
X9115D01*
Y16859D01*
X9149D01*
X9131Y16857D01*
X9115Y16851D01*
Y16644D01*
X9125D01*
X9178Y16654D01*
X9260Y16541D01*
X9248Y16520D01*
X9200Y16342D01*
Y16158D01*
X9248Y15980D01*
X9340Y15820D01*
X9470Y15690D01*
X9630Y15598D01*
X9808Y15550D01*
X9992D01*
X10028Y15428D01*
X9710Y15258D01*
X9624Y15188D01*
X9616Y15184D01*
X9511Y15153D01*
X9486Y15140D01*
X9219Y15029D01*
X8937Y14813D01*
X8721Y14531D01*
X8585Y14202D01*
X8577Y14144D01*
X8450Y14152D01*
Y15228D01*
X5810D01*
Y15647D01*
X5810Y15648D01*
X5810Y15649D01*
X5810Y15671D01*
X5810Y15671D01*
X5810Y15671D01*
X5810Y15673D01*
X5809Y15677D01*
X5768Y16306D01*
X5639Y16952D01*
X5427Y17576D01*
X5136Y18168D01*
X4769Y18716D01*
X4410Y19126D01*
X4399Y19142D01*
X4399Y19142D01*
X4394Y19150D01*
X4353Y19177D01*
X4300Y19218D01*
X4243Y19261D01*
X4072Y19332D01*
X3948Y19348D01*
X3900Y19358D01*
Y19750D01*
X2527D01*
X2400Y19750D01*
Y19750D01*
X2400D01*
Y19750D01*
X900D01*
Y19604D01*
X799Y19527D01*
X731Y19545D01*
X547D01*
X465Y19608D01*
Y20787D01*
X547Y20850D01*
X731D01*
X799Y20868D01*
X900Y20791D01*
Y20650D01*
X2273D01*
X2400Y20650D01*
Y20650D01*
X2400D01*
Y20650D01*
X3900D01*
Y21118D01*
X3950Y21139D01*
X4060Y21224D01*
X4101Y21251D01*
X4106Y21259D01*
X4184Y21354D01*
X4414Y21616D01*
X4729Y22087D01*
X4980Y22595D01*
X5162Y23131D01*
X5246Y23556D01*
X5350Y23609D01*
X5387Y23614D01*
X5399Y23609D01*
X5400Y23608D01*
X5428Y23590D01*
X5429Y23589D01*
X5449Y23571D01*
X5464Y23553D01*
X5471Y23544D01*
X5483Y23532D01*
X5490Y23520D01*
X5620Y23390D01*
X5780Y23298D01*
X5958Y23250D01*
X6142D01*
X6320Y23298D01*
X6480Y23390D01*
X6610Y23520D01*
X6702Y23680D01*
X6711Y23714D01*
X6858Y23768D01*
X6900Y23740D01*
D02*
G37*
G36*
X3495Y23521D02*
X3500Y23511D01*
X3508Y23503D01*
X3519Y23496D01*
X3533Y23490D01*
X3550Y23486D01*
X3570Y23483D01*
X3594Y23481D01*
X3620Y23481D01*
X3650Y23483D01*
X3663Y23283D01*
X3631Y23280D01*
X3577Y23272D01*
X3555Y23267D01*
X3536Y23260D01*
X3521Y23252D01*
X3509Y23244D01*
X3501Y23234D01*
X3496Y23224D01*
X3494Y23213D01*
Y23532D01*
X3495Y23521D01*
D02*
G37*
G36*
X1306Y23150D02*
X1304Y23169D01*
X1298Y23186D01*
X1288Y23201D01*
X1274Y23214D01*
X1255Y23225D01*
X1233Y23234D01*
X1207Y23241D01*
X1176Y23246D01*
X1142Y23249D01*
X1103Y23250D01*
Y23450D01*
X1142Y23451D01*
X1176Y23454D01*
X1207Y23459D01*
X1233Y23466D01*
X1255Y23475D01*
X1274Y23486D01*
X1288Y23499D01*
X1298Y23514D01*
X1304Y23531D01*
X1306Y23550D01*
Y23150D01*
D02*
G37*
G36*
X875Y23539D02*
X898Y23520D01*
X921Y23504D01*
X945Y23490D01*
X969Y23478D01*
X995Y23468D01*
X1020Y23460D01*
X1047Y23454D01*
X1074Y23451D01*
X1102Y23450D01*
Y23250D01*
X1074Y23249D01*
X1047Y23246D01*
X1020Y23240D01*
X995Y23232D01*
X969Y23222D01*
X945Y23210D01*
X921Y23196D01*
X898Y23180D01*
X875Y23161D01*
X853Y23140D01*
Y23560D01*
X875Y23539D01*
D02*
G37*
G36*
X20450Y23258D02*
Y21675D01*
X20349Y21598D01*
X20342Y21600D01*
X20158D01*
X19980Y21552D01*
X19820Y21460D01*
X19690Y21330D01*
X19615Y21200D01*
X18150D01*
Y20440D01*
X18023Y20347D01*
X17975Y20356D01*
X17965D01*
Y19900D01*
X17635D01*
Y20356D01*
X17625D01*
X17498Y20331D01*
X17391Y20259D01*
X17376Y20238D01*
X17224D01*
X17209Y20259D01*
X17102Y20331D01*
X16975Y20356D01*
X16965D01*
Y19900D01*
X16800D01*
Y19735D01*
X16302D01*
X16319Y19648D01*
X16391Y19541D01*
X16312Y19447D01*
X16247Y19403D01*
X16130Y19230D01*
X16090Y19025D01*
Y18775D01*
X16130Y18570D01*
X16193Y18477D01*
X16125Y18350D01*
X15998D01*
X15898Y18477D01*
X15898Y18482D01*
X15870Y18774D01*
X15784Y19055D01*
X15646Y19314D01*
X15460Y19541D01*
X15233Y19728D01*
X15217Y19736D01*
X15233Y19871D01*
X15281Y19884D01*
X15440Y19976D01*
X15570Y20107D01*
X15663Y20266D01*
X15710Y20444D01*
Y20629D01*
X15663Y20807D01*
X15570Y20966D01*
X15538Y20999D01*
X15540Y21126D01*
X16232Y21769D01*
X16246Y21788D01*
X16249Y21790D01*
X16250Y21791D01*
X16268Y21804D01*
X16556Y22111D01*
X16582Y22153D01*
X16695Y22301D01*
X16799Y22551D01*
X16815Y22672D01*
X16831Y22728D01*
X16859Y23052D01*
X16900Y23050D01*
Y23050D01*
X18265D01*
X18285Y23045D01*
X18291Y23046D01*
X18297Y23045D01*
X18321Y23050D01*
X18700D01*
Y23088D01*
X19410D01*
X19480Y23048D01*
X19658Y23000D01*
X19842D01*
X20020Y23048D01*
X20180Y23140D01*
X20310Y23270D01*
X20323Y23292D01*
X20450Y23258D01*
D02*
G37*
G36*
X25551Y23058D02*
X25554Y23024D01*
X25559Y22993D01*
X25566Y22967D01*
X25575Y22945D01*
X25586Y22926D01*
X25599Y22912D01*
X25614Y22902D01*
X25631Y22896D01*
X25650Y22894D01*
X25250D01*
X25269Y22896D01*
X25286Y22902D01*
X25301Y22912D01*
X25314Y22926D01*
X25325Y22945D01*
X25334Y22967D01*
X25341Y22993D01*
X25346Y23024D01*
X25349Y23058D01*
X25350Y23097D01*
X25550D01*
X25551Y23058D01*
D02*
G37*
G36*
X21651D02*
X21654Y23024D01*
X21659Y22993D01*
X21666Y22967D01*
X21675Y22945D01*
X21686Y22926D01*
X21699Y22912D01*
X21714Y22902D01*
X21731Y22896D01*
X21750Y22894D01*
X21350D01*
X21369Y22896D01*
X21386Y22902D01*
X21401Y22912D01*
X21414Y22926D01*
X21425Y22945D01*
X21434Y22967D01*
X21441Y22993D01*
X21446Y23024D01*
X21449Y23058D01*
X21450Y23097D01*
X21650D01*
X21651Y23058D01*
D02*
G37*
G36*
X11751Y22957D02*
X11754Y22920D01*
X11759Y22887D01*
X11766Y22860D01*
X11775Y22837D01*
X11786Y22819D01*
X11799Y22806D01*
X11814Y22798D01*
X11831Y22795D01*
X11850Y22796D01*
X11511Y22727D01*
X11511Y22352D01*
X11509Y22370D01*
X11502Y22387D01*
X11490Y22402D01*
X11474Y22415D01*
X11453Y22425D01*
X11428Y22434D01*
X11398Y22441D01*
X11364Y22446D01*
X11324Y22449D01*
X11286Y22450D01*
X11259Y22450D01*
X11169Y22442D01*
X11147Y22438D01*
X11129Y22433D01*
X11115Y22427D01*
X11105Y22420D01*
X11099Y22412D01*
X11097Y22403D01*
Y22697D01*
X11099Y22688D01*
X11105Y22680D01*
X11115Y22673D01*
X11129Y22667D01*
X11147Y22662D01*
X11169Y22658D01*
X11195Y22654D01*
X11259Y22650D01*
X11286Y22650D01*
X11324Y22651D01*
X11364Y22654D01*
X11398Y22659D01*
X11428Y22666D01*
X11453Y22675D01*
X11474Y22685D01*
X11490Y22698D01*
X11502Y22713D01*
X11507Y22726D01*
X11490Y22723D01*
X11502Y22741D01*
X11512Y22762D01*
X11521Y22784D01*
X11528Y22808D01*
X11535Y22833D01*
X11540Y22860D01*
X11548Y22919D01*
X11549Y22951D01*
X11550Y22985D01*
X11750Y22999D01*
X11751Y22957D01*
D02*
G37*
G36*
X15197Y22700D02*
X15167Y22699D01*
X15138Y22697D01*
X15109Y22692D01*
X15083Y22685D01*
X15057Y22676D01*
X15032Y22665D01*
X15008Y22653D01*
X14985Y22638D01*
X14964Y22621D01*
X14943Y22602D01*
X14802Y22743D01*
X14821Y22764D01*
X14838Y22785D01*
X14853Y22808D01*
X14865Y22832D01*
X14876Y22857D01*
X14885Y22882D01*
X14892Y22909D01*
X14897Y22938D01*
X14899Y22967D01*
X14900Y22997D01*
X15197Y22700D01*
D02*
G37*
G36*
X13203Y22651D02*
X13210Y22624D01*
X13219Y22599D01*
X13230Y22574D01*
X13243Y22550D01*
X13258Y22527D01*
X13275Y22505D01*
X13294Y22484D01*
X13316Y22464D01*
X13339Y22445D01*
X12922Y22393D01*
X12940Y22417D01*
X12956Y22442D01*
X12970Y22467D01*
X12981Y22492D01*
X12990Y22518D01*
X12996Y22544D01*
X13001Y22571D01*
X13003Y22598D01*
X13003Y22625D01*
X13000Y22653D01*
X13199Y22678D01*
X13203Y22651D01*
D02*
G37*
G36*
X3495Y21651D02*
X3498Y21650D01*
X3598Y21650D01*
Y21450D01*
X3494Y21449D01*
Y21651D01*
X3495Y21651D01*
D02*
G37*
G36*
X1306Y21350D02*
X1304Y21369D01*
X1298Y21386D01*
X1288Y21401D01*
X1274Y21414D01*
X1255Y21425D01*
X1233Y21434D01*
X1207Y21441D01*
X1176Y21446D01*
X1142Y21449D01*
X1103Y21450D01*
Y21650D01*
X1142Y21651D01*
X1176Y21654D01*
X1207Y21659D01*
X1233Y21666D01*
X1255Y21675D01*
X1274Y21686D01*
X1288Y21699D01*
X1298Y21714D01*
X1304Y21731D01*
X1306Y21750D01*
Y21350D01*
D02*
G37*
G36*
X875Y21739D02*
X898Y21720D01*
X921Y21704D01*
X945Y21690D01*
X969Y21677D01*
X995Y21668D01*
X1020Y21660D01*
X1047Y21654D01*
X1074Y21651D01*
X1102Y21650D01*
Y21450D01*
X1074Y21449D01*
X1047Y21446D01*
X1020Y21440D01*
X995Y21432D01*
X969Y21423D01*
X945Y21410D01*
X921Y21396D01*
X898Y21380D01*
X875Y21361D01*
X853Y21340D01*
Y21760D01*
X875Y21739D01*
D02*
G37*
G36*
X21731Y21504D02*
X21714Y21498D01*
X21699Y21488D01*
X21686Y21474D01*
X21675Y21455D01*
X21666Y21433D01*
X21659Y21407D01*
X21654Y21376D01*
X21651Y21342D01*
X21650Y21303D01*
X21450D01*
X21449Y21342D01*
X21446Y21376D01*
X21441Y21407D01*
X21434Y21433D01*
X21425Y21455D01*
X21414Y21474D01*
X21401Y21488D01*
X21386Y21498D01*
X21369Y21504D01*
X21350Y21506D01*
X21750D01*
X21731Y21504D01*
D02*
G37*
G36*
X11961Y21307D02*
X11944Y21300D01*
X11929Y21290D01*
X11916Y21275D01*
X11905Y21257D01*
X11896Y21234D01*
X11889Y21207D01*
X11884Y21176D01*
X11881Y21140D01*
X11880Y21101D01*
X11680D01*
X11679Y21140D01*
X11676Y21176D01*
X11671Y21207D01*
X11664Y21234D01*
X11655Y21257D01*
X11644Y21275D01*
X11631Y21290D01*
X11616Y21300D01*
X11599Y21307D01*
X11581Y21309D01*
X11979D01*
X11961Y21307D01*
D02*
G37*
G36*
X11880Y20970D02*
X11881Y20943D01*
X11883Y20917D01*
X11887Y20890D01*
X11893Y20863D01*
X11900Y20836D01*
X11909Y20809D01*
X11931Y20755D01*
X11944Y20728D01*
X11960Y20700D01*
X11555Y20812D01*
X11579Y20827D01*
X11600Y20843D01*
X11619Y20861D01*
X11635Y20880D01*
X11649Y20901D01*
X11660Y20924D01*
X11669Y20948D01*
X11675Y20973D01*
X11679Y21001D01*
X11680Y21029D01*
X11880Y20970D01*
D02*
G37*
G36*
X21900Y20653D02*
X21912Y20620D01*
X21925Y20590D01*
X21939Y20565D01*
X21954Y20543D01*
X21970Y20525D01*
X21987Y20512D01*
X22004Y20502D01*
X22023Y20496D01*
X22043Y20494D01*
X21629D01*
X21647Y20496D01*
X21663Y20501D01*
X21676Y20511D01*
X21686Y20524D01*
X21692Y20540D01*
X21696Y20561D01*
X21696Y20585D01*
X21694Y20613D01*
X21688Y20644D01*
X21680Y20679D01*
X21889Y20691D01*
X21900Y20653D01*
D02*
G37*
G36*
X14961Y20240D02*
X14931Y20244D01*
X14902Y20246D01*
X14874Y20246D01*
X14846Y20243D01*
X14819Y20238D01*
X14793Y20232D01*
X14767Y20223D01*
X14743Y20211D01*
X14719Y20198D01*
X14696Y20182D01*
X14578Y20344D01*
X14600Y20361D01*
X14620Y20380D01*
X14638Y20400D01*
X14654Y20421D01*
X14668Y20444D01*
X14681Y20469D01*
X14692Y20494D01*
X14701Y20521D01*
X14708Y20550D01*
X14713Y20579D01*
X14961Y20240D01*
D02*
G37*
G36*
X20549Y20851D02*
X20550Y20822D01*
X20553Y20793D01*
X20558Y20766D01*
X20566Y20740D01*
X20575Y20714D01*
X20587Y20690D01*
X20600Y20667D01*
X20616Y20644D01*
X20628Y20630D01*
X20652Y20604D01*
X20722Y20539D01*
X20752Y20515D01*
X20781Y20497D01*
X20806Y20484D01*
X20829Y20478D01*
X20849Y20477D01*
X20867Y20483D01*
X20882Y20494D01*
X20606Y20209D01*
X20617Y20224D01*
X20622Y20243D01*
X20622Y20265D01*
X20617Y20290D01*
X20606Y20319D01*
X20590Y20350D01*
X20568Y20384D01*
X20540Y20422D01*
X20477Y20497D01*
X20466Y20509D01*
X20445Y20527D01*
X20423Y20543D01*
X20400Y20557D01*
X20376Y20569D01*
X20351Y20579D01*
X20324Y20588D01*
X20296Y20594D01*
X20267Y20598D01*
X20237Y20600D01*
X20549Y20881D01*
X20549Y20851D01*
D02*
G37*
G36*
X11842Y20286D02*
X11820Y20274D01*
X11750Y20230D01*
X11737Y20220D01*
X11715Y20201D01*
X11707Y20193D01*
X11700Y20184D01*
X11483Y20239D01*
X11489Y20246D01*
X11493Y20256D01*
X11495Y20267D01*
X11495Y20279D01*
X11492Y20293D01*
X11487Y20310D01*
X11480Y20327D01*
X11471Y20347D01*
X11459Y20368D01*
X11446Y20391D01*
X11842Y20286D01*
D02*
G37*
G36*
X12591Y20250D02*
X12561Y20250D01*
X12531Y20248D01*
X12503Y20244D01*
X12476Y20237D01*
X12450Y20229D01*
X12425Y20219D01*
X12401Y20207D01*
X12378Y20192D01*
X12356Y20176D01*
X12335Y20157D01*
X12197Y20301D01*
X12216Y20322D01*
X12234Y20343D01*
X12249Y20365D01*
X12262Y20389D01*
X12273Y20413D01*
X12283Y20439D01*
X12290Y20466D01*
X12295Y20494D01*
X12299Y20523D01*
X12300Y20553D01*
X12591Y20250D01*
D02*
G37*
G36*
X22953Y20000D02*
X22951Y20019D01*
X22945Y20036D01*
X22934Y20051D01*
X22920Y20064D01*
X22902Y20075D01*
X22880Y20084D01*
X22853Y20091D01*
X22823Y20096D01*
X22788Y20099D01*
X22750Y20100D01*
Y20300D01*
X22788Y20301D01*
X22823Y20304D01*
X22853Y20309D01*
X22880Y20316D01*
X22902Y20325D01*
X22920Y20336D01*
X22934Y20349D01*
X22945Y20364D01*
X22951Y20381D01*
X22953Y20400D01*
Y20000D01*
D02*
G37*
G36*
X22096Y20381D02*
X22102Y20364D01*
X22112Y20349D01*
X22126Y20336D01*
X22145Y20325D01*
X22167Y20316D01*
X22193Y20309D01*
X22224Y20304D01*
X22258Y20301D01*
X22297Y20300D01*
Y20100D01*
X22258Y20099D01*
X22224Y20096D01*
X22193Y20091D01*
X22167Y20084D01*
X22145Y20075D01*
X22126Y20064D01*
X22112Y20051D01*
X22102Y20036D01*
X22096Y20019D01*
X22094Y20000D01*
Y20400D01*
X22096Y20381D01*
D02*
G37*
G36*
X11098Y20188D02*
X11103Y20180D01*
X11111Y20173D01*
X11121Y20167D01*
X11135Y20162D01*
X11152Y20158D01*
X11172Y20154D01*
X11195Y20152D01*
X11250Y20150D01*
Y19950D01*
X11221Y19950D01*
X11172Y19946D01*
X11152Y19942D01*
X11135Y19938D01*
X11121Y19933D01*
X11111Y19927D01*
X11103Y19920D01*
X11098Y19912D01*
X11097Y19903D01*
Y20197D01*
X11098Y20188D01*
D02*
G37*
G36*
X20146Y20067D02*
X20150Y20039D01*
X20156Y20012D01*
X20163Y19986D01*
X20172Y19963D01*
X20183Y19941D01*
X20196Y19920D01*
X20211Y19901D01*
X20227Y19884D01*
X20245Y19868D01*
X19860Y19854D01*
X19877Y19871D01*
X19892Y19890D01*
X19906Y19910D01*
X19917Y19931D01*
X19926Y19954D01*
X19934Y19978D01*
X19939Y20004D01*
X19943Y20031D01*
X19945Y20060D01*
X19944Y20090D01*
X20144Y20098D01*
X20146Y20067D01*
D02*
G37*
G36*
X17531Y19702D02*
X17529Y19720D01*
X17522Y19737D01*
X17510Y19752D01*
X17494Y19765D01*
X17473Y19775D01*
X17448Y19784D01*
X17418Y19791D01*
X17384Y19796D01*
X17344Y19799D01*
X17301Y19800D01*
Y20000D01*
X17344Y20001D01*
X17384Y20004D01*
X17418Y20009D01*
X17448Y20016D01*
X17473Y20025D01*
X17494Y20035D01*
X17510Y20048D01*
X17522Y20063D01*
X17529Y20080D01*
X17531Y20098D01*
Y19702D01*
D02*
G37*
G36*
X17071Y20080D02*
X17078Y20063D01*
X17090Y20048D01*
X17106Y20035D01*
X17127Y20025D01*
X17152Y20016D01*
X17182Y20009D01*
X17216Y20004D01*
X17256Y20001D01*
X17299Y20000D01*
Y19800D01*
X17256Y19799D01*
X17216Y19796D01*
X17182Y19791D01*
X17152Y19784D01*
X17127Y19775D01*
X17106Y19765D01*
X17090Y19752D01*
X17078Y19737D01*
X17071Y19720D01*
X17069Y19702D01*
Y20098D01*
X17071Y20080D01*
D02*
G37*
G36*
X28227Y19820D02*
X28233Y19752D01*
X28243Y19691D01*
X28257Y19639D01*
X28275Y19595D01*
X28297Y19558D01*
X28323Y19530D01*
X28353Y19510D01*
X28387Y19498D01*
X28425Y19494D01*
X27625D01*
X27663Y19498D01*
X27697Y19510D01*
X27727Y19530D01*
X27753Y19558D01*
X27775Y19595D01*
X27793Y19639D01*
X27807Y19691D01*
X27817Y19752D01*
X27823Y19820D01*
X27825Y19897D01*
X28225D01*
X28227Y19820D01*
D02*
G37*
G36*
X18075Y19098D02*
X18089Y19085D01*
X18106Y19073D01*
X18126Y19062D01*
X18148Y19054D01*
X18173Y19047D01*
X18200Y19041D01*
X18230Y19037D01*
X18262Y19035D01*
X18298Y19034D01*
X18299Y18834D01*
X18258Y18833D01*
X18221Y18830D01*
X18189Y18825D01*
X18161Y18818D01*
X18138Y18809D01*
X18119Y18798D01*
X18104Y18785D01*
X18095Y18770D01*
X18089Y18753D01*
X18088Y18735D01*
X18063Y19113D01*
X18075Y19098D01*
D02*
G37*
G36*
X18556Y18734D02*
X18554Y18753D01*
X18548Y18770D01*
X18538Y18785D01*
X18524Y18798D01*
X18505Y18809D01*
X18483Y18818D01*
X18457Y18825D01*
X18426Y18830D01*
X18392Y18833D01*
X18353Y18834D01*
Y19034D01*
X18392Y19035D01*
X18426Y19038D01*
X18457Y19043D01*
X18483Y19050D01*
X18505Y19059D01*
X18524Y19070D01*
X18538Y19083D01*
X18548Y19098D01*
X18554Y19115D01*
X18556Y19134D01*
Y18734D01*
D02*
G37*
G36*
X10088Y18901D02*
X10080Y18895D01*
X10073Y18885D01*
X10067Y18871D01*
X10062Y18853D01*
X10057Y18831D01*
X10054Y18805D01*
X10050Y18741D01*
X10050Y18703D01*
X9850D01*
X9849Y18741D01*
X9842Y18831D01*
X9838Y18853D01*
X9833Y18871D01*
X9827Y18885D01*
X9820Y18895D01*
X9812Y18901D01*
X9803Y18903D01*
X10097D01*
X10088Y18901D01*
D02*
G37*
G36*
X9088Y18901D02*
X9080Y18895D01*
X9073Y18885D01*
X9067Y18871D01*
X9062Y18853D01*
X9058Y18831D01*
X9054Y18805D01*
X9050Y18741D01*
X9050Y18703D01*
X8850D01*
X8850Y18741D01*
X8842Y18831D01*
X8838Y18853D01*
X8833Y18871D01*
X8827Y18885D01*
X8820Y18895D01*
X8812Y18901D01*
X8803Y18903D01*
X9097D01*
X9088Y18901D01*
D02*
G37*
G36*
X8088D02*
X8080Y18895D01*
X8073Y18885D01*
X8067Y18871D01*
X8062Y18853D01*
X8058Y18831D01*
X8054Y18805D01*
X8050Y18741D01*
X8050Y18703D01*
X7850D01*
X7850Y18741D01*
X7842Y18831D01*
X7838Y18853D01*
X7833Y18871D01*
X7827Y18885D01*
X7820Y18895D01*
X7812Y18901D01*
X7803Y18903D01*
X8097D01*
X8088Y18901D01*
D02*
G37*
G36*
X3496Y19031D02*
X3502Y19014D01*
X3512Y18999D01*
X3526Y18986D01*
X3545Y18975D01*
X3567Y18966D01*
X3593Y18959D01*
X3624Y18954D01*
X3658Y18951D01*
X3697Y18950D01*
Y18750D01*
X3658Y18749D01*
X3624Y18746D01*
X3593Y18741D01*
X3567Y18734D01*
X3545Y18725D01*
X3526Y18714D01*
X3512Y18701D01*
X3502Y18686D01*
X3496Y18669D01*
X3494Y18650D01*
Y19050D01*
X3496Y19031D01*
D02*
G37*
G36*
X1306Y18645D02*
X1304Y18664D01*
X1298Y18681D01*
X1288Y18696D01*
X1274Y18709D01*
X1255Y18720D01*
X1233Y18729D01*
X1207Y18736D01*
X1176Y18741D01*
X1142Y18744D01*
X1103Y18745D01*
Y18945D01*
X1142Y18946D01*
X1176Y18949D01*
X1207Y18954D01*
X1233Y18961D01*
X1255Y18970D01*
X1274Y18981D01*
X1288Y18994D01*
X1298Y19009D01*
X1304Y19026D01*
X1306Y19045D01*
Y18645D01*
D02*
G37*
G36*
X875Y19034D02*
X898Y19015D01*
X921Y18999D01*
X945Y18985D01*
X969Y18972D01*
X995Y18963D01*
X1020Y18955D01*
X1047Y18949D01*
X1074Y18946D01*
X1102Y18945D01*
Y18745D01*
X1074Y18744D01*
X1047Y18741D01*
X1020Y18735D01*
X995Y18727D01*
X969Y18718D01*
X945Y18705D01*
X921Y18691D01*
X898Y18675D01*
X875Y18656D01*
X853Y18635D01*
Y19055D01*
X875Y19034D01*
D02*
G37*
G36*
X17981Y18657D02*
X17964Y18650D01*
X17949Y18640D01*
X17936Y18625D01*
X17925Y18607D01*
X17916Y18584D01*
X17909Y18557D01*
X17904Y18526D01*
X17901Y18490D01*
X17900Y18451D01*
X17700D01*
X17699Y18490D01*
X17696Y18526D01*
X17691Y18557D01*
X17684Y18584D01*
X17675Y18607D01*
X17664Y18625D01*
X17651Y18640D01*
X17636Y18650D01*
X17619Y18657D01*
X17601Y18659D01*
X17999Y18659D01*
X17981Y18657D01*
D02*
G37*
G36*
X16981D02*
X16964Y18650D01*
X16949Y18640D01*
X16936Y18625D01*
X16925Y18607D01*
X16916Y18584D01*
X16909Y18557D01*
X16904Y18526D01*
X16901Y18490D01*
X16900Y18451D01*
X16700D01*
X16699Y18490D01*
X16696Y18526D01*
X16691Y18557D01*
X16684Y18584D01*
X16675Y18607D01*
X16664Y18625D01*
X16651Y18640D01*
X16636Y18650D01*
X16619Y18657D01*
X16601Y18659D01*
X16999Y18659D01*
X16981Y18657D01*
D02*
G37*
G36*
X9051Y18510D02*
X9054Y18474D01*
X9059Y18443D01*
X9066Y18416D01*
X9075Y18393D01*
X9086Y18375D01*
X9099Y18360D01*
X9114Y18350D01*
X9131Y18343D01*
X9149Y18341D01*
X8751D01*
X8769Y18343D01*
X8786Y18350D01*
X8801Y18360D01*
X8814Y18375D01*
X8825Y18393D01*
X8834Y18416D01*
X8841Y18443D01*
X8846Y18474D01*
X8849Y18510D01*
X8850Y18549D01*
X9050D01*
X9051Y18510D01*
D02*
G37*
G36*
X14662Y18301D02*
X14636Y18285D01*
X14612Y18268D01*
X14590Y18250D01*
X14570Y18231D01*
X14552Y18210D01*
X14536Y18189D01*
X14521Y18166D01*
X14509Y18142D01*
X14499Y18116D01*
X14490Y18090D01*
X14297Y18142D01*
X14304Y18170D01*
X14308Y18197D01*
X14309Y18224D01*
X14309Y18251D01*
X14306Y18278D01*
X14301Y18304D01*
X14293Y18331D01*
X14283Y18358D01*
X14271Y18385D01*
X14257Y18411D01*
X14662Y18301D01*
D02*
G37*
G36*
X17900Y18109D02*
X17909Y17997D01*
X17913Y17979D01*
X17918Y17965D01*
X17924Y17955D01*
X17930Y17949D01*
X17937Y17947D01*
X17663D01*
X17670Y17949D01*
X17676Y17955D01*
X17682Y17965D01*
X17687Y17979D01*
X17691Y17997D01*
X17694Y18019D01*
X17699Y18075D01*
X17700Y18147D01*
X17900D01*
X17900Y18109D01*
D02*
G37*
G36*
X16900D02*
X16909Y17997D01*
X16913Y17979D01*
X16918Y17965D01*
X16924Y17955D01*
X16930Y17949D01*
X16937Y17947D01*
X16663D01*
X16670Y17949D01*
X16676Y17955D01*
X16682Y17965D01*
X16687Y17979D01*
X16691Y17997D01*
X16694Y18019D01*
X16699Y18075D01*
X16700Y18147D01*
X16900D01*
X16900Y18109D01*
D02*
G37*
G36*
X16374Y18106D02*
X16403Y17996D01*
X16410Y17978D01*
X16417Y17965D01*
X16424Y17955D01*
X16431Y17949D01*
X16437Y17947D01*
X16163D01*
X16168Y17949D01*
X16172Y17955D01*
X16174Y17964D01*
X16175Y17978D01*
X16175Y17995D01*
X16173Y18016D01*
X16165Y18070D01*
X16152Y18140D01*
X16366Y18143D01*
X16374Y18106D01*
D02*
G37*
G36*
X15465Y18138D02*
X15462Y18101D01*
X15439Y17949D01*
X15437Y17947D01*
X15163D01*
X15179Y17949D01*
X15194Y17955D01*
X15208Y17965D01*
X15220Y17979D01*
X15231Y17997D01*
X15241Y18019D01*
X15249Y18045D01*
X15256Y18074D01*
X15261Y18108D01*
X15265Y18146D01*
X15465Y18138D01*
D02*
G37*
G36*
X14998Y18015D02*
X14993Y18002D01*
X14989Y17991D01*
X14983Y17980D01*
X14978Y17972D01*
X14972Y17964D01*
X14965Y17958D01*
X14959Y17953D01*
X14952Y17950D01*
X14945Y17948D01*
X14937Y17947D01*
X14663D01*
X14683Y17949D01*
X14703Y17955D01*
X14721Y17964D01*
X14739Y17977D01*
X14756Y17995D01*
X14772Y18016D01*
X14787Y18040D01*
X14801Y18069D01*
X14814Y18101D01*
X14827Y18137D01*
X14998Y18015D01*
D02*
G37*
G36*
X12444Y18077D02*
X12424Y18057D01*
X12407Y18036D01*
X12392Y18013D01*
X12379Y17990D01*
X12368Y17965D01*
X12359Y17939D01*
X12351Y17913D01*
X12346Y17885D01*
X12343Y17855D01*
X12342Y17825D01*
X12049Y18126D01*
X12080Y18127D01*
X12109Y18129D01*
X12137Y18133D01*
X12164Y18140D01*
X12190Y18148D01*
X12215Y18159D01*
X12239Y18171D01*
X12262Y18186D01*
X12283Y18202D01*
X12304Y18221D01*
X12444Y18077D01*
D02*
G37*
G36*
X19671Y17701D02*
X19642Y17703D01*
X19613Y17704D01*
X19584Y17702D01*
X19557Y17699D01*
X19529Y17694D01*
X19502Y17687D01*
X19475Y17679D01*
X19449Y17669D01*
X19423Y17657D01*
X19398Y17643D01*
X19267Y17799D01*
X19290Y17813D01*
X19311Y17829D01*
X19330Y17847D01*
X19347Y17867D01*
X19361Y17888D01*
X19374Y17912D01*
X19384Y17937D01*
X19392Y17964D01*
X19397Y17993D01*
X19401Y18023D01*
X19671Y17701D01*
D02*
G37*
G36*
X13826Y17908D02*
X13800Y17892D01*
X13776Y17875D01*
X13754Y17858D01*
X13734Y17838D01*
X13715Y17818D01*
X13699Y17797D01*
X13685Y17774D01*
X13672Y17750D01*
X13662Y17725D01*
X13653Y17698D01*
X13460Y17752D01*
X13467Y17779D01*
X13471Y17806D01*
X13473Y17833D01*
X13473Y17860D01*
X13470Y17887D01*
X13465Y17914D01*
X13458Y17941D01*
X13448Y17968D01*
X13436Y17995D01*
X13422Y18021D01*
X13826Y17908D01*
D02*
G37*
G36*
X12720Y17518D02*
X12710Y17492D01*
X12702Y17466D01*
X12696Y17439D01*
X12693Y17413D01*
X12692Y17385D01*
X12693Y17358D01*
X12697Y17331D01*
X12703Y17303D01*
X12711Y17274D01*
X12721Y17246D01*
X12336Y17415D01*
X12364Y17426D01*
X12391Y17439D01*
X12415Y17454D01*
X12438Y17470D01*
X12459Y17488D01*
X12478Y17507D01*
X12495Y17527D01*
X12511Y17550D01*
X12525Y17573D01*
X12537Y17598D01*
X12720Y17518D01*
D02*
G37*
G36*
X8681Y16902D02*
X8679Y16920D01*
X8672Y16937D01*
X8660Y16952D01*
X8644Y16965D01*
X8623Y16975D01*
X8598Y16984D01*
X8568Y16991D01*
X8534Y16996D01*
X8494Y16999D01*
X8462Y17000D01*
X8431Y16999D01*
X8391Y16996D01*
X8357Y16991D01*
X8327Y16984D01*
X8302Y16975D01*
X8281Y16965D01*
X8265Y16952D01*
X8253Y16937D01*
X8246Y16920D01*
X8244Y16902D01*
Y17298D01*
X8246Y17280D01*
X8253Y17263D01*
X8265Y17248D01*
X8281Y17235D01*
X8302Y17225D01*
X8327Y17216D01*
X8357Y17209D01*
X8391Y17204D01*
X8431Y17201D01*
X8462Y17200D01*
X8494Y17201D01*
X8534Y17204D01*
X8568Y17209D01*
X8598Y17216D01*
X8623Y17225D01*
X8644Y17235D01*
X8660Y17248D01*
X8672Y17263D01*
X8679Y17280D01*
X8681Y17298D01*
Y16902D01*
D02*
G37*
G36*
X10606Y17385D02*
X10609Y17358D01*
X10615Y17332D01*
X10623Y17306D01*
X10634Y17281D01*
X10646Y17257D01*
X10661Y17233D01*
X10678Y17210D01*
X10697Y17188D01*
X10718Y17166D01*
X10298Y17159D01*
X10319Y17181D01*
X10337Y17204D01*
X10353Y17228D01*
X10367Y17252D01*
X10379Y17277D01*
X10388Y17302D01*
X10396Y17328D01*
X10401Y17355D01*
X10403Y17382D01*
X10404Y17410D01*
X10604Y17413D01*
X10606Y17385D01*
D02*
G37*
G36*
X14401Y17049D02*
X14404Y17015D01*
X14409Y16985D01*
X14416Y16959D01*
X14424Y16937D01*
X14435Y16919D01*
X14448Y16905D01*
X14462Y16895D01*
X14479Y16889D01*
X14497Y16887D01*
X14100Y16884D01*
X14119Y16886D01*
X14136Y16892D01*
X14151Y16903D01*
X14164Y16917D01*
X14175Y16935D01*
X14184Y16957D01*
X14191Y16984D01*
X14196Y17014D01*
X14199Y17049D01*
X14200Y17087D01*
X14400D01*
X14401Y17049D01*
D02*
G37*
G36*
X3496Y17231D02*
X3502Y17214D01*
X3512Y17199D01*
X3526Y17186D01*
X3545Y17175D01*
X3567Y17166D01*
X3593Y17159D01*
X3624Y17154D01*
X3658Y17151D01*
X3697Y17150D01*
Y16950D01*
X3658Y16949D01*
X3624Y16946D01*
X3593Y16941D01*
X3567Y16934D01*
X3545Y16925D01*
X3526Y16914D01*
X3512Y16901D01*
X3502Y16886D01*
X3496Y16869D01*
X3494Y16850D01*
Y17250D01*
X3496Y17231D01*
D02*
G37*
G36*
X1306Y16845D02*
X1304Y16864D01*
X1298Y16881D01*
X1288Y16896D01*
X1274Y16909D01*
X1255Y16920D01*
X1233Y16929D01*
X1207Y16936D01*
X1176Y16941D01*
X1142Y16944D01*
X1103Y16945D01*
Y17145D01*
X1142Y17146D01*
X1176Y17149D01*
X1207Y17154D01*
X1233Y17161D01*
X1255Y17170D01*
X1274Y17181D01*
X1288Y17194D01*
X1298Y17209D01*
X1304Y17226D01*
X1306Y17245D01*
Y16845D01*
D02*
G37*
G36*
X875Y17234D02*
X898Y17215D01*
X921Y17199D01*
X945Y17185D01*
X969Y17173D01*
X995Y17163D01*
X1020Y17155D01*
X1047Y17149D01*
X1074Y17146D01*
X1102Y17145D01*
Y16945D01*
X1074Y16944D01*
X1047Y16941D01*
X1020Y16935D01*
X995Y16927D01*
X969Y16917D01*
X945Y16905D01*
X921Y16891D01*
X898Y16875D01*
X875Y16856D01*
X853Y16835D01*
Y17255D01*
X875Y17234D01*
D02*
G37*
G36*
X20695Y16441D02*
X20679Y16466D01*
X20661Y16490D01*
X20641Y16511D01*
X20621Y16530D01*
X20600Y16547D01*
X20577Y16562D01*
X20554Y16575D01*
X20529Y16586D01*
X20503Y16595D01*
X20476Y16602D01*
X20520Y16798D01*
X20547Y16793D01*
X20574Y16790D01*
X20601Y16790D01*
X20628Y16792D01*
X20655Y16796D01*
X20682Y16802D01*
X20708Y16811D01*
X20734Y16822D01*
X20760Y16836D01*
X20786Y16851D01*
X20695Y16441D01*
D02*
G37*
G36*
X19499Y16880D02*
X19505Y16874D01*
X19515Y16868D01*
X19529Y16863D01*
X19547Y16859D01*
X19569Y16856D01*
X19625Y16851D01*
X19697Y16850D01*
Y16650D01*
X19659Y16650D01*
X19547Y16641D01*
X19529Y16637D01*
X19515Y16632D01*
X19505Y16626D01*
X19499Y16620D01*
X19497Y16613D01*
Y16887D01*
X19499Y16880D01*
D02*
G37*
G36*
X10049Y16690D02*
X10050Y16663D01*
X10053Y16636D01*
X10058Y16610D01*
X10064Y16583D01*
X10072Y16557D01*
X10083Y16530D01*
X10095Y16504D01*
X10109Y16478D01*
X10125Y16453D01*
X10142Y16427D01*
X9728Y16496D01*
X9751Y16513D01*
X9772Y16532D01*
X9790Y16552D01*
X9806Y16573D01*
X9819Y16596D01*
X9830Y16619D01*
X9838Y16644D01*
X9844Y16670D01*
X9848Y16697D01*
X9849Y16726D01*
X10049Y16690D01*
D02*
G37*
G36*
X13602Y16464D02*
X13753Y16389D01*
X13772Y16383D01*
X13787Y16380D01*
X13797Y16381D01*
X13804Y16384D01*
X13606Y16189D01*
X13609Y16195D01*
X13608Y16202D01*
X13602Y16212D01*
X13591Y16223D01*
X13576Y16237D01*
X13557Y16252D01*
X13505Y16287D01*
X13435Y16330D01*
X13560Y16488D01*
X13602Y16464D01*
D02*
G37*
G36*
X19499Y16380D02*
X19505Y16374D01*
X19515Y16368D01*
X19529Y16363D01*
X19547Y16359D01*
X19569Y16356D01*
X19625Y16351D01*
X19697Y16350D01*
Y16150D01*
X19659Y16150D01*
X19547Y16141D01*
X19529Y16137D01*
X19515Y16132D01*
X19505Y16126D01*
X19499Y16120D01*
X19497Y16113D01*
Y16387D01*
X19499Y16380D01*
D02*
G37*
G36*
X20012Y16015D02*
X20005Y16040D01*
X19986Y16127D01*
X19985Y16136D01*
X19986Y16142D01*
X19988Y16146D01*
X19991Y16147D01*
X20092Y16330D01*
X20088Y16332D01*
X20087Y16335D01*
X20089Y16339D01*
X20096Y16343D01*
X20105Y16348D01*
X20119Y16354D01*
X20157Y16369D01*
X20209Y16386D01*
X20012Y16015D01*
D02*
G37*
G36*
X13518Y15910D02*
X13635Y15888D01*
X13623Y15887D01*
X13603Y15887D01*
X13606Y15656D01*
X13604Y15664D01*
X13600Y15672D01*
X13592Y15679D01*
X13581Y15686D01*
X13567Y15692D01*
X13549Y15698D01*
X13529Y15704D01*
X13506Y15708D01*
X13450Y15717D01*
X13472Y15915D01*
X13518Y15910D01*
D02*
G37*
G36*
X19499Y15868D02*
X19505Y15850D01*
X19514Y15834D01*
X19528Y15818D01*
X19546Y15803D01*
X19567Y15789D01*
X19592Y15777D01*
X19622Y15765D01*
X19655Y15754D01*
X19692Y15745D01*
X19669Y15545D01*
X19636Y15553D01*
X19540Y15582D01*
X19525Y15589D01*
X19512Y15595D01*
X19504Y15601D01*
X19499Y15607D01*
X19497Y15613D01*
Y15887D01*
X19499Y15868D01*
D02*
G37*
G36*
X20694Y15194D02*
X20677Y15219D01*
X20659Y15243D01*
X20641Y15264D01*
X20621Y15283D01*
X20599Y15301D01*
X20577Y15316D01*
X20554Y15329D01*
X20529Y15341D01*
X20503Y15350D01*
X20477Y15357D01*
X20522Y15552D01*
X20549Y15547D01*
X20576Y15544D01*
X20603Y15543D01*
X20630Y15545D01*
X20657Y15549D01*
X20684Y15555D01*
X20710Y15564D01*
X20737Y15575D01*
X20763Y15588D01*
X20789Y15603D01*
X20694Y15194D01*
D02*
G37*
G36*
X12121Y15636D02*
X12183Y15566D01*
X12211Y15541D01*
X12236Y15521D01*
X12260Y15508D01*
X12281Y15501D01*
X12300Y15500D01*
X12317Y15505D01*
X12332Y15516D01*
X12054Y15227D01*
X12065Y15243D01*
X12071Y15263D01*
X12071Y15287D01*
X12067Y15314D01*
X12057Y15345D01*
X12042Y15379D01*
X12022Y15418D01*
X11997Y15460D01*
X11931Y15555D01*
X12087Y15680D01*
X12121Y15636D01*
D02*
G37*
G36*
X13591Y15430D02*
X13656Y15406D01*
X13664Y15400D01*
X13665Y15395D01*
X13660Y15392D01*
X13648Y15389D01*
X13629Y15387D01*
X13603Y15387D01*
X13606Y15116D01*
X13604Y15136D01*
X13598Y15155D01*
X13588Y15173D01*
X13574Y15191D01*
X13557Y15207D01*
X13535Y15222D01*
X13510Y15236D01*
X13480Y15249D01*
X13447Y15262D01*
X13410Y15273D01*
X13556Y15440D01*
X13591Y15430D01*
D02*
G37*
G36*
X12548Y15375D02*
X12554Y15358D01*
X12563Y15343D01*
X12577Y15330D01*
X12596Y15319D01*
X12618Y15310D01*
X12645Y15303D01*
X12675Y15298D01*
X12710Y15295D01*
X12749Y15294D01*
Y15094D01*
X12709Y15093D01*
X12673Y15090D01*
X12641Y15085D01*
X12614Y15079D01*
X12590Y15070D01*
X12571Y15059D01*
X12556Y15046D01*
X12545Y15031D01*
X12538Y15015D01*
X12535Y14996D01*
X12546Y15394D01*
X12548Y15375D01*
D02*
G37*
G36*
X11074Y14982D02*
X11071Y15000D01*
X11064Y15016D01*
X11052Y15029D01*
X11037Y15039D01*
X11017Y15047D01*
X10992Y15052D01*
X10964Y15054D01*
X10931Y15054D01*
X10894Y15051D01*
X10853Y15045D01*
Y15248D01*
X10892Y15255D01*
X10927Y15264D01*
X10958Y15274D01*
X10984Y15286D01*
X11006Y15298D01*
X11024Y15312D01*
X11038Y15328D01*
X11047Y15344D01*
X11053Y15362D01*
X11054Y15382D01*
X11074Y14982D01*
D02*
G37*
G36*
X13485Y14936D02*
X13608Y14888D01*
X13603Y14887D01*
Y14613D01*
X13601Y14628D01*
X13595Y14642D01*
X13586Y14656D01*
X13572Y14670D01*
X13555Y14683D01*
X13534Y14696D01*
X13509Y14709D01*
X13480Y14722D01*
X13412Y14747D01*
X13449Y14947D01*
X13485Y14936D01*
D02*
G37*
G36*
X11932Y14189D02*
X11910Y14209D01*
X11888Y14228D01*
X11864Y14244D01*
X11840Y14259D01*
X11816Y14271D01*
X11790Y14280D01*
X11764Y14288D01*
X11738Y14293D01*
X11711Y14296D01*
X11683Y14297D01*
X11682Y14497D01*
X11710Y14499D01*
X11737Y14502D01*
X11763Y14508D01*
X11789Y14516D01*
X11814Y14526D01*
X11839Y14538D01*
X11862Y14552D01*
X11885Y14569D01*
X11908Y14588D01*
X11930Y14609D01*
X11932Y14189D01*
D02*
G37*
G36*
X12384Y14586D02*
X12406Y14567D01*
X12429Y14550D01*
X12453Y14536D01*
X12477Y14524D01*
X12502Y14514D01*
X12528Y14506D01*
X12554Y14500D01*
X12582Y14497D01*
X12609Y14495D01*
X12607Y14295D01*
X12579Y14294D01*
X12552Y14291D01*
X12525Y14286D01*
X12499Y14278D01*
X12474Y14269D01*
X12449Y14257D01*
X12425Y14243D01*
X12402Y14226D01*
X12379Y14208D01*
X12357Y14187D01*
X12362Y14607D01*
X12384Y14586D01*
D02*
G37*
G36*
X13476Y14419D02*
X13636Y14389D01*
X13624Y14387D01*
X13603Y14387D01*
Y14113D01*
X13601Y14130D01*
X13595Y14146D01*
X13585Y14160D01*
X13571Y14174D01*
X13553Y14186D01*
X13532Y14197D01*
X13506Y14206D01*
X13476Y14214D01*
X13442Y14221D01*
X13405Y14227D01*
X13417Y14427D01*
X13476Y14419D01*
D02*
G37*
G36*
X24671Y13846D02*
X24671Y13845D01*
X24680Y13804D01*
X24704Y13767D01*
X24723Y13556D01*
X24605Y13450D01*
X24575Y13456D01*
X24565D01*
Y13249D01*
X24581Y13243D01*
X24599Y13241D01*
X24565D01*
Y13000D01*
X24235D01*
Y13241D01*
X24201D01*
X24219Y13243D01*
X24235Y13249D01*
Y13456D01*
X24225D01*
X24098Y13431D01*
X23991Y13359D01*
X23919Y13252D01*
X23894Y13125D01*
Y12950D01*
X21850D01*
Y11894D01*
X21760Y11848D01*
X21650Y11915D01*
Y12950D01*
X21620D01*
X21567Y13077D01*
X21610Y13120D01*
X21638Y13168D01*
X21657Y13189D01*
X24094Y13863D01*
X24111Y13850D01*
Y13850D01*
X24180Y13879D01*
X24621D01*
X24671Y13846D01*
D02*
G37*
G36*
X12183Y13392D02*
X12162Y13414D01*
X12139Y13433D01*
X12116Y13449D01*
X12093Y13464D01*
X12068Y13476D01*
X12043Y13486D01*
X12017Y13494D01*
X12004Y13497D01*
X11993Y13496D01*
X11967Y13489D01*
X11945Y13480D01*
X11926Y13469D01*
X11912Y13456D01*
X11902Y13442D01*
X11896Y13425D01*
X11894Y13406D01*
Y13806D01*
X11896Y13787D01*
X11902Y13770D01*
X11912Y13754D01*
X11926Y13741D01*
X11945Y13730D01*
X11967Y13721D01*
X11993Y13714D01*
X12006Y13711D01*
X12020Y13714D01*
X12046Y13722D01*
X12071Y13731D01*
X12096Y13743D01*
X12120Y13757D01*
X12143Y13773D01*
X12166Y13792D01*
X12188Y13812D01*
X12183Y13392D01*
D02*
G37*
G36*
X28387Y14099D02*
X28353Y14087D01*
X28323Y14067D01*
X28297Y14039D01*
X28275Y14003D01*
X28257Y13959D01*
X28243Y13907D01*
X28233Y13847D01*
X28227Y13779D01*
X28225Y13703D01*
X27825D01*
X27823Y13779D01*
X27817Y13847D01*
X27807Y13907D01*
X27793Y13959D01*
X27775Y14003D01*
X27753Y14039D01*
X27727Y14067D01*
X27697Y14087D01*
X27663Y14099D01*
X27625Y14103D01*
X28425D01*
X28387Y14099D01*
D02*
G37*
G36*
X13603Y13613D02*
X13601Y13611D01*
X13595Y13608D01*
X13586Y13606D01*
X13573Y13603D01*
X13510Y13595D01*
X13412Y13585D01*
X13404Y13785D01*
X13442Y13789D01*
X13505Y13802D01*
X13531Y13810D01*
X13553Y13819D01*
X13571Y13830D01*
X13585Y13842D01*
X13595Y13856D01*
X13601Y13871D01*
X13603Y13887D01*
Y13613D01*
D02*
G37*
G36*
X19499Y13869D02*
X19505Y13851D01*
X19514Y13833D01*
X19527Y13816D01*
X19544Y13800D01*
X19565Y13784D01*
X19590Y13768D01*
X19618Y13753D01*
X19650Y13738D01*
X19686Y13724D01*
X19569Y13555D01*
X19555Y13561D01*
X19532Y13572D01*
X19523Y13577D01*
X19515Y13583D01*
X19508Y13589D01*
X19503Y13595D01*
X19500Y13601D01*
X19498Y13607D01*
X19497Y13613D01*
Y13887D01*
X19499Y13869D01*
D02*
G37*
G36*
X8556Y13240D02*
X8461Y13134D01*
X8238Y12913D01*
X8183Y12871D01*
X8138Y12845D01*
X8103Y12836D01*
X8079Y12842D01*
X8064Y12865D01*
X8059Y12903D01*
X7522Y13494D01*
X7566Y13455D01*
X7614Y13430D01*
X7666Y13419D01*
X7722Y13422D01*
X7782Y13439D01*
X7847Y13470D01*
X7915Y13515D01*
X7987Y13574D01*
X8064Y13648D01*
X8144Y13735D01*
X8556Y13240D01*
D02*
G37*
G36*
X12619Y13808D02*
X12643Y13792D01*
X12668Y13777D01*
X12693Y13765D01*
X12718Y13755D01*
X12744Y13747D01*
X12771Y13742D01*
X12798Y13738D01*
X12825Y13737D01*
X12853Y13739D01*
X12870Y13539D01*
X12842Y13536D01*
X12815Y13530D01*
X12789Y13523D01*
X12764Y13513D01*
X12740Y13501D01*
X12716Y13487D01*
X12694Y13470D01*
X12672Y13452D01*
X12651Y13431D01*
X12631Y13409D01*
X12596Y13827D01*
X12619Y13808D01*
D02*
G37*
G36*
X21227Y13795D02*
X21254Y13783D01*
X21281Y13773D01*
X21308Y13766D01*
X21334Y13761D01*
X21361Y13758D01*
X21388Y13758D01*
X21415Y13759D01*
X21442Y13763D01*
X21469Y13770D01*
X21523Y13577D01*
X21496Y13568D01*
X21471Y13558D01*
X21447Y13546D01*
X21424Y13531D01*
X21402Y13515D01*
X21382Y13497D01*
X21363Y13477D01*
X21345Y13455D01*
X21328Y13431D01*
X21312Y13405D01*
X21201Y13810D01*
X21227Y13795D01*
D02*
G37*
G36*
X10202Y13869D02*
X10211Y13841D01*
X10222Y13816D01*
X10235Y13794D01*
X10250Y13774D01*
X10268Y13756D01*
X10281Y13746D01*
X10310Y13744D01*
X10336Y13745D01*
X10357Y13749D01*
X10375Y13755D01*
X10389Y13765D01*
X10398Y13777D01*
X10404Y13793D01*
X10406Y13811D01*
Y13401D01*
X10404Y13420D01*
X10398Y13438D01*
X10388Y13455D01*
X10374Y13472D01*
X10357Y13487D01*
X10335Y13501D01*
X10309Y13514D01*
X10279Y13526D01*
X10245Y13537D01*
X10239Y13539D01*
X10238Y13538D01*
X10209Y13546D01*
X10151Y13557D01*
X10122Y13561D01*
X10065Y13565D01*
X10038Y13564D01*
X9983Y13560D01*
X9956Y13555D01*
X10196Y13900D01*
X10202Y13869D01*
D02*
G37*
G36*
X19994Y13559D02*
X20019Y13545D01*
X20045Y13534D01*
X20071Y13524D01*
X20097Y13515D01*
X20124Y13509D01*
X20152Y13504D01*
X20180Y13501D01*
X20209Y13499D01*
X20238Y13500D01*
X19950Y13194D01*
X19948Y13225D01*
X19944Y13254D01*
X19938Y13281D01*
X19929Y13307D01*
X19918Y13331D01*
X19905Y13354D01*
X19890Y13374D01*
X19872Y13393D01*
X19852Y13411D01*
X19829Y13426D01*
X19969Y13574D01*
X19994Y13559D01*
D02*
G37*
G36*
X9178Y13377D02*
X9183Y13350D01*
X9191Y13324D01*
X9200Y13299D01*
X9211Y13274D01*
X9225Y13250D01*
X9240Y13227D01*
X9258Y13205D01*
X9278Y13184D01*
X9301Y13163D01*
X8881Y13138D01*
X8901Y13161D01*
X8918Y13184D01*
X8933Y13209D01*
X8946Y13233D01*
X8957Y13258D01*
X8965Y13284D01*
X8971Y13311D01*
X8975Y13337D01*
X8977Y13365D01*
X8976Y13392D01*
X9176Y13405D01*
X9178Y13377D01*
D02*
G37*
G36*
X11827Y13301D02*
X11811Y13296D01*
X11799Y13287D01*
X11790Y13274D01*
X11785Y13257D01*
X11784Y13237D01*
X11787Y13213D01*
X11794Y13186D01*
X11804Y13155D01*
X11818Y13120D01*
X11617Y13080D01*
X11598Y13122D01*
X11558Y13194D01*
X11537Y13223D01*
X11517Y13247D01*
X11496Y13267D01*
X11475Y13283D01*
X11454Y13294D01*
X11432Y13301D01*
X11410Y13303D01*
X11847D01*
X11827Y13301D01*
D02*
G37*
G36*
X13603Y13113D02*
X13602Y13105D01*
X13600Y13098D01*
X13597Y13091D01*
X13593Y13084D01*
X13587Y13077D01*
X13580Y13072D01*
X13572Y13066D01*
X13562Y13061D01*
X13551Y13056D01*
X13539Y13052D01*
X13413Y13221D01*
X13449Y13234D01*
X13481Y13248D01*
X13510Y13262D01*
X13535Y13277D01*
X13555Y13293D01*
X13573Y13310D01*
X13586Y13328D01*
X13595Y13347D01*
X13601Y13367D01*
X13603Y13387D01*
Y13113D01*
D02*
G37*
G36*
X12829Y12824D02*
X12809Y12818D01*
X12727Y12786D01*
X12724Y12783D01*
X12723Y12781D01*
X12657Y12989D01*
X12659Y12988D01*
X12663Y12988D01*
X12669Y12988D01*
X12678Y12990D01*
X12700Y12995D01*
X12749Y13009D01*
X12769Y13015D01*
X12829Y12824D01*
D02*
G37*
G36*
X19231Y13114D02*
X19214Y13108D01*
X19199Y13098D01*
X19186Y13084D01*
X19175Y13065D01*
X19166Y13043D01*
X19159Y13017D01*
X19154Y12986D01*
X19151Y12952D01*
X19150Y12913D01*
X18950D01*
X18949Y12952D01*
X18946Y12986D01*
X18941Y13017D01*
X18934Y13043D01*
X18925Y13065D01*
X18914Y13084D01*
X18901Y13098D01*
X18886Y13108D01*
X18869Y13114D01*
X18850Y13116D01*
X19250D01*
X19231Y13114D01*
D02*
G37*
G36*
X19250Y12651D02*
X19273Y12649D01*
X18951Y12379D01*
X18954Y12408D01*
X18959Y12558D01*
X18958Y12566D01*
X19150Y12633D01*
X19151Y12638D01*
X19155Y12642D01*
X19161Y12645D01*
X19170Y12648D01*
X19181Y12650D01*
X19194Y12651D01*
X19210Y12652D01*
X19250Y12651D01*
D02*
G37*
G36*
X14666Y12300D02*
X14664Y12319D01*
X14658Y12336D01*
X14648Y12351D01*
X14634Y12364D01*
X14615Y12375D01*
X14593Y12384D01*
X14567Y12391D01*
X14536Y12396D01*
X14502Y12399D01*
X14463Y12400D01*
Y12600D01*
X14502Y12601D01*
X14536Y12604D01*
X14567Y12609D01*
X14593Y12616D01*
X14615Y12625D01*
X14634Y12636D01*
X14648Y12649D01*
X14658Y12664D01*
X14664Y12681D01*
X14666Y12700D01*
Y12300D01*
D02*
G37*
G36*
X13377Y12672D02*
X13401Y12655D01*
X13425Y12640D01*
X13450Y12627D01*
X13475Y12616D01*
X13501Y12608D01*
X13527Y12601D01*
X13554Y12597D01*
X13581Y12596D01*
X13609Y12596D01*
X13620Y12396D01*
X13592Y12394D01*
X13565Y12389D01*
X13539Y12382D01*
X13514Y12373D01*
X13489Y12362D01*
X13465Y12348D01*
X13442Y12332D01*
X13420Y12315D01*
X13399Y12295D01*
X13378Y12273D01*
X13354Y12692D01*
X13377Y12672D01*
D02*
G37*
G36*
X9871Y12678D02*
X9979Y12616D01*
X9979Y12616D01*
X9979Y12616D01*
X10088Y12557D01*
X11358Y11763D01*
X11357Y11761D01*
X11361Y11754D01*
X11389Y11636D01*
X11343Y11547D01*
X11278Y11530D01*
X11118Y11438D01*
X10988Y11307D01*
X10896Y11148D01*
X10848Y10970D01*
Y10785D01*
X10896Y10607D01*
X10972Y10475D01*
X10957Y10375D01*
X10950Y10358D01*
X10855Y10288D01*
Y10288D01*
X10740Y10260D01*
X9393D01*
X9390Y10260D01*
X9386Y10261D01*
X9383Y10262D01*
X9380Y10264D01*
X9377Y10266D01*
X9375Y10267D01*
X9209Y10433D01*
X9258Y10550D01*
X9750D01*
Y10750D01*
X9935D01*
Y11250D01*
Y11750D01*
X9750D01*
Y11950D01*
X8462D01*
Y12409D01*
X8589Y12462D01*
X8674Y12376D01*
X8834Y12284D01*
X9012Y12237D01*
X9196D01*
X9374Y12284D01*
X9534Y12376D01*
X9664Y12507D01*
X9756Y12666D01*
X9834Y12699D01*
X9871Y12678D01*
D02*
G37*
G36*
X15161Y12085D02*
X15162Y12073D01*
X15163Y12053D01*
X15437D01*
X15418Y12051D01*
X15401Y12045D01*
X15384Y12035D01*
X15369Y12022D01*
X15355Y12004D01*
X15342Y11983D01*
X15329Y11957D01*
X15318Y11928D01*
X15308Y11895D01*
X15299Y11858D01*
X15099Y11879D01*
X15112Y11934D01*
X15153Y12084D01*
X15157Y12088D01*
X15161Y12085D01*
D02*
G37*
G36*
X17439Y12051D02*
X17440Y12045D01*
X17442Y12035D01*
X17445Y12004D01*
X17454Y11858D01*
X17254Y11853D01*
X17251Y11891D01*
X17242Y11955D01*
X17235Y11981D01*
X17226Y12003D01*
X17217Y12021D01*
X17205Y12035D01*
X17193Y12045D01*
X17179Y12051D01*
X17163Y12053D01*
X17437D01*
X17439Y12051D01*
D02*
G37*
G36*
X16425Y12051D02*
X16415Y12045D01*
X16405Y12035D01*
X16397Y12021D01*
X16390Y12003D01*
X16385Y11981D01*
X16381Y11955D01*
X16377Y11925D01*
X16375Y11853D01*
X16175D01*
X16175Y11891D01*
X16165Y12051D01*
X16163Y12053D01*
X16437D01*
X16425Y12051D01*
D02*
G37*
G36*
X15930D02*
X15924Y12045D01*
X15918Y12035D01*
X15913Y12021D01*
X15909Y12003D01*
X15906Y11981D01*
X15901Y11925D01*
X15900Y11853D01*
X15700D01*
X15700Y11891D01*
X15691Y12003D01*
X15687Y12021D01*
X15682Y12035D01*
X15676Y12045D01*
X15670Y12051D01*
X15663Y12053D01*
X15937D01*
X15930Y12051D01*
D02*
G37*
G36*
X24131Y11802D02*
X24129Y11820D01*
X24122Y11837D01*
X24110Y11852D01*
X24094Y11865D01*
X24073Y11875D01*
X24048Y11884D01*
X24018Y11891D01*
X23984Y11896D01*
X23944Y11899D01*
X23901Y11900D01*
Y12100D01*
X23944Y12101D01*
X23984Y12104D01*
X24018Y12109D01*
X24048Y12116D01*
X24073Y12125D01*
X24094Y12135D01*
X24110Y12148D01*
X24122Y12163D01*
X24129Y12180D01*
X24131Y12198D01*
Y11802D01*
D02*
G37*
G36*
X23546Y12181D02*
X23552Y12164D01*
X23562Y12149D01*
X23576Y12136D01*
X23595Y12125D01*
X23617Y12116D01*
X23643Y12109D01*
X23674Y12104D01*
X23708Y12101D01*
X23747Y12100D01*
Y11900D01*
X23708Y11899D01*
X23674Y11896D01*
X23643Y11891D01*
X23617Y11884D01*
X23595Y11875D01*
X23576Y11864D01*
X23562Y11851D01*
X23552Y11836D01*
X23546Y11819D01*
X23544Y11800D01*
Y12200D01*
X23546Y12181D01*
D02*
G37*
G36*
X16938Y12051D02*
X16939Y12045D01*
X16939Y12035D01*
X16943Y11879D01*
X16944Y11879D01*
X16945Y11851D01*
X16949Y11824D01*
X16954Y11797D01*
X16962Y11772D01*
X16972Y11746D01*
X16984Y11721D01*
X16998Y11697D01*
X17015Y11674D01*
X17033Y11651D01*
X17054Y11628D01*
X16634Y11637D01*
X16655Y11658D01*
X16674Y11680D01*
X16691Y11703D01*
X16705Y11727D01*
X16717Y11751D01*
X16727Y11776D01*
X16734Y11802D01*
X16740Y11828D01*
X16743Y11855D01*
X16743Y11873D01*
X16743Y11891D01*
X16736Y11955D01*
X16730Y11981D01*
X16722Y12003D01*
X16714Y12021D01*
X16703Y12035D01*
X16691Y12045D01*
X16678Y12051D01*
X16663Y12053D01*
X16937D01*
X16938Y12051D01*
D02*
G37*
G36*
X24581Y11757D02*
X24564Y11750D01*
X24549Y11740D01*
X24536Y11725D01*
X24525Y11707D01*
X24516Y11684D01*
X24509Y11657D01*
X24504Y11626D01*
X24501Y11590D01*
X24500Y11551D01*
X24300D01*
X24299Y11590D01*
X24296Y11626D01*
X24291Y11657D01*
X24284Y11684D01*
X24275Y11707D01*
X24264Y11725D01*
X24251Y11740D01*
X24236Y11750D01*
X24219Y11757D01*
X24201Y11759D01*
X24599D01*
X24581Y11757D01*
D02*
G37*
G36*
X22624Y11456D02*
X22604Y11467D01*
X22579Y11473D01*
X22549Y11475D01*
X22515Y11472D01*
X22477Y11466D01*
X22433Y11454D01*
X22386Y11439D01*
X22276Y11395D01*
X22215Y11366D01*
X22073Y11519D01*
X22124Y11545D01*
X22205Y11593D01*
X22234Y11615D01*
X22256Y11636D01*
X22271Y11655D01*
X22278Y11672D01*
X22278Y11689D01*
X22271Y11704D01*
X22256Y11718D01*
X22624Y11456D01*
D02*
G37*
G36*
X13366Y11447D02*
X13348Y11424D01*
X13333Y11399D01*
X13321Y11375D01*
X13310Y11349D01*
X13302Y11324D01*
X13296Y11297D01*
X13293Y11270D01*
X13291Y11243D01*
X13292Y11215D01*
X13092Y11202D01*
X13089Y11229D01*
X13084Y11256D01*
X13077Y11282D01*
X13068Y11308D01*
X13056Y11332D01*
X13042Y11356D01*
X13026Y11379D01*
X13008Y11401D01*
X12988Y11422D01*
X12966Y11442D01*
X13385Y11471D01*
X13366Y11447D01*
D02*
G37*
G36*
X24501Y11308D02*
X24504Y11274D01*
X24509Y11243D01*
X24516Y11217D01*
X24525Y11195D01*
X24536Y11176D01*
X24549Y11162D01*
X24564Y11152D01*
X24581Y11146D01*
X24600Y11144D01*
X24200D01*
X24219Y11146D01*
X24236Y11152D01*
X24251Y11162D01*
X24264Y11176D01*
X24275Y11195D01*
X24284Y11217D01*
X24291Y11243D01*
X24296Y11274D01*
X24299Y11308D01*
X24300Y11347D01*
X24500D01*
X24501Y11308D01*
D02*
G37*
G36*
X28227Y11446D02*
X28233Y11378D01*
X28243Y11318D01*
X28257Y11266D01*
X28274Y11222D01*
X28296Y11186D01*
X28322Y11158D01*
X28351Y11138D01*
X28385Y11126D01*
X28422Y11122D01*
X27778D01*
X27787Y11126D01*
X27795Y11138D01*
X27802Y11158D01*
X27808Y11186D01*
X27813Y11222D01*
X27821Y11318D01*
X27825Y11522D01*
X28225D01*
X28227Y11446D01*
D02*
G37*
G36*
X8061Y11388D02*
X8067Y11380D01*
X8077Y11373D01*
X8091Y11367D01*
X8109Y11362D01*
X8131Y11358D01*
X8157Y11354D01*
X8221Y11350D01*
X8259Y11350D01*
Y11150D01*
X8221Y11150D01*
X8131Y11142D01*
X8109Y11138D01*
X8091Y11133D01*
X8077Y11127D01*
X8067Y11120D01*
X8061Y11112D01*
X8059Y11103D01*
Y11397D01*
X8061Y11388D01*
D02*
G37*
G36*
X8856Y11050D02*
X8854Y11069D01*
X8848Y11086D01*
X8838Y11101D01*
X8824Y11114D01*
X8805Y11125D01*
X8783Y11134D01*
X8757Y11141D01*
X8726Y11146D01*
X8692Y11149D01*
X8653Y11150D01*
Y11350D01*
X8692Y11351D01*
X8726Y11354D01*
X8757Y11359D01*
X8783Y11366D01*
X8805Y11375D01*
X8824Y11386D01*
X8838Y11399D01*
X8848Y11414D01*
X8854Y11431D01*
X8856Y11450D01*
Y11050D01*
D02*
G37*
G36*
X17436Y11155D02*
X17431Y11128D01*
X17428Y11101D01*
X17428Y11074D01*
X17430Y11047D01*
X17434Y11020D01*
X17441Y10993D01*
X17450Y10967D01*
X17461Y10941D01*
X17474Y10915D01*
X17490Y10889D01*
X17080Y10979D01*
X17105Y10996D01*
X17128Y11014D01*
X17149Y11033D01*
X17168Y11054D01*
X17185Y11075D01*
X17200Y11097D01*
X17214Y11121D01*
X17225Y11146D01*
X17234Y11172D01*
X17241Y11199D01*
X17436Y11155D01*
D02*
G37*
G36*
X25674Y11027D02*
X25647Y11013D01*
X25621Y10999D01*
X25598Y10982D01*
X25576Y10965D01*
X25557Y10946D01*
X25539Y10926D01*
X25523Y10904D01*
X25508Y10881D01*
X25496Y10857D01*
X25485Y10831D01*
X25298Y10899D01*
X25306Y10926D01*
X25312Y10953D01*
X25316Y10979D01*
X25318Y11006D01*
X25317Y11033D01*
X25314Y11061D01*
X25309Y11088D01*
X25301Y11115D01*
X25291Y11143D01*
X25279Y11171D01*
X25674Y11027D01*
D02*
G37*
G36*
X17066Y10479D02*
X16740Y10622D01*
X16781Y10831D01*
X16806Y10816D01*
X16830Y10805D01*
X16853Y10797D01*
X16874Y10794D01*
X16894Y10795D01*
X16912Y10800D01*
X16929Y10809D01*
X16945Y10822D01*
X16958Y10839D01*
X16971Y10861D01*
X17066Y10479D01*
D02*
G37*
G36*
X8061Y10891D02*
X8066Y10884D01*
X8075Y10875D01*
X8088Y10865D01*
X8104Y10853D01*
X8147Y10826D01*
X8239Y10775D01*
X8229Y10540D01*
X8206Y10552D01*
X8128Y10587D01*
X8111Y10593D01*
X8082Y10601D01*
X8070Y10602D01*
X8059Y10603D01*
Y10897D01*
X8061Y10891D01*
D02*
G37*
G36*
X11851Y10870D02*
X11856Y10841D01*
X11863Y10813D01*
X11872Y10787D01*
X11883Y10762D01*
X11896Y10738D01*
X11911Y10715D01*
X11927Y10694D01*
X11946Y10674D01*
X11966Y10655D01*
X11837Y10502D01*
X11815Y10520D01*
X11792Y10535D01*
X11769Y10547D01*
X11744Y10558D01*
X11718Y10567D01*
X11692Y10574D01*
X11664Y10578D01*
X11636Y10580D01*
X11607Y10581D01*
X11576Y10579D01*
X11847Y10900D01*
X11851Y10870D01*
D02*
G37*
G36*
X19096Y10603D02*
X19168Y10539D01*
X19200Y10516D01*
X19229Y10498D01*
X19255Y10487D01*
X19279Y10480D01*
X19300Y10480D01*
X19318Y10485D01*
X19333Y10496D01*
X19054Y10216D01*
X19065Y10231D01*
X19070Y10250D01*
X19070Y10271D01*
X19064Y10295D01*
X19053Y10323D01*
X19036Y10353D01*
X19013Y10386D01*
X18985Y10422D01*
X18912Y10504D01*
X19055Y10643D01*
X19096Y10603D01*
D02*
G37*
G36*
X14038Y10515D02*
X14032Y10486D01*
X14029Y10458D01*
X14028Y10430D01*
X14030Y10402D01*
X14033Y10376D01*
X14039Y10349D01*
X14047Y10323D01*
X14057Y10298D01*
X14070Y10273D01*
X13895Y10176D01*
X13881Y10200D01*
X13865Y10222D01*
X13847Y10243D01*
X13828Y10261D01*
X13807Y10279D01*
X13784Y10294D01*
X13760Y10308D01*
X13735Y10320D01*
X13707Y10331D01*
X13678Y10340D01*
X14045Y10544D01*
X14038Y10515D01*
D02*
G37*
G36*
X19543Y10381D02*
X19550Y10364D01*
X19560Y10349D01*
X19575Y10336D01*
X19593Y10325D01*
X19616Y10316D01*
X19643Y10309D01*
X19674Y10304D01*
X19710Y10301D01*
X19749Y10300D01*
Y10100D01*
X19710Y10099D01*
X19674Y10096D01*
X19643Y10091D01*
X19616Y10084D01*
X19593Y10075D01*
X19575Y10064D01*
X19560Y10051D01*
X19550Y10036D01*
X19543Y10019D01*
X19541Y10001D01*
Y10399D01*
X19543Y10381D01*
D02*
G37*
G36*
X18059Y10001D02*
X18057Y10019D01*
X18050Y10036D01*
X18040Y10051D01*
X18025Y10064D01*
X18007Y10075D01*
X17984Y10084D01*
X17957Y10091D01*
X17926Y10096D01*
X17890Y10099D01*
X17851Y10100D01*
Y10300D01*
X17890Y10301D01*
X17926Y10304D01*
X17957Y10309D01*
X17984Y10316D01*
X18007Y10325D01*
X18025Y10336D01*
X18040Y10349D01*
X18050Y10364D01*
X18057Y10381D01*
X18059Y10399D01*
X18059Y10001D01*
D02*
G37*
G36*
X19956Y10000D02*
X19954Y10019D01*
X19948Y10036D01*
X19938Y10051D01*
X19924Y10064D01*
X19905Y10075D01*
X19883Y10084D01*
X19857Y10091D01*
X19826Y10096D01*
X19792Y10099D01*
X19753Y10100D01*
Y10300D01*
X19792Y10301D01*
X19826Y10304D01*
X19857Y10309D01*
X19883Y10316D01*
X19905Y10325D01*
X19924Y10336D01*
X19938Y10349D01*
X19948Y10364D01*
X19954Y10381D01*
X19956Y10400D01*
Y10000D01*
D02*
G37*
G36*
X30181Y10176D02*
X30164Y10170D01*
X30149Y10160D01*
X30136Y10146D01*
X30125Y10128D01*
X30116Y10106D01*
X30109Y10080D01*
X30104Y10050D01*
X30101Y10016D01*
X30100Y9978D01*
X29900D01*
X29899Y10016D01*
X29896Y10050D01*
X29891Y10080D01*
X29884Y10106D01*
X29875Y10128D01*
X29864Y10146D01*
X29851Y10160D01*
X29836Y10170D01*
X29819Y10176D01*
X29800Y10178D01*
X30200D01*
X30181Y10176D01*
D02*
G37*
G36*
X11557Y9809D02*
X11528Y9819D01*
X11500Y9827D01*
X11472Y9833D01*
X11445Y9837D01*
X11417Y9838D01*
X11390Y9837D01*
X11364Y9834D01*
X11337Y9828D01*
X11311Y9820D01*
X11285Y9810D01*
X11205Y9993D01*
X11230Y10006D01*
X11254Y10019D01*
X11276Y10035D01*
X11296Y10052D01*
X11315Y10072D01*
X11333Y10093D01*
X11349Y10115D01*
X11364Y10140D01*
X11377Y10166D01*
X11389Y10194D01*
X11557Y9809D01*
D02*
G37*
G36*
X21246Y10087D02*
X21251Y10066D01*
X21260Y10045D01*
X21273Y10024D01*
X21290Y10004D01*
X21310Y9985D01*
X21334Y9965D01*
X21361Y9947D01*
X21392Y9928D01*
X21427Y9910D01*
Y9688D01*
X21392Y9704D01*
X21361Y9715D01*
X21334Y9723D01*
X21310Y9727D01*
X21290Y9726D01*
X21273Y9722D01*
X21260Y9714D01*
X21251Y9701D01*
X21246Y9685D01*
X21244Y9664D01*
Y10109D01*
X21246Y10087D01*
D02*
G37*
G36*
X24439Y9653D02*
X24420Y9664D01*
X24397Y9671D01*
X24369Y9673D01*
X24337Y9670D01*
X24301Y9663D01*
X24261Y9651D01*
X24216Y9634D01*
X24167Y9613D01*
X24056Y9557D01*
X23928Y9715D01*
X23976Y9742D01*
X24052Y9793D01*
X24080Y9817D01*
X24101Y9838D01*
X24115Y9859D01*
X24123Y9877D01*
X24123Y9895D01*
X24116Y9911D01*
X24103Y9925D01*
X24439Y9653D01*
D02*
G37*
G36*
X9100Y9965D02*
X9130Y9941D01*
X9161Y9919D01*
X9193Y9901D01*
X9227Y9885D01*
X9262Y9873D01*
X9298Y9863D01*
X9335Y9856D01*
X9373Y9851D01*
X9412Y9850D01*
X9171Y9650D01*
X8971D01*
X8729Y9850D01*
X8766Y9851D01*
X8796Y9856D01*
X8819Y9863D01*
X8835Y9873D01*
X8844Y9885D01*
X8847Y9901D01*
X8842Y9919D01*
X8831Y9941D01*
X8813Y9965D01*
X8788Y9991D01*
X9071D01*
X9100Y9965D01*
D02*
G37*
G36*
X8061Y9888D02*
X8067Y9880D01*
X8077Y9873D01*
X8091Y9867D01*
X8109Y9862D01*
X8131Y9858D01*
X8157Y9854D01*
X8221Y9850D01*
X8259Y9850D01*
Y9650D01*
X8221Y9650D01*
X8131Y9642D01*
X8109Y9638D01*
X8091Y9633D01*
X8077Y9627D01*
X8067Y9620D01*
X8061Y9612D01*
X8059Y9603D01*
Y9897D01*
X8061Y9888D01*
D02*
G37*
G36*
X4701Y9385D02*
X4704Y9358D01*
X4710Y9331D01*
X4718Y9305D01*
X4727Y9280D01*
X4740Y9256D01*
X4754Y9232D01*
X4770Y9209D01*
X4789Y9186D01*
X4810Y9164D01*
X4390D01*
X4411Y9186D01*
X4430Y9209D01*
X4446Y9232D01*
X4460Y9256D01*
X4472Y9280D01*
X4482Y9305D01*
X4490Y9331D01*
X4496Y9358D01*
X4499Y9385D01*
X4500Y9413D01*
X4700D01*
X4701Y9385D01*
D02*
G37*
G36*
X8061Y9388D02*
X8067Y9380D01*
X8077Y9373D01*
X8091Y9367D01*
X8109Y9362D01*
X8131Y9358D01*
X8157Y9354D01*
X8221Y9350D01*
X8259Y9350D01*
Y9150D01*
X8221Y9150D01*
X8131Y9142D01*
X8109Y9138D01*
X8091Y9133D01*
X8077Y9127D01*
X8067Y9120D01*
X8061Y9112D01*
X8059Y9103D01*
Y9397D01*
X8061Y9388D01*
D02*
G37*
G36*
X5401Y8885D02*
X5404Y8858D01*
X5410Y8831D01*
X5418Y8805D01*
X5427Y8780D01*
X5440Y8756D01*
X5454Y8732D01*
X5470Y8709D01*
X5489Y8686D01*
X5510Y8664D01*
X5090D01*
X5111Y8686D01*
X5130Y8709D01*
X5146Y8732D01*
X5160Y8756D01*
X5173Y8780D01*
X5182Y8805D01*
X5190Y8831D01*
X5196Y8858D01*
X5199Y8885D01*
X5200Y8913D01*
X5400D01*
X5401Y8885D01*
D02*
G37*
G36*
X15801Y8558D02*
X15804Y8524D01*
X15809Y8493D01*
X15816Y8467D01*
X15825Y8445D01*
X15836Y8426D01*
X15849Y8412D01*
X15864Y8402D01*
X15881Y8396D01*
X15900Y8394D01*
X15500D01*
X15519Y8396D01*
X15536Y8402D01*
X15551Y8412D01*
X15564Y8426D01*
X15575Y8445D01*
X15584Y8467D01*
X15591Y8493D01*
X15596Y8524D01*
X15599Y8558D01*
X15600Y8597D01*
X15800D01*
X15801Y8558D01*
D02*
G37*
G36*
X8061Y8388D02*
X8067Y8380D01*
X8077Y8373D01*
X8091Y8367D01*
X8109Y8362D01*
X8131Y8358D01*
X8157Y8354D01*
X8221Y8350D01*
X8259Y8350D01*
Y8150D01*
X8221Y8150D01*
X8131Y8142D01*
X8109Y8138D01*
X8091Y8133D01*
X8077Y8127D01*
X8067Y8120D01*
X8061Y8112D01*
X8059Y8103D01*
Y8397D01*
X8061Y8388D01*
D02*
G37*
G36*
X8856Y8050D02*
X8854Y8069D01*
X8848Y8086D01*
X8838Y8101D01*
X8824Y8114D01*
X8805Y8125D01*
X8783Y8134D01*
X8757Y8141D01*
X8726Y8146D01*
X8692Y8149D01*
X8653Y8150D01*
Y8350D01*
X8692Y8351D01*
X8726Y8354D01*
X8757Y8359D01*
X8783Y8366D01*
X8805Y8375D01*
X8824Y8386D01*
X8838Y8399D01*
X8848Y8414D01*
X8854Y8431D01*
X8856Y8450D01*
Y8050D01*
D02*
G37*
G36*
X16946Y8281D02*
X16952Y8264D01*
X16962Y8249D01*
X16976Y8236D01*
X16995Y8225D01*
X17017Y8216D01*
X17043Y8209D01*
X17074Y8204D01*
X17108Y8201D01*
X17147Y8200D01*
Y8000D01*
X17108Y7999D01*
X17074Y7996D01*
X17043Y7991D01*
X17017Y7984D01*
X16995Y7975D01*
X16976Y7964D01*
X16962Y7951D01*
X16952Y7936D01*
X16946Y7919D01*
X16944Y7900D01*
Y8300D01*
X16946Y8281D01*
D02*
G37*
G36*
X29349Y7704D02*
X29328Y7692D01*
X29310Y7672D01*
X29294Y7644D01*
X29280Y7608D01*
X29270Y7564D01*
X29261Y7512D01*
X29255Y7452D01*
X29250Y7308D01*
X28850D01*
X28849Y7384D01*
X28839Y7512D01*
X28830Y7564D01*
X28820Y7608D01*
X28806Y7644D01*
X28790Y7672D01*
X28772Y7692D01*
X28751Y7704D01*
X28728Y7708D01*
X29372D01*
X29349Y7704D01*
D02*
G37*
G36*
X29236Y7011D02*
X29239Y7009D01*
X29317Y6925D01*
X29372Y6824D01*
X29400Y6713D01*
Y6099D01*
X29400Y6099D01*
X29400Y6099D01*
X29393Y5975D01*
X29341Y5802D01*
X29227Y5632D01*
X29070Y5503D01*
X28592Y5305D01*
X28482Y5260D01*
Y5260D01*
X28363Y5226D01*
X28201Y5242D01*
X28041Y5349D01*
X27950Y5519D01*
X27950Y5615D01*
X27950Y6368D01*
X27950D01*
X27950Y6446D01*
X27994Y6594D01*
X28078Y6723D01*
X28195Y6824D01*
X28754Y7074D01*
X28754Y7074D01*
X28849Y7103D01*
X28850Y7129D01*
X28850Y7163D01*
X29250D01*
X29236Y7011D01*
D02*
G37*
G36*
X30101Y7058D02*
X30104Y7024D01*
X30109Y6993D01*
X30116Y6967D01*
X30125Y6945D01*
X30136Y6926D01*
X30149Y6912D01*
X30164Y6902D01*
X30181Y6896D01*
X30200Y6894D01*
X29800D01*
X29819Y6896D01*
X29836Y6902D01*
X29851Y6912D01*
X29864Y6926D01*
X29875Y6945D01*
X29884Y6967D01*
X29891Y6993D01*
X29896Y7024D01*
X29899Y7058D01*
X29900Y7097D01*
X30100D01*
X30101Y7058D01*
D02*
G37*
G36*
X20706Y6281D02*
X20704Y6300D01*
X20699Y6316D01*
X20690Y6327D01*
X20678Y6335D01*
X20661Y6339D01*
X20642Y6339D01*
X20619Y6335D01*
X20592Y6327D01*
X20561Y6315D01*
X20528Y6299D01*
X20521Y6528D01*
X20556Y6547D01*
X20588Y6565D01*
X20615Y6584D01*
X20639Y6604D01*
X20660Y6623D01*
X20676Y6643D01*
X20689Y6664D01*
X20699Y6684D01*
X20704Y6705D01*
X20706Y6726D01*
Y6281D01*
D02*
G37*
G36*
X12502Y6679D02*
X12517Y6662D01*
X12542Y6648D01*
X12577Y6635D01*
X12623Y6624D01*
X12678Y6616D01*
X12743Y6609D01*
X12904Y6601D01*
X13000Y6600D01*
Y6000D01*
X12904Y5999D01*
X12678Y5984D01*
X12623Y5976D01*
X12577Y5965D01*
X12542Y5952D01*
X12517Y5938D01*
X12502Y5921D01*
X12497Y5903D01*
Y6697D01*
X12502Y6679D01*
D02*
G37*
G36*
X21381Y6204D02*
X21364Y6198D01*
X21349Y6188D01*
X21336Y6174D01*
X21325Y6155D01*
X21316Y6133D01*
X21309Y6107D01*
X21304Y6076D01*
X21301Y6042D01*
X21300Y6009D01*
X21301Y5985D01*
X21304Y5958D01*
X21310Y5931D01*
X21318Y5905D01*
X21327Y5880D01*
X21340Y5856D01*
X21354Y5832D01*
X21370Y5809D01*
X21389Y5786D01*
X21410Y5764D01*
X20990D01*
X21011Y5786D01*
X21030Y5809D01*
X21046Y5832D01*
X21060Y5856D01*
X21073Y5880D01*
X21082Y5905D01*
X21090Y5931D01*
X21096Y5958D01*
X21099Y5985D01*
X21100Y6009D01*
X21099Y6042D01*
X21096Y6076D01*
X21091Y6107D01*
X21084Y6133D01*
X21075Y6155D01*
X21064Y6174D01*
X21051Y6188D01*
X21036Y6198D01*
X21019Y6204D01*
X21000Y6206D01*
X21400D01*
X21381Y6204D01*
D02*
G37*
G36*
X25781Y7673D02*
X25653Y7639D01*
X25447Y7520D01*
X25280Y7353D01*
X25161Y7147D01*
X25157Y7130D01*
X26000D01*
Y6470D01*
X25157D01*
X25161Y6453D01*
X25280Y6247D01*
X25446Y6081D01*
X25446Y6076D01*
X25416Y5951D01*
X25045Y5922D01*
X24580Y5810D01*
X24138Y5627D01*
X23730Y5377D01*
X23657Y5314D01*
X23640Y5307D01*
X23564Y5251D01*
X23563Y5252D01*
X23554Y5250D01*
X23187D01*
X23138Y5367D01*
X24377Y6606D01*
X24468Y6694D01*
X24468Y6694D01*
X24844Y7135D01*
X25147Y7629D01*
X25217Y7800D01*
X25764D01*
X25781Y7673D01*
D02*
G37*
G36*
X24073Y4873D02*
X24026Y4835D01*
X23954Y4769D01*
X23928Y4739D01*
X23909Y4713D01*
X23896Y4689D01*
X23890Y4669D01*
X23891Y4650D01*
X23899Y4635D01*
X23914Y4623D01*
X23555Y4844D01*
X23573Y4836D01*
X23595Y4832D01*
X23620Y4833D01*
X23648Y4840D01*
X23679Y4850D01*
X23713Y4866D01*
X23751Y4887D01*
X23791Y4912D01*
X23880Y4977D01*
X24073Y4873D01*
D02*
G37*
G36*
X15587Y4956D02*
X15597Y4807D01*
X15600Y4796D01*
X15604Y4789D01*
X15608Y4785D01*
X15392D01*
X15391Y4786D01*
X15390Y4792D01*
X15389Y4801D01*
X15387Y4876D01*
X15387Y4973D01*
X15587Y4994D01*
X15587Y4956D01*
D02*
G37*
G36*
X14608Y4785D02*
X14392D01*
X14393Y4788D01*
X14395Y4794D01*
X14396Y4805D01*
X14398Y4837D01*
X14400Y4988D01*
X14600D01*
X14608Y4785D01*
D02*
G37*
G36*
X14108D02*
X13892D01*
X13893Y4788D01*
X13895Y4794D01*
X13896Y4805D01*
X13898Y4837D01*
X13900Y4988D01*
X14100D01*
X14108Y4785D01*
D02*
G37*
G36*
X15051Y4963D02*
X15066Y4871D01*
X15072Y4848D01*
X15078Y4828D01*
X15085Y4812D01*
X15092Y4799D01*
X15100Y4790D01*
X15108Y4785D01*
X14873Y4739D01*
X14873Y4740D01*
X14872Y4745D01*
X14866Y4801D01*
X14855Y4916D01*
X15047Y5001D01*
X15051Y4963D01*
D02*
G37*
G36*
X4294Y12453D02*
X3950Y12100D01*
Y9050D01*
X4162Y8700D01*
X4176Y8667D01*
X4192Y8651D01*
X5787Y6021D01*
X5770Y5980D01*
X6912D01*
Y5680D01*
X7212D01*
Y4873D01*
X7250D01*
Y4650D01*
X312D01*
Y15350D01*
X4294D01*
Y12453D01*
D02*
G37*
G36*
X26459Y4832D02*
X26464Y4821D01*
X26473Y4813D01*
X26485Y4808D01*
X26501Y4806D01*
X26521Y4808D01*
X26544Y4812D01*
X26570Y4820D01*
X26600Y4832D01*
X26634Y4846D01*
X26642Y4618D01*
X26606Y4601D01*
X26575Y4583D01*
X26546Y4565D01*
X26522Y4547D01*
X26501Y4528D01*
X26484Y4509D01*
X26471Y4490D01*
X26462Y4470D01*
X26456Y4449D01*
X26454Y4429D01*
X26457Y4847D01*
X26459Y4832D01*
D02*
G37*
G36*
X21376Y4822D02*
X21382Y4807D01*
X21391Y4794D01*
X21405Y4785D01*
X21422Y4779D01*
X21443Y4776D01*
X21469Y4776D01*
X21497Y4780D01*
X21530Y4787D01*
X21567Y4797D01*
X21570Y4584D01*
X21532Y4571D01*
X21499Y4558D01*
X21470Y4545D01*
X21444Y4530D01*
X21423Y4514D01*
X21405Y4498D01*
X21392Y4481D01*
X21382Y4463D01*
X21376Y4444D01*
X21374Y4424D01*
Y4841D01*
X21376Y4822D01*
D02*
G37*
G36*
X14608Y3417D02*
X14605Y3414D01*
X14600Y3407D01*
X14596Y3396D01*
X14590Y3381D01*
X14570Y3314D01*
X14545Y3213D01*
X14342Y3234D01*
X14350Y3271D01*
X14377Y3427D01*
X14377Y3442D01*
X14376Y3454D01*
X14373Y3463D01*
X14608Y3417D01*
D02*
G37*
G36*
X15124Y3453D02*
X15123Y3441D01*
X15123Y3426D01*
X15124Y3407D01*
X15129Y3361D01*
X15140Y3302D01*
X15154Y3231D01*
X14952Y3213D01*
X14943Y3250D01*
X14895Y3414D01*
X14892Y3417D01*
X15127Y3463D01*
X15124Y3453D01*
D02*
G37*
G36*
X26341Y3354D02*
X26324Y3348D01*
X26309Y3338D01*
X26296Y3324D01*
X26285Y3305D01*
X26276Y3283D01*
X26269Y3257D01*
X26264Y3226D01*
X26261Y3192D01*
X26260Y3153D01*
X26060D01*
X26059Y3192D01*
X26056Y3226D01*
X26051Y3257D01*
X26044Y3283D01*
X26035Y3305D01*
X26024Y3324D01*
X26011Y3338D01*
X25996Y3348D01*
X25979Y3354D01*
X25960Y3356D01*
X26360D01*
X26341Y3354D01*
D02*
G37*
G36*
X23801D02*
X23784Y3348D01*
X23769Y3338D01*
X23756Y3324D01*
X23745Y3305D01*
X23736Y3283D01*
X23729Y3257D01*
X23724Y3226D01*
X23721Y3192D01*
X23720Y3153D01*
X23520D01*
X23519Y3192D01*
X23516Y3226D01*
X23511Y3257D01*
X23504Y3283D01*
X23495Y3305D01*
X23484Y3324D01*
X23471Y3338D01*
X23456Y3348D01*
X23439Y3354D01*
X23420Y3356D01*
X23820D01*
X23801Y3354D01*
D02*
G37*
G36*
X21261D02*
X21244Y3348D01*
X21229Y3338D01*
X21216Y3324D01*
X21205Y3305D01*
X21196Y3283D01*
X21189Y3257D01*
X21184Y3226D01*
X21181Y3192D01*
X21180Y3153D01*
X20980D01*
X20979Y3192D01*
X20976Y3226D01*
X20971Y3257D01*
X20964Y3283D01*
X20955Y3305D01*
X20944Y3324D01*
X20931Y3338D01*
X20916Y3348D01*
X20899Y3354D01*
X20880Y3356D01*
X21280D01*
X21261Y3354D01*
D02*
G37*
G36*
X14196Y2625D02*
X14166Y2590D01*
X14139Y2551D01*
X14116Y2507D01*
X14097Y2458D01*
X14081Y2404D01*
X14069Y2346D01*
X14061Y2283D01*
X14057Y2216D01*
X14056Y2144D01*
X14059Y2067D01*
X13497Y2629D01*
X13574Y2626D01*
X13713Y2631D01*
X13776Y2639D01*
X13834Y2651D01*
X13888Y2667D01*
X13937Y2686D01*
X13981Y2709D01*
X14020Y2736D01*
X14055Y2766D01*
X14196Y2625D01*
D02*
G37*
G36*
X11730Y2544D02*
X11695Y2518D01*
X11663Y2485D01*
X11634Y2447D01*
X11608Y2401D01*
X11585Y2349D01*
X11566Y2291D01*
X11549Y2226D01*
X11536Y2155D01*
X11526Y2077D01*
X11519Y1993D01*
X10969Y2628D01*
X11058Y2622D01*
X11290Y2621D01*
X11356Y2626D01*
X11416Y2635D01*
X11470Y2646D01*
X11518Y2660D01*
X11561Y2677D01*
X11598Y2697D01*
X11730Y2544D01*
D02*
G37*
G36*
X26263Y2939D02*
X26273Y2894D01*
X26289Y2847D01*
X26311Y2797D01*
X26340Y2746D01*
X26375Y2693D01*
X26417Y2637D01*
X26519Y2520D01*
X26580Y2458D01*
X25740D01*
X25801Y2520D01*
X25903Y2637D01*
X25945Y2693D01*
X25980Y2746D01*
X26009Y2797D01*
X26031Y2847D01*
X26047Y2894D01*
X26057Y2939D01*
X26060Y2982D01*
X26260D01*
X26263Y2939D01*
D02*
G37*
G36*
X23723D02*
X23733Y2894D01*
X23749Y2847D01*
X23771Y2797D01*
X23800Y2746D01*
X23835Y2693D01*
X23877Y2637D01*
X23979Y2520D01*
X24040Y2458D01*
X23200D01*
X23261Y2520D01*
X23363Y2637D01*
X23405Y2693D01*
X23440Y2746D01*
X23469Y2797D01*
X23491Y2847D01*
X23507Y2894D01*
X23517Y2939D01*
X23520Y2982D01*
X23720D01*
X23723Y2939D01*
D02*
G37*
G36*
X21183D02*
X21193Y2894D01*
X21209Y2847D01*
X21231Y2797D01*
X21260Y2746D01*
X21295Y2693D01*
X21337Y2637D01*
X21439Y2520D01*
X21500Y2458D01*
X20660D01*
X20721Y2520D01*
X20823Y2637D01*
X20865Y2693D01*
X20900Y2746D01*
X20929Y2797D01*
X20951Y2847D01*
X20967Y2894D01*
X20977Y2939D01*
X20980Y2982D01*
X21180D01*
X21183Y2939D01*
D02*
G37*
G36*
X15505Y2669D02*
X15537Y2645D01*
X15570Y2625D01*
X15604Y2609D01*
X15639Y2598D01*
X15675Y2591D01*
X15712Y2588D01*
X15750Y2589D01*
X15788Y2595D01*
X15828Y2605D01*
X15425Y2202D01*
X15435Y2242D01*
X15441Y2280D01*
X15442Y2318D01*
X15439Y2355D01*
X15432Y2391D01*
X15421Y2426D01*
X15405Y2460D01*
X15385Y2493D01*
X15361Y2525D01*
X15332Y2556D01*
X15474Y2698D01*
X15505Y2669D01*
D02*
G37*
G36*
X17898Y2676D02*
X17941Y2659D01*
X17989Y2645D01*
X18043Y2634D01*
X18103Y2626D01*
X18169Y2620D01*
X18318Y2618D01*
X18401Y2622D01*
X18490Y2628D01*
X17941Y1992D01*
X17934Y2076D01*
X17910Y2225D01*
X17894Y2290D01*
X17874Y2348D01*
X17851Y2400D01*
X17825Y2445D01*
X17796Y2484D01*
X17764Y2516D01*
X17729Y2542D01*
X17861Y2696D01*
X17898Y2676D01*
D02*
G37*
%LPC*%
G36*
X19381Y29640D02*
X19150D01*
X19150Y29639D01*
X19159Y29574D01*
X19184Y29460D01*
X19200Y29411D01*
X19216Y29376D01*
X19258Y29417D01*
X19376Y29623D01*
X19381Y29640D01*
D02*
G37*
G36*
X18868Y29333D02*
Y29127D01*
X18885Y29131D01*
X19059Y29232D01*
X19036Y29254D01*
X18996Y29281D01*
X18951Y29304D01*
X18898Y29324D01*
X18868Y29333D01*
D02*
G37*
G36*
X18208Y29640D02*
X17694D01*
X17699Y29623D01*
X17818Y29417D01*
X17985Y29250D01*
X18190Y29131D01*
X18208Y29127D01*
Y29640D01*
D02*
G37*
G36*
X11761D02*
X11248D01*
Y29127D01*
X11265Y29131D01*
X11470Y29250D01*
X11638Y29417D01*
X11756Y29623D01*
X11761Y29640D01*
D02*
G37*
G36*
X10588D02*
X10074D01*
X10079Y29623D01*
X10198Y29417D01*
X10365Y29250D01*
X10570Y29131D01*
X10588Y29127D01*
Y29640D01*
D02*
G37*
G36*
X26289Y30970D02*
X26026D01*
X25772Y30902D01*
X25544Y30770D01*
X25358Y30584D01*
X25226Y30356D01*
X25158Y30102D01*
Y29838D01*
X25226Y29584D01*
X25358Y29356D01*
X25544Y29170D01*
X25618Y29127D01*
X25584Y29000D01*
X24450D01*
Y28400D01*
X25450D01*
X26450D01*
Y29000D01*
X26521Y29031D01*
X26544Y29038D01*
X26544Y29038D01*
X26772Y29170D01*
X26958Y29356D01*
X27090Y29584D01*
X27158Y29838D01*
Y30102D01*
X27090Y30356D01*
X26958Y30584D01*
X26772Y30770D01*
X26544Y30902D01*
X26289Y30970D01*
D02*
G37*
G36*
X26450Y27600D02*
X25850D01*
Y27000D01*
X26450D01*
Y27600D01*
D02*
G37*
G36*
X25050D02*
X24450D01*
Y27000D01*
X25050D01*
Y27600D01*
D02*
G37*
G36*
X25065Y20991D02*
Y20465D01*
X25459D01*
Y20525D01*
X25422Y20710D01*
X25317Y20867D01*
X25160Y20972D01*
X25065Y20991D01*
D02*
G37*
G36*
X25459Y19935D02*
X25065D01*
Y19409D01*
X25160Y19428D01*
X25317Y19533D01*
X25422Y19690D01*
X25459Y19875D01*
Y19935D01*
D02*
G37*
G36*
X30212Y19150D02*
X29988D01*
X29772Y19092D01*
X29578Y18980D01*
X29420Y18822D01*
X29308Y18628D01*
X29250Y18412D01*
Y18188D01*
X29308Y17972D01*
X29420Y17778D01*
X29578Y17620D01*
X29772Y17508D01*
X29988Y17450D01*
X30212D01*
X30428Y17508D01*
X30622Y17620D01*
X30780Y17778D01*
X30892Y17972D01*
X30950Y18188D01*
Y18412D01*
X30892Y18628D01*
X30780Y18822D01*
X30622Y18980D01*
X30428Y19092D01*
X30212Y19150D01*
D02*
G37*
G36*
Y16150D02*
X29988D01*
X29772Y16092D01*
X29578Y15980D01*
X29420Y15822D01*
X29308Y15628D01*
X29250Y15412D01*
Y15188D01*
X29308Y14972D01*
X29420Y14778D01*
X29578Y14620D01*
X29772Y14508D01*
X29988Y14450D01*
X30212D01*
X30428Y14508D01*
X30622Y14620D01*
X30780Y14778D01*
X30892Y14972D01*
X30950Y15188D01*
Y15412D01*
X30892Y15628D01*
X30780Y15822D01*
X30622Y15980D01*
X30428Y16092D01*
X30212Y16150D01*
D02*
G37*
G36*
X10550Y8085D02*
X10377D01*
X10388Y8071D01*
X10417Y8037D01*
X10469Y7985D01*
X10490Y7969D01*
X10514Y7955D01*
X10538Y7943D01*
X10550Y7938D01*
Y8085D01*
D02*
G37*
G36*
X19200Y7300D02*
X18665D01*
Y6865D01*
X19200D01*
Y7300D01*
D02*
G37*
G36*
X18135D02*
X17600D01*
Y6865D01*
X18135D01*
Y7300D01*
D02*
G37*
G36*
X19200Y6335D02*
X18665D01*
Y5900D01*
X19200D01*
Y6335D01*
D02*
G37*
G36*
X18135D02*
X17600D01*
Y5900D01*
X18135D01*
Y6335D01*
D02*
G37*
G36*
X30500Y5485D02*
X30302D01*
X30296Y5469D01*
X30294Y5450D01*
Y5485D01*
X30165D01*
Y5200D01*
X30500D01*
Y5485D01*
D02*
G37*
G36*
X18535Y5298D02*
X18448Y5281D01*
X18341Y5209D01*
X18269Y5102D01*
X18244Y4975D01*
Y4965D01*
X18535D01*
Y5050D01*
X18479Y5045D01*
X18496Y5049D01*
X18511Y5057D01*
X18522Y5070D01*
X18530Y5088D01*
X18534Y5110D01*
X18535Y5124D01*
Y5147D01*
X18534Y5168D01*
X18529Y5204D01*
X18520Y5244D01*
X18508Y5289D01*
X18535Y5289D01*
Y5298D01*
D02*
G37*
G36*
Y4635D02*
X18244D01*
Y4625D01*
X18269Y4498D01*
X18341Y4391D01*
X18448Y4319D01*
X18535Y4302D01*
Y4635D01*
D02*
G37*
G36*
X6740Y2930D02*
X6170D01*
Y2360D01*
X6740D01*
Y2930D01*
D02*
G37*
G36*
X5510D02*
X4940D01*
Y2360D01*
X5510D01*
Y2930D01*
D02*
G37*
G36*
X6740Y1700D02*
X6170D01*
Y1130D01*
X6740D01*
Y1700D01*
D02*
G37*
G36*
X5510D02*
X4940D01*
Y1130D01*
X5510D01*
Y1700D01*
D02*
G37*
G36*
X8512Y3030D02*
X8248D01*
X7994Y2962D01*
X7766Y2830D01*
X7580Y2644D01*
X7448Y2416D01*
X7380Y2162D01*
Y1898D01*
X7448Y1644D01*
X7580Y1416D01*
X7766Y1230D01*
X7994Y1098D01*
X8248Y1030D01*
X8512D01*
X8766Y1098D01*
X8994Y1230D01*
X9180Y1416D01*
X9312Y1644D01*
X9380Y1898D01*
Y2162D01*
X9312Y2416D01*
X9180Y2644D01*
X8994Y2830D01*
X8766Y2962D01*
X8512Y3030D01*
D02*
G37*
G36*
X3415Y26855D02*
Y26320D01*
X3800D01*
Y26855D01*
X3415D01*
D02*
G37*
G36*
X3800Y25790D02*
X3415D01*
Y25255D01*
X3800D01*
Y25790D01*
D02*
G37*
G36*
X7810Y16935D02*
X7477D01*
X7494Y16848D01*
X7566Y16741D01*
X7673Y16669D01*
X7800Y16644D01*
X7810D01*
Y16935D01*
D02*
G37*
G36*
X16635Y20356D02*
X16625D01*
X16498Y20331D01*
X16391Y20259D01*
X16319Y20152D01*
X16302Y20065D01*
X16635D01*
Y20356D01*
D02*
G37*
G36*
X10550Y11750D02*
X10265D01*
Y11415D01*
X10550D01*
Y11750D01*
D02*
G37*
G36*
Y11085D02*
X10265D01*
Y10750D01*
X10550D01*
Y11085D01*
D02*
G37*
G36*
X3132Y15127D02*
X3032D01*
Y14620D01*
X3873D01*
X3831Y14723D01*
X3702Y14891D01*
X3535Y15019D01*
X3341Y15099D01*
X3132Y15127D01*
D02*
G37*
G36*
X2432D02*
X2332D01*
X2123Y15099D01*
X1928Y15019D01*
X1761Y14891D01*
X1633Y14723D01*
X1590Y14620D01*
X2432D01*
Y15127D01*
D02*
G37*
G36*
X3873Y14020D02*
X3032D01*
Y13513D01*
X3132D01*
X3341Y13541D01*
X3535Y13621D01*
X3702Y13749D01*
X3831Y13917D01*
X3873Y14020D01*
D02*
G37*
G36*
X2432D02*
X1590D01*
X1633Y13917D01*
X1761Y13749D01*
X1928Y13621D01*
X2123Y13541D01*
X2332Y13513D01*
X2432D01*
Y14020D01*
D02*
G37*
G36*
X3132Y6487D02*
X3032D01*
Y5980D01*
X3873D01*
X3831Y6083D01*
X3702Y6251D01*
X3535Y6379D01*
X3341Y6459D01*
X3132Y6487D01*
D02*
G37*
G36*
X2432D02*
X2332D01*
X2123Y6459D01*
X1928Y6379D01*
X1761Y6251D01*
X1633Y6083D01*
X1590Y5980D01*
X2432D01*
Y6487D01*
D02*
G37*
G36*
X6612Y5380D02*
X5770D01*
X5813Y5277D01*
X5941Y5109D01*
X6108Y4981D01*
X6303Y4901D01*
X6512Y4873D01*
X6612D01*
Y5380D01*
D02*
G37*
G36*
X3873D02*
X3032D01*
Y4873D01*
X3132D01*
X3341Y4901D01*
X3535Y4981D01*
X3702Y5109D01*
X3831Y5277D01*
X3873Y5380D01*
D02*
G37*
G36*
X2432D02*
X1590D01*
X1633Y5277D01*
X1761Y5109D01*
X1928Y4981D01*
X2123Y4901D01*
X2332Y4873D01*
X2432D01*
Y5380D01*
D02*
G37*
%LPD*%
D11*
X13376Y16594D02*
G03*
X13485Y16416I224J16D01*
G01*
X13375Y16902D02*
G03*
X13375Y16890I225J-12D01*
G01*
Y16610D02*
G03*
X13375Y16608I225J0D01*
G01*
X25522Y5450D02*
G03*
X23726Y4706I0J-2540D01*
G01*
X25905Y5450D02*
G03*
X26750Y5800I0J1195D01*
G01*
X24755Y14380D02*
G03*
X24721Y14389I-66J-189D01*
G01*
X25853Y11990D02*
G03*
X25895Y11949I387J355D01*
G01*
X25252Y13360D02*
G03*
X25853Y11990I2292J188D01*
G01*
X25151Y13999D02*
G03*
X25115Y14104I-200J-9D01*
G01*
D02*
G03*
X24756Y14380I-616J-430D01*
G01*
X25206Y13878D02*
G03*
X25151Y13999I-199J-18D01*
G01*
X16116Y10648D02*
G03*
X16877Y10200I828J537D01*
G01*
X15800Y11520D02*
G03*
X16116Y10648I1356J-2D01*
G01*
X16840Y11419D02*
G03*
X16849Y11482I-191J60D01*
G01*
X16878Y10200D02*
G03*
X16890Y10200I13J200D01*
G01*
X15870Y18774D02*
G03*
X15989Y18486I409J0D01*
G01*
X16300Y17927D02*
G03*
X16125Y18350I-598J0D01*
G01*
X16000Y19800D02*
G03*
X15870Y19485I315J-315D01*
G01*
X16771Y20029D02*
G03*
X16682Y20154I-195J-44D01*
G01*
X16200Y20950D02*
G03*
X16479Y20281I616J-135D01*
G01*
X19470Y28559D02*
G03*
X19463Y28594I-199J-20D01*
G01*
X19463Y28594D02*
G03*
X18837Y29670I-2346J-644D01*
G01*
X19472Y28537D02*
G03*
X19473Y28532I199J20D01*
G01*
X21200Y6600D02*
G03*
X20261Y6211I0J-1328D01*
G01*
X20050Y6000D02*
G03*
X19700Y5154I845J-845D01*
G01*
X23646Y23604D02*
X23647Y23603D01*
D02*
G03*
X24500Y23250I853J854D01*
G01*
X25570Y13561D02*
G03*
X24499Y14750I-1070J113D01*
G01*
X25570Y13561D02*
G03*
X26094Y12208I1975J-13D01*
G01*
X25550Y11300D02*
X25550Y11299D01*
X25112Y10099D02*
G03*
X25100Y10030I188J-68D01*
G01*
X22100Y24535D02*
G03*
X22500Y25501I-966J966D01*
G01*
X22850Y25452D02*
G03*
X23594Y23656I2540J0D01*
G01*
X11400Y25450D02*
G03*
X11159Y25550I-241J-241D01*
G01*
X11700Y20550D02*
G03*
X11780Y20630I0J80D01*
G01*
X11250Y20050D02*
G03*
X11700Y20500I0J450D01*
G01*
X5453Y24197D02*
G03*
X6050Y23950I597J597D01*
G01*
X5400Y24324D02*
G03*
X5453Y24197I179J0D01*
G01*
X12625Y24489D02*
G03*
X12595Y24659I-525J-5D01*
G01*
X12163Y25872D02*
G03*
X12117Y25966I-494J-178D01*
G01*
X12300Y24484D02*
G03*
X12288Y24552I-200J0D01*
G01*
X9940Y27266D02*
G03*
X11001Y26510I976J247D01*
G01*
X11839Y25798D02*
G03*
X11205Y26155I-636J-388D01*
G01*
X11857Y25760D02*
G03*
X11839Y25798I-189J-67D01*
G01*
X12117Y25966D02*
G03*
X11341Y26471I-914J-556D01*
G01*
X11043Y26509D02*
G03*
X11001Y26510I-26J-198D01*
G01*
X13249Y15889D02*
G03*
X13256Y15884I109J168D01*
G01*
X12119Y16645D02*
G03*
X12183Y16578I173J101D01*
G01*
X13257Y15883D02*
G03*
X13461Y15816I264J454D01*
G01*
X11911Y16382D02*
G03*
X11925Y16368I144J139D01*
G01*
X12358Y16001D02*
G03*
X12363Y15996I129J153D01*
G01*
X12803Y15657D02*
G03*
X12800Y15659I-124J-157D01*
G01*
X10978Y17190D02*
G03*
X10978Y17191I-466J-241D01*
G01*
X19011Y26642D02*
G03*
X19046Y26670I-106J170D01*
G01*
X11291Y16589D02*
G03*
X11336Y16518I466J242D01*
G01*
X10978Y17191D02*
G03*
X10958Y17225I-466J-242D01*
G01*
X11265Y17343D02*
G03*
X11266Y17341I178J91D01*
G01*
X11580Y16739D02*
G03*
X11612Y16694I177J93D01*
G01*
X11265Y17343D02*
G03*
X11235Y17395I-753J-394D01*
G01*
X11664Y18190D02*
G03*
X11587Y17564I378J-364D01*
G01*
X12734Y17798D02*
G03*
X12728Y17785I177J-94D01*
G01*
X5300Y15647D02*
G03*
X5300Y15648I-200J0D01*
G01*
X9900Y13850D02*
G03*
X10504Y13600I604J604D01*
G01*
X18700Y4800D02*
G03*
X18276Y5824I-1449J0D01*
G01*
X10882Y26182D02*
G03*
X10983Y26183I34J1332D01*
G01*
X10842Y26183D02*
G03*
X10840Y26183I-5J-200D01*
G01*
X9939Y27267D02*
G03*
X9374Y28252I-2014J-502D01*
G01*
X11028Y26180D02*
G03*
X11205Y26155I473J2616D01*
G01*
X9374Y28252D02*
G03*
X8975Y28475I-611J-627D01*
G01*
D02*
G03*
X8930Y28481I-48J-194D01*
G01*
X11028Y26180D02*
G03*
X10983Y26183I-36J-197D01*
G01*
X10058Y26193D02*
G03*
X10056Y26193I-2J-200D01*
G01*
X12626Y22353D02*
G03*
X12630Y22425I-671J72D01*
G01*
X13685Y21962D02*
G03*
X13846Y22157I-423J511D01*
G01*
X12626Y22352D02*
G03*
X12625Y22319I199J-21D01*
G01*
X14438Y20118D02*
G03*
X14442Y20121I-114J164D01*
G01*
X12634Y22175D02*
G03*
X13491Y21801I524J31D01*
G01*
X13289Y19324D02*
G03*
X13355Y19366I-604J1008D01*
G01*
X13658Y15793D02*
G03*
X13682Y15791I59J522D01*
G01*
X8092Y28495D02*
G03*
X6985Y27397I-12J-1095D01*
G01*
X12076Y18597D02*
G03*
X12097Y18608I-82J183D01*
G01*
X12074Y18596D02*
G03*
X12012Y18553I82J-182D01*
G01*
X10056Y26193D02*
G03*
X9869Y26064I0J-200D01*
G01*
X12303Y22386D02*
G03*
X12305Y22425I-348J39D01*
G01*
X12300Y22748D02*
G03*
X12302Y22723I200J1D01*
G01*
X12300Y22116D02*
G03*
X12302Y22088I200J0D01*
G01*
X12305Y22675D02*
G03*
X12302Y22723I-350J0D01*
G01*
X12303Y22383D02*
G03*
X12300Y22330I522J-52D01*
G01*
X12302Y22088D02*
G03*
X13623Y21494I850J124D01*
G01*
X13298Y26028D02*
G03*
X13324Y26015I102J172D01*
G01*
X13325Y26015D02*
G03*
X13400Y26000I75J185D01*
G01*
X8738Y25801D02*
G03*
X9450Y25545I685J785D01*
G01*
X13623Y21494D02*
G03*
X13924Y21724I-723J1255D01*
G01*
X13850Y22163D02*
G03*
X13846Y22157I172J-103D01*
G01*
X13072Y22908D02*
G03*
X13073Y22876I200J-6D01*
G01*
X13520Y23880D02*
G03*
X13508Y23771I185J-75D01*
G01*
X13333Y24529D02*
G03*
X13123Y24222I279J-416D01*
G01*
X13114Y24045D02*
G03*
X13114Y24047I-200J8D01*
G01*
X13123Y24222D02*
G03*
X13119Y24186I195J-43D01*
G01*
X14061Y24584D02*
G03*
X14076Y24593I-90J179D01*
G01*
X13806Y24455D02*
G03*
X13710Y24352I90J-179D01*
G01*
X14494Y24487D02*
G03*
X14468Y24456I141J-142D01*
G01*
X14114Y24616D02*
G03*
X14212Y24718I-151J244D01*
G01*
X16183Y22460D02*
G03*
X16323Y22773I-383J359D01*
G01*
X15886Y22142D02*
G03*
X15896Y22152I-136J147D01*
G01*
X13122Y19603D02*
G03*
X13263Y19709I-437J729D01*
G01*
X12990Y15509D02*
G03*
X13061Y15473I124J157D01*
G01*
X11918Y18883D02*
G03*
X11955Y18903I-233J470D01*
G01*
X11903Y18876D02*
G03*
X11918Y18883I-218J477D01*
G01*
X11831Y18843D02*
G03*
X11807Y18831I83J-182D01*
G01*
X11750Y18795D02*
G03*
X11726Y18777I107J-169D01*
G01*
X8738Y25801D02*
G03*
X8608Y25850I-131J-151D01*
G01*
X11599Y18670D02*
G03*
X11635Y18698I-310J424D01*
G01*
X11599Y18670D02*
G03*
X11553Y18621I119J-161D01*
G01*
X11338Y18302D02*
G03*
X11192Y17836I704J-476D01*
G01*
X11188Y17529D02*
G03*
X11219Y17422I200J-1D01*
G01*
X15400Y24667D02*
G03*
X15477Y24510I200J1D01*
G01*
X16000Y24157D02*
G03*
X15834Y24354I-200J-0D01*
G01*
X15477Y24510D02*
G03*
X15834Y24354I490J634D01*
G01*
X15400Y24998D02*
G03*
X16641Y25512I-0J1755D01*
G01*
X15937Y22673D02*
G03*
X16000Y22818I-137J146D01*
G01*
X17090Y25698D02*
G03*
X18757Y26389I-0J2358D01*
G01*
X17090Y25698D02*
G03*
X16641Y25512I0J-634D01*
G01*
X19124Y26747D02*
G03*
X19111Y26735I129J-153D01*
G01*
X19126Y26749D02*
G03*
X19222Y26846I-588J681D01*
G01*
X19764Y20437D02*
G03*
X19734Y20460I-136J-146D01*
G01*
X19631Y20524D02*
G03*
X19481Y20549I-106J-170D01*
G01*
X20044Y20096D02*
G03*
X19981Y20235I-200J-7D01*
G01*
X9900Y16250D02*
G03*
X9949Y16381I-151J131D01*
G01*
X7950Y18357D02*
G03*
X7993Y18235I200J0D01*
G01*
X8950Y18333D02*
G03*
X8960Y18270I200J0D01*
G01*
X6900Y24850D02*
G03*
X7112Y24338I724J0D01*
G01*
X7450Y23788D02*
G03*
X7300Y24150I-512J0D01*
G01*
X7990Y23748D02*
G03*
X7952Y23600I472J-198D01*
G01*
X8236Y24115D02*
G03*
X7990Y23748I803J-805D01*
G01*
X8236Y24115D02*
G03*
X8400Y24512I-398J397D01*
G01*
X9500Y23950D02*
G03*
X9600Y24191I-241J241D01*
G01*
X9500Y23950D02*
G03*
X9450Y23829I121J-121D01*
G01*
X11799Y19780D02*
G03*
X11800Y19781I-137J146D01*
G01*
X14665Y24656D02*
G03*
X14680Y24673I-202J204D01*
G01*
X12955Y19882D02*
G03*
X13045Y19950I-270J450D01*
G01*
X12807Y12922D02*
G03*
X12817Y12925I-51J193D01*
G01*
X12895Y14393D02*
G03*
X12873Y14394I-23J-199D01*
G01*
X10501Y17647D02*
G03*
X10500Y17628I199J-17D01*
G01*
X10863Y17515D02*
G03*
X10864Y17494I200J-1D01*
G01*
X10663Y18479D02*
G03*
X10501Y17649I3868J-1186D01*
G01*
X10866Y17476D02*
G03*
X10941Y17253I522J52D01*
G01*
X11026Y19051D02*
G03*
X10663Y18480I886J-962D01*
G01*
X10973Y18315D02*
G03*
X10867Y17840I1069J-489D01*
G01*
X12973Y18730D02*
G03*
X12963Y18721I130J-152D01*
G01*
X11203Y18767D02*
G03*
X11147Y18695I126J-155D01*
G01*
X11407Y18932D02*
G03*
X11387Y18916I310J-424D01*
G01*
X12994Y18746D02*
G03*
X12973Y18730I108J-168D01*
G01*
X11407Y18932D02*
G03*
X11421Y18943I-117J162D01*
G01*
X13853Y12509D02*
G03*
X13838Y12509I-3J-200D01*
G01*
X14203Y12498D02*
G03*
X14229Y12499I7J200D01*
G01*
X14250Y12500D02*
G03*
X14230Y12499I0J-200D01*
G01*
X12409Y13601D02*
X12410Y13601D01*
X12807Y12922D02*
G03*
X12799Y12920I52J-193D01*
G01*
X12962Y10259D02*
G03*
X12999Y10189I481J211D01*
G01*
X11840Y11938D02*
G03*
X11628Y12195I-490J-188D01*
G01*
X11602Y13400D02*
G03*
X11619Y13326I200J7D01*
G01*
X13235Y18503D02*
G03*
X12975Y18251I435J-712D01*
G01*
X20160Y13290D02*
G03*
X19050Y13750I-1110J-1110D01*
G01*
X14283Y19033D02*
G03*
X14285Y19034I-85J181D01*
G01*
X13454Y18643D02*
G03*
X13380Y18601I224J-475D01*
G01*
X13237Y18504D02*
G03*
X13247Y18510I-103J172D01*
G01*
X13489Y17486D02*
G03*
X13486Y17473I193J-53D01*
G01*
X14293Y19038D02*
G03*
X14285Y19034I81J-183D01*
G01*
X13237Y18504D02*
G03*
X13236Y18503I433J-713D01*
G01*
X13379Y16933D02*
G03*
X13378Y16927I221J-43D01*
G01*
X19050Y12633D02*
G03*
X19108Y12492I200J0D01*
G01*
X16278Y11416D02*
G03*
X16966Y10630I1024J202D01*
G01*
X16275Y11451D02*
G03*
X16278Y11416I200J1D01*
G01*
X15037Y11110D02*
G03*
X15064Y10802I513J-110D01*
G01*
X15315Y10186D02*
G03*
X15315Y10185I185J75D01*
G01*
X15597Y9506D02*
G03*
X15596Y9508I-1262J-521D01*
G01*
X17363Y11287D02*
G03*
X17374Y11425I-513J113D01*
G01*
X14000Y7797D02*
G03*
X13937Y8119I-853J0D01*
G01*
X14500Y6286D02*
G03*
X14499Y6305I-200J0D01*
G01*
X14651Y8174D02*
G03*
X14620Y8264I-199J-19D01*
G01*
X14335Y8064D02*
G03*
X14304Y8153I-199J-19D01*
G01*
X15487Y5173D02*
G03*
X15484Y5200I-200J-6D01*
G01*
X14959Y8342D02*
G03*
X14887Y8594I-1159J-194D01*
G01*
X24111Y14389D02*
G03*
X24057Y14382I0J-200D01*
G01*
X14307Y17798D02*
G03*
X14300Y17746I193J-53D01*
G01*
X21080Y4600D02*
G03*
X22053Y5003I0J1376D01*
G01*
X24106Y7056D02*
G03*
X24840Y8202I-2249J2249D01*
G01*
X24840D02*
G03*
X25095Y9072I-6176J2284D01*
G01*
X25096Y9073D02*
G03*
X25100Y9115I-196J42D01*
G01*
X15027Y18442D02*
G03*
X14304Y19043I-511J120D01*
G01*
X13968Y19373D02*
G03*
X13948Y19362I88J-180D01*
G01*
X15387Y18395D02*
G03*
X13968Y19373I-987J88D01*
G01*
X15017Y18404D02*
G03*
X15021Y18418I-191J60D01*
G01*
X13236Y18503D02*
G03*
X13235Y18503I434J-713D01*
G01*
X13378Y16927D02*
G03*
X13375Y16902I222J-37D01*
G01*
X13375Y16608D02*
G03*
X13376Y16594I225J2D01*
G01*
X14887Y8594D02*
G03*
X14877Y8615I-185J-76D01*
G01*
X11767Y19171D02*
G03*
X11787Y19182I-82J182D01*
G01*
X11577Y19070D02*
G03*
X11512Y19022I280J-444D01*
G01*
X11695Y19139D02*
G03*
X11634Y19106I218J-478D01*
G01*
X11726Y19153D02*
X11727Y19153D01*
X20300Y16100D02*
G03*
X19938Y16250I-362J-362D01*
G01*
X19757Y27312D02*
G03*
X19631Y27256I15J-199D01*
G01*
X12365Y10583D02*
G03*
X12384Y10547I186J73D01*
G01*
X12398Y10524D02*
G03*
X12384Y10547I-729J-437D01*
G01*
X10253Y13055D02*
G03*
X10215Y13073I-106J-170D01*
G01*
X12031Y10469D02*
G03*
X12022Y10477I-138J-145D01*
G01*
X10743Y15128D02*
G03*
X9871Y14743I309J-1878D01*
G01*
X10406Y14394D02*
G03*
X10404Y14394I7J-200D01*
G01*
X10413Y14394D02*
G03*
X10406Y14394I0J-200D01*
G01*
X9881Y14375D02*
G03*
X9642Y13393I19J-525D01*
G01*
X9657Y14664D02*
G03*
X9052Y13798I243J-814D01*
G01*
X9803Y14708D02*
G03*
X9871Y14743I-56J192D01*
G01*
X10180Y13089D02*
G03*
X10213Y13074I99J174D01*
G01*
X13234Y10593D02*
X13234Y10592D01*
X12046Y9721D02*
G03*
X12056Y9731I-143J139D01*
G01*
X12044Y10456D02*
G03*
X12033Y10468I-151J-132D01*
G01*
X12068Y9745D02*
G03*
X12064Y10432I-399J341D01*
G01*
X12536Y10295D02*
G03*
X12540Y10289I171J103D01*
G01*
X10855Y9750D02*
G03*
X10935Y9767I-0J200D01*
G01*
X11983Y9661D02*
G03*
X12012Y9686I-114J164D01*
G01*
X11938Y9632D02*
G03*
X11959Y9645I-91J178D01*
G01*
X13244Y10455D02*
G03*
X13274Y10362I200J14D01*
G01*
X13936Y8120D02*
G03*
X13921Y8149I-184J-78D01*
G01*
X12970Y9632D02*
G03*
X12969Y9634I-168J-108D01*
G01*
X12953Y15142D02*
G03*
X13700Y14772I1005J1091D01*
G01*
X12953Y15143D02*
G03*
X12819Y15194I-134J-148D01*
G01*
X18493Y17500D02*
G03*
X19700Y18000I0J1707D01*
G01*
X20294Y16745D02*
G03*
X20251Y16750I-43J-195D01*
G01*
X20143Y15007D02*
G03*
X20762Y14750I621J621D01*
G01*
X20143Y15007D02*
G03*
X19556Y15250I-586J-586D01*
G01*
X4600Y15401D02*
G03*
X3999Y16851I-2049J0D01*
G01*
X3859Y16991D02*
G03*
X3717Y17050I-142J-141D01*
G01*
X5300Y15671D02*
G03*
X4033Y18789I-4528J-24D01*
G01*
D02*
G03*
X3891Y18850I-144J-139D01*
G01*
X26596Y11762D02*
G03*
X26564Y11794I-246J-212D01*
G01*
X26099Y12203D02*
G03*
X26108Y12194I141J142D01*
G01*
X26094Y12208D02*
G03*
X26098Y12204I146J137D01*
G01*
X26746Y11589D02*
G03*
X26742Y11592I-249J-209D01*
G01*
X26954Y10195D02*
G03*
X26954Y10197I-200J-3D01*
G01*
X27350Y9697D02*
G03*
X27349Y9721I-200J0D01*
G01*
X27263Y10417D02*
G03*
X26746Y11589I-2199J-271D01*
G01*
X26954Y10197D02*
G03*
X26499Y11377I-1890J-51D01*
G01*
X26750Y5800D02*
G03*
X27000Y6404I-604J604D01*
G01*
X26826Y4876D02*
G03*
X27350Y6141I-1266J1266D01*
G01*
X21649Y11225D02*
G03*
X21737Y11245I0J200D01*
G01*
X18378Y11860D02*
G03*
X19682Y11230I2189J2869D01*
G01*
X19684Y11230D02*
G03*
X19727Y11225I44J195D01*
G01*
X26160Y4600D02*
G03*
X26826Y4876I0J942D01*
G01*
X3656Y23383D02*
G03*
X3793Y23450I-13J200D01*
G01*
D02*
G03*
X4452Y25172I-1977J1744D01*
G01*
X5404Y31325D02*
G03*
X4678Y31049I0J-1093D01*
G01*
X4515Y30790D02*
G03*
X4475Y30590I485J-200D01*
G01*
X4675Y31047D02*
G03*
X4543Y30859I354J-388D01*
G01*
X4475Y27799D02*
G03*
X4475Y27801I-200J2D01*
G01*
X5404Y31000D02*
G03*
X4896Y30809I0J-768D01*
G01*
D02*
G03*
X4844Y30735I133J-150D01*
G01*
X4815Y30666D02*
G03*
X4800Y30590I185J-77D01*
G01*
X22850Y28850D02*
G03*
X21933Y31065I-3131J1D01*
G01*
X21932Y31066D02*
X21933Y31066D01*
X21369Y31324D02*
G03*
X21338Y31325I-32J-741D01*
G01*
X21378Y31324D02*
G03*
X21382Y31324I17J199D01*
G01*
X21633Y30878D02*
G03*
X21338Y31000I-295J-295D01*
G01*
X21783Y31177D02*
G03*
X21382Y31324I-445J-594D01*
G01*
X22500Y28783D02*
G03*
X21633Y30878I-2961J1D01*
G01*
X3598Y21550D02*
G03*
X3741Y21611I-1J200D01*
G01*
D02*
G03*
X4800Y24252I-2762J2641D01*
G01*
X19233Y26857D02*
G03*
X19222Y26846I141J-141D01*
G01*
X21847Y20400D02*
G03*
X21772Y20718I-1022J-74D01*
G01*
X21550Y21294D02*
G03*
X21565Y21217I200J0D01*
G01*
X17840Y11972D02*
G03*
X17987Y11608I525J-0D01*
G01*
X10922Y9250D02*
G03*
X11428Y9371I1J1110D01*
G01*
X8386Y10535D02*
G03*
X7962Y10787I-709J-709D01*
G01*
X6846Y10241D02*
G03*
X6687Y10046I41J-196D01*
G01*
Y9450D02*
G03*
X6887Y9250I200J0D01*
G01*
X15135Y26567D02*
G03*
X14900Y26000I567J-567D01*
G01*
X14400D02*
G03*
X14055Y26833I-1178J0D01*
G01*
X15606Y3345D02*
G03*
X15782Y3223I184J77D01*
G01*
X18540Y2030D02*
G03*
X15782Y3223I-2885J-2885D01*
G01*
X13725Y3243D02*
G03*
X13903Y3366I-7J200D01*
G01*
X13725Y3243D02*
G03*
X10920Y2030I127J-4146D01*
G01*
X15700Y8984D02*
G03*
X15597Y9506I-1366J0D01*
G01*
X15000Y3600D02*
G03*
X15403Y2627I1376J0D01*
G01*
X14125Y2695D02*
G03*
X14500Y3600I-905J905D01*
G01*
X23550Y9425D02*
G03*
X23658Y9453I0J225D01*
G01*
X22147Y9450D02*
G03*
X22250Y9425I103J200D01*
G01*
X22147Y9450D02*
G03*
X22144Y9452I-91J-178D01*
G01*
X18300Y12017D02*
G03*
X18378Y11860I200J1D01*
G01*
X13485Y16416D02*
X13700Y16290D01*
X13375Y16610D02*
Y16890D01*
X23620Y4600D02*
X23726Y4706D01*
X25522Y5450D02*
X25905D01*
X25895Y11949D02*
X26350Y11550D01*
X24755Y14380D02*
X24756Y14380D01*
X25252Y13360D02*
X25252Y13360D01*
X25206Y13878D02*
X25252Y13360D01*
X16839Y11418D02*
X16840Y11419D01*
X15800Y11520D02*
X15800D01*
X16877Y10200D02*
X16878Y10200D01*
X16849Y11482D02*
X16849Y11482D01*
X16890Y10200D02*
X18300D01*
X15870Y18774D02*
Y19485D01*
X15989Y18486D02*
X16125Y18350D01*
X16840Y12150D02*
X16849Y11482D01*
X16300Y17500D02*
Y17927D01*
X16771Y20029D02*
X16772Y20025D01*
X16479Y20281D02*
X16682Y20154D01*
X19463Y28594D02*
X19463Y28594D01*
X18538Y29970D02*
X18837Y29670D01*
X19472Y28537D02*
X19472Y28537D01*
X19473Y28532D02*
X19560Y27837D01*
X21200Y6600D02*
X21200Y6600D01*
Y6600D01*
Y5550D02*
Y6600D01*
X20050Y6000D02*
X20261Y6211D01*
X19700Y5154D02*
X19700Y4975D01*
Y4800D02*
Y4975D01*
X21378Y31324D02*
X21378D01*
X25550Y11300D02*
X25550Y11300D01*
X25112Y10099D02*
X25550Y11299D01*
X24400Y13000D02*
Y13731D01*
X20044Y20096D02*
X20061Y19631D01*
X10600Y25550D02*
X11159D01*
X11700Y20500D02*
Y20550D01*
X5400Y24324D02*
Y24850D01*
X12630Y22425D02*
Y24015D01*
X12625Y24489D02*
X12630Y24015D01*
X12300Y22748D02*
Y24484D01*
X11001Y26510D02*
X11001Y26510D01*
X11857Y25760D02*
X12288Y24552D01*
X12163Y25872D02*
X12595Y24659D01*
X11043Y26509D02*
X11341Y26471D01*
X11780Y20630D02*
Y21550D01*
X10700Y20050D02*
X11250D01*
X10413Y14394D02*
X11494Y14396D01*
X12195Y14400D01*
X12193Y14397D02*
X12873Y14394D01*
X12363Y15996D02*
X12364Y15996D01*
X11925Y16368D02*
X12358Y16001D01*
X11911Y16382D02*
X11911Y16382D01*
X11612Y16694D02*
X11911Y16382D01*
X12364Y15996D02*
X12800Y15659D01*
X12183Y16578D02*
X13249Y15889D01*
X13256Y15884D02*
X13257Y15883D01*
X11587Y17564D02*
X12119Y16645D01*
X11336Y16518D02*
X12175Y15395D01*
X10978Y17190D02*
X11291Y16589D01*
X19046Y26670D02*
X19111Y26735D01*
X12175Y15395D02*
X12300Y15220D01*
X11266Y17341D02*
X11580Y16739D01*
X12734Y17798D02*
X12975Y18251D01*
X12443Y17134D02*
X12728Y17785D01*
X12803Y15657D02*
X12804Y15657D01*
X12990Y15509D01*
X11780Y22550D02*
X11780Y22550D01*
X11650Y22675D02*
X11780Y22550D01*
X11650Y22675D02*
Y23550D01*
X14442Y20121D02*
X15010Y20536D01*
X13073Y22876D02*
X13158Y22206D01*
X16772Y20025D02*
X16800Y19900D01*
X17800D01*
X5300Y8450D02*
Y15647D01*
X4600Y8950D02*
Y15401D01*
X10504Y13600D02*
X10650D01*
X10058Y26193D02*
X10840Y26183D01*
X10840Y26183D01*
X10842Y26183D02*
X10882Y26182D01*
X8092Y28495D02*
X8930Y28481D01*
X9939Y27267D02*
X9940Y27266D01*
X12626Y22352D02*
X12626Y22353D01*
X13493Y21802D02*
X13685Y21962D01*
X13491Y21801D02*
X13493Y21802D01*
X13355Y19366D02*
X14438Y20118D01*
X13682Y15791D02*
X13700Y15790D01*
X13461Y15816D02*
X13658Y15793D01*
X8092Y28495D02*
X8092Y28495D01*
X6900Y25850D02*
X6985Y27397D01*
X12097Y18608D02*
X13289Y19324D01*
X12074Y18596D02*
X12076Y18597D01*
X12074Y18596D02*
X12074Y18596D01*
X11664Y18190D02*
X12012Y18553D01*
X9618Y25561D02*
X9750Y25750D01*
X9869Y26064D01*
X12625Y22319D02*
X12634Y22175D01*
X12302Y22088D02*
X12302Y22088D01*
X12303Y22383D02*
X12303Y22386D01*
X12300Y22116D02*
Y22330D01*
X12305Y22425D02*
Y22675D01*
X13324Y26015D02*
X13325Y26015D01*
X10918Y27430D02*
X13298Y26028D01*
X9450Y25545D02*
X9598Y25560D01*
X13924Y21724D02*
X15200Y23000D01*
X13924Y21724D02*
X13924Y21724D01*
X13263Y19709D02*
X15886Y22142D01*
X13850Y22163D02*
X14892Y23905D01*
X13072Y22908D02*
X13114Y24045D01*
X13508Y23771D02*
X13607Y23179D01*
X13520Y23880D02*
X13520Y23881D01*
X13114Y24047D02*
X13119Y24186D01*
X13333Y24529D02*
X13874Y24898D01*
X13806Y24455D02*
X14061Y24584D01*
X13520Y23881D02*
X13710Y24352D01*
X14076Y24593D02*
X14114Y24616D01*
X13874Y24898D02*
X13875Y24898D01*
X14092Y23890D02*
X14468Y24456D01*
X14331Y24927D02*
X14375Y25003D01*
X14212Y24718D02*
X14331Y24927D01*
X14375Y25003D02*
X14400Y24998D01*
X14494Y24487D02*
X14665Y24656D01*
X15896Y22152D02*
X16183Y22460D01*
X13263Y19709D02*
X13263Y19709D01*
X11955Y18903D02*
X13122Y19603D01*
X11955Y18903D02*
X11955Y18903D01*
X13061Y15473D02*
X13724Y15290D01*
X11903Y18876D02*
X11903Y18876D01*
X11862Y18857D02*
X11863Y18858D01*
X11831Y18843D02*
X11862Y18857D01*
X11751Y18795D02*
X11807Y18831D01*
X11750Y18795D02*
X11751Y18795D01*
X8400Y25850D02*
X8608D01*
X11635Y18698D02*
X11726Y18777D01*
X11338Y18302D02*
X11553Y18621D01*
X11219Y17422D02*
X11235Y17395D01*
X11188Y17529D02*
X11192Y17836D01*
X16000Y22818D02*
Y24157D01*
X15400Y24667D02*
Y24998D01*
X16323Y22773D02*
X16494Y24724D01*
X13045Y19950D02*
X15937Y22673D01*
X19124Y26747D02*
X19126Y26749D01*
X19011Y26642D02*
X19011Y26642D01*
X18757Y26389D02*
X19011Y26642D01*
X15425Y26100D02*
X18538Y27430D01*
X15400Y26000D02*
X15425Y26100D01*
X20250Y20900D02*
X20700Y20400D01*
X19764Y20437D02*
X19981Y20235D01*
X19050Y20450D02*
X19450Y20542D01*
X19481Y20549D01*
X19631Y20524D02*
X19734Y20460D01*
X12042Y17826D02*
X12963Y18721D01*
X9949Y16381D02*
X9950Y19000D01*
X9950Y19300D01*
X8000Y18225D02*
X8125Y18100D01*
X7993Y18235D02*
X8000Y18225D01*
X7950Y18357D02*
X7950Y19000D01*
X7950Y19300D01*
X8960Y18270D02*
X8975Y18225D01*
X8950Y18333D02*
Y19280D01*
X8975Y18225D02*
X9100Y18100D01*
X7112Y24338D02*
X7300Y24150D01*
X7450Y23300D02*
Y23788D01*
X7950Y23062D02*
X7952Y23600D01*
X7990Y23748D02*
X7990D01*
X8400Y24512D02*
Y24850D01*
X9450Y23300D02*
Y23829D01*
X9600Y24191D02*
Y24500D01*
X11800Y19781D02*
X12600Y20550D01*
X14875Y24898D02*
X14900Y24998D01*
X14680Y24673D02*
X14875Y24898D01*
X12817Y12925D02*
X13704Y13210D01*
X12895Y14393D02*
X12896Y14393D01*
X10500Y17628D02*
X10512Y16949D01*
X10501Y17647D02*
X10501Y17649D01*
X10864Y17494D02*
X10866Y17476D01*
X10941Y17253D02*
X10958Y17225D01*
X10863Y17515D02*
X10863Y17516D01*
X10867Y17840D01*
X11203Y18767D02*
X11387Y18916D01*
X10663Y18479D02*
X10663Y18480D01*
X10973Y18315D02*
X11147Y18695D01*
X12973Y18730D02*
X12973Y18730D01*
X11026Y19051D02*
X11799Y19780D01*
X12994Y18746D02*
X13948Y19362D01*
X13853Y12509D02*
X13854Y12509D01*
X14229Y12499D02*
X14230Y12499D01*
X14250Y12500D02*
X14800D01*
X13984Y12505D02*
X14203Y12498D01*
X10700Y22550D02*
X11780D01*
X11811Y13607D02*
X12400Y13600D01*
X11800Y13607D02*
X11811Y13607D01*
X12410Y13601D02*
X13700Y13710D01*
X12400Y13600D02*
X12409Y13601D01*
X13700Y13710D02*
X14050Y13750D01*
X12424Y12800D02*
X12799Y12920D01*
X13152Y12470D02*
X13838Y12509D01*
X11619Y13326D02*
X12962Y10259D01*
X11602Y13400D02*
X11650Y13600D01*
X13854Y12509D02*
X13858Y12509D01*
X11840Y11938D02*
X12365Y10583D01*
X10253Y13055D02*
X11628Y12195D01*
X13858Y12509D02*
X13904Y12508D01*
X10100Y11250D02*
X10250Y11450D01*
X8950Y16250D02*
Y17100D01*
X11421Y18943D02*
X11512Y19022D01*
X20160Y13290D02*
X20250Y13200D01*
X13489Y17486D02*
X13682Y18171D01*
X13454Y18643D02*
X14283Y19033D01*
X14285Y19034D02*
X14285Y19034D01*
X13247Y18510D02*
X13380Y18601D01*
X13379Y16933D02*
X13486Y17473D01*
X19108Y12492D02*
X19250Y12350D01*
X15800Y11520D02*
Y12500D01*
X16275Y11451D02*
X16275Y11452D01*
X16966Y10630D02*
X17200Y10550D01*
X16278Y11416D02*
X16278D01*
X16275Y11452D02*
Y12150D01*
X16300Y12500D01*
X16800D02*
X16840Y12150D01*
X15037Y11110D02*
X15260Y12150D01*
X15064Y10802D02*
X15315Y10186D01*
X15260Y12150D02*
X15300Y12500D01*
X15315Y10185D02*
X15596Y9508D01*
X17200Y10550D02*
X17363Y11287D01*
X17340Y12150D02*
X17374Y11425D01*
X17300Y12500D02*
X17340Y12150D01*
X14000Y4602D02*
Y7797D01*
X13936Y8120D02*
X13937Y8119D01*
X14473Y8493D02*
X14620Y8264D01*
X14651Y8174D02*
X14651Y8174D01*
X14335Y8064D02*
X14499Y6305D01*
X14975Y4702D02*
X15000Y4602D01*
X14651Y8174D02*
X14975Y4702D01*
X14500Y4602D02*
Y6286D01*
X13001Y10187D02*
X14304Y8153D01*
X14959Y8342D02*
X15484Y5200D01*
X19050Y12633D02*
Y13250D01*
X21050Y13550D02*
X24057Y14382D01*
X14300Y16790D02*
Y17746D01*
X14307Y17798D02*
X14516Y18563D01*
X22053Y5003D02*
X24106Y7056D01*
X25095Y9072D02*
X25096Y9073D01*
X25100Y9115D02*
Y10030D01*
X25112Y10099D02*
X25112Y10099D01*
X15017Y18403D02*
X15017Y18404D01*
X13948Y19362D02*
X13948Y19362D01*
X15021Y18418D02*
X15027Y18442D01*
X14293Y19038D02*
X14304Y19043D01*
X14840Y17850D02*
X15017Y18403D01*
X15387Y18393D02*
X15387Y18395D01*
X15340Y17850D02*
X15387Y18393D01*
X14800Y17500D02*
X14840Y17850D01*
X15300Y17500D02*
X15340Y17850D01*
X14050Y16750D02*
X14300Y16790D01*
X15487Y5173D02*
X15487Y5171D01*
X11727Y19153D02*
X11767Y19171D01*
X11787Y19182D02*
X12955Y19882D01*
X13700Y16290D02*
X14050Y16250D01*
X12896Y14393D02*
X12897Y14393D01*
X13700Y14290D01*
X11577Y19070D02*
X11634Y19106D01*
X11577Y19070D02*
X11577Y19070D01*
X11695Y19139D02*
Y19139D01*
X11863Y18858D02*
X11903Y18876D01*
X11695Y19139D02*
X11726Y19153D01*
X19050Y16250D02*
X19938D01*
X20950Y27400D02*
X21550Y28000D01*
X19470Y28559D02*
X19472Y28537D01*
X19631Y27255D02*
X19631Y27256D01*
X19757Y27312D02*
X20950Y27400D01*
X12999Y10189D02*
X13001Y10187D01*
X12398Y10523D02*
X12536Y10295D01*
X12398Y10524D02*
X12398Y10523D01*
X12031Y10469D02*
X12032Y10468D01*
X11548Y10878D02*
X12022Y10477D01*
X10215Y13074D02*
X10215Y13073D01*
X9052Y13798D02*
X9104Y12937D01*
X9657Y14664D02*
X9803Y14708D01*
X9871Y14743D02*
X9871Y14743D01*
X9881Y14375D02*
X10404Y14394D01*
X10743Y15128D02*
X10745Y15129D01*
X9642Y13393D02*
X10180Y13089D01*
X10213Y13074D02*
X10215Y13074D01*
X13161Y11670D02*
X13234Y10593D01*
X13704Y13210D02*
X14050Y13250D01*
X10935Y9767D02*
X11669Y10087D01*
X12056Y9731D02*
X12068Y9745D01*
X12032Y10468D02*
X12033Y10468D01*
X12044Y10456D02*
X12064Y10432D01*
X12540Y10289D02*
X12540Y10288D01*
X12012Y9686D02*
X12046Y9721D01*
X11982Y9660D02*
X11983Y9661D01*
X11959Y9645D02*
X11982Y9660D01*
X11428Y9371D02*
X11938Y9632D01*
X12540Y10288D02*
X12969Y9634D01*
X7487Y9750D02*
X10855D01*
X13234Y10592D02*
X13244Y10455D01*
X13274Y10362D02*
X13275Y10361D01*
X13904Y12508D02*
X13984Y12505D01*
X12970Y9632D02*
X13068Y9480D01*
X13921Y8149D01*
X13275Y10361D02*
X14473Y8493D01*
X13758Y10629D02*
X14877Y8615D01*
X15487Y5171D02*
X15487Y5170D01*
X15487Y5169D01*
Y5169D02*
X15487Y5169D01*
X15487Y4702D02*
Y5169D01*
X15487Y5169D02*
X15487Y5169D01*
Y4702D02*
X15500Y4602D01*
X13700Y15790D02*
X14050Y15751D01*
X13724Y15290D02*
X14050Y15250D01*
X12953Y15143D02*
X12953Y15142D01*
X12300Y15220D02*
X12425Y15194D01*
X13700Y14772D02*
X14050Y14753D01*
X12425Y15194D02*
X12819D01*
X18300Y17500D02*
X18493D01*
X19400Y15710D02*
X20950Y15350D01*
X19050Y15750D02*
X19400Y15710D01*
X20294Y16745D02*
X20950Y16600D01*
X19050Y16750D02*
X20251D01*
X20762Y14750D02*
X24499D01*
X3150Y17050D02*
X3717D01*
X3859Y16991D02*
X3999Y16851D01*
X3150Y18850D02*
X3891D01*
X5300Y15671D02*
X5300Y15648D01*
X10250Y8050D02*
X10718Y7615D01*
X10100Y8250D02*
X10250Y8050D01*
X7975Y17100D02*
X8950D01*
X20700Y20400D02*
X20850Y20200D01*
X19050Y15250D02*
X19556D01*
X5400Y25850D02*
X6900D01*
X9600Y24500D02*
X9600Y24500D01*
X24111Y14389D02*
X24721D01*
X26108Y12194D02*
X26564Y11794D01*
X26098Y12204D02*
X26099Y12203D01*
X26596Y11762D02*
X26742Y11592D01*
X27263Y10417D02*
X27348Y9721D01*
X26746Y11589D02*
X26746Y11589D01*
X27350Y6141D02*
Y9697D01*
X26350Y11550D02*
X26499Y11377D01*
X26954Y10195D02*
X26955Y10145D01*
X27000Y6404D01*
X19727Y11225D02*
X21649D01*
X21737Y11245D02*
X22366Y11550D01*
X22900Y12000D01*
X19682Y11230D02*
X19684Y11230D01*
X30900Y5650D02*
X30900Y5650D01*
X30000Y5650D02*
X30900D01*
X30000Y6650D02*
Y10650D01*
X17975Y18934D02*
X18650D01*
X19050Y18950D01*
X17800Y18900D02*
X17975Y18934D01*
X3150Y23350D02*
X3400Y23366D01*
X4452Y25172D02*
X4452Y25172D01*
X4475Y27799D01*
X3400Y23366D02*
X3656Y23383D01*
X4475Y27801D02*
Y30590D01*
X5404Y31325D02*
X5456D01*
X4515Y30790D02*
X4543Y30859D01*
X4675Y31047D02*
X4678Y31049D01*
X4800Y24252D02*
Y30590D01*
X5404Y31000D02*
X21338D01*
X4815Y30666D02*
X4844Y30735D01*
X21933Y31066D02*
X21933Y31065D01*
X21783Y31177D02*
X21932Y31066D01*
X21369Y31324D02*
X21378Y31324D01*
X5456Y31325D02*
X21338Y31325D01*
X22850Y25452D02*
Y28850D01*
X23646Y23604D02*
X23647Y23603D01*
X23594Y23656D02*
X23646Y23604D01*
X22500Y25501D02*
Y28783D01*
X3150Y21550D02*
X3598D01*
X19233Y26857D02*
X19631Y27255D01*
X21550Y22200D02*
Y28000D01*
Y21294D02*
Y22200D01*
X19631Y27255D02*
X19631Y27255D01*
X21565Y21217D02*
X21772Y20718D01*
X21847Y20400D02*
X21850Y20200D01*
X23300D01*
X17987Y11608D02*
X19175Y10375D01*
X19300Y10200D01*
X10745Y15129D02*
X11175Y15199D01*
X11300Y15220D01*
X7487Y10750D02*
X7962Y10787D01*
X8444Y10477D02*
X9171Y9750D01*
X8386Y10535D02*
X8444Y10477D01*
X7012Y10276D02*
X7487Y10250D01*
X6846Y10241D02*
X7012Y10276D01*
X6687Y9450D02*
Y10046D01*
X6887Y9250D02*
X7487D01*
X7487D02*
X10922D01*
X25450Y22200D02*
Y28000D01*
X15135Y26567D02*
X15998Y27430D01*
X13458D02*
X14055Y26833D01*
X13400Y26000D02*
X13900D01*
X1645Y17045D02*
X1650Y17050D01*
X639Y17045D02*
X1645D01*
Y18845D02*
X1650Y18850D01*
X639Y18845D02*
X1645D01*
X639Y21550D02*
X1650D01*
X639Y23350D02*
X1650D01*
X1645Y26050D02*
X1650Y26055D01*
X639Y26050D02*
X1645D01*
X24400Y10900D02*
Y12000D01*
X22900D02*
X24280D01*
X15525Y3540D02*
X15606Y3345D01*
X15500Y3600D02*
X15525Y3540D01*
X13903Y3366D02*
X13975Y3540D01*
X14000Y3600D01*
X13700Y14290D02*
X14050Y14250D01*
X15700Y8100D02*
Y8984D01*
X16700Y8100D02*
X17800D01*
X26160Y2030D02*
Y3600D01*
X23620Y2030D02*
Y3600D01*
X21080Y2030D02*
Y3600D01*
X15403Y2627D02*
X16000Y2030D01*
X13460D02*
X14125Y2695D01*
X17800Y18900D02*
X17800Y18900D01*
Y17500D02*
Y18900D01*
X16800Y18900D02*
X16800Y18900D01*
Y17500D02*
Y18900D01*
X22250Y9425D02*
X23550D01*
X23658Y9453D02*
X24200Y9750D01*
X21150Y9933D02*
X22144Y9452D01*
X20600Y10200D02*
X21150Y9933D01*
X24200Y9750D02*
X24400Y9900D01*
X18300Y12017D02*
Y12500D01*
X17840Y12150D02*
X17840Y11972D01*
X17800Y12500D02*
X17840Y12150D01*
X19300Y10200D02*
X20600D01*
X7487Y8250D02*
X9100D01*
X7487Y11250D02*
X9100D01*
D21*
X14800Y12500D02*
D03*
X15300D02*
D03*
X15800D02*
D03*
X16300D02*
D03*
X16800D02*
D03*
X17300D02*
D03*
X17800D02*
D03*
X18300D02*
D03*
Y17500D02*
D03*
X17800D02*
D03*
X17300D02*
D03*
X16800D02*
D03*
X16300D02*
D03*
X15800D02*
D03*
X15300D02*
D03*
X14800D02*
D03*
D22*
X19050Y13250D02*
D03*
Y13750D02*
D03*
Y14250D02*
D03*
Y14750D02*
D03*
Y15250D02*
D03*
Y15750D02*
D03*
Y16250D02*
D03*
Y16750D02*
D03*
X14050D02*
D03*
Y16250D02*
D03*
Y15750D02*
D03*
Y15250D02*
D03*
Y14750D02*
D03*
Y14250D02*
D03*
Y13750D02*
D03*
Y13250D02*
D03*
D23*
X16550Y15000D02*
D03*
D24*
X19700Y4800D02*
D03*
X18700D02*
D03*
X9600Y24500D02*
D03*
X10600D02*
D03*
X11300Y15220D02*
D03*
X12300D02*
D03*
X19300Y10200D02*
D03*
X18300D02*
D03*
D25*
X29100Y25750D02*
D03*
Y24250D02*
D03*
D26*
X11780Y21550D02*
D03*
Y22550D02*
D03*
X8950Y18100D02*
D03*
Y17100D02*
D03*
X7975Y18100D02*
D03*
Y17100D02*
D03*
X24400Y12000D02*
D03*
Y13000D02*
D03*
X17800Y18900D02*
D03*
Y19900D02*
D03*
X16800Y18900D02*
D03*
Y19900D02*
D03*
D27*
X23300Y20200D02*
D03*
X24800D02*
D03*
D28*
X20600Y12000D02*
D03*
Y10200D02*
D03*
X22900D02*
D03*
Y12000D02*
D03*
D29*
X7487Y8750D02*
D03*
Y9750D02*
D03*
Y10250D02*
D03*
Y11250D02*
D03*
Y8250D02*
D03*
Y11750D02*
D03*
Y9250D02*
D03*
Y10750D02*
D03*
D30*
Y13200D02*
D03*
Y6800D02*
D03*
Y7600D02*
D03*
Y12400D02*
D03*
D31*
X29050Y8180D02*
D03*
X28100Y10650D02*
D03*
X30000D02*
D03*
D32*
X21200Y6600D02*
D03*
X18400D02*
D03*
X21200Y8400D02*
D03*
X18400D02*
D03*
D33*
X1650Y26055D02*
D03*
X3150D02*
D03*
Y23350D02*
D03*
X1650D02*
D03*
X3150Y21550D02*
D03*
X1650D02*
D03*
Y18850D02*
D03*
X3150D02*
D03*
X1650Y17050D02*
D03*
X3150D02*
D03*
D34*
X12200Y6300D02*
D03*
X9850D02*
D03*
D35*
X28965Y20600D02*
D03*
X31235D02*
D03*
X28965Y13000D02*
D03*
X31235D02*
D03*
D36*
X28025Y14550D02*
D03*
Y19050D02*
D03*
Y17550D02*
D03*
D37*
X17800Y23700D02*
D03*
Y24400D02*
D03*
D38*
X21550Y28000D02*
D03*
Y22200D02*
D03*
X25450Y28000D02*
D03*
Y22200D02*
D03*
D39*
X16700Y8100D02*
D03*
X15700D02*
D03*
X10600Y25550D02*
D03*
X9600D02*
D03*
X11650Y13600D02*
D03*
X10650D02*
D03*
X10100Y8250D02*
D03*
X9100D02*
D03*
X10100Y11250D02*
D03*
X9100D02*
D03*
X21850Y20200D02*
D03*
X20850D02*
D03*
D40*
X13900Y26000D02*
D03*
X14400D02*
D03*
X14900D02*
D03*
X15400D02*
D03*
X13900Y24998D02*
D03*
X14400Y24998D02*
D03*
X14900D02*
D03*
X15400D02*
D03*
X14000Y4602D02*
D03*
X14500D02*
D03*
X15000D02*
D03*
X15500D02*
D03*
X14000Y3600D02*
D03*
X14500Y3600D02*
D03*
X15000D02*
D03*
X15500D02*
D03*
D41*
X26160D02*
D03*
Y4600D02*
D03*
X23620Y3600D02*
D03*
Y4600D02*
D03*
X21080Y3600D02*
D03*
Y4600D02*
D03*
X30000Y5650D02*
D03*
Y6650D02*
D03*
X6900Y24850D02*
D03*
Y25850D02*
D03*
X8400Y24850D02*
D03*
Y25850D02*
D03*
X5400Y24850D02*
D03*
Y25850D02*
D03*
X24400Y9900D02*
D03*
Y10900D02*
D03*
D42*
X19050Y20450D02*
D03*
Y18950D02*
D03*
D43*
X6700Y22550D02*
D03*
Y22050D02*
D03*
Y21550D02*
D03*
Y21050D02*
D03*
Y20550D02*
D03*
Y20050D02*
D03*
X10700D02*
D03*
Y20550D02*
D03*
Y21050D02*
D03*
Y21550D02*
D03*
Y22050D02*
D03*
Y22550D02*
D03*
D44*
X7450Y19300D02*
D03*
X7950D02*
D03*
X8450D02*
D03*
X8950D02*
D03*
X9450D02*
D03*
X9950D02*
D03*
Y23300D02*
D03*
X9450D02*
D03*
X8950D02*
D03*
X8450D02*
D03*
X7950D02*
D03*
X7450D02*
D03*
D45*
X8700Y21300D02*
D03*
D77*
X17617Y16072D02*
D03*
X15450Y13900D02*
D03*
Y15000D02*
D03*
Y16100D02*
D03*
X16550D02*
D03*
Y15000D02*
D03*
Y13900D02*
D03*
X17650D02*
D03*
Y15000D02*
D03*
X2300Y24700D02*
D03*
X11000Y23500D02*
D03*
X21200Y5550D02*
D03*
X19750Y22800D02*
D03*
X24500Y23250D02*
D03*
X26200Y13450D02*
D03*
X26550Y12850D02*
D03*
X27250D02*
D03*
X26900Y13450D02*
D03*
X25550Y11300D02*
D03*
X24400Y13731D02*
D03*
X22100Y24535D02*
D03*
X20061Y19631D02*
D03*
X20700Y19150D02*
D03*
X6050Y23950D02*
D03*
X11400Y25450D02*
D03*
X11700Y20550D02*
D03*
X12145Y14400D02*
D03*
X12443Y17134D02*
D03*
X15010Y20536D02*
D03*
X13200Y7750D02*
D03*
X16200Y20950D02*
D03*
X5900Y12200D02*
D03*
X13158Y22206D02*
D03*
X12600Y20550D02*
D03*
X13607Y23179D02*
D03*
X14092Y23890D02*
D03*
X15200Y23000D02*
D03*
X14892Y23905D02*
D03*
X16494Y24724D02*
D03*
X20000Y25750D02*
D03*
X20250Y20900D02*
D03*
X12042Y17826D02*
D03*
X9900Y16250D02*
D03*
X10512Y16949D02*
D03*
X12400Y13600D02*
D03*
X12424Y12800D02*
D03*
X11350Y11750D02*
D03*
X13152Y12470D02*
D03*
X8950Y16250D02*
D03*
X13682Y18171D02*
D03*
X16839Y11418D02*
D03*
X17239Y10725D02*
D03*
X14407Y11140D02*
D03*
X19250Y12350D02*
D03*
X21050Y13550D02*
D03*
X20250Y13200D02*
D03*
X14516Y18563D02*
D03*
X5700Y17700D02*
D03*
X2750Y20050D02*
D03*
X19560Y27837D02*
D03*
X11548Y10878D02*
D03*
X9900Y13850D02*
D03*
X9104Y12937D02*
D03*
X13161Y11670D02*
D03*
X11669Y10087D02*
D03*
X13000Y6300D02*
D03*
X13758Y10629D02*
D03*
X20300Y16100D02*
D03*
X20950Y16600D02*
D03*
Y15350D02*
D03*
X8550Y5600D02*
D03*
X8896Y6762D02*
D03*
X8500Y14400D02*
D03*
X4600Y8950D02*
D03*
X5300Y8450D02*
D03*
X10718Y7615D02*
D03*
X19700Y18000D02*
D03*
X30900Y5650D02*
D03*
X28350D02*
D03*
Y6350D02*
D03*
X28950Y6000D02*
D03*
Y6700D02*
D03*
X639Y26050D02*
D03*
X19750Y23700D02*
D03*
X639Y17045D02*
D03*
Y18845D02*
D03*
Y21550D02*
D03*
Y23350D02*
D03*
D78*
X26350Y11550D02*
D03*
X16849Y11482D02*
D03*
X20261Y6211D02*
D03*
X14438Y20118D02*
D03*
X12012Y18553D02*
D03*
X14331Y24927D02*
D03*
X11862Y18857D02*
D03*
X11219Y17422D02*
D03*
D79*
X8456Y6041D02*
G03*
X8368Y6250I-587J-125D01*
G01*
X7851Y13200D02*
G03*
X8449Y13753I-0J600D01*
G01*
X9559Y7056D02*
G03*
X8947Y7485I-663J-294D01*
G01*
X8172Y6538D02*
G03*
X7844Y6776I-496J-338D01*
G01*
X8367Y6252D02*
X8368Y6250D01*
X7851Y13200D02*
X7851D01*
X7487D02*
X7851D01*
X12200Y6300D02*
X13000D01*
X8456Y6041D02*
X8550Y5600D01*
X9850Y6300D02*
Y6400D01*
X7487Y6800D02*
X7762D01*
X7499Y7587D02*
X8947Y7485D01*
X9559Y7056D02*
X9850Y6400D01*
X8172Y6538D02*
X8367Y6252D01*
X7762Y6800D02*
X7844Y6776D01*
X8449Y13753D02*
X8500Y14400D01*
D80*
X6818Y12211D02*
G03*
X6610Y12021I94J-311D01*
G01*
X6045Y10613D02*
G03*
X6016Y9972I905J-363D01*
G01*
X6600Y8007D02*
G03*
X6818Y7789I311J93D01*
G01*
X18726Y24555D02*
G03*
X18885Y24618I-67J394D01*
G01*
X19689Y25169D02*
G03*
X19973Y25604I-386J562D01*
G01*
X28950Y6700D02*
G03*
X29050Y6941I-241J241D01*
G01*
X28025Y10831D02*
G03*
X28100Y10650I256J0D01*
G01*
X27816Y25750D02*
G03*
X27533Y25633I0J-400D01*
G01*
X27133Y25600D02*
G03*
X26650Y25400I0J-683D01*
G01*
D02*
G03*
X26450Y24917I483J-483D01*
G01*
Y24202D02*
G03*
X27194Y22406I2540J0D01*
G01*
X28025Y20523D02*
G03*
X27281Y22319I-2540J0D01*
G01*
X27500Y24350D02*
G03*
X27765Y24250I265J300D01*
G01*
X6016Y9972D02*
X6600Y8007D01*
X7112Y7700D02*
X7487Y7600D01*
X6045Y10613D02*
X6610Y12021D01*
X6818Y7789D02*
X7112Y7700D01*
X6818Y12211D02*
X7112Y12300D01*
X7487Y12400D01*
X18100Y24450D02*
X18726Y24555D01*
X18885Y24618D02*
X19093Y24761D01*
X17800Y24400D02*
X18100Y24450D01*
X19093Y24761D02*
X19689Y25169D01*
X19973Y25604D02*
X20000Y25750D01*
X29050Y6941D02*
Y8180D01*
X28331Y5631D02*
X28350Y5650D01*
X28025Y10831D02*
Y14550D01*
X27816Y25750D02*
X29100D01*
X27133Y25600D02*
X27500D01*
X27533Y25633D02*
X27533Y25633D01*
X27500Y25600D02*
X27533Y25633D01*
X26450Y24202D02*
Y24917D01*
X27194Y22406D02*
X27281Y22319D01*
X28025Y19050D02*
Y20523D01*
X27765Y24250D02*
X29100D01*
X18100Y23700D02*
X19750D01*
X17800Y23700D02*
X18100Y23700D01*
D81*
X26000Y6800D02*
D03*
X18538Y27430D02*
D03*
X15998D02*
D03*
X13458D02*
D03*
X10918D02*
D03*
X8378D02*
D03*
Y29970D02*
D03*
X10918D02*
D03*
X13458D02*
D03*
X15998D02*
D03*
X18538D02*
D03*
X21078D02*
D03*
X23618D02*
D03*
X26158D02*
D03*
X8380Y2030D02*
D03*
X10920D02*
D03*
X13460D02*
D03*
X16000D02*
D03*
X18540D02*
D03*
X21080D02*
D03*
X23620D02*
D03*
X26160D02*
D03*
D82*
X26000Y8800D02*
D03*
D83*
X5838Y27430D02*
D03*
Y29970D02*
D03*
X5840Y2030D02*
D03*
D84*
X27500Y25600D02*
D03*
Y24350D02*
D03*
D85*
X2732Y14320D02*
D03*
X6912D02*
D03*
X2732Y5680D02*
D03*
X6912D02*
D03*
M02*
