G04*
G04 #@! TF.GenerationSoftware,Altium Limited,Altium Designer,23.8.1 (32)*
G04*
G04 Layer_Color=8388736*
%FSLAX43Y43*%
%MOMM*%
G71*
G04*
G04 #@! TF.SameCoordinates,8A790615-D0E5-43D8-8956-367088579B57*
G04*
G04*
G04 #@! TF.FilePolarity,Negative*
G04*
G01*
G75*
%ADD46R,0.380X1.000*%
%ADD47R,1.000X0.380*%
%ADD48R,3.350X3.350*%
G04:AMPARAMS|DCode=49|XSize=0.55mm|YSize=0.65mm|CornerRadius=0.15mm|HoleSize=0mm|Usage=FLASHONLY|Rotation=0.000|XOffset=0mm|YOffset=0mm|HoleType=Round|Shape=RoundedRectangle|*
%AMROUNDEDRECTD49*
21,1,0.550,0.350,0,0,0.0*
21,1,0.250,0.650,0,0,0.0*
1,1,0.300,0.125,-0.175*
1,1,0.300,-0.125,-0.175*
1,1,0.300,-0.125,0.175*
1,1,0.300,0.125,0.175*
%
%ADD49ROUNDEDRECTD49*%
G04:AMPARAMS|DCode=50|XSize=0.75mm|YSize=1.05mm|CornerRadius=0.2mm|HoleSize=0mm|Usage=FLASHONLY|Rotation=270.000|XOffset=0mm|YOffset=0mm|HoleType=Round|Shape=RoundedRectangle|*
%AMROUNDEDRECTD50*
21,1,0.750,0.650,0,0,270.0*
21,1,0.350,1.050,0,0,270.0*
1,1,0.400,-0.325,-0.175*
1,1,0.400,-0.325,0.175*
1,1,0.400,0.325,0.175*
1,1,0.400,0.325,-0.175*
%
%ADD50ROUNDEDRECTD50*%
G04:AMPARAMS|DCode=51|XSize=0.55mm|YSize=0.65mm|CornerRadius=0.15mm|HoleSize=0mm|Usage=FLASHONLY|Rotation=270.000|XOffset=0mm|YOffset=0mm|HoleType=Round|Shape=RoundedRectangle|*
%AMROUNDEDRECTD51*
21,1,0.550,0.350,0,0,270.0*
21,1,0.250,0.650,0,0,270.0*
1,1,0.300,-0.175,-0.125*
1,1,0.300,-0.175,0.125*
1,1,0.300,0.175,0.125*
1,1,0.300,0.175,-0.125*
%
%ADD51ROUNDEDRECTD51*%
G04:AMPARAMS|DCode=52|XSize=0.75mm|YSize=1.05mm|CornerRadius=0.2mm|HoleSize=0mm|Usage=FLASHONLY|Rotation=0.000|XOffset=0mm|YOffset=0mm|HoleType=Round|Shape=RoundedRectangle|*
%AMROUNDEDRECTD52*
21,1,0.750,0.650,0,0,0.0*
21,1,0.350,1.050,0,0,0.0*
1,1,0.400,0.175,-0.325*
1,1,0.400,-0.175,-0.325*
1,1,0.400,-0.175,0.325*
1,1,0.400,0.175,0.325*
%
%ADD52ROUNDEDRECTD52*%
%ADD53R,1.350X1.150*%
%ADD54R,1.200X0.350*%
%ADD55R,1.200X0.650*%
%ADD56R,0.700X1.000*%
%ADD57R,1.050X0.850*%
%ADD58R,0.750X1.050*%
%ADD59R,0.650X0.850*%
%ADD60R,0.980X0.850*%
%ADD61R,1.300X0.950*%
%ADD62R,1.200X0.700*%
%ADD63R,1.450X1.450*%
%ADD64R,0.550X0.650*%
G04:AMPARAMS|DCode=65|XSize=0.3mm|YSize=0.45mm|CornerRadius=0.088mm|HoleSize=0mm|Usage=FLASHONLY|Rotation=0.000|XOffset=0mm|YOffset=0mm|HoleType=Round|Shape=RoundedRectangle|*
%AMROUNDEDRECTD65*
21,1,0.300,0.275,0,0,0.0*
21,1,0.125,0.450,0,0,0.0*
1,1,0.175,0.063,-0.138*
1,1,0.175,-0.063,-0.138*
1,1,0.175,-0.063,0.138*
1,1,0.175,0.063,0.138*
%
%ADD65ROUNDEDRECTD65*%
%ADD66R,0.650X0.550*%
%ADD67R,1.050X0.750*%
%ADD68R,0.850X0.350*%
%ADD69R,0.350X0.850*%
%ADD70R,1.550X1.550*%
%ADD71C,1.250*%
%ADD72R,1.250X1.250*%
%ADD73R,1.250X1.250*%
%ADD74C,1.050*%
%ADD75O,1.850X1.050*%
%ADD76C,0.050*%
%ADD77C,0.600*%
D46*
X14800Y12500D02*
D03*
X15300D02*
D03*
X15800D02*
D03*
X16300D02*
D03*
X16800D02*
D03*
X17300D02*
D03*
X17800D02*
D03*
X18300D02*
D03*
Y17500D02*
D03*
X17800D02*
D03*
X17300D02*
D03*
X16800D02*
D03*
X16300D02*
D03*
X15800D02*
D03*
X15300D02*
D03*
X14800D02*
D03*
D47*
X19050Y13250D02*
D03*
Y13750D02*
D03*
Y14250D02*
D03*
Y14750D02*
D03*
Y15250D02*
D03*
Y15750D02*
D03*
Y16250D02*
D03*
Y16750D02*
D03*
X14050D02*
D03*
Y16250D02*
D03*
Y15750D02*
D03*
Y15250D02*
D03*
Y14750D02*
D03*
Y14250D02*
D03*
Y13750D02*
D03*
Y13250D02*
D03*
D48*
X16550Y15000D02*
D03*
D49*
X19700Y4800D02*
D03*
X18700D02*
D03*
X9600Y24500D02*
D03*
X10600D02*
D03*
X11300Y15220D02*
D03*
X12300D02*
D03*
X19300Y10200D02*
D03*
X18300D02*
D03*
D50*
X29100Y25750D02*
D03*
Y24250D02*
D03*
D51*
X11780Y21550D02*
D03*
Y22550D02*
D03*
X8950Y18100D02*
D03*
Y17100D02*
D03*
X7975Y18100D02*
D03*
Y17100D02*
D03*
X24400Y12000D02*
D03*
Y13000D02*
D03*
X17800Y18900D02*
D03*
Y19900D02*
D03*
X16800Y18900D02*
D03*
Y19900D02*
D03*
D52*
X23300Y20200D02*
D03*
X24800D02*
D03*
D53*
X20600Y12000D02*
D03*
Y10200D02*
D03*
X22900D02*
D03*
Y12000D02*
D03*
D54*
X7487Y8750D02*
D03*
Y9750D02*
D03*
Y10250D02*
D03*
Y11250D02*
D03*
Y8250D02*
D03*
Y11750D02*
D03*
Y9250D02*
D03*
Y10750D02*
D03*
D55*
Y13200D02*
D03*
Y6800D02*
D03*
Y7600D02*
D03*
Y12400D02*
D03*
D56*
X29050Y8180D02*
D03*
X28100Y10650D02*
D03*
X30000D02*
D03*
D57*
X21200Y6600D02*
D03*
X18400D02*
D03*
X21200Y8400D02*
D03*
X18400D02*
D03*
D58*
X1650Y26055D02*
D03*
X3150D02*
D03*
Y23350D02*
D03*
X1650D02*
D03*
X3150Y21550D02*
D03*
X1650D02*
D03*
Y18850D02*
D03*
X3150D02*
D03*
X1650Y17050D02*
D03*
X3150D02*
D03*
D59*
X12200Y6300D02*
D03*
X9850D02*
D03*
D60*
X28965Y20600D02*
D03*
X31235D02*
D03*
X28965Y13000D02*
D03*
X31235D02*
D03*
D61*
X28025Y14550D02*
D03*
Y19050D02*
D03*
Y17550D02*
D03*
D62*
X17800Y23700D02*
D03*
Y24400D02*
D03*
D63*
X21550Y28000D02*
D03*
Y22200D02*
D03*
X25450Y28000D02*
D03*
Y22200D02*
D03*
D64*
X16700Y8100D02*
D03*
X15700D02*
D03*
X10600Y25550D02*
D03*
X9600D02*
D03*
X11650Y13600D02*
D03*
X10650D02*
D03*
X10100Y8250D02*
D03*
X9100D02*
D03*
X10100Y11250D02*
D03*
X9100D02*
D03*
X21850Y20200D02*
D03*
X20850D02*
D03*
D65*
X13900Y26000D02*
D03*
X14400D02*
D03*
X14900D02*
D03*
X15400D02*
D03*
X13900Y24998D02*
D03*
X14400Y24998D02*
D03*
X14900D02*
D03*
X15400D02*
D03*
X14000Y4602D02*
D03*
X14500D02*
D03*
X15000D02*
D03*
X15500D02*
D03*
X14000Y3600D02*
D03*
X14500Y3600D02*
D03*
X15000D02*
D03*
X15500D02*
D03*
D66*
X26160D02*
D03*
Y4600D02*
D03*
X23620Y3600D02*
D03*
Y4600D02*
D03*
X21080Y3600D02*
D03*
Y4600D02*
D03*
X30000Y5650D02*
D03*
Y6650D02*
D03*
X6900Y24850D02*
D03*
Y25850D02*
D03*
X8400Y24850D02*
D03*
Y25850D02*
D03*
X5400Y24850D02*
D03*
Y25850D02*
D03*
X24400Y9900D02*
D03*
Y10900D02*
D03*
D67*
X19050Y20450D02*
D03*
Y18950D02*
D03*
D68*
X6700Y22550D02*
D03*
Y22050D02*
D03*
Y21550D02*
D03*
Y21050D02*
D03*
Y20550D02*
D03*
Y20050D02*
D03*
X10700D02*
D03*
Y20550D02*
D03*
Y21050D02*
D03*
Y21550D02*
D03*
Y22050D02*
D03*
Y22550D02*
D03*
D69*
X7450Y19300D02*
D03*
X7950D02*
D03*
X8450D02*
D03*
X8950D02*
D03*
X9450D02*
D03*
X9950D02*
D03*
Y23300D02*
D03*
X9450D02*
D03*
X8950D02*
D03*
X8450D02*
D03*
X7950D02*
D03*
X7450D02*
D03*
D70*
X8700Y21300D02*
D03*
D71*
X26000Y6800D02*
D03*
X18538Y27430D02*
D03*
X15998D02*
D03*
X13458D02*
D03*
X10918D02*
D03*
X8378D02*
D03*
Y29970D02*
D03*
X10918D02*
D03*
X13458D02*
D03*
X15998D02*
D03*
X18538D02*
D03*
X21078D02*
D03*
X23618D02*
D03*
X26158D02*
D03*
X8380Y2030D02*
D03*
X10920D02*
D03*
X13460D02*
D03*
X16000D02*
D03*
X18540D02*
D03*
X21080D02*
D03*
X23620D02*
D03*
X26160D02*
D03*
D72*
X26000Y8800D02*
D03*
D73*
X5838Y27430D02*
D03*
Y29970D02*
D03*
X5840Y2030D02*
D03*
D74*
X27500Y25600D02*
D03*
Y24350D02*
D03*
D75*
X2732Y14320D02*
D03*
X6912D02*
D03*
X2732Y5680D02*
D03*
X6912D02*
D03*
D76*
X6412Y12890D02*
D03*
Y7110D02*
D03*
X30100Y18300D02*
D03*
Y15300D02*
D03*
X2506Y29506D02*
D03*
Y2506D02*
D03*
X29506D02*
D03*
Y29506D02*
D03*
D77*
X17617Y16072D02*
D03*
X15450Y13900D02*
D03*
Y15000D02*
D03*
Y16100D02*
D03*
X16550D02*
D03*
Y15000D02*
D03*
Y13900D02*
D03*
X17650D02*
D03*
Y15000D02*
D03*
M02*
