G04*
G04 #@! TF.GenerationSoftware,Altium Limited,Altium Designer,23.8.1 (32)*
G04*
G04 Layer_Physical_Order=2*
G04 Layer_Color=36540*
%FSLAX43Y43*%
%MOMM*%
G71*
G04*
G04 #@! TF.SameCoordinates,8A790615-D0E5-43D8-8956-367088579B57*
G04*
G04*
G04 #@! TF.FilePolarity,Positive*
G04*
G01*
G75*
%ADD77C,0.600*%
%ADD81C,1.200*%
%ADD83R,1.200X1.200*%
G36*
X28923Y31429D02*
X28559Y31278D01*
X28231Y31059D01*
X27952Y30781D01*
X27734Y30453D01*
X27583Y30089D01*
X27506Y29703D01*
Y29309D01*
X27583Y28923D01*
X27734Y28559D01*
X27952Y28231D01*
X28231Y27952D01*
X28559Y27734D01*
X28923Y27583D01*
X29309Y27506D01*
X29703D01*
X30089Y27583D01*
X30453Y27734D01*
X30781Y27952D01*
X31059Y28231D01*
X31278Y28559D01*
X31429Y28923D01*
X31548Y28889D01*
Y3123D01*
X31429Y3089D01*
X31278Y3453D01*
X31059Y3781D01*
X30781Y4060D01*
X30453Y4278D01*
X30089Y4429D01*
X29703Y4506D01*
X29309D01*
X28923Y4429D01*
X28559Y4278D01*
X28231Y4060D01*
X27952Y3781D01*
X27734Y3453D01*
X27583Y3089D01*
X27506Y2703D01*
Y2309D01*
X27583Y1923D01*
X27734Y1559D01*
X27952Y1231D01*
X28231Y952D01*
X28559Y734D01*
X28923Y583D01*
X28888Y465D01*
X3124D01*
X3089Y583D01*
X3453Y734D01*
X3781Y952D01*
X4060Y1231D01*
X4278Y1559D01*
X4429Y1923D01*
X4506Y2309D01*
Y2703D01*
X4429Y3089D01*
X4278Y3453D01*
X4060Y3781D01*
X3781Y4060D01*
X3453Y4278D01*
X3089Y4429D01*
X2703Y4506D01*
X2309D01*
X1923Y4429D01*
X1559Y4278D01*
X1231Y4060D01*
X952Y3781D01*
X734Y3453D01*
X583Y3089D01*
X465Y3124D01*
Y16282D01*
X547Y16345D01*
X731D01*
X909Y16393D01*
X1069Y16485D01*
X1199Y16615D01*
X1291Y16775D01*
X1339Y16953D01*
Y17137D01*
X1291Y17315D01*
X1199Y17475D01*
X1069Y17605D01*
X909Y17697D01*
X731Y17745D01*
X547D01*
X465Y17808D01*
Y18082D01*
X547Y18145D01*
X731D01*
X909Y18193D01*
X1069Y18285D01*
X1199Y18415D01*
X1291Y18575D01*
X1339Y18753D01*
Y18937D01*
X1291Y19115D01*
X1199Y19275D01*
X1069Y19405D01*
X909Y19497D01*
X731Y19545D01*
X547D01*
X465Y19608D01*
Y20787D01*
X547Y20850D01*
X731D01*
X909Y20898D01*
X1069Y20990D01*
X1199Y21120D01*
X1291Y21280D01*
X1339Y21458D01*
Y21642D01*
X1291Y21820D01*
X1199Y21980D01*
X1069Y22110D01*
X909Y22202D01*
X731Y22250D01*
X547D01*
X465Y22313D01*
Y22587D01*
X547Y22650D01*
X731D01*
X909Y22698D01*
X1069Y22790D01*
X1199Y22920D01*
X1291Y23080D01*
X1339Y23258D01*
Y23442D01*
X1291Y23620D01*
X1199Y23780D01*
X1069Y23910D01*
X909Y24002D01*
X731Y24050D01*
X547D01*
X465Y24113D01*
Y25287D01*
X547Y25350D01*
X731D01*
X909Y25398D01*
X1069Y25490D01*
X1199Y25620D01*
X1291Y25780D01*
X1339Y25958D01*
Y26142D01*
X1291Y26320D01*
X1199Y26480D01*
X1069Y26610D01*
X909Y26702D01*
X731Y26750D01*
X547D01*
X465Y26813D01*
Y28888D01*
X583Y28923D01*
X734Y28559D01*
X952Y28231D01*
X1231Y27952D01*
X1559Y27734D01*
X1923Y27583D01*
X2309Y27506D01*
X2703D01*
X3089Y27583D01*
X3453Y27734D01*
X3781Y27952D01*
X4060Y28231D01*
X4278Y28559D01*
X4429Y28923D01*
X4506Y29309D01*
Y29703D01*
X4429Y30089D01*
X4278Y30453D01*
X4060Y30781D01*
X3781Y31059D01*
X3453Y31278D01*
X3089Y31429D01*
X3123Y31548D01*
X28889D01*
X28923Y31429D01*
D02*
G37*
%LPC*%
G36*
X18868Y30813D02*
Y30300D01*
X19381D01*
X19376Y30317D01*
X19258Y30523D01*
X19090Y30690D01*
X18885Y30809D01*
X18868Y30813D01*
D02*
G37*
G36*
X18208D02*
X18190Y30809D01*
X17985Y30690D01*
X17818Y30523D01*
X17699Y30317D01*
X17694Y30300D01*
X18208D01*
Y30813D01*
D02*
G37*
G36*
X11248D02*
Y30300D01*
X11761D01*
X11756Y30317D01*
X11638Y30523D01*
X11470Y30690D01*
X11265Y30809D01*
X11248Y30813D01*
D02*
G37*
G36*
X10588D02*
X10570Y30809D01*
X10365Y30690D01*
X10198Y30523D01*
X10079Y30317D01*
X10074Y30300D01*
X10588D01*
Y30813D01*
D02*
G37*
G36*
X19381Y29640D02*
X18868D01*
Y29127D01*
X18885Y29131D01*
X19090Y29250D01*
X19258Y29417D01*
X19376Y29623D01*
X19381Y29640D01*
D02*
G37*
G36*
X18208D02*
X17694D01*
X17699Y29623D01*
X17818Y29417D01*
X17985Y29250D01*
X18190Y29131D01*
X18208Y29127D01*
Y29640D01*
D02*
G37*
G36*
X11761D02*
X11248D01*
Y29127D01*
X11265Y29131D01*
X11470Y29250D01*
X11638Y29417D01*
X11756Y29623D01*
X11761Y29640D01*
D02*
G37*
G36*
X10588D02*
X10074D01*
X10079Y29623D01*
X10198Y29417D01*
X10365Y29250D01*
X10570Y29131D01*
X10588Y29127D01*
Y29640D01*
D02*
G37*
G36*
X26289Y30970D02*
X26026D01*
X25772Y30902D01*
X25544Y30770D01*
X25358Y30584D01*
X25226Y30356D01*
X25158Y30102D01*
Y29838D01*
X25226Y29584D01*
X25358Y29356D01*
X25544Y29170D01*
X25772Y29038D01*
X26026Y28970D01*
X26289D01*
X26544Y29038D01*
X26772Y29170D01*
X26958Y29356D01*
X27090Y29584D01*
X27158Y29838D01*
Y30102D01*
X27090Y30356D01*
X26958Y30584D01*
X26772Y30770D01*
X26544Y30902D01*
X26289Y30970D01*
D02*
G37*
G36*
X23749D02*
X23486D01*
X23232Y30902D01*
X23004Y30770D01*
X22818Y30584D01*
X22686Y30356D01*
X22618Y30102D01*
Y29838D01*
X22686Y29584D01*
X22818Y29356D01*
X23004Y29170D01*
X23232Y29038D01*
X23486Y28970D01*
X23749D01*
X24004Y29038D01*
X24232Y29170D01*
X24418Y29356D01*
X24550Y29584D01*
X24618Y29838D01*
Y30102D01*
X24550Y30356D01*
X24418Y30584D01*
X24232Y30770D01*
X24004Y30902D01*
X23749Y30970D01*
D02*
G37*
G36*
X21209D02*
X20946D01*
X20692Y30902D01*
X20464Y30770D01*
X20278Y30584D01*
X20146Y30356D01*
X20078Y30102D01*
Y29838D01*
X20146Y29584D01*
X20278Y29356D01*
X20464Y29170D01*
X20692Y29038D01*
X20946Y28970D01*
X21209D01*
X21464Y29038D01*
X21692Y29170D01*
X21878Y29356D01*
X22010Y29584D01*
X22078Y29838D01*
Y30102D01*
X22010Y30356D01*
X21878Y30584D01*
X21692Y30770D01*
X21464Y30902D01*
X21209Y30970D01*
D02*
G37*
G36*
X16129D02*
X15866D01*
X15612Y30902D01*
X15384Y30770D01*
X15198Y30584D01*
X15066Y30356D01*
X14998Y30102D01*
Y29838D01*
X15066Y29584D01*
X15198Y29356D01*
X15384Y29170D01*
X15612Y29038D01*
X15866Y28970D01*
X16129D01*
X16384Y29038D01*
X16612Y29170D01*
X16798Y29356D01*
X16930Y29584D01*
X16998Y29838D01*
Y30102D01*
X16930Y30356D01*
X16798Y30584D01*
X16612Y30770D01*
X16384Y30902D01*
X16129Y30970D01*
D02*
G37*
G36*
X13589D02*
X13326D01*
X13072Y30902D01*
X12844Y30770D01*
X12658Y30584D01*
X12526Y30356D01*
X12458Y30102D01*
Y29838D01*
X12526Y29584D01*
X12658Y29356D01*
X12844Y29170D01*
X13072Y29038D01*
X13326Y28970D01*
X13589D01*
X13844Y29038D01*
X14072Y29170D01*
X14258Y29356D01*
X14390Y29584D01*
X14458Y29838D01*
Y30102D01*
X14390Y30356D01*
X14258Y30584D01*
X14072Y30770D01*
X13844Y30902D01*
X13589Y30970D01*
D02*
G37*
G36*
X8509D02*
X8246D01*
X7992Y30902D01*
X7764Y30770D01*
X7578Y30584D01*
X7446Y30356D01*
X7378Y30102D01*
Y29838D01*
X7446Y29584D01*
X7578Y29356D01*
X7764Y29170D01*
X7992Y29038D01*
X8246Y28970D01*
X8509D01*
X8764Y29038D01*
X8992Y29170D01*
X9178Y29356D01*
X9310Y29584D01*
X9378Y29838D01*
Y30102D01*
X9310Y30356D01*
X9178Y30584D01*
X8992Y30770D01*
X8764Y30902D01*
X8509Y30970D01*
D02*
G37*
G36*
X6838D02*
X4838D01*
Y28970D01*
X6838D01*
Y30970D01*
D02*
G37*
G36*
X18669Y28430D02*
X18406D01*
X18152Y28362D01*
X17924Y28230D01*
X17738Y28044D01*
X17606Y27816D01*
X17538Y27562D01*
Y27298D01*
X17606Y27044D01*
X17738Y26816D01*
X17924Y26630D01*
X18152Y26498D01*
X18406Y26430D01*
X18669D01*
X18924Y26498D01*
X19152Y26630D01*
X19338Y26816D01*
X19470Y27044D01*
X19538Y27298D01*
Y27562D01*
X19470Y27816D01*
X19338Y28044D01*
X19152Y28230D01*
X18924Y28362D01*
X18669Y28430D01*
D02*
G37*
G36*
X16129D02*
X15866D01*
X15612Y28362D01*
X15384Y28230D01*
X15198Y28044D01*
X15066Y27816D01*
X14998Y27562D01*
Y27298D01*
X15066Y27044D01*
X15198Y26816D01*
X15384Y26630D01*
X15612Y26498D01*
X15866Y26430D01*
X16129D01*
X16384Y26498D01*
X16612Y26630D01*
X16798Y26816D01*
X16930Y27044D01*
X16998Y27298D01*
Y27562D01*
X16930Y27816D01*
X16798Y28044D01*
X16612Y28230D01*
X16384Y28362D01*
X16129Y28430D01*
D02*
G37*
G36*
X13589D02*
X13326D01*
X13072Y28362D01*
X12844Y28230D01*
X12658Y28044D01*
X12526Y27816D01*
X12458Y27562D01*
Y27298D01*
X12526Y27044D01*
X12658Y26816D01*
X12844Y26630D01*
X13072Y26498D01*
X13326Y26430D01*
X13589D01*
X13844Y26498D01*
X14072Y26630D01*
X14258Y26816D01*
X14390Y27044D01*
X14458Y27298D01*
Y27562D01*
X14390Y27816D01*
X14258Y28044D01*
X14072Y28230D01*
X13844Y28362D01*
X13589Y28430D01*
D02*
G37*
G36*
X11049D02*
X10786D01*
X10532Y28362D01*
X10304Y28230D01*
X10118Y28044D01*
X9986Y27816D01*
X9918Y27562D01*
Y27298D01*
X9986Y27044D01*
X10118Y26816D01*
X10304Y26630D01*
X10532Y26498D01*
X10786Y26430D01*
X11049D01*
X11304Y26498D01*
X11532Y26630D01*
X11718Y26816D01*
X11850Y27044D01*
X11918Y27298D01*
Y27562D01*
X11850Y27816D01*
X11718Y28044D01*
X11532Y28230D01*
X11304Y28362D01*
X11049Y28430D01*
D02*
G37*
G36*
X8509D02*
X8246D01*
X7992Y28362D01*
X7764Y28230D01*
X7578Y28044D01*
X7446Y27816D01*
X7378Y27562D01*
Y27298D01*
X7446Y27044D01*
X7578Y26816D01*
X7764Y26630D01*
X7992Y26498D01*
X8246Y26430D01*
X8509D01*
X8764Y26498D01*
X8992Y26630D01*
X9178Y26816D01*
X9310Y27044D01*
X9378Y27298D01*
Y27562D01*
X9310Y27816D01*
X9178Y28044D01*
X8992Y28230D01*
X8764Y28362D01*
X8509Y28430D01*
D02*
G37*
G36*
X6838D02*
X4838D01*
Y26430D01*
X6838D01*
Y28430D01*
D02*
G37*
G36*
X20092Y26450D02*
X19908D01*
X19730Y26402D01*
X19570Y26310D01*
X19440Y26180D01*
X19348Y26020D01*
X19300Y25842D01*
Y25658D01*
X19348Y25480D01*
X19440Y25320D01*
X19570Y25190D01*
X19730Y25098D01*
X19908Y25050D01*
X20092D01*
X20270Y25098D01*
X20430Y25190D01*
X20560Y25320D01*
X20652Y25480D01*
X20700Y25658D01*
Y25842D01*
X20652Y26020D01*
X20560Y26180D01*
X20430Y26310D01*
X20270Y26402D01*
X20092Y26450D01*
D02*
G37*
G36*
X11492Y26150D02*
X11308D01*
X11130Y26102D01*
X10970Y26010D01*
X10840Y25880D01*
X10748Y25720D01*
X10700Y25542D01*
Y25358D01*
X10748Y25180D01*
X10840Y25020D01*
X10970Y24890D01*
X11130Y24798D01*
X11308Y24750D01*
X11492D01*
X11670Y24798D01*
X11830Y24890D01*
X11960Y25020D01*
X12052Y25180D01*
X12100Y25358D01*
Y25542D01*
X12052Y25720D01*
X11960Y25880D01*
X11830Y26010D01*
X11670Y26102D01*
X11492Y26150D01*
D02*
G37*
G36*
X14984Y24605D02*
X14800D01*
X14622Y24557D01*
X14479Y24474D01*
X14362Y24542D01*
X14184Y24590D01*
X14000D01*
X13822Y24542D01*
X13662Y24450D01*
X13532Y24319D01*
X13440Y24160D01*
X13392Y23982D01*
Y23846D01*
X13337Y23831D01*
X13177Y23739D01*
X13047Y23609D01*
X12955Y23449D01*
X12907Y23271D01*
Y23087D01*
X12930Y23002D01*
X12887Y22859D01*
X12728Y22767D01*
X12597Y22636D01*
X12505Y22477D01*
X12458Y22299D01*
Y22114D01*
X12505Y21936D01*
X12597Y21777D01*
X12728Y21646D01*
X12887Y21554D01*
X13065Y21506D01*
X13250D01*
X13428Y21554D01*
X13587Y21646D01*
X13718Y21777D01*
X13810Y21936D01*
X13858Y22114D01*
Y22299D01*
X13835Y22384D01*
X13877Y22527D01*
X14037Y22619D01*
X14167Y22749D01*
X14259Y22909D01*
X14307Y23087D01*
Y23222D01*
X14362Y23237D01*
X14416Y23268D01*
X14525Y23184D01*
X14500Y23092D01*
Y22908D01*
X14548Y22730D01*
X14640Y22570D01*
X14770Y22440D01*
X14930Y22348D01*
X15108Y22300D01*
X15292D01*
X15470Y22348D01*
X15630Y22440D01*
X15760Y22570D01*
X15852Y22730D01*
X15900Y22908D01*
Y23092D01*
X15852Y23270D01*
X15760Y23430D01*
X15630Y23560D01*
X15533Y23616D01*
X15544Y23634D01*
X15592Y23812D01*
Y23997D01*
X15544Y24175D01*
X15452Y24334D01*
X15322Y24465D01*
X15162Y24557D01*
X14984Y24605D01*
D02*
G37*
G36*
X16586Y25424D02*
X16402D01*
X16224Y25376D01*
X16064Y25284D01*
X15934Y25154D01*
X15842Y24994D01*
X15794Y24816D01*
Y24632D01*
X15842Y24454D01*
X15934Y24294D01*
X16064Y24164D01*
X16224Y24072D01*
X16402Y24024D01*
X16586D01*
X16764Y24072D01*
X16924Y24164D01*
X17054Y24294D01*
X17147Y24454D01*
X17194Y24632D01*
Y24816D01*
X17147Y24994D01*
X17054Y25154D01*
X16924Y25284D01*
X16764Y25376D01*
X16586Y25424D01*
D02*
G37*
G36*
X22192Y25235D02*
X22008D01*
X21830Y25187D01*
X21670Y25095D01*
X21540Y24965D01*
X21448Y24805D01*
X21400Y24627D01*
Y24443D01*
X21448Y24265D01*
X21540Y24105D01*
X21670Y23975D01*
X21830Y23883D01*
X22008Y23835D01*
X22192D01*
X22370Y23883D01*
X22530Y23975D01*
X22660Y24105D01*
X22752Y24265D01*
X22800Y24443D01*
Y24627D01*
X22752Y24805D01*
X22660Y24965D01*
X22530Y25095D01*
X22370Y25187D01*
X22192Y25235D01*
D02*
G37*
G36*
X27618Y26500D02*
X27382D01*
X27153Y26439D01*
X26947Y26320D01*
X26780Y26153D01*
X26661Y25947D01*
X26600Y25718D01*
Y25482D01*
X26661Y25253D01*
X26780Y25047D01*
X26852Y24975D01*
X26780Y24903D01*
X26661Y24697D01*
X26600Y24468D01*
Y24232D01*
X26661Y24003D01*
X26780Y23797D01*
X26947Y23630D01*
X27153Y23511D01*
X27382Y23450D01*
X27618D01*
X27847Y23511D01*
X28053Y23630D01*
X28220Y23797D01*
X28339Y24003D01*
X28400Y24232D01*
Y24468D01*
X28339Y24697D01*
X28220Y24903D01*
X28148Y24975D01*
X28220Y25047D01*
X28339Y25253D01*
X28400Y25482D01*
Y25718D01*
X28339Y25947D01*
X28220Y26153D01*
X28053Y26320D01*
X27847Y26439D01*
X27618Y26500D01*
D02*
G37*
G36*
X6142Y24650D02*
X5958D01*
X5780Y24602D01*
X5620Y24510D01*
X5490Y24380D01*
X5398Y24220D01*
X5350Y24042D01*
Y23858D01*
X5398Y23680D01*
X5490Y23520D01*
X5620Y23390D01*
X5780Y23298D01*
X5958Y23250D01*
X6142D01*
X6320Y23298D01*
X6480Y23390D01*
X6610Y23520D01*
X6702Y23680D01*
X6750Y23858D01*
Y24042D01*
X6702Y24220D01*
X6610Y24380D01*
X6480Y24510D01*
X6320Y24602D01*
X6142Y24650D01*
D02*
G37*
G36*
X19842Y24400D02*
X19658D01*
X19480Y24352D01*
X19320Y24260D01*
X19190Y24130D01*
X19098Y23970D01*
X19050Y23792D01*
Y23608D01*
X19098Y23430D01*
X19190Y23270D01*
X19320Y23140D01*
X19480Y23048D01*
X19658Y23000D01*
X19842D01*
X20020Y23048D01*
X20180Y23140D01*
X20310Y23270D01*
X20402Y23430D01*
X20450Y23608D01*
Y23792D01*
X20402Y23970D01*
X20310Y24130D01*
X20180Y24260D01*
X20020Y24352D01*
X19842Y24400D01*
D02*
G37*
G36*
X24592Y23950D02*
X24408D01*
X24230Y23902D01*
X24070Y23810D01*
X23940Y23680D01*
X23848Y23520D01*
X23800Y23342D01*
Y23158D01*
X23848Y22980D01*
X23940Y22820D01*
X24070Y22690D01*
X24230Y22598D01*
X24408Y22550D01*
X24592D01*
X24770Y22598D01*
X24930Y22690D01*
X25060Y22820D01*
X25152Y22980D01*
X25200Y23158D01*
Y23342D01*
X25152Y23520D01*
X25060Y23680D01*
X24930Y23810D01*
X24770Y23902D01*
X24592Y23950D01*
D02*
G37*
G36*
X12692Y21250D02*
X12508D01*
X12330Y21202D01*
X12170Y21110D01*
X12150Y21090D01*
X12130Y21110D01*
X11970Y21202D01*
X11792Y21250D01*
X11608D01*
X11430Y21202D01*
X11270Y21110D01*
X11140Y20980D01*
X11048Y20820D01*
X11000Y20642D01*
Y20458D01*
X11048Y20280D01*
X11140Y20120D01*
X11270Y19990D01*
X11430Y19898D01*
X11608Y19850D01*
X11792D01*
X11970Y19898D01*
X12130Y19990D01*
X12150Y20010D01*
X12170Y19990D01*
X12330Y19898D01*
X12508Y19850D01*
X12692D01*
X12870Y19898D01*
X13030Y19990D01*
X13160Y20120D01*
X13252Y20280D01*
X13300Y20458D01*
Y20642D01*
X13252Y20820D01*
X13160Y20980D01*
X13030Y21110D01*
X12870Y21202D01*
X12692Y21250D01*
D02*
G37*
G36*
X15102Y21236D02*
X14918D01*
X14740Y21189D01*
X14581Y21097D01*
X14450Y20966D01*
X14358Y20807D01*
X14310Y20629D01*
Y20444D01*
X14358Y20266D01*
X14450Y20107D01*
X14581Y19976D01*
X14740Y19884D01*
X14918Y19836D01*
X15102D01*
X15281Y19884D01*
X15440Y19976D01*
X15570Y20107D01*
X15663Y20266D01*
X15710Y20444D01*
Y20629D01*
X15663Y20807D01*
X15570Y20966D01*
X15440Y21097D01*
X15281Y21189D01*
X15102Y21236D01*
D02*
G37*
G36*
X20342Y21600D02*
X20158D01*
X19980Y21552D01*
X19820Y21460D01*
X19690Y21330D01*
X19598Y21170D01*
X19550Y20992D01*
Y20808D01*
X19598Y20630D01*
X19690Y20470D01*
X19756Y20405D01*
X19760Y20389D01*
X19732Y20250D01*
X19631Y20192D01*
X19501Y20061D01*
X19409Y19902D01*
X19361Y19724D01*
Y19539D01*
X19409Y19361D01*
X19501Y19202D01*
X19631Y19071D01*
X19791Y18979D01*
X19969Y18931D01*
X20153D01*
X20331Y18979D01*
X20491Y19071D01*
X20621Y19202D01*
X20713Y19361D01*
X20761Y19539D01*
Y19724D01*
X20713Y19902D01*
X20621Y20061D01*
X20556Y20127D01*
X20551Y20142D01*
X20579Y20282D01*
X20680Y20340D01*
X20810Y20470D01*
X20902Y20630D01*
X20950Y20808D01*
Y20992D01*
X20902Y21170D01*
X20810Y21330D01*
X20680Y21460D01*
X20520Y21552D01*
X20342Y21600D01*
D02*
G37*
G36*
X14608Y19263D02*
X14424D01*
X14246Y19215D01*
X14086Y19123D01*
X13956Y18992D01*
X13871Y18845D01*
X13774Y18871D01*
X13590D01*
X13412Y18823D01*
X13252Y18731D01*
X13122Y18600D01*
X13030Y18441D01*
X12982Y18263D01*
Y18078D01*
X13030Y17900D01*
X13122Y17741D01*
X13252Y17611D01*
X13412Y17518D01*
X13590Y17471D01*
X13774D01*
X13952Y17518D01*
X14112Y17611D01*
X14242Y17741D01*
X14327Y17888D01*
X14424Y17863D01*
X14608D01*
X14786Y17910D01*
X14946Y18002D01*
X15076Y18133D01*
X15168Y18292D01*
X15216Y18470D01*
Y18655D01*
X15168Y18833D01*
X15076Y18992D01*
X14946Y19123D01*
X14786Y19215D01*
X14608Y19263D01*
D02*
G37*
G36*
X30212Y19150D02*
X29988D01*
X29772Y19092D01*
X29578Y18980D01*
X29420Y18822D01*
X29308Y18628D01*
X29250Y18412D01*
Y18188D01*
X29308Y17972D01*
X29420Y17778D01*
X29578Y17620D01*
X29772Y17508D01*
X29988Y17450D01*
X30212D01*
X30428Y17508D01*
X30622Y17620D01*
X30780Y17778D01*
X30892Y17972D01*
X30950Y18188D01*
Y18412D01*
X30892Y18628D01*
X30780Y18822D01*
X30622Y18980D01*
X30428Y19092D01*
X30212Y19150D01*
D02*
G37*
G36*
X19792Y18700D02*
X19608D01*
X19430Y18652D01*
X19270Y18560D01*
X19140Y18430D01*
X19048Y18270D01*
X19000Y18092D01*
Y17908D01*
X19048Y17730D01*
X19140Y17570D01*
X19270Y17440D01*
X19430Y17348D01*
X19608Y17300D01*
X19792D01*
X19970Y17348D01*
X20130Y17440D01*
X20260Y17570D01*
X20352Y17730D01*
X20400Y17908D01*
Y18092D01*
X20352Y18270D01*
X20260Y18430D01*
X20130Y18560D01*
X19970Y18652D01*
X19792Y18700D01*
D02*
G37*
G36*
X12134Y18526D02*
X11950D01*
X11772Y18479D01*
X11612Y18387D01*
X11482Y18256D01*
X11390Y18097D01*
X11342Y17919D01*
Y17734D01*
X11390Y17556D01*
X11482Y17397D01*
X11612Y17266D01*
X11743Y17191D01*
Y17042D01*
X11790Y16864D01*
X11883Y16704D01*
X12013Y16574D01*
X12173Y16482D01*
X12351Y16434D01*
X12535D01*
X12713Y16482D01*
X12873Y16574D01*
X13003Y16704D01*
X13095Y16864D01*
X13143Y17042D01*
Y17226D01*
X13095Y17404D01*
X13003Y17564D01*
X12873Y17694D01*
X12742Y17770D01*
Y17919D01*
X12694Y18097D01*
X12602Y18256D01*
X12472Y18387D01*
X12312Y18479D01*
X12134Y18526D01*
D02*
G37*
G36*
X10604Y17649D02*
X10420D01*
X10242Y17601D01*
X10082Y17509D01*
X9952Y17378D01*
X9860Y17219D01*
X9812Y17041D01*
Y16950D01*
X9808D01*
X9630Y16902D01*
X9470Y16810D01*
X9340Y16680D01*
X9248Y16520D01*
X9200Y16342D01*
Y16158D01*
X9248Y15980D01*
X9340Y15820D01*
X9470Y15690D01*
X9630Y15598D01*
X9808Y15550D01*
X9992D01*
X10170Y15598D01*
X10330Y15690D01*
X10460Y15820D01*
X10552Y15980D01*
X10600Y16158D01*
Y16249D01*
X10604D01*
X10782Y16296D01*
X10942Y16388D01*
X11072Y16519D01*
X11164Y16678D01*
X11212Y16856D01*
Y17041D01*
X11164Y17219D01*
X11072Y17378D01*
X10942Y17509D01*
X10782Y17601D01*
X10604Y17649D01*
D02*
G37*
G36*
X21042Y17300D02*
X20858D01*
X20680Y17252D01*
X20520Y17160D01*
X20390Y17030D01*
X20298Y16870D01*
X20279Y16800D01*
X20208D01*
X20030Y16752D01*
X19870Y16660D01*
X19740Y16530D01*
X19648Y16370D01*
X19600Y16192D01*
Y16008D01*
X19648Y15830D01*
X19740Y15670D01*
X19870Y15540D01*
X20030Y15448D01*
X20208Y15400D01*
X20250D01*
Y15258D01*
X20298Y15080D01*
X20390Y14920D01*
X20520Y14790D01*
X20680Y14698D01*
X20858Y14650D01*
X21042D01*
X21220Y14698D01*
X21380Y14790D01*
X21510Y14920D01*
X21602Y15080D01*
X21650Y15258D01*
Y15442D01*
X21602Y15620D01*
X21510Y15780D01*
X21391Y15899D01*
X21377Y15962D01*
Y15988D01*
X21391Y16051D01*
X21510Y16170D01*
X21602Y16330D01*
X21650Y16508D01*
Y16692D01*
X21602Y16870D01*
X21510Y17030D01*
X21380Y17160D01*
X21220Y17252D01*
X21042Y17300D01*
D02*
G37*
G36*
X30212Y16150D02*
X29988D01*
X29772Y16092D01*
X29578Y15980D01*
X29420Y15822D01*
X29308Y15628D01*
X29250Y15412D01*
Y15188D01*
X29308Y14972D01*
X29420Y14778D01*
X29578Y14620D01*
X29772Y14508D01*
X29988Y14450D01*
X30212D01*
X30428Y14508D01*
X30622Y14620D01*
X30780Y14778D01*
X30892Y14972D01*
X30950Y15188D01*
Y15412D01*
X30892Y15628D01*
X30780Y15822D01*
X30622Y15980D01*
X30428Y16092D01*
X30212Y16150D01*
D02*
G37*
G36*
X21142Y14250D02*
X20958D01*
X20780Y14202D01*
X20620Y14110D01*
X20490Y13980D01*
X20430Y13876D01*
X20342Y13900D01*
X20158D01*
X19980Y13852D01*
X19820Y13760D01*
X19690Y13630D01*
X19598Y13470D01*
X19550Y13292D01*
Y13126D01*
X19507Y13075D01*
X19441Y13023D01*
X19342Y13050D01*
X19158D01*
X18980Y13002D01*
X18820Y12910D01*
X18690Y12780D01*
X18598Y12620D01*
X18550Y12442D01*
Y12258D01*
X18598Y12080D01*
X18690Y11920D01*
X18820Y11790D01*
X18980Y11698D01*
X19158Y11650D01*
X19342D01*
X19520Y11698D01*
X19680Y11790D01*
X19810Y11920D01*
X19902Y12080D01*
X19950Y12258D01*
Y12424D01*
X19993Y12475D01*
X20059Y12527D01*
X20158Y12500D01*
X20342D01*
X20520Y12548D01*
X20680Y12640D01*
X20810Y12770D01*
X20870Y12874D01*
X20958Y12850D01*
X21142D01*
X21320Y12898D01*
X21480Y12990D01*
X21610Y13120D01*
X21702Y13280D01*
X21750Y13458D01*
Y13642D01*
X21702Y13820D01*
X21610Y13980D01*
X21480Y14110D01*
X21320Y14202D01*
X21142Y14250D01*
D02*
G37*
G36*
X3132Y15228D02*
X2332D01*
X2097Y15197D01*
X1878Y15106D01*
X1690Y14962D01*
X1546Y14774D01*
X1455Y14555D01*
X1424Y14320D01*
X1455Y14085D01*
X1546Y13866D01*
X1690Y13678D01*
X1878Y13534D01*
X2097Y13443D01*
X2332Y13412D01*
X3132D01*
X3367Y13443D01*
X3586Y13534D01*
X3774Y13678D01*
X3918Y13866D01*
X4009Y14085D01*
X4040Y14320D01*
X4009Y14555D01*
X3918Y14774D01*
X3774Y14962D01*
X3586Y15106D01*
X3367Y15197D01*
X3132Y15228D01*
D02*
G37*
G36*
X9992Y14550D02*
X9808D01*
X9630Y14502D01*
X9470Y14410D01*
X9340Y14280D01*
X9248Y14120D01*
X9200Y13942D01*
Y13758D01*
X9101Y13637D01*
X9012D01*
X8834Y13589D01*
X8674Y13497D01*
X8544Y13366D01*
X8452Y13207D01*
X8404Y13029D01*
Y12844D01*
X8452Y12666D01*
X8544Y12507D01*
X8674Y12376D01*
X8834Y12284D01*
X9012Y12237D01*
X9196D01*
X9374Y12284D01*
X9534Y12376D01*
X9664Y12507D01*
X9756Y12666D01*
X9804Y12844D01*
Y13029D01*
X9903Y13150D01*
X9992D01*
X10170Y13198D01*
X10330Y13290D01*
X10460Y13420D01*
X10552Y13580D01*
X10600Y13758D01*
Y13942D01*
X10552Y14120D01*
X10460Y14280D01*
X10330Y14410D01*
X10170Y14502D01*
X9992Y14550D01*
D02*
G37*
G36*
X7312Y15228D02*
X6512D01*
X6277Y15197D01*
X6058Y15106D01*
X5870Y14962D01*
X5726Y14774D01*
X5635Y14555D01*
X5604Y14320D01*
X5635Y14085D01*
X5726Y13866D01*
X5870Y13678D01*
X5957Y13611D01*
X5964Y13505D01*
X5952Y13455D01*
X5832Y13335D01*
X5736Y13170D01*
X5687Y12985D01*
Y12795D01*
X5736Y12610D01*
X5832Y12445D01*
X5967Y12310D01*
X6132Y12214D01*
X6316Y12165D01*
X6507D01*
X6692Y12214D01*
X6857Y12310D01*
X6992Y12445D01*
X7087Y12610D01*
X7137Y12795D01*
Y12985D01*
X7087Y13170D01*
X7021Y13285D01*
X7084Y13412D01*
X7312D01*
X7547Y13443D01*
X7766Y13534D01*
X7954Y13678D01*
X8098Y13866D01*
X8189Y14085D01*
X8220Y14320D01*
X8189Y14555D01*
X8098Y14774D01*
X7954Y14962D01*
X7766Y15106D01*
X7547Y15197D01*
X7312Y15228D01*
D02*
G37*
G36*
X25642Y12000D02*
X25458D01*
X25280Y11952D01*
X25120Y11860D01*
X24990Y11730D01*
X24898Y11570D01*
X24850Y11392D01*
Y11208D01*
X24898Y11030D01*
X24990Y10870D01*
X25120Y10740D01*
X25280Y10648D01*
X25458Y10600D01*
X25642D01*
X25820Y10648D01*
X25980Y10740D01*
X26110Y10870D01*
X26202Y11030D01*
X26250Y11208D01*
Y11392D01*
X26202Y11570D01*
X26110Y11730D01*
X25980Y11860D01*
X25820Y11952D01*
X25642Y12000D01*
D02*
G37*
G36*
X17331Y11425D02*
X17146D01*
X16968Y11377D01*
X16809Y11285D01*
X16678Y11155D01*
X16586Y10995D01*
X16539Y10817D01*
Y10633D01*
X16586Y10455D01*
X16678Y10295D01*
X16809Y10165D01*
X16968Y10073D01*
X17146Y10025D01*
X17331D01*
X17509Y10073D01*
X17668Y10165D01*
X17799Y10295D01*
X17891Y10455D01*
X17939Y10633D01*
Y10817D01*
X17891Y10995D01*
X17799Y11155D01*
X17668Y11285D01*
X17509Y11377D01*
X17331Y11425D01*
D02*
G37*
G36*
X12237Y15100D02*
X12053D01*
X11875Y15052D01*
X11715Y14960D01*
X11585Y14830D01*
X11493Y14670D01*
X11445Y14492D01*
Y14308D01*
X11493Y14130D01*
X11585Y13970D01*
X11715Y13840D01*
X11736Y13828D01*
X11700Y13692D01*
Y13508D01*
X11748Y13330D01*
X11834Y13180D01*
X11771Y13071D01*
X11724Y12893D01*
Y12708D01*
X11771Y12530D01*
X11863Y12371D01*
X11994Y12240D01*
X12153Y12148D01*
X12331Y12100D01*
X12454D01*
X12531Y11980D01*
X12509Y11940D01*
X12461Y11762D01*
Y11578D01*
X12509Y11400D01*
X12601Y11240D01*
X12731Y11110D01*
X12891Y11018D01*
X13009Y10986D01*
X13076Y10926D01*
X13090Y10843D01*
X13058Y10721D01*
Y10537D01*
X13106Y10359D01*
X13198Y10199D01*
X13328Y10069D01*
X13488Y9977D01*
X13666Y9929D01*
X13850D01*
X14028Y9977D01*
X14188Y10069D01*
X14318Y10199D01*
X14410Y10359D01*
X14458Y10537D01*
Y10721D01*
X14410Y10899D01*
X14318Y11059D01*
X14188Y11189D01*
X14028Y11282D01*
X13910Y11313D01*
X13842Y11374D01*
X13828Y11456D01*
X13861Y11578D01*
Y11762D01*
X13813Y11940D01*
X13734Y12078D01*
X13805Y12200D01*
X13852Y12378D01*
Y12562D01*
X13805Y12740D01*
X13712Y12900D01*
X13582Y13030D01*
X13422Y13123D01*
X13244Y13170D01*
X13107D01*
X13037Y13266D01*
X13031Y13292D01*
X13052Y13330D01*
X13100Y13508D01*
Y13692D01*
X13052Y13870D01*
X12960Y14030D01*
X12830Y14160D01*
X12809Y14172D01*
X12845Y14308D01*
Y14492D01*
X12797Y14670D01*
X12705Y14830D01*
X12575Y14960D01*
X12415Y15052D01*
X12237Y15100D01*
D02*
G37*
G36*
X11640Y11578D02*
X11456D01*
X11278Y11530D01*
X11118Y11438D01*
X10988Y11307D01*
X10896Y11148D01*
X10848Y10970D01*
Y10785D01*
X10896Y10607D01*
X10988Y10448D01*
X11040Y10396D01*
X11017Y10357D01*
X10969Y10179D01*
Y9995D01*
X11017Y9817D01*
X11109Y9657D01*
X11239Y9527D01*
X11399Y9434D01*
X11577Y9387D01*
X11761D01*
X11939Y9434D01*
X12099Y9527D01*
X12229Y9657D01*
X12321Y9817D01*
X12369Y9995D01*
Y10179D01*
X12321Y10357D01*
X12229Y10517D01*
X12178Y10568D01*
X12201Y10607D01*
X12248Y10785D01*
Y10970D01*
X12201Y11148D01*
X12108Y11307D01*
X11978Y11438D01*
X11818Y11530D01*
X11640Y11578D01*
D02*
G37*
G36*
X4692Y9650D02*
X4508D01*
X4330Y9602D01*
X4170Y9510D01*
X4040Y9380D01*
X3948Y9220D01*
X3900Y9042D01*
Y8858D01*
X3948Y8680D01*
X4040Y8520D01*
X4170Y8390D01*
X4330Y8298D01*
X4508Y8250D01*
X4629D01*
X4648Y8180D01*
X4740Y8020D01*
X4870Y7890D01*
X5030Y7798D01*
X5208Y7750D01*
X5392D01*
X5570Y7798D01*
X5730Y7890D01*
X5860Y8020D01*
X5952Y8180D01*
X6000Y8358D01*
Y8542D01*
X5952Y8720D01*
X5860Y8880D01*
X5730Y9010D01*
X5570Y9102D01*
X5392Y9150D01*
X5271D01*
X5252Y9220D01*
X5160Y9380D01*
X5030Y9510D01*
X4870Y9602D01*
X4692Y9650D01*
D02*
G37*
G36*
X27000Y9800D02*
X25000D01*
Y7800D01*
X25764D01*
X25781Y7673D01*
X25653Y7639D01*
X25447Y7520D01*
X25280Y7353D01*
X25161Y7147D01*
X25157Y7130D01*
X26000D01*
X26843D01*
X26839Y7147D01*
X26720Y7353D01*
X26553Y7520D01*
X26347Y7639D01*
X26219Y7673D01*
X26236Y7800D01*
X27000D01*
Y9800D01*
D02*
G37*
G36*
X8989Y7462D02*
X8804D01*
X8626Y7414D01*
X8467Y7322D01*
X8336Y7192D01*
X8244Y7032D01*
X8196Y6854D01*
Y6670D01*
X8244Y6492D01*
X8336Y6332D01*
X8467Y6202D01*
X8626Y6110D01*
X8804Y6062D01*
X8989D01*
X9167Y6110D01*
X9326Y6202D01*
X9457Y6332D01*
X9549Y6492D01*
X9596Y6670D01*
Y6854D01*
X9549Y7032D01*
X9457Y7192D01*
X9326Y7322D01*
X9167Y7414D01*
X8989Y7462D01*
D02*
G37*
G36*
X26843Y6470D02*
X26330D01*
Y5957D01*
X26347Y5961D01*
X26553Y6080D01*
X26720Y6247D01*
X26839Y6453D01*
X26843Y6470D01*
D02*
G37*
G36*
X25670D02*
X25157D01*
X25161Y6453D01*
X25280Y6247D01*
X25447Y6080D01*
X25653Y5961D01*
X25670Y5957D01*
Y6470D01*
D02*
G37*
G36*
X13092Y7000D02*
X12908D01*
X12730Y6952D01*
X12570Y6860D01*
X12440Y6730D01*
X12348Y6570D01*
X12300Y6392D01*
Y6208D01*
X12348Y6030D01*
X12440Y5870D01*
X12570Y5740D01*
X12730Y5648D01*
X12908Y5600D01*
X13092D01*
X13270Y5648D01*
X13430Y5740D01*
X13560Y5870D01*
X13652Y6030D01*
X13700Y6208D01*
Y6392D01*
X13652Y6570D01*
X13560Y6730D01*
X13430Y6860D01*
X13270Y6952D01*
X13092Y7000D01*
D02*
G37*
G36*
X29042Y7400D02*
X28858D01*
X28680Y7352D01*
X28520Y7260D01*
X28390Y7130D01*
X28344Y7050D01*
X28258D01*
X28080Y7002D01*
X27920Y6910D01*
X27790Y6780D01*
X27698Y6620D01*
X27650Y6442D01*
Y6258D01*
X27698Y6080D01*
X27744Y6000D01*
X27698Y5920D01*
X27650Y5742D01*
Y5558D01*
X27698Y5380D01*
X27790Y5220D01*
X27920Y5090D01*
X28080Y4998D01*
X28258Y4950D01*
X28442D01*
X28620Y4998D01*
X28780Y5090D01*
X28910Y5220D01*
X28956Y5300D01*
X29042D01*
X29220Y5348D01*
X29380Y5440D01*
X29510Y5570D01*
X29602Y5730D01*
X29650Y5908D01*
Y6092D01*
X29602Y6270D01*
X29556Y6350D01*
X29602Y6430D01*
X29650Y6608D01*
Y6792D01*
X29602Y6970D01*
X29510Y7130D01*
X29380Y7260D01*
X29220Y7352D01*
X29042Y7400D01*
D02*
G37*
G36*
X21292Y6250D02*
X21108D01*
X20930Y6202D01*
X20770Y6110D01*
X20640Y5980D01*
X20548Y5820D01*
X20500Y5642D01*
Y5458D01*
X20548Y5280D01*
X20640Y5120D01*
X20770Y4990D01*
X20930Y4898D01*
X21108Y4850D01*
X21292D01*
X21470Y4898D01*
X21630Y4990D01*
X21760Y5120D01*
X21852Y5280D01*
X21900Y5458D01*
Y5642D01*
X21852Y5820D01*
X21760Y5980D01*
X21630Y6110D01*
X21470Y6202D01*
X21292Y6250D01*
D02*
G37*
G36*
X6507Y7835D02*
X6316D01*
X6132Y7786D01*
X5967Y7690D01*
X5832Y7555D01*
X5736Y7390D01*
X5687Y7205D01*
Y7015D01*
X5736Y6830D01*
X5832Y6665D01*
X5952Y6545D01*
X5964Y6495D01*
X5957Y6389D01*
X5870Y6322D01*
X5726Y6134D01*
X5635Y5915D01*
X5604Y5680D01*
X5635Y5445D01*
X5726Y5226D01*
X5870Y5038D01*
X6058Y4894D01*
X6277Y4803D01*
X6512Y4772D01*
X7312D01*
X7547Y4803D01*
X7766Y4894D01*
X7954Y5038D01*
X8098Y5226D01*
X8189Y5445D01*
X8220Y5680D01*
X8189Y5915D01*
X8098Y6134D01*
X7954Y6322D01*
X7766Y6466D01*
X7547Y6557D01*
X7312Y6588D01*
X7084D01*
X7021Y6715D01*
X7087Y6830D01*
X7137Y7015D01*
Y7205D01*
X7087Y7390D01*
X6992Y7555D01*
X6857Y7690D01*
X6692Y7786D01*
X6507Y7835D01*
D02*
G37*
G36*
X3132Y6588D02*
X2332D01*
X2097Y6557D01*
X1878Y6466D01*
X1690Y6322D01*
X1546Y6134D01*
X1455Y5915D01*
X1424Y5680D01*
X1455Y5445D01*
X1546Y5226D01*
X1690Y5038D01*
X1878Y4894D01*
X2097Y4803D01*
X2332Y4772D01*
X3132D01*
X3367Y4803D01*
X3586Y4894D01*
X3774Y5038D01*
X3918Y5226D01*
X4009Y5445D01*
X4040Y5680D01*
X4009Y5915D01*
X3918Y6134D01*
X3774Y6322D01*
X3586Y6466D01*
X3367Y6557D01*
X3132Y6588D01*
D02*
G37*
G36*
X6740Y2930D02*
X6170D01*
Y2360D01*
X6740D01*
Y2930D01*
D02*
G37*
G36*
X5510D02*
X4940D01*
Y2360D01*
X5510D01*
Y2930D01*
D02*
G37*
G36*
X6740Y1700D02*
X6170D01*
Y1130D01*
X6740D01*
Y1700D01*
D02*
G37*
G36*
X5510D02*
X4940D01*
Y1130D01*
X5510D01*
Y1700D01*
D02*
G37*
G36*
X26292Y3030D02*
X26028D01*
X25774Y2962D01*
X25546Y2830D01*
X25360Y2644D01*
X25228Y2416D01*
X25160Y2162D01*
Y1898D01*
X25228Y1644D01*
X25360Y1416D01*
X25546Y1230D01*
X25774Y1098D01*
X26028Y1030D01*
X26292D01*
X26546Y1098D01*
X26774Y1230D01*
X26960Y1416D01*
X27092Y1644D01*
X27160Y1898D01*
Y2162D01*
X27092Y2416D01*
X26960Y2644D01*
X26774Y2830D01*
X26546Y2962D01*
X26292Y3030D01*
D02*
G37*
G36*
X23752D02*
X23488D01*
X23234Y2962D01*
X23006Y2830D01*
X22820Y2644D01*
X22688Y2416D01*
X22620Y2162D01*
Y1898D01*
X22688Y1644D01*
X22820Y1416D01*
X23006Y1230D01*
X23234Y1098D01*
X23488Y1030D01*
X23752D01*
X24006Y1098D01*
X24234Y1230D01*
X24420Y1416D01*
X24552Y1644D01*
X24620Y1898D01*
Y2162D01*
X24552Y2416D01*
X24420Y2644D01*
X24234Y2830D01*
X24006Y2962D01*
X23752Y3030D01*
D02*
G37*
G36*
X21212D02*
X20948D01*
X20694Y2962D01*
X20466Y2830D01*
X20280Y2644D01*
X20148Y2416D01*
X20080Y2162D01*
Y1898D01*
X20148Y1644D01*
X20280Y1416D01*
X20466Y1230D01*
X20694Y1098D01*
X20948Y1030D01*
X21212D01*
X21466Y1098D01*
X21694Y1230D01*
X21880Y1416D01*
X22012Y1644D01*
X22080Y1898D01*
Y2162D01*
X22012Y2416D01*
X21880Y2644D01*
X21694Y2830D01*
X21466Y2962D01*
X21212Y3030D01*
D02*
G37*
G36*
X18672D02*
X18408D01*
X18154Y2962D01*
X17926Y2830D01*
X17740Y2644D01*
X17608Y2416D01*
X17540Y2162D01*
Y1898D01*
X17608Y1644D01*
X17740Y1416D01*
X17926Y1230D01*
X18154Y1098D01*
X18408Y1030D01*
X18672D01*
X18926Y1098D01*
X19154Y1230D01*
X19340Y1416D01*
X19472Y1644D01*
X19540Y1898D01*
Y2162D01*
X19472Y2416D01*
X19340Y2644D01*
X19154Y2830D01*
X18926Y2962D01*
X18672Y3030D01*
D02*
G37*
G36*
X16132D02*
X15868D01*
X15614Y2962D01*
X15386Y2830D01*
X15200Y2644D01*
X15068Y2416D01*
X15000Y2162D01*
Y1898D01*
X15068Y1644D01*
X15200Y1416D01*
X15386Y1230D01*
X15614Y1098D01*
X15868Y1030D01*
X16132D01*
X16386Y1098D01*
X16614Y1230D01*
X16800Y1416D01*
X16932Y1644D01*
X17000Y1898D01*
Y2162D01*
X16932Y2416D01*
X16800Y2644D01*
X16614Y2830D01*
X16386Y2962D01*
X16132Y3030D01*
D02*
G37*
G36*
X13592D02*
X13328D01*
X13074Y2962D01*
X12846Y2830D01*
X12660Y2644D01*
X12528Y2416D01*
X12460Y2162D01*
Y1898D01*
X12528Y1644D01*
X12660Y1416D01*
X12846Y1230D01*
X13074Y1098D01*
X13328Y1030D01*
X13592D01*
X13846Y1098D01*
X14074Y1230D01*
X14260Y1416D01*
X14392Y1644D01*
X14460Y1898D01*
Y2162D01*
X14392Y2416D01*
X14260Y2644D01*
X14074Y2830D01*
X13846Y2962D01*
X13592Y3030D01*
D02*
G37*
G36*
X11052D02*
X10788D01*
X10534Y2962D01*
X10306Y2830D01*
X10120Y2644D01*
X9988Y2416D01*
X9920Y2162D01*
Y1898D01*
X9988Y1644D01*
X10120Y1416D01*
X10306Y1230D01*
X10534Y1098D01*
X10788Y1030D01*
X11052D01*
X11306Y1098D01*
X11534Y1230D01*
X11720Y1416D01*
X11852Y1644D01*
X11920Y1898D01*
Y2162D01*
X11852Y2416D01*
X11720Y2644D01*
X11534Y2830D01*
X11306Y2962D01*
X11052Y3030D01*
D02*
G37*
G36*
X8512D02*
X8248D01*
X7994Y2962D01*
X7766Y2830D01*
X7580Y2644D01*
X7448Y2416D01*
X7380Y2162D01*
Y1898D01*
X7448Y1644D01*
X7580Y1416D01*
X7766Y1230D01*
X7994Y1098D01*
X8248Y1030D01*
X8512D01*
X8766Y1098D01*
X8994Y1230D01*
X9180Y1416D01*
X9312Y1644D01*
X9380Y1898D01*
Y2162D01*
X9312Y2416D01*
X9180Y2644D01*
X8994Y2830D01*
X8766Y2962D01*
X8512Y3030D01*
D02*
G37*
%LPD*%
D77*
X17617Y16072D02*
D03*
X15450Y13900D02*
D03*
Y15000D02*
D03*
Y16100D02*
D03*
X16550D02*
D03*
Y15000D02*
D03*
Y13900D02*
D03*
X17650D02*
D03*
Y15000D02*
D03*
X2300Y24700D02*
D03*
X11000Y23500D02*
D03*
X19750Y22800D02*
D03*
X26200Y13450D02*
D03*
X26550Y12850D02*
D03*
X27250D02*
D03*
X26900Y13450D02*
D03*
X24400Y13731D02*
D03*
X20700Y19150D02*
D03*
X13200Y7750D02*
D03*
X16200Y20950D02*
D03*
X5900Y12200D02*
D03*
X11350Y11750D02*
D03*
X8950Y16250D02*
D03*
X16839Y11418D02*
D03*
X14407Y11140D02*
D03*
X5700Y17700D02*
D03*
X2750Y20050D02*
D03*
X19560Y27837D02*
D03*
X8550Y5600D02*
D03*
X8500Y14400D02*
D03*
X10718Y7615D02*
D03*
X30900Y5650D02*
D03*
D81*
X26000Y6800D02*
D03*
X10918Y29970D02*
D03*
X18538D02*
D03*
D83*
X5840Y2030D02*
D03*
M02*
