G04*
G04 #@! TF.GenerationSoftware,Altium Limited,Altium Designer,23.8.1 (32)*
G04*
G04 Layer_Color=16711935*
%FSLAX43Y43*%
%MOMM*%
G71*
G04*
G04 #@! TF.SameCoordinates,8A790615-D0E5-43D8-8956-367088579B57*
G04*
G04*
G04 #@! TF.FilePolarity,Negative*
G04*
G01*
G75*
G04:AMPARAMS|DCode=49|XSize=0.55mm|YSize=0.65mm|CornerRadius=0.15mm|HoleSize=0mm|Usage=FLASHONLY|Rotation=0.000|XOffset=0mm|YOffset=0mm|HoleType=Round|Shape=RoundedRectangle|*
%AMROUNDEDRECTD49*
21,1,0.550,0.350,0,0,0.0*
21,1,0.250,0.650,0,0,0.0*
1,1,0.300,0.125,-0.175*
1,1,0.300,-0.125,-0.175*
1,1,0.300,-0.125,0.175*
1,1,0.300,0.125,0.175*
%
%ADD49ROUNDEDRECTD49*%
G04:AMPARAMS|DCode=50|XSize=0.75mm|YSize=1.05mm|CornerRadius=0.2mm|HoleSize=0mm|Usage=FLASHONLY|Rotation=270.000|XOffset=0mm|YOffset=0mm|HoleType=Round|Shape=RoundedRectangle|*
%AMROUNDEDRECTD50*
21,1,0.750,0.650,0,0,270.0*
21,1,0.350,1.050,0,0,270.0*
1,1,0.400,-0.325,-0.175*
1,1,0.400,-0.325,0.175*
1,1,0.400,0.325,0.175*
1,1,0.400,0.325,-0.175*
%
%ADD50ROUNDEDRECTD50*%
G04:AMPARAMS|DCode=51|XSize=0.55mm|YSize=0.65mm|CornerRadius=0.15mm|HoleSize=0mm|Usage=FLASHONLY|Rotation=270.000|XOffset=0mm|YOffset=0mm|HoleType=Round|Shape=RoundedRectangle|*
%AMROUNDEDRECTD51*
21,1,0.550,0.350,0,0,270.0*
21,1,0.250,0.650,0,0,270.0*
1,1,0.300,-0.175,-0.125*
1,1,0.300,-0.175,0.125*
1,1,0.300,0.175,0.125*
1,1,0.300,0.175,-0.125*
%
%ADD51ROUNDEDRECTD51*%
G04:AMPARAMS|DCode=52|XSize=0.75mm|YSize=1.05mm|CornerRadius=0.2mm|HoleSize=0mm|Usage=FLASHONLY|Rotation=0.000|XOffset=0mm|YOffset=0mm|HoleType=Round|Shape=RoundedRectangle|*
%AMROUNDEDRECTD52*
21,1,0.750,0.650,0,0,0.0*
21,1,0.350,1.050,0,0,0.0*
1,1,0.400,0.175,-0.325*
1,1,0.400,-0.175,-0.325*
1,1,0.400,-0.175,0.325*
1,1,0.400,0.175,0.325*
%
%ADD52ROUNDEDRECTD52*%
%ADD59R,0.650X0.850*%
%ADD64R,0.550X0.650*%
G04:AMPARAMS|DCode=65|XSize=0.3mm|YSize=0.45mm|CornerRadius=0.088mm|HoleSize=0mm|Usage=FLASHONLY|Rotation=0.000|XOffset=0mm|YOffset=0mm|HoleType=Round|Shape=RoundedRectangle|*
%AMROUNDEDRECTD65*
21,1,0.300,0.275,0,0,0.0*
21,1,0.125,0.450,0,0,0.0*
1,1,0.175,0.063,-0.138*
1,1,0.175,-0.063,-0.138*
1,1,0.175,-0.063,0.138*
1,1,0.175,0.063,0.138*
%
%ADD65ROUNDEDRECTD65*%
%ADD66R,0.650X0.550*%
%ADD68R,0.850X0.350*%
%ADD69R,0.350X0.850*%
%ADD70R,1.550X1.550*%
%ADD71C,1.250*%
%ADD72R,1.250X1.250*%
%ADD73R,1.250X1.250*%
%ADD74C,1.050*%
%ADD75O,1.850X1.050*%
%ADD76C,0.050*%
%ADD94R,0.400X1.650*%
%ADD95R,2.200X1.050*%
%ADD96R,2.200X3.350*%
%ADD97O,1.450X0.650*%
%ADD98R,0.650X1.050*%
D49*
X10550Y6800D02*
D03*
X9550D02*
D03*
X16050Y10600D02*
D03*
X15050D02*
D03*
X16050Y11600D02*
D03*
X15050D02*
D03*
D50*
X14500Y5250D02*
D03*
Y6750D02*
D03*
X4600Y11750D02*
D03*
Y10250D02*
D03*
D51*
X12600Y8750D02*
D03*
Y9750D02*
D03*
X11500Y8750D02*
D03*
Y7750D02*
D03*
X6900Y15750D02*
D03*
Y16750D02*
D03*
D52*
X13650Y9500D02*
D03*
X15150D02*
D03*
X21800Y27600D02*
D03*
X23300D02*
D03*
X19200Y20550D02*
D03*
X17700D02*
D03*
D59*
X30600Y12400D02*
D03*
X28250D02*
D03*
D64*
X2743Y26050D02*
D03*
X1743D02*
D03*
X24100Y20400D02*
D03*
X23100D02*
D03*
X2743Y23355D02*
D03*
X1743D02*
D03*
X2743Y21555D02*
D03*
X1743D02*
D03*
X10550Y5700D02*
D03*
X9550D02*
D03*
X2743Y18855D02*
D03*
X1743D02*
D03*
X2743Y17055D02*
D03*
X1743D02*
D03*
D65*
X13900Y24998D02*
D03*
X14400D02*
D03*
X14900D02*
D03*
X15400D02*
D03*
X13900Y26000D02*
D03*
X14400Y26000D02*
D03*
X14900D02*
D03*
X15400D02*
D03*
D66*
X8378Y25800D02*
D03*
Y24800D02*
D03*
X7200Y25850D02*
D03*
Y24850D02*
D03*
X5400Y25850D02*
D03*
Y24850D02*
D03*
X16150Y23250D02*
D03*
Y22250D02*
D03*
X20700Y18300D02*
D03*
Y17300D02*
D03*
X11100Y14400D02*
D03*
Y13400D02*
D03*
X5705Y15750D02*
D03*
Y16750D02*
D03*
D68*
X10300Y11250D02*
D03*
Y10750D02*
D03*
Y10250D02*
D03*
Y9750D02*
D03*
Y9250D02*
D03*
Y8750D02*
D03*
X6300D02*
D03*
Y9250D02*
D03*
Y9750D02*
D03*
Y10250D02*
D03*
Y10750D02*
D03*
Y11250D02*
D03*
D69*
X9550Y8000D02*
D03*
X9050D02*
D03*
X8550D02*
D03*
X8050D02*
D03*
X7550D02*
D03*
X7050D02*
D03*
Y12000D02*
D03*
X7550D02*
D03*
X8050D02*
D03*
X8550D02*
D03*
X9050D02*
D03*
X9550D02*
D03*
D70*
X8300Y10000D02*
D03*
D71*
X26000Y6800D02*
D03*
X18538Y27430D02*
D03*
X15998D02*
D03*
X13458D02*
D03*
X10918D02*
D03*
X8378D02*
D03*
Y29970D02*
D03*
X10918D02*
D03*
X13458D02*
D03*
X15998D02*
D03*
X18538D02*
D03*
X21078D02*
D03*
X23618D02*
D03*
X26158D02*
D03*
X8380Y2030D02*
D03*
X10920D02*
D03*
X13460D02*
D03*
X16000D02*
D03*
X18540D02*
D03*
X21080D02*
D03*
X23620D02*
D03*
X26160D02*
D03*
D72*
X26000Y8800D02*
D03*
D73*
X5838Y27430D02*
D03*
Y29970D02*
D03*
X5840Y2030D02*
D03*
D74*
X27500Y25600D02*
D03*
Y24350D02*
D03*
D75*
X2732Y14320D02*
D03*
X6912D02*
D03*
X2732Y5680D02*
D03*
X6912D02*
D03*
D76*
X6412Y12890D02*
D03*
Y7110D02*
D03*
X30100Y18300D02*
D03*
Y15300D02*
D03*
X2506Y29506D02*
D03*
Y2506D02*
D03*
X29506D02*
D03*
Y29506D02*
D03*
D94*
X25625Y20900D02*
D03*
X26275D02*
D03*
X26925D02*
D03*
X25625Y15300D02*
D03*
X26275D02*
D03*
X26925D02*
D03*
X27575Y20900D02*
D03*
Y15300D02*
D03*
D95*
X16975Y4900D02*
D03*
Y7200D02*
D03*
Y9500D02*
D03*
D96*
X22825Y7200D02*
D03*
D97*
X23300Y25805D02*
D03*
Y24535D02*
D03*
Y23265D02*
D03*
Y21995D02*
D03*
X17700Y25805D02*
D03*
Y24535D02*
D03*
Y23265D02*
D03*
Y21995D02*
D03*
D98*
X24050Y18650D02*
D03*
X23100D02*
D03*
X22150D02*
D03*
Y15950D02*
D03*
X23100D02*
D03*
X24050D02*
D03*
M02*
