M48
;Layer_Color=9474304
;FILE_FORMAT=4:3
METRIC,LZ
;TYPE=PLATED
T01F00S00C0.300
T02F00S00C0.600
T04F00S00C0.700
T05F00S00C0.900
T06F00S00C3.200
;TYPE=NON_PLATED
T07F00S00C0.650
%
T01
X00046Y000895
X00053Y000845
X00059Y00122
X0009104Y0012937
X00099Y001385
X00085Y00144
X000895Y001625
X00099
X0010512Y0016949
X0012443Y0017134
X0012042Y0017826
X0013682Y0018171
X0014516Y0018563
X001501Y0020536
X00162Y002095
X00152Y0023
X0014892Y0023905
X0014092Y002389
X0013607Y0023179
X0013158Y0022206
X00126Y002055
X00117
X0011Y00235
X00114Y002545
X0016494Y0024724
X001975Y00237
Y00228
X002025Y00209
X0020061Y0019631
X00207Y001915
X00197Y0018
X00203Y00161
X002095Y00166
Y001535
X002105Y001355
X002025Y00132
X001925Y001235
X001765Y00139
X001655
X001545
Y0015
Y00161
X001655
X0017617Y0016072
X001765Y0015
X001655
X0016839Y0011418
X0017239Y0010725
X0014407Y001114
X0013758Y0010629
X0013161Y001167
X0013152Y001247
X0012424Y00128
X00124Y00136
X0012145Y00144
X001135Y001175
X0011548Y0010878
X0011669Y0010087
X0010718Y0007615
X00132Y000775
X0013Y00063
X0008896Y0006762
X000855Y00056
X00212Y000555
X002835Y000565
Y000635
X002895Y0006
Y00067
X00309Y000565
X002725Y001285
X002655
X00262Y001345
X00269
X00244Y0013731
X002555Y00113
X00245Y002325
X00221Y0024535
X002Y002575
X001956Y0027837
X000605Y002395
X00023Y00247
X0000639Y002605
Y002335
Y002155
Y0018845
Y0017045
X000275Y002005
X00057Y00177
T02
X00275Y002435
Y00256
T04
X000584Y000203
X000838
X001092
X001346
X0016
X001854
X002108
X002362
X002616
X0026Y00068
Y00088
X0026158Y002997
X0023618
X0021078
X0018538
Y002743
X0015998
X0013458
X0010918
X0008378
X0005838
Y002997
X0008378
X0010918
X0013458
X0015998
T05
X00301Y00153
Y00183
T06
X0002506Y0002506
Y0029506
X0029506
Y0002506
T07
X0006412Y000711
Y001289
M30
